<?xml version="1.0" encoding="utf-8"?>
<!-- Generator: Adobe Illustrator 16.0.0, SVG Export Plug-In . SVG Version: 6.00 Build 0)  -->
<!DOCTYPE svg PUBLIC "-//W3C//DTD SVG 1.1//EN" "http://www.w3.org/Graphics/SVG/1.1/DTD/svg11.dtd">
<svg xmlns="http://www.w3.org/2000/svg" xmlns:xlink="http://www.w3.org/1999/xlink" version="1.1" id="Layer_1" x="0px" y="0px" width="853px" height="248.5px" viewBox="0 0 853 248.5" enable-background="new 0 0 853 248.5" xml:space="preserve">
<defs>
	<rect id="SVGID_1_" x="223" y="51.502" width="850.553" height="250.5"/>
</defs>
<clipPath id="SVGID_2_">
	<use xlink:href="#SVGID_1_"  overflow="visible"/>
</clipPath>
<g clip-path="url(#SVGID_2_)" transform="translate(-223, -52)">
	<defs>
		<rect id="SVGID_3_" width="1280" height="2465"/>
	</defs>
	<clipPath id="SVGID_4_">
		<use xlink:href="#SVGID_3_"  overflow="visible"/>
	</clipPath>
	
	<rect x="223" y="51.502" clip-path="url(#SVGID_4_)" fill="#008AC3" width="851" height="249.5"/>
	<g clip-path="url(#SVGID_4_)">
		<defs>
			<rect id="SVGID_87_" y="0.002" width="1280" height="2464.998"/>
		</defs>
		<clipPath id="SVGID_88_">
			<use xlink:href="#SVGID_87_"  overflow="visible"/>
		</clipPath>
		<path clip-path="url(#SVGID_88_)" fill="#FFFFFF" d="M1038.178,135.082l-38.096,22.548c0,0-41.503,13.019-53.269,21.254
			c-13.804,9.661-17.83,1.579-37.198,10.826c-6.783,3.239-5.841,7.045-19.316,10.922c-0.001-0.016-0.005-0.034-0.01-0.045
			c-0.06-0.104-0.125-0.203-0.184-0.307c-0.028-0.052-0.057-0.109-0.063-0.167c-0.04-0.332-0.069-0.666-0.11-0.998
			c-0.019-0.159-0.047-0.319-0.088-0.474c-0.075-0.28-0.105-0.56-0.075-0.849c0.008-0.074-0.037-0.152-0.052-0.229
			c-0.031-0.156-0.057-0.312-0.089-0.468c-0.009-0.048-0.026-0.097-0.045-0.143c-0.132-0.32-0.106-0.638,0.085-0.913
			c0.125-0.181,0.311-0.324,0.486-0.461c0.04-0.032,0.154,0.023,0.23,0.049c0.038,0.014,0.066,0.054,0.099,0.081
			c0.014-0.011,0.025-0.022,0.037-0.033c-0.054-0.059-0.104-0.124-0.163-0.177c-0.139-0.124-0.162-0.289-0.048-0.481
			c0.042,0.055,0.081,0.103,0.126,0.161c0.017-0.013,0.055-0.03,0.055-0.046c0-0.142,0.085-0.241,0.207-0.365
			c-0.131,0.017-0.213,0.028-0.289,0.039c-0.048-0.068,0.042-0.169-0.071-0.201c0.015-0.029,0.028-0.059,0.033-0.066
			c-0.089-0.162-0.207-0.31-0.252-0.477c-0.063-0.239-0.234-0.369-0.406-0.501c-0.074-0.057-0.093-0.087-0.044-0.165
			c0.085-0.137,0.029-0.212-0.099-0.306c-0.147-0.109-0.26-0.271-0.377-0.419c-0.066-0.086-0.113-0.189-0.166-0.286
			c-0.217-0.408-0.624-0.485-1.018-0.553c-0.419-0.073-0.84-0.017-1.252,0.093c-0.169,0.045-0.339,0.088-0.508,0.133
			c-0.078,0.021-0.113-0.003-0.143-0.083c-0.18-0.504-0.369-1.004-0.548-1.508c-0.01-0.027,0.029-0.098,0.062-0.112
			c0.411-0.17,0.827-0.33,1.28-0.399c-0.065-0.007-0.132-0.018-0.196-0.019c-0.161-0.002-0.321-0.006-0.481,0.004
			c-0.088,0.005-0.178,0.028-0.261,0.06c-0.185,0.069-0.398,0.05-0.558,0.198c-0.241,0.225-0.421,0.491-0.508,0.807
			c-0.035,0.13-0.07,0.146-0.17,0.07c-0.058,0.08-0.062,0.132,0.035,0.182c0.049,0.026,0.095,0.092,0.107,0.146
			c0.043,0.195,0.064,0.393,0.211,0.55c0.021,0.023-0.017,0.118-0.047,0.168c-0.037,0.059-0.073,0.096-0.01,0.166
			c0.063,0.068,0.018,0.159-0.078,0.168c-0.054,0.004-0.108-0.009-0.162-0.02c-0.113-0.021-0.221-0.029-0.284,0.089
			c0.144,0.027,0.295,0.038,0.433,0.086c0.092,0.032,0.171,0.111,0.248,0.178c0.021,0.019,0.015,0.069,0.022,0.104
			c-0.033,0.005-0.069,0.022-0.1,0.014c-0.221-0.059-0.223-0.061-0.307,0.149c-0.06,0.149-0.107,0.302-0.168,0.45
			c-0.116,0.283,0.018,0.553,0.022,0.852c0.04-0.028,0.061-0.047,0.084-0.058c0.042-0.018,0.085-0.031,0.128-0.047
			c0.015,0.042,0.024,0.086,0.044,0.125c0.104,0.215-0.011,0.387-0.13,0.573c0.085,0.014,0.15,0.025,0.218,0.037
			c-0.062,0.069-0.141,0.132-0.021,0.218c0.02,0.013,0.014,0.056,0.025,0.084c0.026,0.074,0.062,0.146,0.082,0.222
			c0.012,0.045,0.008,0.098-0.003,0.144c-0.024,0.105-0.043,0.214-0.091,0.309c-0.036,0.075-0.104,0.144-0.173,0.194
			c-0.098,0.071-0.107,0.224-0.092,0.344c0.024,0.178,0.193,0.356,0.004,0.552c-0.069,0.071-0.067,0.211-0.102,0.329
			c0.019,0.009,0.048,0.021,0.08,0.034c-0.007,0.018-0.007,0.037-0.017,0.045c-0.122,0.097-0.143,0.171-0.02,0.247
			c0.148,0.093,0.137,0.213,0.132,0.349c-0.01,0.291,0.225,0.548,0.535,0.573c-0.022-0.048-0.041-0.087-0.06-0.127
			c0.178-0.098,0.179-0.14,0.11-0.348c-0.043-0.134-0.09-0.298-0.051-0.421c0.057-0.183,0.184-0.346,0.297-0.507
			c0.021-0.032,0.122-0.043,0.167-0.021c0.113,0.052,0.225,0.116,0.319,0.196c0.074,0.064,0.04,0.212-0.047,0.278
			c-0.151,0.117-0.191,0.285-0.109,0.454c0.112,0.231,0.101,0.477,0.077,0.722c-0.044,0.434-0.105,0.865-0.049,1.302
			c0.003,0.029,0.008,0.067-0.008,0.089c-0.141,0.22-0.049,0.435,0.014,0.649c0.067,0.237,0.142,0.458,0.352,0.632
			c0.036,0.03,0.048,0.078,0.071,0.118c-1.448,0.349-3.025,0.697-4.753,1.045c-0.026-0.054-0.062-0.104-0.096-0.157
			c-0.066-0.104-0.137-0.207-0.203-0.311c-0.107-0.164-0.228-0.32-0.314-0.493c-0.131-0.264-0.236-0.541-0.357-0.811
			c-0.11-0.248-0.228-0.493-0.342-0.74c-0.047-0.104-0.097-0.207-0.134-0.314c-0.066-0.194-0.124-0.39-0.182-0.587
			c-0.056-0.187-0.107-0.375-0.157-0.563c-0.073-0.277-0.151-0.553-0.211-0.832c-0.027-0.125-0.021-0.258-0.012-0.386
			c0.002-0.028,0.072-0.071,0.112-0.071c0.045-0.001,0.09,0.04,0.136,0.06c0.133,0.057,0.271,0.069,0.384-0.026
			c0.229-0.192,0.45-0.396,0.673-0.597c0.062-0.055,0.115-0.121,0.174-0.184c-0.06-0.029-0.096-0.085-0.042-0.19
			c0.07-0.134,0.124-0.26,0.027-0.433c-0.087-0.153-0.089-0.356-0.12-0.538c-0.02-0.121-0.007-0.128,0.08-0.13
			c-0.043-0.1-0.09-0.215-0.146-0.326c-0.024-0.052-0.073-0.094-0.095-0.146c-0.023-0.058-0.052-0.129-0.035-0.181
			c0.013-0.036,0.098-0.061,0.152-0.063c0.103-0.007,0.207,0.014,0.31,0.007c0.042-0.003,0.082-0.048,0.123-0.074
			c-0.006-0.011-0.011-0.021-0.016-0.033c-0.05,0.007-0.101,0.009-0.149,0.021c-0.159,0.039-0.257-0.092-0.384-0.142
			c-0.014-0.005-0.01-0.072-0.006-0.109c0.021-0.166,0.021-0.311-0.105-0.456c-0.096-0.111-0.119-0.282-0.192-0.416
			c-0.121-0.22-0.262-0.424-0.537-0.484c-0.064-0.013-0.128-0.077-0.167-0.135c-0.022-0.032,0.006-0.099,0.013-0.174
			c-0.243-0.287-0.516-0.608-0.784-0.932c-0.026-0.032-0.024-0.088-0.032-0.12c-0.057-0.02-0.114-0.03-0.164-0.058
			c-0.152-0.083-0.302-0.171-0.45-0.259c-0.046-0.027-0.087-0.065-0.134-0.09c-0.047-0.024-0.098-0.041-0.147-0.056
			c-0.088-0.027-0.185-0.036-0.265-0.078c-0.193-0.103-0.381-0.193-0.612-0.145c-0.093,0.02-0.209-0.035-0.291-0.001
			c-0.153,0.063-0.297,0.156-0.431,0.254c-0.128,0.094-0.237,0.212-0.358,0.314c-0.156,0.132-0.214,0.502-0.115,0.692
			c0.069,0.13,0.124,0.268,0.177,0.407c0.007,0.018-0.053,0.085-0.07,0.08c-0.461-0.103-0.805,0.209-0.879,0.621
			c-0.022,0.12,0.016,0.251,0.021,0.377c0.007,0.133,0.007,0.265,0.01,0.361c0.095,0.1,0.164,0.184,0.244,0.257
			c0.079,0.073,0.178,0.125,0.248,0.203c0.034,0.037,0.039,0.116,0.031,0.172c-0.036,0.234-0.096,0.466-0.119,0.701
			c-0.021,0.217-0.086,0.408-0.221,0.576c-0.019,0.022-0.031,0.05-0.052,0.083c0.026,0.003,0.042,0.01,0.052,0.005
			c0.05-0.027,0.119-0.092,0.143-0.078c0.102,0.06,0.19,0.142,0.278,0.222c0.005,0.005-0.038,0.091-0.064,0.095
			c-0.138,0.019-0.133,0.126-0.159,0.221c-0.014,0.047-0.054,0.09-0.09,0.127c-0.074,0.076-0.153,0.15-0.233,0.22
			c-0.06,0.051-0.122,0.098-0.188,0.142c-0.087,0.06-0.171,0.13-0.267,0.166c-0.055,0.021-0.142,0.001-0.197-0.031
			c-0.037-0.022-0.046-0.095-0.062-0.147c-0.049-0.16-0.106-0.179-0.25-0.099c-0.04,0.022-0.102,0.006-0.151,0.01
			c-0.046,0.004-0.092,0.013-0.137,0.02c0.008,0.04,0.009,0.083,0.025,0.119c0.051,0.107,0.068,0.248,0.238,0.237
			c0.009-0.001,0.025,0.046,0.032,0.072c0.047,0.178,0.055,0.366,0.222,0.502c0.064,0.051,0.076,0.175,0.097,0.27
			c0.04,0.192,0.081,0.378,0.234,0.521c0.058,0.052,0.081,0.121-0.037,0.148c-0.114,0.027-0.229,0.062-0.343,0.107
			c0.104,0.001,0.207,0.007,0.311,0.001c0.156-0.009,0.217,0.083,0.256,0.215c0.186,0.617,0.384,1.231,0.559,1.851
			c0.164,0.577,0.417,1.124,0.515,1.725c0.055,0.33,0.191,0.647,0.299,0.969c-0.776,0.134-1.569,0.269-2.395,0.402
			c-0.001-0.001-0.002-0.001-0.003-0.003c-0.054-0.119-0.165-0.214-0.257-0.314c-0.032-0.036-0.081-0.057-0.092-0.064
			c0.003-0.147,0.02-0.27,0.003-0.387c-0.009-0.063-0.075-0.118-0.114-0.177c-0.05-0.075-0.133-0.146-0.143-0.227
			c-0.041-0.344-0.262-0.579-0.461-0.829c-0.047-0.056-0.094-0.114-0.123-0.178c-0.079-0.166-0.149-0.337-0.228-0.519
			c0.042-0.037,0.047-0.234-0.051-0.278c-0.146-0.064-0.062-0.167-0.077-0.25c-0.009-0.046,0.023-0.1,0.016-0.147
			c-0.008-0.054-0.038-0.106-0.094-0.148c-0.001-0.082-0.013-0.167,0-0.247c0.023-0.149,0.059-0.297,0.092-0.444
			c0.037-0.159,0.07-0.32,0.122-0.474c0.021-0.065,0.075-0.141,0.135-0.166c0.169-0.071,0.347-0.121,0.522-0.171
			c0.025-0.007,0.076,0.027,0.094,0.056c0.066,0.103,0.123,0.213,0.185,0.32c0.015-0.006,0.029-0.012,0.046-0.018
			c-0.01-0.11-0.017-0.221-0.029-0.331c-0.01-0.083,0.008-0.137,0.073-0.205c0.148-0.155,0.353-0.276,0.387-0.52
			c0.003-0.021,0.053-0.054,0.073-0.05c0.032,0.008,0.073,0.037,0.083,0.067c0.019,0.055,0.019,0.116,0.027,0.176
			c0.191-0.22,0.183-0.297-0.067-0.431c-0.1-0.053-0.119-0.128-0.104-0.223c0.054-0.36-0.069-0.638-0.375-0.835
			c-0.14-0.09-0.227-0.227-0.185-0.382c0.072-0.268-0.081-0.395-0.26-0.527c-0.053-0.039-0.081-0.11-0.119-0.167
			c-0.015-0.023-0.021-0.058-0.041-0.072c-0.321-0.249-0.581-0.556-0.797-0.893c-0.119-0.185-0.211-0.393-0.411-0.493
			c-0.193-0.098-0.409-0.148-0.615-0.217c-0.063-0.021-0.147-0.016-0.191-0.057c-0.192-0.176-0.436-0.129-0.656-0.151
			c-0.069-0.006-0.171,0.107-0.223,0.187c-0.141,0.214-0.267,0.437-0.387,0.662c-0.089,0.165,0.06,0.451,0.219,0.534
			c0.115,0.06,0.197,0.185,0.291,0.283c0.008,0.008,0.002,0.047-0.009,0.052c-0.023,0.013-0.059,0.025-0.08,0.017
			c-0.04-0.018-0.072-0.052-0.109-0.077c-0.203-0.136-0.302-0.159-0.537,0.015c-0.121,0.088-0.2,0.047-0.279-0.05
			c-0.172-0.211-0.392-0.307-0.662-0.248c-0.088,0.019-0.174,0.067-0.251,0.117c-0.127,0.083-0.165,0.053-0.269-0.047
			c-0.183-0.177-0.211-0.41-0.3-0.623c-0.042-0.103-0.15-0.182-0.236-0.263c-0.076-0.071-0.186-0.114-0.239-0.196
			c-0.139-0.215-0.351-0.234-0.572-0.267c-0.195-0.029-0.387-0.114-0.583-0.124c-0.123-0.007-0.281,0.045-0.369,0.129
			c-0.187,0.177-0.335,0.394-0.504,0.591c-0.029,0.035-0.077,0.055-0.117,0.081c-0.023,0.014-0.047,0.025-0.071,0.038
			c0.015,0.027,0.025,0.071,0.046,0.078c0.15,0.049,0.18,0.167,0.195,0.303c0.017,0.156,0.128,0.308,0.013,0.47
			c-0.012,0.018-0.002,0.064,0.014,0.086c0.113,0.159,0.077,0.312-0.001,0.472c-0.019,0.039,0.021,0.103,0.014,0.151
			c-0.011,0.068-0.025,0.181-0.062,0.19c-0.065,0.02-0.177,0.004-0.222-0.043c-0.222-0.232-0.647-0.343-0.93-0.205
			c-0.073,0.036-0.137,0.118-0.177,0.193c-0.12,0.228-0.229,0.465-0.052,0.714c0.043,0.061,0.108,0.114,0.174,0.15
			c0.184,0.105,0.197,0.153,0.132,0.344c-0.062,0.188-0.11,0.381-0.153,0.574c-0.031,0.144-0.079,0.259-0.202,0.363
			c-0.133,0.113-0.219,0.282-0.332,0.422c-0.053,0.065-0.12,0.119-0.185,0.174c-0.157,0.133-0.303,0.097-0.466-0.028
			c-0.227,0.131-0.249,0.341-0.123,0.565c0.085,0.152,0.115,0.347,0.13,0.525c0.03,0.402,0.037,0.806,0.051,1.209
			c0.011,0.386,0.016,0.771,0.024,1.157c0.009,0.356,0.022,0.713,0.027,1.07c0.006,0.456,0.008,0.913,0.003,1.369
			c0,0.039-0.06,0.104-0.101,0.112c-0.182,0.035-0.364,0.056-0.548,0.078c-0.376,0.046-0.705,0.193-1.008,0.421
			c-0.022,0.018-0.049,0.032-0.071,0.049c-10.876,1.351-24.758,2.683-42.639,3.975c-2.625,0.19-32.448,37.214-49.609,38.463
			s-50.442,1.134-50.442,1.134l-10.798-4.772l-43.587,23.877l-65.758,1.92l-34.321,10.554h-66.661l-48.418,10h-34.844
			l-197.516,10.637L1075,301.002v-178L1038.178,135.082z M885.861,196.966c-0.052-0.001-0.103-0.021-0.145-0.029
			c0.017-0.17,0.029-0.312,0.047-0.453c0.004-0.032,0.032-0.06,0.05-0.09c0.024,0.03,0.063,0.056,0.071,0.09
			c0.026,0.117,0.027,0.241,0.066,0.353C885.986,196.94,885.947,196.968,885.861,196.966 M887.404,200.729
			c-0.015-0.099,0.004-0.208,0.023-0.31c0.042-0.21,0.097-0.418,0.142-0.627c0.062-0.278,0.112-0.559,0.181-0.835
			c0.022-0.097,0.084-0.184,0.14-0.304c0.07,0.143,0.117,0.258,0.183,0.364c0.129,0.21,0.146,0.437,0.154,0.678
			c0.008,0.232,0.025,0.494,0.139,0.683c0.125,0.209,0.364,0.347,0.551,0.521c0.028,0.027,0.048,0.064,0.071,0.098
			c-0.47,0.126-0.953,0.253-1.458,0.38C887.488,201.161,887.439,200.945,887.404,200.729 M877.994,201.081
			c0.039-0.075,0.081-0.149,0.116-0.226c0.109-0.232,0.217-0.464,0.334-0.716c0.073,0.199,0.118,0.368,0.196,0.52
			c0.134,0.261,0.285,0.513,0.435,0.766c0.159,0.272,0.305,0.555,0.554,0.763c0.033,0.028,0.057,0.07,0.076,0.11
			c0.122,0.255,0.274,0.486,0.466,0.689c-0.443,0.085-0.898,0.17-1.359,0.255c-0.054-0.1-0.106-0.202-0.166-0.299
			c-0.04-0.066-0.106-0.117-0.157-0.18c-0.033-0.044-0.074-0.093-0.086-0.145c-0.024-0.13-0.043-0.254-0.156-0.347
			c-0.039-0.032-0.067-0.108-0.063-0.161c0.021-0.249-0.07-0.465-0.186-0.672C877.927,201.315,877.934,201.201,877.994,201.081
			 M876.493,202.714c-0.094-0.27-0.223-0.526-0.31-0.796c-0.296-0.924-0.578-1.853-0.873-2.777c-0.04-0.127-0.072-0.229,0.098-0.301
			c-0.217-0.004-0.282-0.139-0.307-0.308c-0.011-0.074-0.013-0.15-0.013-0.225c0-0.046,0.011-0.092,0.017-0.139
			c0.049,0.014,0.104,0.019,0.147,0.045c0.062,0.036,0.115,0.087,0.172,0.131c-0.042-0.197-0.289-0.214-0.333-0.447
			c0.268,0.092,0.487,0.024,0.697-0.074c0.076-0.035,0.122-0.022,0.185,0.023c0.247,0.176,0.513,0.311,0.839,0.345
			c0.002,0.047,0.013,0.089,0.002,0.126c-0.068,0.267-0.144,0.531-0.211,0.798c-0.012,0.047-0.007,0.102,0.004,0.15
			c0.016,0.07,0.063,0.139,0.06,0.206c-0.008,0.159-0.069,0.319-0.055,0.474c0.036,0.372-0.004,0.737-0.034,1.106
			c-0.035,0.405-0.014,0.812,0.139,1.2c0.013,0.036,0.003,0.08,0.008,0.12c0.008,0.072,0.006,0.15,0.033,0.216
			c0.083,0.202,0.182,0.397,0.267,0.599c0.057,0.137,0.145,0.242,0.249,0.334c-0.163,0.029-0.328,0.058-0.494,0.087
			C876.687,203.308,876.595,203.009,876.493,202.714 M871.979,195.634c0.105,0.22,0.203,0.443,0.317,0.694
			c-0.105-0.014-0.191-0.027-0.278-0.038c-0.17-0.021-0.191-0.195-0.288-0.292c-0.11-0.112-0.007-0.38,0.146-0.417
			C871.906,195.573,871.966,195.604,871.979,195.634 M871.301,194.651c0.026-0.016,0.109,0.017,0.132,0.05
			c0.111,0.165,0.211,0.338,0.313,0.508c0.031,0.053,0.059,0.109,0.088,0.164l-0.032,0.036c-0.163-0.052-0.326-0.104-0.474-0.15
			c-0.01,0.111-0.018,0.207-0.027,0.334c-0.129-0.247-0.241-0.463-0.361-0.692C871.063,194.813,871.178,194.724,871.301,194.651
			 M868.761,196.801c0.237,0.116,0.416,0.246,0.4,0.522c-0.002,0.02,0.008,0.04,0.006,0.06c-0.005,0.095,0.05,0.128,0.133,0.149
			c0.119,0.03,0.24,0.064,0.354,0.111c0.09,0.037,0.132,0.107,0.108,0.218c-0.013,0.062,0.014,0.134,0.031,0.2
			c0.04,0.162,0.085,0.322,0.137,0.518c-0.077-0.02-0.112-0.021-0.137-0.038c-0.144-0.091-0.289-0.179-0.422-0.282
			c-0.062-0.049-0.113-0.125-0.141-0.2c-0.071-0.196-0.142-0.383-0.297-0.541C868.748,197.328,868.678,197.087,868.761,196.801
			 M867.576,201.07c0.039-0.073,0.093-0.136,0.137-0.206c0.047-0.075,0.092-0.153,0.134-0.232c0.117-0.223,0.263-0.436,0.336-0.672
			c0.047-0.148,0.041-0.282,0.234-0.308c0.053-0.007,0.1-0.062,0.148-0.097c0.427-0.299,0.55-0.777,0.73-1.234
			c0.021,0.007,0.054,0.009,0.075,0.025c0.154,0.117,0.306,0.239,0.464,0.352c0.08,0.058,0.111,0.124,0.123,0.223
			c0.027,0.248,0.049,0.501,0.12,0.737c0.052,0.174,0.094,0.336,0.037,0.509c-0.039,0.124,0.009,0.18,0.123,0.197
			c0.12,0.018,0.144,0.075,0.114,0.19c-0.033,0.129-0.062,0.268-0.046,0.396c0.009,0.066,0.117,0.133,0.194,0.169
			c0.039,0.019,0.14-0.013,0.16-0.051c0.034-0.066,0.042-0.155,0.039-0.233c-0.006-0.107-0.078-0.237,0.038-0.305
			c0.11-0.064,0.076-0.113,0.055-0.203c-0.017-0.064,0.037-0.146,0.06-0.22c0.059,0.053,0.152,0.096,0.17,0.16
			c0.053,0.187,0.017,0.372-0.062,0.552c-0.153,0.348-0.304,0.696-0.44,1.049c-0.038,0.098,0.006,0.233-0.043,0.319
			c-0.111,0.198-0.061,0.37,0.036,0.539c0.108,0.187,0.047,0.334-0.081,0.476c-0.098,0.109-0.159,0.23-0.128,0.384
			c0.008,0.043,0.017,0.098-0.002,0.133c-0.079,0.152-0.067,0.289,0.015,0.439c0.045,0.084,0.047,0.194-0.099,0.212
			c-0.353,0.046-0.703,0.096-1.055,0.138c-0.162,0.02-0.325,0.026-0.504,0.04c-0.018-0.065-0.041-0.151-0.065-0.237
			c-0.057-0.208-0.096-0.423-0.175-0.622c-0.134-0.339-0.295-0.668-0.443-1.002c-0.046-0.104-0.093-0.21-0.125-0.319
			c-0.112-0.378-0.221-0.756-0.322-1.136C867.517,201.186,867.549,201.12,867.576,201.07 M866.865,203.044
			c0.094,0.157,0.215,0.273,0.233,0.407c0.062,0.432,0.088,0.87,0.129,1.316c-0.06-0.002-0.136-0.004-0.193-0.006
			C866.94,204.2,866.751,203.659,866.865,203.044 M865.896,196.35c0.03,0.069,0.062,0.139,0.092,0.208
			c-0.011,0.011-0.021,0.021-0.031,0.031c-0.034-0.015-0.091-0.024-0.098-0.047c-0.017-0.058-0.012-0.122-0.015-0.184
			C865.86,196.355,865.878,196.353,865.896,196.35 M865.936,196.841c-0.011,0.005-0.021,0.011-0.032,0.017
			c-0.064-0.029-0.128-0.079-0.193-0.085c-0.143-0.012-0.175-0.042-0.121-0.172c0.03-0.072,0.074-0.137,0.13-0.237
			C865.8,196.543,865.868,196.691,865.936,196.841 M865.753,196.167c-0.042-0.06-0.094-0.113-0.122-0.177
			c-0.033-0.074-0.045-0.157-0.073-0.264C865.792,195.872,865.809,195.917,865.753,196.167 M865.61,196.16l0.064,0.012
			c-0.004,0.065,0.003,0.137-0.019,0.198c-0.007,0.024-0.076,0.026-0.118,0.039c-0.004-0.017-0.009-0.034-0.014-0.051
			C865.554,196.292,865.582,196.226,865.61,196.16 M863.274,200.016c0.084,0.098,0.161,0.088,0.255,0.01
			c0.076-0.062,0.163-0.115,0.252-0.157c0.171-0.081,0.345-0.153,0.518-0.225c0.058-0.023,0.133-0.065,0.176-0.045
			c0.04,0.018,0.05,0.107,0.068,0.165c0.007,0.023,0,0.05,0,0.075c0.002,0.164,0.054,0.312,0.203,0.385
			c0.253,0.125,0.517,0.23,0.741,0.328c0.041,0.08,0.072,0.14,0.121,0.236c0.064-0.107,0.102-0.161,0.13-0.218
			c0.039-0.079,0.083-0.173,0.183-0.136c0.08,0.03,0.166,0.097,0.206,0.17c0.064,0.121,0.093,0.261,0.138,0.392
			c0.046,0.13,0.023,0.244-0.067,0.349c-0.162,0.19-0.263,0.41-0.305,0.658c-0.042,0.256-0.121,0.508-0.034,0.771
			c0.016,0.046-0.006,0.105-0.016,0.158c-0.044,0.249-0.095,0.498-0.135,0.749c-0.037,0.231-0.031,0.474-0.104,0.692
			c-0.065,0.197-0.147,0.378-0.081,0.606c-0.729,0.098-1.442,0.193-2.166,0.29c-0.065-1.777-0.132-3.54-0.198-5.329
			C863.213,199.974,863.252,199.987,863.274,200.016 M871.184,204.237c0.03-0.154,0.036-0.29,0.084-0.407
			c0.108-0.264,0.154-0.516,0.052-0.799c-0.038-0.107,0.007-0.261,0.053-0.377c0.091-0.227,0.229-0.436,0.22-0.694
			c0-0.021,0.008-0.041,0.016-0.087c0.078,0.078,0.12,0.119,0.16,0.161c0.098,0.102,0.176,0.234,0.293,0.3
			c0.285,0.159,0.396,0.432,0.51,0.703c0.058,0.134,0.084,0.285,0.105,0.431c0.023,0.166,0.156,0.345,0.317,0.391
			c0.008,0.117,0.017,0.236,0.025,0.37c-0.203,0.032-0.401,0.064-0.606,0.096C872.01,204.335,871.602,204.268,871.184,204.237"/>
		<path clip-path="url(#SVGID_88_)" fill="#88BBDF" d="M1074,302.002V178.545l-37,8.378l-38,15.639c0,0-51,9.496-62,14.992
			c-11,5.497-16,12.937-61,14.691c-45,1.754-72,17.799-73,19.48c-1,1.684-16,12.85-33,13.715s-51.938,4.017-51.938,4.017
			l-10.7-3.309l-43.621,15.52L601,280.746l-34,7.256h-66.036l-47.964,6h-34.517l-195.141,7.909L1074,302.002z"/>
		<path clip-path="url(#SVGID_88_)" fill="#003753" d="M1074,302.002v-65.007l-37,4.412l-38,8.234c0,0-51,5-62,7.896
			c-11,2.894-16,6.811-61,7.734c-45,0.923-72,9.372-73,10.258s-16,6.766-33,7.222s-56.924,8.083-56.924,8.083l-10.701-1.742
			l-37.799,4.749L601,290.995l-34,4.007h-66.036l-47.964,3h-34.517l-195.141,4.059L1074,302.002z"/>
		<path clip-path="url(#SVGID_88_)" fill-rule="evenodd" clip-rule="evenodd" fill="#FFFFFF" d="M347.189,122.549
			c0,0-0.136,3.974-0.402,8.564c-0.116,2.029-0.258,4.177-0.425,6.158l-0.248,1.414l-0.343,1.943
			c-0.537,3.061-1.982,7.563-5.813,11.648c-0.642,0.686-1.371,1.414-2.248,2.251c-0.138,0.133-0.271,0.261-0.417,0.398l-0.684,0.639
			c-0.618,0.572-1.267,1.16-1.931,1.763c-0.128,0.116-0.263,0.242-0.393,0.359c-1.636,0.02-3.526,0.152-5.453,0.344
			c-5.953,0.59-12.224,1.727-12.224,1.727l-3.12-11.118c0,0,8.47,2.406,15.344,2.488c0.12,0.002,0.24,0.004,0.359,0.004
			c3.146,0,5.915-0.513,7.314-2.005c2.533-2.696,0.932-12.192-0.357-18.013c-0.609-2.752-1.149-4.687-1.149-4.687L347.189,122.549z
			 M343.882,191.45L343.882,191.45c-4.543,0-8.247-2.895-9.456-6.597c-1.869-5.721,0.526-11.481,3.375-16.101
			c2.211-3.583,4.695-6.479,5.676-8.139c0.397-0.671,0.784-1.355,1.156-2.055c0.076-0.141,0.152-0.281,0.227-0.423
			c0.069-0.134,0.13-0.264,0.196-0.396c1.233-2.478,1.87-4.801,2.119-6.896c0.332-2.816-0.031-5.21-0.546-7.037
			c-0.897,2.953-2.537,6.365-5.521,9.548c-0.725,0.773-1.488,1.522-2.264,2.264c-0.482,0.507-0.971,1.009-1.47,1.506
			c-0.224,0.221-0.448,0.443-0.671,0.663c-2.453,2.403-5.332,5.023-7.87,7.9c-3.613,4.099-6.535,8.726-6.535,14.008
			c0,3.816,0.499,10.112,5.526,14.762c4.278,3.959,13.107,6.627,13.859,6.627c0.479,0,3.5-3.348,5.399-5.99
			c1.919-2.672,4.762-6.35,4.824-6.659C349.164,190.564,346.394,191.45,343.882,191.45 M335.597,156.665L335.597,156.665
			l0.665-0.657c0.537-0.535,1.014-1.021,1.449-1.48c-0.138,0.133-0.271,0.261-0.417,0.398l-0.684,0.639
			c-0.618,0.572-1.267,1.16-1.931,1.763c-0.128,0.116-0.263,0.242-0.393,0.359c0.088-0.001,0.176-0.003,0.262-0.003
			C334.905,157.339,335.256,156.999,335.597,156.665 M345.02,200.135c0.579-0.643,1.177-1.344,1.745-2.045l0.276,5.406
			l-11.477,4.762l0.717-7.225c2.142,0.833,4.606,1.626,5.402,1.626C342.431,202.659,343.06,202.309,345.02,200.135 M374.822,153.289
			c0.007,0.629,0.007,1.258-0.017,1.888c-0.021,0.628-0.027,1.258-0.058,1.888l-0.114,1.885c-0.075,1.257-0.223,2.508-0.344,3.761
			l-0.252,1.873c-0.082,0.623-0.163,1.249-0.283,1.867c-0.225,1.239-0.406,2.488-0.706,3.713c-0.275,1.229-0.536,2.461-0.889,3.681
			l-0.497,1.836c-0.164,0.614-0.373,1.193-0.556,1.791l-0.571,1.783c-0.192,0.634-0.433,1.197-0.646,1.8
			c-0.418,1.193-0.931,2.354-1.425,3.52c-0.251,0.581-0.541,1.146-0.811,1.72l-0.414,0.858l-0.449,0.839
			c-0.585,1.127-1.241,2.219-1.919,3.295c-0.692,1.069-1.423,2.116-2.209,3.124c-0.784,1.008-1.619,1.981-2.514,2.907
			c-0.453,0.457-0.912,0.911-1.399,1.341c-0.495,0.439-0.959,0.839-1.569,1.256l-0.23,0.159l-0.292-0.006
			c-0.9-0.018-1.775-0.038-2.658-0.087c-0.881-0.044-1.762-0.084-2.639-0.157c-0.879-0.07-1.761-0.113-2.637-0.211l-0.306-0.031
			l-0.08-1.571l-0.018-0.36l0.583,0.06c0.861,0.099,1.727,0.143,2.592,0.216c0.863,0.073,1.729,0.116,2.595,0.161
			c0.762,0.045,1.531,0.068,2.285,0.087c0.367-0.269,0.765-0.6,1.127-0.921c0.448-0.395,0.879-0.817,1.305-1.244
			c0.843-0.867,1.638-1.787,2.388-2.744c0.751-0.959,1.454-1.957,2.121-2.981c0.652-1.033,1.295-2.074,1.87-3.157l0.442-0.806
			l0.408-0.824c0.265-0.554,0.553-1.095,0.8-1.657c0.49-1.126,0.998-2.246,1.415-3.403c0.21-0.573,0.464-1.157,0.637-1.717
			l0.588-1.777c0.188-0.592,0.409-1.187,0.571-1.776l0.497-1.773c0.352-1.175,0.621-2.382,0.901-3.586
			c0.303-1.198,0.507-2.416,0.751-3.628c0.128-0.604,0.219-1.215,0.311-1.825l0.282-1.833c0.142-1.228,0.311-2.454,0.409-3.686
			l0.147-1.85c0.04-0.616,0.059-1.233,0.092-1.852c0.035-0.618,0.046-1.235,0.052-1.854c0.006-0.618,0.025-1.237,0.007-1.854
			c-0.013-1.235-0.054-2.472-0.14-3.705c-0.038-0.616-0.091-1.23-0.154-1.842c-0.026-0.308-0.07-0.611-0.104-0.917l-0.046-0.35
			c-1.425,0.211-2.844,0.392-4.268,0.55c-1.619,0.176-3.241,0.324-4.867,0.436c-1.626,0.108-3.256,0.17-4.886,0.19
			c-0.815,0.011-1.631,0.009-2.446-0.013c-0.816-0.017-1.631-0.049-2.446-0.104c-0.815-0.052-1.63-0.123-2.442-0.226
			c-0.406-0.049-0.811-0.1-1.214-0.171c-0.405-0.06-0.809-0.134-1.209-0.221c-0.259-0.05-0.515-0.115-0.771-0.179
			c-0.036-0.181-0.073-0.362-0.112-0.537c0.325,0.075,0.652,0.145,0.982,0.197c0.394,0.074,0.79,0.134,1.191,0.18
			c0.397,0.058,0.798,0.096,1.199,0.131c0.8,0.076,1.605,0.122,2.409,0.148c0.805,0.029,1.611,0.038,2.418,0.028
			c0.806-0.004,1.613-0.027,2.42-0.062c1.612-0.067,3.222-0.187,4.831-0.332c1.609-0.142,3.215-0.318,4.817-0.524
			c1.599-0.208,3.206-0.44,4.784-0.716l0.569-0.099l0.104,0.608l0.075,0.435l0.073,0.472c0.041,0.313,0.091,0.627,0.125,0.941
			c0.076,0.627,0.142,1.254,0.193,1.883c0.11,1.256,0.177,2.514,0.213,3.772C374.825,152.029,374.817,152.659,374.822,153.289
			 M321.638,190.282L321.638,190.282c-0.731-0.439-1.483-0.854-2.194-1.316l-1.058-0.704c-0.288-0.218-0.61-0.442-0.875-0.656
			c-0.452-0.745-0.9-1.54-1.314-2.335c-0.46-0.829-0.858-1.694-1.277-2.546c-0.434-0.848-0.776-1.736-1.165-2.604
			c-0.399-0.865-0.724-1.759-1.057-2.65c-0.331-0.89-0.694-1.775-0.95-2.681l-0.846-2.701c-0.242-0.925-0.452-1.871-0.685-2.803
			l-0.343-1.403c-0.086-0.413-0.173-0.925-0.261-1.383l-0.522-2.824c-0.19-0.938-0.306-1.89-0.449-2.837l-0.41-2.844l-0.318-2.856
			c-0.117-0.95-0.186-1.906-0.261-2.861c-0.074-0.954-0.158-1.909-0.194-2.866c-0.048-0.956-0.103-1.913-0.116-2.869
			c-0.024-0.859-0.029-1.723-0.017-2.573c0.553-0.367,1.13-0.733,1.717-1.07c0.662-0.405,1.35-0.769,2.038-1.133
			c0.679-0.38,1.384-0.71,2.089-1.044c0.702-0.336,1.403-0.677,2.127-0.966l2.158-0.909l2.195-0.783l1.101-0.391
			c0.365-0.133,0.752-0.22,1.128-0.333l2.269-0.642l0.566-0.159c0.167-0.051,0.375-0.086,0.561-0.13l1.147-0.248
			c0.765-0.159,1.527-0.344,2.296-0.485l2.319-0.376c0.772-0.141,1.552-0.215,2.329-0.308c0.642-0.07,1.283-0.147,1.926-0.2
			c-0.019-0.102-0.038-0.202-0.057-0.303c-0.635,0.032-1.269,0.089-1.904,0.139c-0.784,0.069-1.572,0.119-2.352,0.237l-2.346,0.308
			c-0.779,0.117-1.551,0.279-2.328,0.416l-1.164,0.215c-0.198,0.04-0.381,0.061-0.591,0.117l-0.572,0.144l-2.287,0.571
			c-0.38,0.102-0.764,0.176-1.141,0.3l-1.134,0.363l-2.268,0.73l-2.216,0.854c-0.746,0.269-1.462,0.609-2.182,0.937
			c-0.724,0.325-1.447,0.647-2.148,1.021c-0.708,0.359-1.415,0.716-2.102,1.119c-0.7,0.385-1.373,0.791-2.061,1.239l-0.229,0.151
			l-0.011,0.288c-0.038,0.987-0.05,1.95-0.04,2.922c-0.006,0.97,0.033,1.938,0.062,2.906c0.019,0.97,0.085,1.936,0.143,2.901
			c0.056,0.967,0.109,1.935,0.21,2.898l0.265,2.892l0.361,2.883c0.126,0.96,0.225,1.925,0.401,2.877l0.475,2.868
			c0.084,0.488,0.147,0.929,0.248,1.46l0.318,1.409c0.216,0.94,0.42,1.878,0.654,2.817l0.85,2.823
			c0.262,0.952,0.622,1.855,0.952,2.772c0.334,0.917,0.66,1.837,1.057,2.728c0.391,0.893,0.733,1.807,1.169,2.68
			c0.423,0.88,0.822,1.769,1.288,2.63c0.447,0.874,0.91,1.719,1.429,2.59l0.066,0.11l0.108,0.092
			c0.386,0.332,0.737,0.568,1.106,0.854l1.118,0.759c0.75,0.498,1.531,0.93,2.297,1.393l2.375,1.233
			c0.743,0.351,1.498,0.676,2.249,1.012c-0.837-0.979-1.537-1.996-2.099-3.028L321.638,190.282z M359.201,159.644L359.201,159.644
			c4.201,0,6.847-0.352,6.847-0.352l3.011-10.445c0,0-8.227,1.993-16.593,2.339c-1.143,0.048-2.156,0.064-3.049,0.064
			c-0.246,0-0.483-0.001-0.71-0.003c-0.249,1.922-0.783,3.85-1.585,5.752l0.093,0.05c0.231,0.124,0.461,0.247,0.685,0.363
			l0.032,0.016l0.032,0.019c0.949,0.542,1.823,1.122,2.646,1.741c1.068,0.102,2.178,0.195,3.355,0.275
			C355.886,159.595,357.648,159.644,359.201,159.644 M342.35,176.296c3.446,0,6.242,2.795,6.242,6.242
			c0,3.449-2.796,6.243-6.242,6.243c-3.448,0-6.242-2.794-6.242-6.243C336.107,179.091,338.901,176.296,342.35,176.296
			 M356.262,168.475L356.262,168.475c-0.818-1.582-1.69-2.924-2.593-4.082c-2.091-2.682-4.348-4.354-6.488-5.58
			c-0.233-0.12-0.474-0.248-0.713-0.377l-0.051,0.103c-0.051,0.104-0.101,0.209-0.156,0.312c-0.053,0.101-0.106,0.202-0.16,0.302
			l-0.072,0.134c-0.161,0.3-0.328,0.605-0.499,0.909c-0.224,0.401-0.454,0.805-0.693,1.208c-0.042,0.072-0.098,0.154-0.146,0.229
			c1.287,1.205,2.491,2.622,3.54,4.285c0.679,1.075,1.283,2.475,1.7,4.032c0.79,2.952,0.895,6.46-0.468,9.365
			c0.448,0.983,0.704,2.073,0.704,3.222c0,2.944-1.638,5.512-4.048,6.845c0.919-0.188,1.807-0.461,2.655-0.81
			c2.127-0.875,4.002-2.228,5.498-3.927c1.472-1.672,2.574-3.681,3.177-5.893C358.238,175.35,357.971,171.778,356.262,168.475
			 M396.258,170.986v2.687h-1.8v-6.645h1.8v2.688l1.921-2.736l2.027,0.094l-2.338,3.21l2.432,3.344l-2.121,0.094L396.258,170.986z
			 M425.084,189.226c0.114,0.241,0.181,0.546,0.181,0.841c0,0.732-0.394,1.461-1.509,1.461c-0.959,0-1.574-0.713-1.574-1.922
			c0-1.161,0.695-1.982,2.21-1.982c1.939,0,2.608,0.942,2.608,2.25c0,0.415-0.054,0.952-0.146,1.392l-1.283-0.244
			c0.101-0.435,0.14-0.676,0.14-0.99C425.711,189.526,425.54,189.254,425.084,189.226 M424.084,189.206L424.084,189.206
			c-0.52,0.02-0.68,0.168-0.68,0.407c0,0.268,0.172,0.419,0.42,0.419c0.207,0,0.346-0.113,0.346-0.378
			C424.17,189.534,424.145,189.388,424.084,189.206 M422.25,185.704h3.154l-0.386-0.962h1.4l0.515,1.288v1.16h-4.683V185.704z
			 M427,182.441c0,1.247-0.655,2.102-2.411,2.102c-1.754,0-2.407-0.854-2.407-2.102c0-1.256,0.653-2.11,2.407-2.11
			C426.346,180.331,427,181.185,427,182.441 M423.472,182.441L423.472,182.441c0,0.273,0.214,0.532,1.118,0.532
			c0.909,0,1.122-0.265,1.122-0.532c0-0.274-0.213-0.534-1.122-0.534C423.69,181.907,423.472,182.167,423.472,182.441
			 M423.538,178.526v1.506l-1.287-0.068v-3.395l1.287-0.067c0.739,1.295,1.334,1.902,1.755,1.902c0.279,0,0.407-0.195,0.407-0.553
			c0-0.306-0.087-0.72-0.207-1.122l1.282-0.247c0.131,0.5,0.226,1.062,0.226,1.575c0,1.001-0.369,1.834-1.576,1.834
			C424.645,179.891,423.979,179.346,423.538,178.526 M406.423,181.749l-0.521,9.46h-4.498l1.749-14.522l5.811-0.208l1.732,8.875
			l1.643-8.667l5.793-0.208l1.916,14.73h-4.564l-0.539-9.46l-1.957,9.356l-4.543,0.208L406.423,181.749z M400.57,183.958
			c0,4.918-2.793,7.459-8.022,7.459c-1.626,0-3.167-0.187-4.98-0.625v-14.21h5.959C397.9,176.582,400.57,178.895,400.57,183.958
			 M392.213,180.605L392.213,180.605v6.709c0.292,0.062,0.605,0.083,0.876,0.083c1.791,0,2.582-1.211,2.582-3.355
			c0-2.416-0.812-3.437-2.166-3.437H392.213z M375.904,186.708l-0.775,4.001c1.46,0.459,3.481,0.708,5.086,0.708
			c4.584,0,6.25-1.77,6.25-4.75c0-5.022-6.563-4.73-6.939-5.168c-0.29-0.291-0.269-1.188,0.689-1.188
			c1.438,0,3.25,0.294,4.915,0.772l0.773-4c-1.458-0.479-3.438-0.71-5.045-0.71c-4.603,0-6.289,1.772-6.289,4.789
			c0,4.482,5.499,4.713,6.936,5.13c0.29,0.29,0.29,1.166-0.686,1.166C379.463,187.458,377.608,187.187,375.904,186.708
			 M384.921,172.415L384.921,172.415l-3.499,3.168h-4.272l2.375-3.168H384.921z M421.32,168.968l0.624,3.172l0.512-3.076
			l1.724-0.097l0.53,3.172l0.626-3.172l1.665,0.097l-1.25,4.608h-1.847l-0.578-2.223l-0.576,2.223h-1.847l-1.25-4.608
			L421.32,168.968z M416.954,168.92c1.504,0,2.413,0.814,2.413,2.424c0,1.62-0.909,2.424-2.413,2.424
			c-1.507,0-2.417-0.804-2.417-2.424C414.537,169.734,415.447,168.92,416.954,168.92 M418.524,166.933L418.524,166.933l-1.25,1.59
			h-1.326l0.794-1.59H418.524z M416.954,172.348L416.954,172.348c0.436,0,0.765-0.217,0.765-1.004c0-0.787-0.329-1.001-0.765-1.001
			c-0.445,0-0.769,0.214-0.769,1.001C416.185,172.131,416.509,172.348,416.954,172.348 M411.014,171.867v1.806h-1.61v-7.08
			l1.61-0.095v4.137l1.184-1.667l1.818,0.097l-1.6,2.11l1.837,2.453l-1.914,0.094L411.014,171.867z M406.836,170.682
			c0-0.237-0.123-0.339-0.428-0.339c-0.291,0-0.784,0.074-1.569,0.292l-0.228-1.373c0.681-0.209,1.553-0.342,2.168-0.342
			c1.053,0,1.676,0.428,1.676,1.677v3.076h-1.211l-0.172-0.329c-0.53,0.329-0.936,0.424-1.334,0.424
			c-0.73,0-1.364-0.463-1.364-1.372c0-0.985,0.634-1.362,2.462-1.555V170.682z M406.836,172.453L406.836,172.453v-0.598
			c-0.711,0.097-0.929,0.144-0.929,0.426c0,0.2,0.136,0.285,0.332,0.285C406.401,172.566,406.607,172.521,406.836,172.453
			 M403.911,170.739c-0.739-0.235-0.996-0.322-1.619,0.53v2.404h-1.611v-4.608l1.611-0.097v0.73c0.672-0.786,1.086-0.9,1.799-0.673
			L403.911,170.739z M657.118,170.785h-2.175V154.84c5.428,0,7.974-0.515,7.974,9.061
			C662.917,167.772,660.968,170.785,657.118,170.785 M520.497,160.639v0.29c0.004,6.084,0.152,11.014,4.791,15.575
			c5.568,5.473,15.08,5.005,22.466,3.057c1.281-0.339,1.915-0.698,3.184-0.803v-19.932h-14.133l-0.363,9.422h3.625v2.537
			c-2.828,0-5.17,0.476-6.542-2.518c-1.558-3.397-2.843-13.789,6.179-13.789c2.931,0,4.576,0.671,6.763,0.938
			c1.506,0.184,1.164,0.503,1.56-0.925c0.316-1.138,1.135-7.636,1.824-9.073c-2.718-0.226-4.588-1.087-9.06-1.087
			c-7.633,0-15.233,0.477-18.857,9.409C521.239,155.455,520.497,158.21,520.497,160.639 M720.899,171.873
			c-3.635,0-2.899,0.957-2.899-7.248c2.728-0.061,1.476-0.838,5.073,0C723.388,165.971,725.154,171.873,720.899,171.873
			 M691.183,172.235c-3.675,0-3.26-2.995-3.26-5.798c0-3.809,6.159-4.466,6.159,0.724
			C694.082,169.236,693.949,172.235,691.183,172.235 M567.97,172.235c-3.676,0-3.261-2.995-3.261-5.798
			c0-3.809,6.161-4.466,6.161,0.724C570.87,169.236,570.736,172.235,567.97,172.235 M770.547,170.423v2.9
			c-1.278,0.296-1.191,0.361-2.899,0.361C766.968,170.767,767.844,171.052,770.547,170.423 M617.618,170.423v2.9
			c-1.278,0.296-1.19,0.361-2.899,0.361C614.039,170.767,614.915,171.052,617.618,170.423 M747.717,158.101
			c0-4.606-0.249-3.251-4.004-2.919c-1.088,0.097-2.515,0.019-3.628-0.001c-1.538-0.025-2.878-0.357-2.878,1.109v23.918h10.51
			v-11.96c0-0.508,1.546-4.198,6.478-2.811l1.499,0.328c0.037,0.001,0.155-0.02,0.185-0.022c0.714-0.024,1.261-9.264,1.261-10.541
			c-2.43-0.566-3.161-0.97-5.439-0.007C749.361,156.182,749.412,156.965,747.717,158.101 M594.787,158.101
			c0-4.606-0.248-3.251-4.004-2.919c-3.449,0.306-6.505-0.867-6.505,1.108v23.918h10.509v-11.96c0-0.508,1.547-4.198,6.478-2.811
			l1.684,0.306c0.714-0.024,1.26-9.264,1.26-10.541c-2.429-0.566-3.161-0.97-5.438-0.007
			C596.433,156.182,596.483,156.965,594.787,158.101 M561.81,153.028h8.335c1.53-2.285,6.397-6.965,6.886-9.059h-10.872
			C565.191,145.412,561.962,151.19,561.81,153.028 M661.104,145.311c-0.588-0.637,0.682-0.59-1.788-0.657l-15.969,0.04
			l-0.026,32.637c0.027,1.55,0.044,1.244,0.42,1.789c1.517,1.119,6.53,1.384,8.454,1.661c3.262,0.472,7.137-0.009,9.68-0.529
			c13.621-2.782,15.616-17.235,11.664-26.611C671.448,148.685,665.322,144.157,661.104,145.311 M606.021,156.29
			c0.042,1.936,1.012,6.46,1.449,8.335c4.187-0.094,5.487-2.173,10.147-1.088v1.45c-4.157,0-11.228,1.45-12.527,5.595
			c-2.482,7.918,5.715,13.708,13.977,8.176c2.326,1.704-1.909,1.45,9.059,1.45v-18.12c0-2.386-1.131-3.927-2.428-5.181
			C620.99,152.354,610.909,155.883,606.021,156.29 M758.95,156.29c0.043,1.936,1.013,6.46,1.449,8.335
			c4.188-0.094,5.488-2.173,10.147-1.088v1.45c-4.157,0-11.228,1.45-12.527,5.595c-2.482,7.918,5.715,13.708,13.977,8.176
			c2.326,1.704-1.908,1.45,9.06,1.45v-18.12c0-2.386-1.132-3.927-2.428-5.181c-1.823-1.761-2.722-1.785-5.807-2.192
			C768.28,154.116,762.308,156.011,758.95,156.29 M554.199,166.799v2.537c0,15.125,27.18,16.441,27.18-1.088
			c0-8.868-4.564-13.426-13.453-13.62C560.03,154.457,554.199,158.765,554.199,166.799 M677.411,166.799v2.537
			c0,15.125,27.181,16.441,27.181-1.088c0-8.868-4.565-13.426-13.454-13.62C683.242,154.457,677.411,158.765,677.411,166.799
			 M707.49,143.969v34.063c0,1.435,3.622,1.751,5.846,2.13c11.26,1.918,20.972,0.706,20.972-13.363c0-4.67-1.879-8.966-4.762-10.82
			c-4.12-2.65-7.994-0.844-11.546,1.036v-13.409L707.49,143.969z"/>
	</g>
	<g clip-path="url(#SVGID_4_)">
		<path fill="#FFFFFF" d="M467.072,79.591l-2.375-4.869l1.187-0.072l1.799,3.934l2.758-3.934l1.223,0.072l-3.55,4.869l-0.432,3.514
			h-1.043L467.072,79.591z"/>
		<path fill="#FFFFFF" d="M470.793,80.863c0-2.099,1.283-3.622,2.999-3.622c1.367,0,2.231,0.804,2.231,2.363
			c0,2.099-1.284,3.622-2.999,3.622C471.657,83.226,470.793,82.422,470.793,80.863z M475.051,79.639
			c0-1.031-0.528-1.535-1.319-1.535c-1.104,0-1.967,1.164-1.967,2.723c0,1.032,0.528,1.535,1.319,1.535
			C474.188,82.362,475.051,81.21,475.051,79.639z"/>
		<path fill="#FFFFFF" d="M478.148,81.234c-0.096,0.768,0.156,1.091,0.684,1.091c0.576,0,1.463-0.695,2.255-1.835l0.372-3.094
			l0.972-0.06l-0.708,5.769h-0.959l0.167-1.355c-0.803,0.912-1.631,1.476-2.375,1.476c-1.104,0-1.535-0.696-1.391-1.895l0.479-3.934
			l0.983-0.06L478.148,81.234z"/>
		<path fill="#FFFFFF" d="M491.143,83.105h-0.959l0.168-1.355c-0.792,0.912-1.595,1.476-2.291,1.476
			c-1.007,0-1.511-0.959-1.511-2.267c0-2.482,1.224-3.718,2.843-3.718c0.684,0,1.415,0.204,2.398,0.636L491.143,83.105z
			 M489.343,78.104c-0.911,0-1.823,0.78-1.823,2.783c0,0.888,0.252,1.439,0.768,1.439c0.6,0,1.511-0.755,2.207-1.835l0.252-2.015
			C490.231,78.224,489.823,78.104,489.343,78.104z"/>
		<path fill="#FFFFFF" d="M496.735,78.332c-0.288-0.084-0.564-0.144-0.756-0.144c-0.479,0-1.055,0.468-1.823,1.715l-0.396,3.202
			h-0.959l0.684-5.709l0.983-0.06l-0.167,1.248c0.671-0.888,1.211-1.343,1.859-1.343c0.264,0,0.563,0.072,0.815,0.132
			L496.735,78.332z"/>
		<path fill="#FFFFFF" d="M501.295,82.482c-0.924,0.503-1.547,0.744-2.183,0.744c-1.211,0-1.895-0.84-1.895-2.315
			c0-2.411,1.283-3.67,2.915-3.67c0.983,0,1.595,0.624,1.595,1.355c0,0.972-0.672,1.931-3.526,2.411
			c-0.012,0.695,0.204,1.379,0.972,1.379c0.444,0,1.056-0.24,1.907-0.708L501.295,82.482z M498.212,80.251
			c2.075-0.384,2.566-1.02,2.566-1.583c0-0.3-0.264-0.588-0.719-0.588C499.1,78.08,498.356,78.884,498.212,80.251z"/>
		<path fill="#FFFFFF" d="M506.684,78.224h-0.948l0.168-0.863h0.888l0.216-1.787l0.972-0.06l-0.228,1.847h1.763l-0.168,0.863h-1.703
			l-0.42,3.466c-0.084,0.684,0.108,1.007,1.667-0.012l0.228,0.804c-0.78,0.492-1.367,0.744-1.787,0.744
			c-0.636,0-1.199-0.324-1.079-1.463L506.684,78.224z"/>
		<path fill="#FFFFFF" d="M514.506,79.244c0.096-0.768-0.156-1.091-0.672-1.091c-0.587,0-1.475,0.684-2.267,1.823l-0.372,3.13
			h-0.959l1.104-9.031l0.972-0.06l-0.576,4.701c0.803-0.912,1.631-1.475,2.375-1.475c1.104,0,1.523,0.696,1.379,1.907l-0.492,3.958
			h-0.959L514.506,79.244z"/>
		<path fill="#FFFFFF" d="M520.734,82.482c-0.924,0.503-1.547,0.744-2.183,0.744c-1.211,0-1.895-0.84-1.895-2.315
			c0-2.411,1.283-3.67,2.915-3.67c0.983,0,1.595,0.624,1.595,1.355c0,0.972-0.672,1.931-3.526,2.411
			c-0.012,0.695,0.204,1.379,0.972,1.379c0.444,0,1.056-0.24,1.907-0.708L520.734,82.482z M517.652,80.251
			c2.075-0.384,2.566-1.02,2.566-1.583c0-0.3-0.264-0.588-0.719-0.588C518.54,78.08,517.796,78.884,517.652,80.251z"/>
		<path fill="#FFFFFF" d="M525.368,82.05c0.444,0.204,1.08,0.336,1.583,0.336c0.587,0,1.187-0.24,1.175-0.947
			c-0.012-0.936-2.615-0.768-2.615-2.411c0-1.235,0.948-1.787,2.147-1.787c0.563,0,1.199,0.12,1.703,0.348l-0.228,0.828
			c-0.42-0.192-1.055-0.336-1.559-0.336c-0.552,0-1.104,0.228-1.091,0.864c0.012,0.923,2.603,0.768,2.603,2.422
			c0,1.26-0.959,1.859-2.207,1.859c-0.563,0-1.247-0.12-1.751-0.348L525.368,82.05z"/>
		<path fill="#FFFFFF" d="M534.894,83.105h-0.959l0.168-1.355c-0.792,0.912-1.595,1.476-2.291,1.476
			c-1.007,0-1.511-0.959-1.511-2.267c0-2.482,1.224-3.718,2.843-3.718c0.684,0,1.415,0.204,2.398,0.636L534.894,83.105z
			 M533.094,78.104c-0.911,0-1.823,0.78-1.823,2.783c0,0.888,0.252,1.439,0.768,1.439c0.6,0,1.511-0.755,2.207-1.835l0.252-2.015
			C533.982,78.224,533.574,78.104,533.094,78.104z"/>
		<path fill="#FFFFFF" d="M538.627,74.015l-0.948,7.651c-0.096,0.744,0.312,0.828,1.439,0.504l-0.012,0.828
			c-0.468,0.132-0.863,0.228-1.307,0.228c-0.732,0-1.224-0.384-1.091-1.451l0.947-7.7L538.627,74.015z"/>
		<path fill="#FFFFFF" d="M540.943,78.224h-0.948l0.168-0.863h0.888l0.216-1.787l0.972-0.06l-0.228,1.847h1.763l-0.168,0.863h-1.703
			l-0.42,3.466c-0.084,0.684,0.108,1.007,1.667-0.012l0.228,0.804c-0.779,0.492-1.367,0.744-1.787,0.744
			c-0.636,0-1.199-0.324-1.079-1.463L540.943,78.224z"/>
		<path fill="#FFFFFF" d="M547.664,80.863c0-2.099,1.284-3.622,2.999-3.622c1.367,0,2.231,0.804,2.231,2.363
			c0,2.099-1.284,3.622-2.999,3.622C548.527,83.226,547.664,82.422,547.664,80.863z M551.921,79.639
			c0-1.031-0.528-1.535-1.319-1.535c-1.104,0-1.967,1.164-1.967,2.723c0,1.032,0.528,1.535,1.319,1.535
			C551.058,82.362,551.921,81.21,551.921,79.639z"/>
		<path fill="#FFFFFF" d="M555.067,76.089c0.132-1.08,0.624-2.075,1.991-2.075c0.348,0,0.684,0.048,1.151,0.18l-0.18,0.839
			c-0.312-0.096-0.695-0.156-0.923-0.156c-0.768,0-0.996,0.588-1.091,1.319l-0.144,1.164h1.763l-0.168,0.863h-1.703l-0.647,5.397
			c-0.144,1.08-0.612,2.075-1.979,2.075c-0.348,0-0.696-0.048-1.164-0.18l0.192-0.839c0.324,0.096,0.672,0.156,0.912,0.156
			c0.768,0,1.007-0.588,1.091-1.319l0.636-5.289h-0.948l0.168-0.863h0.888L555.067,76.089z"/>
		<path fill="#FFFFFF" d="M562.135,78.224h-0.948l0.168-0.863h0.888l0.216-1.787l0.972-0.06l-0.228,1.847h1.763l-0.168,0.863h-1.703
			l-0.42,3.466c-0.084,0.684,0.108,1.007,1.667-0.012l0.228,0.804c-0.779,0.492-1.367,0.744-1.787,0.744
			c-0.636,0-1.199-0.324-1.079-1.463L562.135,78.224z"/>
		<path fill="#FFFFFF" d="M569.957,79.244c0.096-0.768-0.156-1.091-0.672-1.091c-0.588,0-1.475,0.684-2.267,1.823l-0.372,3.13
			h-0.959l1.104-9.031l0.972-0.06l-0.576,4.701c0.803-0.912,1.631-1.475,2.375-1.475c1.104,0,1.523,0.696,1.379,1.907l-0.492,3.958
			h-0.959L569.957,79.244z"/>
		<path fill="#FFFFFF" d="M576.185,82.482c-0.924,0.503-1.547,0.744-2.183,0.744c-1.211,0-1.895-0.84-1.895-2.315
			c0-2.411,1.284-3.67,2.915-3.67c0.983,0,1.595,0.624,1.595,1.355c0,0.972-0.672,1.931-3.526,2.411
			c-0.012,0.695,0.204,1.379,0.972,1.379c0.444,0,1.055-0.24,1.907-0.708L576.185,82.482z M573.103,80.251
			c2.075-0.384,2.566-1.02,2.566-1.583c0-0.3-0.264-0.588-0.719-0.588C573.99,78.08,573.247,78.884,573.103,80.251z"/>
		<path fill="#FFFFFF" d="M584.681,82.482c-0.924,0.503-1.547,0.744-2.183,0.744c-1.211,0-1.895-0.84-1.895-2.315
			c0-2.411,1.283-3.67,2.915-3.67c0.983,0,1.595,0.624,1.595,1.355c0,0.972-0.672,1.931-3.526,2.411
			c-0.012,0.695,0.204,1.379,0.972,1.379c0.444,0,1.056-0.24,1.907-0.708L584.681,82.482z M581.598,80.251
			c2.075-0.384,2.566-1.02,2.566-1.583c0-0.3-0.264-0.588-0.719-0.588C582.486,78.08,581.742,78.884,581.598,80.251z"/>
		<path fill="#FFFFFF" d="M590.524,83.105h-0.959l0.168-1.355c-0.792,0.912-1.595,1.476-2.291,1.476
			c-1.007,0-1.511-0.959-1.511-2.267c0-2.482,1.224-3.718,2.843-3.718c0.684,0,1.415,0.204,2.398,0.636L590.524,83.105z
			 M588.725,78.104c-0.911,0-1.823,0.78-1.823,2.783c0,0.888,0.252,1.439,0.768,1.439c0.6,0,1.511-0.755,2.207-1.835l0.252-2.015
			C589.613,78.224,589.205,78.104,588.725,78.104z"/>
		<path fill="#FFFFFF" d="M596.117,78.332c-0.288-0.084-0.564-0.144-0.756-0.144c-0.479,0-1.055,0.468-1.823,1.715l-0.396,3.202
			h-0.959l0.684-5.709l0.983-0.06l-0.167,1.248c0.671-0.888,1.211-1.343,1.859-1.343c0.264,0,0.563,0.072,0.815,0.132
			L596.117,78.332z"/>
		<path fill="#FFFFFF" d="M597.57,78.224h-0.948l0.168-0.863h0.888l0.216-1.787l0.972-0.06l-0.228,1.847h1.763l-0.168,0.863h-1.703
			l-0.42,3.466c-0.084,0.684,0.108,1.007,1.667-0.012l0.228,0.804c-0.78,0.492-1.367,0.744-1.787,0.744
			c-0.636,0-1.199-0.324-1.079-1.463L597.57,78.224z"/>
		<path fill="#FFFFFF" d="M605.393,79.244c0.096-0.768-0.156-1.091-0.672-1.091c-0.588,0-1.475,0.684-2.267,1.823l-0.372,3.13
			h-0.959l1.104-9.031l0.972-0.06l-0.576,4.701c0.803-0.912,1.631-1.475,2.375-1.475c1.104,0,1.523,0.696,1.379,1.907l-0.492,3.958
			h-0.959L605.393,79.244z"/>
		<path fill="#FFFFFF" d="M608.717,82.434c0,0.42-0.335,0.744-0.743,0.744c-0.348,0-0.576-0.24-0.576-0.563
			c0-0.42,0.324-0.755,0.731-0.755C608.478,81.858,608.717,82.098,608.717,82.434z"/>
		<path fill="#FFFFFF" d="M611.273,82.434c0,0.42-0.335,0.744-0.743,0.744c-0.348,0-0.576-0.24-0.576-0.563
			c0-0.42,0.324-0.755,0.731-0.755C611.034,81.858,611.273,82.098,611.273,82.434z"/>
		<path fill="#FFFFFF" d="M613.83,82.434c0,0.42-0.335,0.744-0.743,0.744c-0.348,0-0.576-0.24-0.576-0.563
			c0-0.42,0.324-0.755,0.731-0.755C613.59,81.858,613.83,82.098,613.83,82.434z"/>
		<path fill="#FFFFFF" d="M617.249,79.591l-2.375-4.869l1.188-0.072l1.799,3.934l2.758-3.934l1.223,0.072l-3.55,4.869l-0.432,3.514
			h-1.043L617.249,79.591z"/>
		<path fill="#FFFFFF" d="M620.97,80.863c0-2.099,1.284-3.622,2.999-3.622c1.367,0,2.231,0.804,2.231,2.363
			c0,2.099-1.284,3.622-2.999,3.622C621.834,83.226,620.97,82.422,620.97,80.863z M625.228,79.639c0-1.031-0.528-1.535-1.319-1.535
			c-1.104,0-1.967,1.164-1.967,2.723c0,1.032,0.528,1.535,1.319,1.535C624.364,82.362,625.228,81.21,625.228,79.639z"/>
		<path fill="#FFFFFF" d="M628.326,81.234c-0.096,0.768,0.156,1.091,0.684,1.091c0.576,0,1.463-0.695,2.255-1.835l0.372-3.094
			l0.972-0.06l-0.708,5.769h-0.959l0.168-1.355c-0.804,0.912-1.631,1.476-2.375,1.476c-1.104,0-1.535-0.696-1.391-1.895l0.479-3.934
			l0.984-0.06L628.326,81.234z"/>
		<path fill="#FFFFFF" d="M641.319,83.105h-0.96l0.168-1.355c-0.791,0.912-1.595,1.476-2.291,1.476
			c-1.007,0-1.511-0.959-1.511-2.267c0-2.482,1.224-3.718,2.843-3.718c0.684,0,1.415,0.204,2.398,0.636L641.319,83.105z
			 M639.52,78.104c-0.911,0-1.823,0.78-1.823,2.783c0,0.888,0.252,1.439,0.768,1.439c0.6,0,1.511-0.755,2.207-1.835l0.252-2.015
			C640.408,78.224,640,78.104,639.52,78.104z"/>
		<path fill="#FFFFFF" d="M646.911,78.332c-0.287-0.084-0.563-0.144-0.755-0.144c-0.48,0-1.056,0.468-1.823,1.715l-0.396,3.202
			h-0.96l0.684-5.709l0.983-0.06l-0.168,1.248c0.672-0.888,1.212-1.343,1.859-1.343c0.264,0,0.563,0.072,0.815,0.132L646.911,78.332
			z"/>
		<path fill="#FFFFFF" d="M651.472,82.482c-0.924,0.503-1.548,0.744-2.183,0.744c-1.212,0-1.896-0.84-1.896-2.315
			c0-2.411,1.283-3.67,2.915-3.67c0.983,0,1.595,0.624,1.595,1.355c0,0.972-0.672,1.931-3.526,2.411
			c-0.012,0.695,0.204,1.379,0.972,1.379c0.443,0,1.056-0.24,1.907-0.708L651.472,82.482z M648.389,80.251
			c2.075-0.384,2.567-1.02,2.567-1.583c0-0.3-0.265-0.588-0.72-0.588C649.276,78.08,648.533,78.884,648.389,80.251z"/>
		<path fill="#FFFFFF" d="M656.861,78.224h-0.947l0.168-0.863h0.887l0.217-1.787l0.971-0.06l-0.228,1.847h1.763l-0.168,0.863h-1.703
			l-0.419,3.466c-0.084,0.684,0.107,1.007,1.667-0.012l0.228,0.804c-0.779,0.492-1.367,0.744-1.787,0.744
			c-0.636,0-1.199-0.324-1.079-1.463L656.861,78.224z"/>
		<path fill="#FFFFFF" d="M664.683,79.244c0.097-0.768-0.155-1.091-0.671-1.091c-0.588,0-1.476,0.684-2.268,1.823l-0.371,3.13h-0.96
			l1.104-9.031l0.972-0.06l-0.576,4.701c0.804-0.912,1.632-1.475,2.375-1.475c1.104,0,1.523,0.696,1.379,1.907l-0.491,3.958h-0.96
			L664.683,79.244z"/>
		<path fill="#FFFFFF" d="M670.911,82.482c-0.924,0.503-1.548,0.744-2.183,0.744c-1.212,0-1.896-0.84-1.896-2.315
			c0-2.411,1.283-3.67,2.915-3.67c0.983,0,1.595,0.624,1.595,1.355c0,0.972-0.672,1.931-3.526,2.411
			c-0.012,0.695,0.204,1.379,0.972,1.379c0.443,0,1.056-0.24,1.907-0.708L670.911,82.482z M667.828,80.251
			c2.075-0.384,2.567-1.02,2.567-1.583c0-0.3-0.265-0.588-0.72-0.588C668.716,78.08,667.973,78.884,667.828,80.251z"/>
		<path fill="#FFFFFF" d="M677.404,74.015l-0.947,7.651c-0.097,0.744,0.312,0.828,1.438,0.504l-0.012,0.828
			c-0.468,0.132-0.863,0.228-1.308,0.228c-0.731,0-1.223-0.384-1.091-1.451l0.947-7.7L677.404,74.015z"/>
		<path fill="#FFFFFF" d="M680.416,77.336l-0.707,5.769h-0.96l0.684-5.709L680.416,77.336z M680.752,75.729
			c0,0.408-0.336,0.72-0.72,0.72c-0.323,0-0.539-0.216-0.539-0.528c0-0.408,0.312-0.72,0.695-0.72
			C680.512,75.202,680.752,75.417,680.752,75.729z"/>
		<path fill="#FFFFFF" d="M685.25,81.75c-0.791,0.912-1.583,1.476-2.278,1.476c-1.02,0-1.523-0.959-1.523-2.267
			c0-2.482,1.235-3.718,2.843-3.718c0.695,0,1.415,0.204,2.398,0.636l-0.647,5.313c-0.192,1.619-1.512,2.507-2.807,2.507
			c-0.743,0-1.451-0.168-2.11-0.42l0.239-0.864c0.72,0.264,1.415,0.42,1.979,0.42c0.803,0,1.619-0.612,1.738-1.595L685.25,81.75z
			 M684.255,78.104c-0.911,0-1.823,0.78-1.823,2.783c0,0.888,0.24,1.439,0.756,1.439c0.6,0,1.511-0.755,2.219-1.835l0.252-2.015
			C685.143,78.224,684.723,78.104,684.255,78.104z"/>
		<path fill="#FFFFFF" d="M691.982,79.244c0.097-0.768-0.155-1.091-0.671-1.091c-0.588,0-1.476,0.684-2.268,1.823l-0.371,3.13h-0.96
			l1.104-9.031l0.972-0.06l-0.576,4.701c0.804-0.912,1.632-1.475,2.375-1.475c1.104,0,1.523,0.696,1.379,1.907l-0.491,3.958h-0.96
			L691.982,79.244z"/>
		<path fill="#FFFFFF" d="M695.104,78.224h-0.947l0.168-0.863h0.887l0.217-1.787l0.971-0.06l-0.228,1.847h1.763l-0.168,0.863h-1.703
			l-0.419,3.466c-0.084,0.684,0.107,1.007,1.667-0.012l0.228,0.804c-0.779,0.492-1.367,0.744-1.787,0.744
			c-0.636,0-1.199-0.324-1.079-1.463L695.104,78.224z"/>
		<path fill="#FFFFFF" d="M701.824,80.863c0-2.099,1.283-3.622,2.998-3.622c1.368,0,2.231,0.804,2.231,2.363
			c0,2.099-1.283,3.622-2.999,3.622C702.688,83.226,701.824,82.422,701.824,80.863z M706.082,79.639
			c0-1.031-0.527-1.535-1.319-1.535c-1.104,0-1.967,1.164-1.967,2.723c0,1.032,0.527,1.535,1.319,1.535
			C705.219,82.362,706.082,81.21,706.082,79.639z"/>
		<path fill="#FFFFFF" d="M709.228,76.089c0.132-1.08,0.624-2.075,1.991-2.075c0.348,0,0.684,0.048,1.151,0.18l-0.18,0.839
			c-0.312-0.096-0.696-0.156-0.924-0.156c-0.768,0-0.995,0.588-1.092,1.319l-0.144,1.164h1.763l-0.168,0.863h-1.703l-0.647,5.397
			c-0.144,1.08-0.611,2.075-1.979,2.075c-0.348,0-0.695-0.048-1.163-0.18l0.191-0.839c0.324,0.096,0.672,0.156,0.911,0.156
			c0.768,0,1.008-0.588,1.092-1.319l0.636-5.289h-0.947l0.168-0.863h0.887L709.228,76.089z"/>
		<path fill="#FFFFFF" d="M716.296,78.224h-0.947l0.168-0.863h0.887l0.217-1.787l0.971-0.06l-0.228,1.847h1.763l-0.168,0.863h-1.703
			l-0.419,3.466c-0.084,0.684,0.107,1.007,1.667-0.012l0.228,0.804c-0.779,0.492-1.367,0.744-1.787,0.744
			c-0.636,0-1.199-0.324-1.079-1.463L716.296,78.224z"/>
		<path fill="#FFFFFF" d="M724.117,79.244c0.097-0.768-0.155-1.091-0.671-1.091c-0.588,0-1.476,0.684-2.268,1.823l-0.371,3.13h-0.96
			l1.104-9.031l0.972-0.06l-0.576,4.701c0.804-0.912,1.632-1.475,2.375-1.475c1.104,0,1.523,0.696,1.379,1.907l-0.491,3.958h-0.96
			L724.117,79.244z"/>
		<path fill="#FFFFFF" d="M730.346,82.482c-0.924,0.503-1.547,0.744-2.183,0.744c-1.212,0-1.896-0.84-1.896-2.315
			c0-2.411,1.283-3.67,2.914-3.67c0.984,0,1.596,0.624,1.596,1.355c0,0.972-0.672,1.931-3.526,2.411
			c-0.012,0.695,0.204,1.379,0.972,1.379c0.443,0,1.056-0.24,1.907-0.708L730.346,82.482z M727.264,80.251
			c2.074-0.384,2.566-1.02,2.566-1.583c0-0.3-0.264-0.588-0.72-0.588C728.15,78.08,727.407,78.884,727.264,80.251z"/>
		<path fill="#FFFFFF" d="M738.974,78.548l-1.943,4.558h-1.163l-1.104-5.709l1.02-0.06l0.804,4.846l1.942-4.786l1.14-0.06
			l0.779,4.846c0.792-1.392,1.428-3.059,1.848-4.846l0.959,0.072c-0.504,2.171-1.307,4.078-2.326,5.697h-1.115L738.974,78.548z"/>
		<path fill="#FFFFFF" d="M743.739,80.863c0-2.099,1.283-3.622,2.998-3.622c1.368,0,2.231,0.804,2.231,2.363
			c0,2.099-1.283,3.622-2.999,3.622C744.603,83.226,743.739,82.422,743.739,80.863z M747.997,79.639
			c0-1.031-0.527-1.535-1.319-1.535c-1.104,0-1.967,1.164-1.967,2.723c0,1.032,0.527,1.535,1.319,1.535
			C747.134,82.362,747.997,81.21,747.997,79.639z"/>
		<path fill="#FFFFFF" d="M753.841,78.332c-0.287-0.084-0.563-0.144-0.755-0.144c-0.48,0-1.056,0.468-1.823,1.715l-0.396,3.202
			h-0.96l0.684-5.709l0.983-0.06l-0.168,1.248c0.672-0.888,1.212-1.343,1.859-1.343c0.264,0,0.563,0.072,0.815,0.132L753.841,78.332
			z"/>
		<path fill="#FFFFFF" d="M756.398,74.015l-0.947,7.651c-0.097,0.744,0.312,0.828,1.438,0.504l-0.012,0.828
			c-0.468,0.132-0.863,0.228-1.308,0.228c-0.731,0-1.223-0.384-1.091-1.451l0.947-7.7L756.398,74.015z"/>
		<path fill="#FFFFFF" d="M762.337,83.105h-0.96l0.168-1.355c-0.791,0.912-1.595,1.476-2.29,1.476c-1.008,0-1.512-0.959-1.512-2.267
			c0-2.603,1.355-3.718,2.771-3.718c0.479,0,0.96,0.108,1.535,0.336l0.432-3.502l0.972-0.06L762.337,83.105z M760.538,78.104
			c-0.912,0-1.823,0.78-1.823,2.783c0,0.888,0.252,1.439,0.768,1.439c0.6,0,1.511-0.755,2.207-1.835l0.252-2.015
			C761.426,78.224,761.018,78.104,760.538,78.104z"/>
		<path fill="#FFFFFF" d="M765.171,82.434c0,0.42-0.336,0.744-0.744,0.744c-0.348,0-0.575-0.24-0.575-0.563
			c0-0.42,0.323-0.755,0.731-0.755C764.931,81.858,765.171,82.098,765.171,82.434z"/>
		<path fill="#FFFFFF" d="M772.273,76.053l-1.967,7.052h-1.044l2.411-8.383l1.308-0.072l1.535,7.244l3.273-7.172l1.319-0.072
			l0.372,8.456h-1.02l-0.252-7.064l-3.238,7.028l-1.175,0.072L772.273,76.053z"/>
		<path fill="#FFFFFF" d="M781.671,78.224h-0.947l0.168-0.863h0.887l0.217-1.787l0.971-0.06l-0.228,1.847h1.763l-0.168,0.863h-1.703
			l-0.419,3.466c-0.084,0.684,0.107,1.007,1.667-0.012l0.228,0.804c-0.779,0.492-1.367,0.744-1.787,0.744
			c-0.636,0-1.199-0.324-1.079-1.463L781.671,78.224z"/>
		<path fill="#FFFFFF" d="M789.986,78.32c0.335-0.036,0.647-0.06,0.923-0.06c1.812,0,2.639,0.768,2.639,2.099
			c0,1.943-1.343,2.867-3.178,2.867c-0.756,0-1.56-0.168-2.279-0.48l0.312-0.936c0.648,0.3,1.392,0.468,2.039,0.468
			c1.104,0,2.075-0.54,2.075-1.859c0-0.804-0.54-1.271-1.883-1.271h-1.739l0.552-4.461h4.39l-0.18,0.936h-3.347L789.986,78.32z"/>
		<path fill="#FFFFFF" d="M795.614,82.434c0,0.42-0.336,0.744-0.744,0.744c-0.348,0-0.575-0.24-0.575-0.563
			c0-0.42,0.323-0.755,0.731-0.755C795.374,81.858,795.614,82.098,795.614,82.434z M796.178,77.864c0,0.42-0.336,0.744-0.744,0.744
			c-0.348,0-0.587-0.24-0.587-0.563c0-0.42,0.336-0.756,0.743-0.756C795.938,77.289,796.178,77.528,796.178,77.864z"/>
		<path fill="#FFFFFF" d="M798.507,83.105l0.899-7.352l-2.184,0.804l0.12-1.02l2.315-0.852h0.923l-1.031,8.419H798.507z"/>
		<path fill="#FFFFFF" d="M804.397,78.464c0.779-0.456,1.127-1.151,1.127-1.787c0-0.792-0.623-1.175-1.57-1.175
			c-0.612,0-1.355,0.168-2.123,0.468l-0.072-0.936c0.792-0.288,1.655-0.467,2.411-0.467c1.367,0,2.422,0.54,2.422,1.859
			c0,1.151-0.684,1.943-1.402,2.446c0.779,0.468,1.127,1.127,1.127,1.835c0,1.799-1.56,2.519-3.154,2.519
			c-0.852,0-1.679-0.18-2.375-0.48l0.312-0.936c0.636,0.288,1.391,0.468,2.11,0.468c1.104,0,2.063-0.444,2.063-1.583
			c0-0.528-0.312-1.007-0.84-1.283h-1.835l0.18-0.948H804.397z"/>
		<path fill="#FFFFFF" d="M808.441,81.63c0.265,1.139-0.096,2.075-0.755,3.226l-0.815-0.096c0.659-1.14,0.755-1.907,0.503-3.046
			L808.441,81.63z"/>
		<path fill="#FFFFFF" d="M810.842,83.105l0.899-7.352l-2.183,0.804l0.119-1.02l2.315-0.852h0.923l-1.031,8.419H810.842z"/>
		<path fill="#FFFFFF" d="M816.876,74.686c-0.287,2.315-1.055,3.826-2.482,5.445h2.566l0.265-2.086l1.043-0.072l-0.264,2.159h1.606
			l-0.18,0.948h-1.547l-0.24,2.027h-1.031l0.24-2.027h-3.574l0.048-0.948c1.499-1.619,2.243-3.286,2.507-5.445H816.876z"/>
	</g>
	<g clip-path="url(#SVGID_4_)">
	</g>
	<g clip-path="url(#SVGID_4_)">
		<path fill="#FFFFFF" d="M653.278,195.804v-9.953h3.225c1.223,0,2.019,0.05,2.39,0.149c0.57,0.149,1.048,0.474,1.433,0.974
			c0.385,0.5,0.577,1.146,0.577,1.938c0,0.611-0.11,1.125-0.332,1.541c-0.223,0.417-0.504,0.744-0.846,0.981
			c-0.342,0.238-0.689,0.395-1.042,0.472c-0.479,0.095-1.175,0.143-2.084,0.143h-1.311v3.754H653.278z M655.288,187.535v2.825h1.1
			c0.792,0,1.321-0.052,1.589-0.156c0.267-0.104,0.477-0.267,0.628-0.489s0.228-0.48,0.228-0.774c0-0.362-0.106-0.661-0.319-0.896
			s-0.482-0.382-0.808-0.441c-0.24-0.045-0.723-0.068-1.446-0.068H655.288z"/>
		<path fill="#FFFFFF" d="M661.777,192.097c0-0.634,0.156-1.247,0.469-1.84c0.312-0.593,0.755-1.045,1.327-1.358
			c0.572-0.312,1.212-0.468,1.918-0.468c1.091,0,1.984,0.354,2.682,1.062s1.046,1.604,1.046,2.685c0,1.091-0.353,1.995-1.056,2.712
			c-0.704,0.717-1.59,1.076-2.658,1.076c-0.661,0-1.291-0.149-1.891-0.448c-0.601-0.299-1.056-0.737-1.368-1.313
			C661.934,193.628,661.777,192.926,661.777,192.097z M663.732,192.199c0,0.715,0.17,1.263,0.51,1.643
			c0.339,0.38,0.758,0.57,1.256,0.57s0.915-0.19,1.253-0.57c0.337-0.38,0.506-0.933,0.506-1.657c0-0.706-0.169-1.249-0.506-1.629
			c-0.338-0.38-0.755-0.57-1.253-0.57s-0.917,0.19-1.256,0.57C663.902,190.937,663.732,191.484,663.732,192.199z"/>
		<path fill="#FFFFFF" d="M672.219,195.804h-1.907v-7.21h1.771v1.025c0.304-0.484,0.576-0.803,0.818-0.957
			c0.242-0.154,0.517-0.231,0.825-0.231c0.434,0,0.853,0.12,1.256,0.36l-0.591,1.663c-0.321-0.208-0.62-0.312-0.896-0.312
			c-0.267,0-0.493,0.073-0.679,0.221c-0.186,0.147-0.332,0.413-0.438,0.797c-0.106,0.385-0.16,1.19-0.16,2.417V195.804z"/>
		<path fill="#FFFFFF" d="M678.79,188.594v1.521h-1.304v2.906c0,0.588,0.013,0.931,0.037,1.029c0.025,0.097,0.082,0.178,0.17,0.241
			c0.088,0.063,0.195,0.095,0.322,0.095c0.177,0,0.433-0.061,0.768-0.183l0.163,1.48c-0.444,0.19-0.946,0.285-1.508,0.285
			c-0.344,0-0.654-0.058-0.93-0.173c-0.276-0.115-0.479-0.265-0.607-0.448c-0.13-0.183-0.219-0.431-0.269-0.743
			c-0.041-0.222-0.062-0.67-0.062-1.344v-3.144h-0.875v-1.521h0.875v-1.432l1.915-1.114v2.546H678.79z"/>
		<path fill="#FFFFFF" d="M681.22,190.794l-1.731-0.312c0.194-0.697,0.529-1.213,1.005-1.548s1.182-0.502,2.118-0.502
			c0.851,0,1.484,0.101,1.901,0.302c0.416,0.201,0.709,0.457,0.879,0.767s0.255,0.879,0.255,1.708l-0.021,2.227
			c0,0.634,0.03,1.101,0.092,1.402c0.061,0.301,0.175,0.624,0.343,0.967h-1.888c-0.05-0.126-0.11-0.314-0.184-0.563
			c-0.031-0.113-0.054-0.188-0.067-0.224c-0.326,0.317-0.675,0.555-1.046,0.713s-0.767,0.238-1.188,0.238
			c-0.743,0-1.328-0.202-1.756-0.604c-0.427-0.403-0.641-0.912-0.641-1.527c0-0.408,0.097-0.771,0.291-1.09
			c0.195-0.319,0.468-0.563,0.818-0.733c0.351-0.169,0.856-0.318,1.518-0.444c0.892-0.167,1.51-0.324,1.854-0.469v-0.19
			c0-0.367-0.091-0.628-0.271-0.784c-0.182-0.156-0.522-0.234-1.025-0.234c-0.34,0-0.604,0.067-0.794,0.2
			C681.491,190.225,681.337,190.459,681.22,190.794z M683.772,192.342c-0.244,0.082-0.632,0.179-1.161,0.292
			c-0.529,0.113-0.876,0.224-1.039,0.333c-0.248,0.176-0.373,0.4-0.373,0.672c0,0.268,0.1,0.498,0.299,0.693
			c0.199,0.194,0.452,0.292,0.761,0.292c0.344,0,0.672-0.113,0.984-0.34c0.23-0.172,0.382-0.382,0.455-0.631
			c0.049-0.163,0.074-0.473,0.074-0.93V192.342z"/>
		<path fill="#FFFFFF" d="M687.207,195.804v-9.953h1.908v9.953H687.207z"/>
		<path fill="#FFFFFF" d="M693.459,188.594h1.059v-0.543c0-0.606,0.064-1.059,0.194-1.358c0.129-0.299,0.366-0.542,0.713-0.73
			c0.346-0.188,0.784-0.282,1.313-0.282c0.543,0,1.075,0.082,1.596,0.245l-0.259,1.331c-0.303-0.072-0.595-0.108-0.875-0.108
			c-0.276,0-0.475,0.064-0.595,0.193s-0.18,0.377-0.18,0.744v0.509h1.426v1.5h-1.426v5.71h-1.908v-5.71h-1.059V188.594z"/>
		<path fill="#FFFFFF" d="M698.163,192.097c0-0.634,0.156-1.247,0.469-1.84c0.312-0.593,0.755-1.045,1.327-1.358
			c0.572-0.312,1.212-0.468,1.918-0.468c1.091,0,1.984,0.354,2.682,1.062s1.046,1.604,1.046,2.685c0,1.091-0.353,1.995-1.056,2.712
			c-0.704,0.717-1.59,1.076-2.658,1.076c-0.661,0-1.291-0.149-1.891-0.448c-0.601-0.299-1.056-0.737-1.368-1.313
			C698.319,193.628,698.163,192.926,698.163,192.097z M700.118,192.199c0,0.715,0.17,1.263,0.51,1.643
			c0.339,0.38,0.758,0.57,1.256,0.57s0.915-0.19,1.253-0.57c0.337-0.38,0.506-0.933,0.506-1.657c0-0.706-0.169-1.249-0.506-1.629
			c-0.338-0.38-0.755-0.57-1.253-0.57s-0.917,0.19-1.256,0.57C700.288,190.937,700.118,191.484,700.118,192.199z"/>
		<path fill="#FFFFFF" d="M708.604,195.804h-1.907v-7.21h1.771v1.025c0.304-0.484,0.576-0.803,0.818-0.957
			c0.242-0.154,0.517-0.231,0.825-0.231c0.434,0,0.853,0.12,1.256,0.36l-0.591,1.663c-0.321-0.208-0.62-0.312-0.896-0.312
			c-0.267,0-0.493,0.073-0.679,0.221c-0.186,0.147-0.332,0.413-0.438,0.797c-0.106,0.385-0.16,1.19-0.16,2.417V195.804z"/>
		<path fill="#FFFFFF" d="M717.396,195.804l-2.906-7.21h2.003l1.358,3.68l0.394,1.229c0.104-0.312,0.17-0.518,0.197-0.618
			c0.063-0.204,0.131-0.407,0.203-0.611l1.372-3.68h1.962l-2.865,7.21H717.396z"/>
		<path fill="#FFFFFF" d="M722.385,192.097c0-0.634,0.156-1.247,0.469-1.84c0.312-0.593,0.755-1.045,1.327-1.358
			c0.572-0.312,1.212-0.468,1.918-0.468c1.091,0,1.984,0.354,2.682,1.062s1.046,1.604,1.046,2.685c0,1.091-0.353,1.995-1.056,2.712
			c-0.704,0.717-1.59,1.076-2.658,1.076c-0.661,0-1.291-0.149-1.891-0.448c-0.601-0.299-1.056-0.737-1.368-1.313
			C722.541,193.628,722.385,192.926,722.385,192.097z M724.34,192.199c0,0.715,0.17,1.263,0.51,1.643
			c0.339,0.38,0.758,0.57,1.256,0.57s0.915-0.19,1.253-0.57c0.337-0.38,0.506-0.933,0.506-1.657c0-0.706-0.169-1.249-0.506-1.629
			c-0.338-0.38-0.755-0.57-1.253-0.57s-0.917,0.19-1.256,0.57C724.51,190.937,724.34,191.484,724.34,192.199z"/>
		<path fill="#FFFFFF" d="M730.999,195.804v-9.953h1.908v9.953H730.999z"/>
		<path fill="#FFFFFF" d="M739.289,195.804v-1.08c-0.263,0.385-0.608,0.688-1.036,0.91s-0.879,0.333-1.354,0.333
			c-0.484,0-0.919-0.106-1.303-0.319c-0.385-0.212-0.663-0.511-0.836-0.896c-0.172-0.385-0.258-0.917-0.258-1.596v-4.562h1.908
			v3.313c0,1.014,0.035,1.635,0.105,1.864c0.069,0.229,0.197,0.41,0.383,0.543s0.421,0.2,0.706,0.2c0.326,0,0.618-0.089,0.876-0.268
			s0.435-0.4,0.53-0.666c0.095-0.265,0.143-0.913,0.143-1.945v-3.042h1.907v7.21H739.289z"/>
		<path fill="#FFFFFF" d="M749.275,195.804h-1.908v-3.68c0-0.778-0.04-1.282-0.122-1.511c-0.081-0.229-0.214-0.406-0.397-0.533
			c-0.183-0.127-0.403-0.19-0.661-0.19c-0.331,0-0.627,0.091-0.89,0.271c-0.263,0.181-0.442,0.421-0.54,0.72
			s-0.146,0.851-0.146,1.657v3.266h-1.908v-7.21h1.772v1.06c0.629-0.815,1.421-1.222,2.376-1.222c0.421,0,0.806,0.076,1.154,0.228
			c0.349,0.151,0.612,0.345,0.791,0.58c0.179,0.235,0.303,0.502,0.373,0.801s0.105,0.727,0.105,1.283V195.804z"/>
		<path fill="#FFFFFF" d="M754.196,188.594v1.521h-1.304v2.906c0,0.588,0.013,0.931,0.037,1.029c0.025,0.097,0.082,0.178,0.17,0.241
			c0.088,0.063,0.195,0.095,0.322,0.095c0.177,0,0.433-0.061,0.768-0.183l0.163,1.48c-0.444,0.19-0.946,0.285-1.508,0.285
			c-0.344,0-0.654-0.058-0.93-0.173c-0.276-0.115-0.479-0.265-0.607-0.448c-0.13-0.183-0.219-0.431-0.269-0.743
			c-0.041-0.222-0.062-0.67-0.062-1.344v-3.144h-0.875v-1.521h0.875v-1.432l1.915-1.114v2.546H754.196z"/>
		<path fill="#FFFFFF" d="M759.376,193.509l1.9,0.319c-0.244,0.697-0.63,1.228-1.157,1.592c-0.527,0.365-1.188,0.547-1.979,0.547
			c-1.254,0-2.182-0.41-2.783-1.229c-0.476-0.656-0.713-1.484-0.713-2.485c0-1.195,0.312-2.131,0.937-2.808
			c0.625-0.676,1.415-1.015,2.37-1.015c1.072,0,1.919,0.354,2.539,1.062s0.916,1.793,0.89,3.255h-4.78
			c0.014,0.566,0.168,1.006,0.462,1.32c0.294,0.315,0.661,0.472,1.1,0.472c0.299,0,0.55-0.082,0.754-0.245
			C759.117,194.134,759.271,193.872,759.376,193.509z M759.484,191.581c-0.014-0.552-0.156-0.972-0.428-1.259
			c-0.271-0.287-0.603-0.431-0.991-0.431c-0.417,0-0.761,0.152-1.032,0.455s-0.405,0.715-0.4,1.235H759.484z"/>
		<path fill="#FFFFFF" d="M766.789,193.509l1.9,0.319c-0.244,0.697-0.63,1.228-1.157,1.592c-0.527,0.365-1.188,0.547-1.979,0.547
			c-1.254,0-2.182-0.41-2.783-1.229c-0.476-0.656-0.713-1.484-0.713-2.485c0-1.195,0.312-2.131,0.937-2.808
			c0.625-0.676,1.415-1.015,2.37-1.015c1.072,0,1.919,0.354,2.539,1.062s0.916,1.793,0.89,3.255h-4.78
			c0.014,0.566,0.168,1.006,0.462,1.32c0.294,0.315,0.661,0.472,1.1,0.472c0.299,0,0.55-0.082,0.754-0.245
			C766.53,194.134,766.685,193.872,766.789,193.509z M766.897,191.581c-0.014-0.552-0.156-0.972-0.428-1.259
			c-0.271-0.287-0.603-0.431-0.991-0.431c-0.417,0-0.761,0.152-1.032,0.455s-0.405,0.715-0.4,1.235H766.897z"/>
		<path fill="#FFFFFF" d="M771.853,195.804h-1.907v-7.21h1.771v1.025c0.304-0.484,0.576-0.803,0.818-0.957
			c0.242-0.154,0.517-0.231,0.825-0.231c0.434,0,0.853,0.12,1.256,0.36l-0.591,1.663c-0.321-0.208-0.62-0.312-0.896-0.312
			c-0.267,0-0.493,0.073-0.679,0.221c-0.186,0.147-0.332,0.413-0.438,0.797c-0.106,0.385-0.16,1.19-0.16,2.417V195.804z"/>
		<path fill="#FFFFFF" d="M774.446,193.747l1.914-0.292c0.082,0.371,0.247,0.653,0.496,0.845s0.598,0.289,1.045,0.289
			c0.494,0,0.865-0.09,1.114-0.271c0.167-0.126,0.251-0.296,0.251-0.509c0-0.145-0.046-0.265-0.136-0.36
			c-0.096-0.09-0.308-0.174-0.639-0.251c-1.539-0.34-2.514-0.649-2.926-0.93c-0.57-0.389-0.855-0.93-0.855-1.623
			c0-0.625,0.246-1.15,0.74-1.575c0.493-0.425,1.258-0.638,2.294-0.638c0.987,0,1.721,0.161,2.2,0.482s0.811,0.797,0.991,1.426
			l-1.799,0.333c-0.077-0.28-0.224-0.496-0.438-0.645s-0.521-0.224-0.92-0.224c-0.502,0-0.862,0.07-1.079,0.211
			c-0.146,0.1-0.218,0.229-0.218,0.387c0,0.136,0.063,0.251,0.19,0.346c0.172,0.127,0.766,0.306,1.782,0.537
			c1.016,0.23,1.726,0.514,2.129,0.849c0.397,0.339,0.597,0.812,0.597,1.419c0,0.661-0.275,1.229-0.828,1.704
			c-0.552,0.475-1.369,0.713-2.451,0.713c-0.981,0-1.759-0.199-2.332-0.598C774.997,194.972,774.622,194.431,774.446,193.747z"/>
	</g>
</g>
</svg>
