<?xml version="1.0" encoding="utf-8"?>
<!-- Generator: Adobe Illustrator 16.0.0, SVG Export Plug-In . SVG Version: 6.00 Build 0)  -->
<!DOCTYPE svg PUBLIC "-//W3C//DTD SVG 1.1//EN" "http://www.w3.org/Graphics/SVG/1.1/DTD/svg11.dtd">
<svg xmlns="http://www.w3.org/2000/svg" xmlns:xlink="http://www.w3.org/1999/xlink" version="1.1" id="Layer_1" x="0px" y="0px" width="853px" height="248.5px" viewBox="0 0 853 248.5" enable-background="new 0 0 853 248.5" xml:space="preserve">
<rect fill="#008AC3" width="853" height="249.5"/>
<path fill="#FFFFFF" d="M816.18,83.58l-38.096,22.548c0,0-41.504,13.019-53.27,21.254c-13.803,9.661-17.83,1.579-37.197,10.826  c-6.783,3.239-5.842,7.045-19.316,10.922c-0.002-0.016-0.006-0.034-0.01-0.045c-0.061-0.104-0.125-0.203-0.184-0.307  c-0.029-0.052-0.057-0.109-0.064-0.167c-0.039-0.332-0.068-0.666-0.109-0.998c-0.02-0.159-0.047-0.319-0.088-0.474  c-0.076-0.28-0.105-0.56-0.076-0.849c0.008-0.074-0.037-0.152-0.051-0.229c-0.031-0.156-0.057-0.312-0.09-0.468  c-0.008-0.048-0.025-0.097-0.045-0.143c-0.131-0.32-0.105-0.638,0.086-0.913c0.125-0.181,0.311-0.324,0.486-0.461  c0.039-0.032,0.154,0.023,0.23,0.049c0.037,0.014,0.066,0.054,0.098,0.081c0.014-0.011,0.025-0.022,0.037-0.033  c-0.053-0.059-0.104-0.124-0.162-0.177c-0.139-0.124-0.162-0.289-0.049-0.481c0.043,0.055,0.082,0.103,0.127,0.161  c0.016-0.013,0.055-0.03,0.055-0.046c0-0.142,0.084-0.241,0.207-0.365c-0.131,0.017-0.213,0.028-0.289,0.039  c-0.049-0.068,0.041-0.169-0.072-0.201c0.016-0.029,0.029-0.059,0.033-0.066c-0.088-0.162-0.207-0.31-0.252-0.477  c-0.062-0.239-0.234-0.369-0.406-0.501c-0.074-0.057-0.092-0.087-0.043-0.165c0.084-0.137,0.029-0.212-0.1-0.306  c-0.146-0.109-0.26-0.271-0.377-0.419c-0.066-0.086-0.113-0.189-0.166-0.286c-0.217-0.408-0.623-0.485-1.018-0.553  c-0.418-0.073-0.84-0.017-1.252,0.093c-0.168,0.045-0.338,0.088-0.508,0.133c-0.078,0.021-0.113-0.003-0.143-0.083  c-0.18-0.504-0.369-1.004-0.547-1.508c-0.01-0.027,0.029-0.098,0.061-0.112c0.412-0.17,0.828-0.33,1.281-0.399  c-0.066-0.007-0.133-0.018-0.197-0.019c-0.16-0.002-0.32-0.006-0.48,0.004c-0.088,0.005-0.178,0.028-0.262,0.06  c-0.184,0.069-0.398,0.05-0.557,0.198c-0.242,0.225-0.422,0.491-0.508,0.807c-0.035,0.13-0.07,0.146-0.17,0.07  c-0.059,0.08-0.062,0.132,0.035,0.182c0.049,0.026,0.094,0.092,0.107,0.146c0.043,0.195,0.064,0.393,0.211,0.55  c0.021,0.023-0.018,0.118-0.047,0.168c-0.037,0.059-0.074,0.096-0.01,0.166c0.062,0.068,0.018,0.159-0.078,0.168  c-0.055,0.004-0.109-0.009-0.162-0.02c-0.113-0.021-0.221-0.029-0.285,0.089c0.145,0.027,0.295,0.038,0.434,0.086  c0.092,0.032,0.17,0.111,0.248,0.178c0.021,0.019,0.014,0.069,0.021,0.104c-0.033,0.005-0.068,0.022-0.1,0.014  c-0.221-0.059-0.223-0.061-0.307,0.149c-0.059,0.149-0.107,0.302-0.168,0.45c-0.115,0.283,0.018,0.553,0.023,0.852  c0.039-0.028,0.061-0.047,0.084-0.058c0.041-0.018,0.084-0.031,0.127-0.047c0.016,0.042,0.025,0.086,0.045,0.125  c0.104,0.215-0.012,0.387-0.131,0.573c0.086,0.014,0.15,0.025,0.219,0.037c-0.062,0.069-0.141,0.132-0.021,0.218  c0.02,0.013,0.014,0.056,0.025,0.084c0.025,0.074,0.062,0.146,0.082,0.222c0.012,0.045,0.008,0.098-0.004,0.144  c-0.023,0.105-0.043,0.214-0.09,0.309c-0.037,0.075-0.104,0.144-0.174,0.194c-0.098,0.071-0.107,0.224-0.092,0.344  c0.025,0.178,0.193,0.356,0.004,0.552c-0.068,0.071-0.066,0.211-0.102,0.329c0.02,0.009,0.049,0.021,0.08,0.034  c-0.006,0.018-0.006,0.037-0.016,0.045c-0.123,0.097-0.143,0.171-0.02,0.247c0.148,0.093,0.137,0.213,0.131,0.349  c-0.01,0.291,0.225,0.548,0.535,0.573c-0.021-0.048-0.041-0.087-0.059-0.127c0.178-0.098,0.178-0.14,0.109-0.348  c-0.043-0.134-0.09-0.298-0.051-0.421c0.057-0.183,0.184-0.346,0.297-0.507c0.021-0.032,0.123-0.043,0.168-0.021  c0.113,0.052,0.225,0.116,0.318,0.196c0.074,0.064,0.041,0.212-0.047,0.278c-0.15,0.117-0.191,0.285-0.109,0.454  c0.113,0.231,0.102,0.477,0.078,0.722c-0.045,0.434-0.105,0.865-0.049,1.302c0.002,0.029,0.008,0.067-0.008,0.089  c-0.141,0.22-0.049,0.435,0.014,0.649c0.066,0.237,0.141,0.458,0.352,0.632c0.035,0.03,0.047,0.078,0.07,0.118  c-1.447,0.349-3.025,0.697-4.752,1.045c-0.027-0.054-0.062-0.104-0.096-0.157c-0.066-0.104-0.137-0.207-0.203-0.311  c-0.107-0.164-0.229-0.32-0.314-0.493c-0.131-0.264-0.236-0.541-0.357-0.811c-0.111-0.248-0.229-0.493-0.342-0.74  c-0.047-0.104-0.098-0.207-0.135-0.314c-0.066-0.194-0.123-0.39-0.182-0.587c-0.055-0.187-0.107-0.375-0.156-0.563  c-0.074-0.277-0.152-0.553-0.211-0.832c-0.027-0.125-0.021-0.258-0.012-0.386c0.002-0.028,0.072-0.071,0.111-0.071  c0.045-0.001,0.09,0.04,0.137,0.06c0.133,0.057,0.27,0.069,0.383-0.026c0.23-0.192,0.451-0.396,0.674-0.597  c0.061-0.055,0.115-0.121,0.174-0.184c-0.061-0.029-0.096-0.085-0.043-0.19c0.07-0.134,0.125-0.26,0.027-0.433  c-0.086-0.153-0.088-0.356-0.119-0.538c-0.02-0.121-0.008-0.128,0.08-0.13c-0.043-0.1-0.09-0.215-0.146-0.326  c-0.023-0.052-0.072-0.094-0.094-0.146c-0.023-0.058-0.053-0.129-0.035-0.181c0.012-0.036,0.098-0.061,0.152-0.063  c0.102-0.007,0.207,0.014,0.309,0.007c0.043-0.003,0.082-0.048,0.123-0.074c-0.006-0.011-0.01-0.021-0.016-0.033  c-0.049,0.007-0.1,0.009-0.148,0.021c-0.16,0.039-0.258-0.092-0.385-0.142c-0.014-0.005-0.01-0.072-0.006-0.109  c0.021-0.166,0.021-0.311-0.105-0.456c-0.096-0.111-0.119-0.282-0.191-0.416c-0.121-0.22-0.262-0.424-0.537-0.484  c-0.064-0.013-0.129-0.077-0.168-0.135c-0.021-0.032,0.006-0.099,0.014-0.174c-0.244-0.287-0.516-0.608-0.785-0.932  c-0.025-0.032-0.023-0.088-0.031-0.12c-0.057-0.02-0.115-0.03-0.164-0.058c-0.152-0.083-0.303-0.171-0.451-0.259  c-0.045-0.027-0.086-0.065-0.133-0.09c-0.047-0.024-0.098-0.041-0.148-0.056c-0.088-0.027-0.184-0.036-0.264-0.078  c-0.193-0.103-0.381-0.193-0.613-0.145c-0.092,0.02-0.209-0.035-0.291-0.001c-0.152,0.063-0.297,0.156-0.43,0.254  c-0.129,0.094-0.238,0.212-0.359,0.314c-0.156,0.132-0.213,0.502-0.115,0.692c0.07,0.13,0.125,0.268,0.178,0.407  c0.006,0.018-0.053,0.085-0.07,0.08c-0.461-0.103-0.805,0.209-0.879,0.621c-0.023,0.12,0.016,0.251,0.021,0.377  c0.006,0.133,0.006,0.265,0.01,0.361c0.094,0.1,0.164,0.184,0.244,0.257c0.078,0.073,0.178,0.125,0.248,0.203  c0.033,0.037,0.039,0.116,0.031,0.172c-0.037,0.234-0.096,0.466-0.119,0.701c-0.021,0.217-0.086,0.408-0.221,0.576  c-0.02,0.022-0.031,0.05-0.053,0.083c0.027,0.003,0.043,0.01,0.053,0.005c0.049-0.027,0.119-0.092,0.143-0.078  c0.102,0.06,0.189,0.142,0.277,0.222c0.006,0.005-0.037,0.091-0.064,0.095c-0.137,0.019-0.133,0.126-0.158,0.221  c-0.014,0.047-0.055,0.09-0.09,0.127c-0.074,0.076-0.154,0.15-0.234,0.22c-0.059,0.051-0.121,0.098-0.188,0.142  c-0.086,0.06-0.17,0.13-0.266,0.166c-0.055,0.021-0.143,0.001-0.197-0.031c-0.037-0.022-0.047-0.095-0.062-0.147  c-0.049-0.16-0.105-0.179-0.25-0.099c-0.039,0.022-0.102,0.006-0.15,0.01c-0.047,0.004-0.092,0.013-0.137,0.02  c0.008,0.04,0.008,0.083,0.025,0.119c0.051,0.107,0.068,0.248,0.238,0.237c0.008-0.001,0.025,0.046,0.031,0.072  c0.047,0.178,0.055,0.366,0.223,0.502c0.064,0.051,0.076,0.175,0.096,0.27c0.041,0.192,0.082,0.378,0.234,0.521  c0.059,0.052,0.082,0.121-0.037,0.148c-0.113,0.027-0.229,0.062-0.342,0.107c0.104,0.001,0.207,0.007,0.311,0.001  c0.156-0.009,0.217,0.083,0.256,0.215c0.186,0.617,0.383,1.231,0.559,1.851c0.164,0.577,0.416,1.124,0.514,1.725  c0.055,0.33,0.191,0.647,0.299,0.969c-0.775,0.134-1.568,0.269-2.395,0.402c0-0.001-0.002-0.001-0.002-0.003  c-0.055-0.119-0.166-0.214-0.258-0.314c-0.031-0.036-0.08-0.057-0.092-0.064c0.004-0.147,0.02-0.27,0.004-0.387  c-0.01-0.063-0.076-0.118-0.115-0.177c-0.049-0.075-0.133-0.146-0.143-0.227c-0.041-0.344-0.262-0.579-0.461-0.829  c-0.047-0.056-0.094-0.114-0.123-0.178c-0.078-0.166-0.148-0.337-0.227-0.519c0.041-0.037,0.047-0.234-0.051-0.278  c-0.146-0.064-0.062-0.167-0.078-0.25c-0.008-0.046,0.023-0.1,0.016-0.147c-0.008-0.054-0.037-0.106-0.094-0.148  c0-0.082-0.012-0.167,0-0.247c0.023-0.149,0.059-0.297,0.092-0.444c0.037-0.159,0.07-0.32,0.123-0.474  c0.021-0.065,0.074-0.141,0.135-0.166c0.168-0.071,0.346-0.121,0.521-0.171c0.025-0.007,0.076,0.027,0.094,0.056  c0.066,0.103,0.123,0.213,0.186,0.32c0.014-0.006,0.029-0.012,0.045-0.018c-0.01-0.11-0.016-0.221-0.029-0.331  c-0.01-0.083,0.008-0.137,0.074-0.205c0.148-0.155,0.352-0.276,0.387-0.52c0.002-0.021,0.053-0.054,0.072-0.05  c0.033,0.008,0.074,0.037,0.084,0.067c0.018,0.055,0.018,0.116,0.027,0.176c0.191-0.22,0.182-0.297-0.068-0.431  c-0.1-0.053-0.119-0.128-0.104-0.223c0.053-0.36-0.07-0.638-0.375-0.835c-0.141-0.09-0.227-0.227-0.186-0.382  c0.072-0.268-0.08-0.395-0.26-0.527c-0.053-0.039-0.08-0.11-0.119-0.167c-0.014-0.023-0.021-0.058-0.041-0.072  c-0.32-0.249-0.58-0.556-0.797-0.893c-0.119-0.185-0.211-0.393-0.41-0.493c-0.193-0.098-0.41-0.148-0.615-0.217  c-0.064-0.021-0.148-0.016-0.191-0.057c-0.193-0.176-0.436-0.129-0.656-0.151c-0.07-0.006-0.172,0.107-0.223,0.187  c-0.141,0.214-0.268,0.437-0.387,0.662c-0.09,0.165,0.059,0.451,0.219,0.534c0.115,0.06,0.197,0.185,0.291,0.283  c0.008,0.008,0.002,0.047-0.01,0.052c-0.023,0.013-0.059,0.025-0.08,0.017c-0.039-0.018-0.072-0.052-0.109-0.077  c-0.203-0.136-0.301-0.159-0.537,0.015c-0.121,0.088-0.199,0.047-0.279-0.05c-0.172-0.211-0.391-0.307-0.662-0.248  c-0.088,0.019-0.174,0.067-0.25,0.117c-0.127,0.083-0.166,0.053-0.27-0.047c-0.182-0.177-0.211-0.41-0.299-0.623  c-0.043-0.103-0.15-0.182-0.236-0.263c-0.076-0.071-0.186-0.114-0.24-0.196c-0.139-0.215-0.35-0.234-0.572-0.267  c-0.195-0.029-0.387-0.114-0.582-0.124c-0.123-0.007-0.281,0.045-0.369,0.129c-0.188,0.177-0.336,0.394-0.504,0.591  c-0.029,0.035-0.078,0.055-0.117,0.081c-0.023,0.014-0.047,0.025-0.072,0.038c0.016,0.027,0.025,0.071,0.047,0.078  c0.15,0.049,0.18,0.167,0.195,0.303c0.016,0.156,0.127,0.308,0.012,0.47c-0.012,0.018-0.002,0.064,0.014,0.086  c0.113,0.159,0.078,0.312,0,0.472c-0.02,0.039,0.02,0.103,0.014,0.151c-0.012,0.068-0.025,0.181-0.062,0.19  c-0.064,0.02-0.176,0.004-0.221-0.043c-0.223-0.232-0.648-0.343-0.93-0.205c-0.074,0.036-0.137,0.118-0.178,0.193  c-0.119,0.228-0.229,0.465-0.051,0.714c0.043,0.061,0.107,0.114,0.174,0.15c0.184,0.105,0.197,0.153,0.131,0.344  c-0.062,0.188-0.109,0.381-0.152,0.574c-0.031,0.144-0.08,0.259-0.203,0.363c-0.133,0.113-0.219,0.282-0.332,0.422  c-0.053,0.065-0.119,0.119-0.184,0.174c-0.158,0.133-0.303,0.097-0.467-0.028c-0.227,0.131-0.248,0.341-0.123,0.565  c0.086,0.152,0.115,0.347,0.131,0.525c0.029,0.402,0.037,0.806,0.051,1.209c0.01,0.386,0.016,0.771,0.023,1.157  c0.01,0.356,0.023,0.713,0.027,1.07c0.006,0.456,0.008,0.913,0.004,1.369c0,0.039-0.061,0.104-0.102,0.112  c-0.182,0.035-0.363,0.056-0.547,0.078c-0.377,0.046-0.705,0.193-1.008,0.421c-0.023,0.018-0.049,0.032-0.072,0.049  c-10.875,1.351-24.758,2.683-42.639,3.975c-2.625,0.19-32.447,37.214-49.609,38.463c-17.16,1.249-50.441,1.134-50.441,1.134  l-10.799-4.772l-43.586,23.877l-65.76,1.92l-34.32,10.554h-66.662l-48.418,10h-34.844L-5.184,250.137l858.186-0.637v-178  L816.18,83.58z M663.863,145.464c-0.053-0.001-0.104-0.021-0.145-0.029c0.016-0.17,0.029-0.312,0.047-0.453  c0.004-0.032,0.031-0.06,0.049-0.09c0.025,0.03,0.064,0.056,0.072,0.09c0.025,0.117,0.027,0.241,0.066,0.353  C663.988,145.438,663.949,145.466,663.863,145.464 M665.406,149.227c-0.016-0.099,0.004-0.208,0.023-0.31  c0.041-0.21,0.096-0.418,0.141-0.627c0.062-0.278,0.113-0.559,0.182-0.835c0.021-0.097,0.084-0.184,0.139-0.304  c0.07,0.143,0.117,0.258,0.184,0.364c0.129,0.21,0.146,0.437,0.154,0.678c0.008,0.232,0.025,0.494,0.139,0.683  c0.125,0.209,0.363,0.347,0.551,0.521c0.027,0.027,0.047,0.064,0.07,0.098c-0.469,0.126-0.953,0.253-1.457,0.38  C665.49,149.659,665.441,149.443,665.406,149.227 M655.996,149.579c0.039-0.075,0.08-0.149,0.115-0.226  c0.109-0.232,0.217-0.464,0.334-0.716c0.074,0.199,0.119,0.368,0.197,0.52c0.133,0.261,0.285,0.513,0.434,0.766  c0.16,0.272,0.305,0.555,0.555,0.763c0.033,0.028,0.057,0.07,0.076,0.11c0.121,0.255,0.273,0.486,0.465,0.689  c-0.443,0.085-0.898,0.17-1.359,0.255c-0.053-0.1-0.105-0.202-0.166-0.299c-0.039-0.066-0.105-0.117-0.156-0.18  c-0.033-0.044-0.074-0.093-0.086-0.145c-0.025-0.13-0.043-0.254-0.156-0.347c-0.039-0.032-0.068-0.108-0.064-0.161  c0.021-0.249-0.07-0.465-0.186-0.672C655.928,149.813,655.936,149.699,655.996,149.579 M654.494,151.212  c-0.094-0.27-0.223-0.526-0.309-0.796c-0.297-0.924-0.578-1.853-0.873-2.777c-0.041-0.127-0.072-0.229,0.098-0.301  c-0.217-0.004-0.283-0.139-0.307-0.308c-0.012-0.074-0.014-0.15-0.014-0.225c0-0.046,0.012-0.092,0.018-0.139  c0.049,0.014,0.104,0.019,0.146,0.045c0.062,0.036,0.115,0.087,0.172,0.131c-0.041-0.197-0.289-0.214-0.332-0.447  c0.268,0.092,0.486,0.024,0.697-0.074c0.076-0.035,0.121-0.022,0.184,0.023c0.248,0.176,0.514,0.311,0.84,0.345  c0.002,0.047,0.012,0.089,0.002,0.126c-0.068,0.267-0.145,0.531-0.211,0.798c-0.012,0.047-0.008,0.102,0.004,0.15  c0.016,0.07,0.062,0.139,0.059,0.206c-0.008,0.159-0.068,0.319-0.055,0.474c0.037,0.372-0.004,0.737-0.033,1.106  c-0.035,0.405-0.014,0.812,0.139,1.2c0.012,0.036,0.002,0.08,0.008,0.12c0.008,0.072,0.006,0.15,0.033,0.216  c0.082,0.202,0.182,0.397,0.266,0.599c0.057,0.137,0.145,0.242,0.25,0.334c-0.164,0.029-0.328,0.058-0.494,0.087  C654.688,151.806,654.596,151.507,654.494,151.212 M649.98,144.132c0.105,0.22,0.203,0.443,0.318,0.694  c-0.105-0.014-0.191-0.027-0.279-0.038c-0.17-0.021-0.191-0.195-0.287-0.292c-0.111-0.112-0.008-0.38,0.146-0.417  C649.908,144.071,649.967,144.103,649.98,144.132 M649.303,143.149c0.025-0.016,0.109,0.017,0.131,0.05  c0.111,0.165,0.211,0.338,0.314,0.508c0.031,0.053,0.059,0.109,0.088,0.164l-0.033,0.036c-0.162-0.052-0.326-0.104-0.473-0.15  c-0.01,0.111-0.018,0.207-0.027,0.334c-0.129-0.247-0.242-0.463-0.361-0.692C649.064,143.312,649.18,143.222,649.303,143.149   M646.762,145.299c0.238,0.116,0.416,0.246,0.4,0.522c-0.002,0.02,0.008,0.04,0.006,0.06c-0.004,0.095,0.051,0.128,0.133,0.149  c0.119,0.03,0.24,0.064,0.354,0.111c0.09,0.037,0.133,0.107,0.109,0.218c-0.014,0.062,0.014,0.134,0.031,0.2  c0.039,0.162,0.084,0.322,0.137,0.518c-0.078-0.02-0.113-0.021-0.137-0.038c-0.145-0.091-0.289-0.179-0.422-0.282  c-0.062-0.049-0.113-0.125-0.141-0.2c-0.072-0.196-0.143-0.383-0.297-0.541C646.75,145.826,646.68,145.585,646.762,145.299   M645.578,149.568c0.039-0.073,0.092-0.136,0.137-0.206c0.047-0.075,0.092-0.153,0.133-0.232c0.117-0.223,0.264-0.436,0.336-0.672  c0.047-0.148,0.041-0.282,0.234-0.308c0.053-0.007,0.1-0.062,0.148-0.097c0.428-0.299,0.551-0.777,0.73-1.234  c0.021,0.007,0.055,0.009,0.076,0.025c0.154,0.117,0.305,0.239,0.463,0.352c0.08,0.058,0.111,0.124,0.123,0.223  c0.027,0.248,0.049,0.501,0.121,0.737c0.051,0.174,0.094,0.336,0.037,0.509c-0.039,0.124,0.008,0.18,0.123,0.197  c0.119,0.018,0.143,0.075,0.113,0.19c-0.033,0.129-0.062,0.268-0.045,0.396c0.008,0.066,0.117,0.133,0.193,0.169  c0.039,0.019,0.141-0.013,0.16-0.051c0.035-0.066,0.043-0.155,0.039-0.233c-0.006-0.107-0.078-0.237,0.039-0.305  c0.109-0.064,0.076-0.113,0.055-0.203c-0.018-0.064,0.037-0.146,0.059-0.22c0.059,0.053,0.152,0.096,0.17,0.16  c0.053,0.187,0.018,0.372-0.062,0.552c-0.152,0.348-0.303,0.696-0.439,1.049c-0.039,0.098,0.006,0.233-0.043,0.319  c-0.111,0.198-0.061,0.37,0.035,0.539c0.109,0.187,0.047,0.334-0.08,0.476c-0.098,0.109-0.16,0.23-0.129,0.384  c0.008,0.043,0.018,0.098-0.002,0.133c-0.078,0.152-0.066,0.289,0.016,0.439c0.045,0.084,0.047,0.194-0.1,0.212  c-0.352,0.046-0.703,0.096-1.055,0.138c-0.162,0.02-0.324,0.026-0.504,0.04c-0.018-0.065-0.041-0.151-0.064-0.237  c-0.057-0.208-0.096-0.423-0.176-0.622c-0.133-0.339-0.295-0.668-0.443-1.002c-0.045-0.104-0.092-0.21-0.125-0.319  c-0.111-0.378-0.221-0.756-0.322-1.136C645.518,149.684,645.551,149.618,645.578,149.568 M644.867,151.542  c0.094,0.157,0.215,0.273,0.232,0.407c0.062,0.432,0.088,0.87,0.129,1.316c-0.059-0.002-0.135-0.004-0.193-0.006  C644.941,152.698,644.752,152.157,644.867,151.542 M643.896,144.848c0.031,0.069,0.062,0.139,0.092,0.208  c-0.01,0.011-0.02,0.021-0.031,0.031c-0.033-0.015-0.09-0.024-0.098-0.047c-0.016-0.058-0.012-0.122-0.014-0.184  C643.861,144.854,643.879,144.851,643.896,144.848 M643.938,145.339c-0.012,0.005-0.021,0.011-0.033,0.017  c-0.064-0.029-0.127-0.079-0.193-0.085c-0.143-0.012-0.174-0.042-0.121-0.172c0.031-0.072,0.074-0.137,0.131-0.237  C643.801,145.041,643.869,145.189,643.938,145.339 M643.754,144.665c-0.041-0.06-0.094-0.113-0.121-0.177  c-0.033-0.074-0.045-0.157-0.074-0.264C643.793,144.37,643.811,144.415,643.754,144.665 M643.611,144.658l0.064,0.012  c-0.004,0.065,0.004,0.137-0.018,0.198c-0.008,0.024-0.076,0.026-0.119,0.039c-0.004-0.017-0.008-0.034-0.014-0.051  C643.555,144.79,643.584,144.724,643.611,144.658 M641.275,148.514c0.084,0.098,0.162,0.088,0.256,0.01  c0.076-0.062,0.162-0.115,0.252-0.157c0.17-0.081,0.344-0.153,0.518-0.225c0.057-0.023,0.133-0.065,0.176-0.045  c0.039,0.018,0.049,0.107,0.068,0.165c0.006,0.023,0,0.05,0,0.075c0.002,0.164,0.053,0.312,0.203,0.385  c0.252,0.125,0.516,0.23,0.74,0.328c0.041,0.08,0.072,0.14,0.121,0.236c0.064-0.107,0.102-0.161,0.131-0.218  c0.039-0.079,0.082-0.173,0.182-0.136c0.08,0.03,0.166,0.097,0.207,0.17c0.064,0.121,0.092,0.261,0.137,0.392  c0.047,0.13,0.023,0.244-0.066,0.349c-0.162,0.19-0.264,0.41-0.305,0.658c-0.043,0.256-0.121,0.508-0.035,0.771  c0.016,0.046-0.006,0.105-0.016,0.158c-0.043,0.249-0.094,0.498-0.135,0.749c-0.037,0.231-0.031,0.474-0.104,0.692  c-0.066,0.197-0.148,0.378-0.082,0.606c-0.729,0.098-1.441,0.193-2.166,0.29c-0.064-1.777-0.131-3.54-0.197-5.329  C641.215,148.472,641.254,148.485,641.275,148.514 M649.186,152.735c0.029-0.154,0.035-0.29,0.084-0.407  c0.107-0.264,0.154-0.516,0.051-0.799c-0.037-0.107,0.008-0.261,0.053-0.377c0.092-0.227,0.229-0.436,0.221-0.694  c0-0.021,0.008-0.041,0.016-0.087c0.078,0.078,0.119,0.119,0.16,0.161c0.098,0.102,0.176,0.234,0.293,0.3  c0.285,0.159,0.395,0.432,0.51,0.703c0.057,0.134,0.084,0.285,0.105,0.431c0.023,0.166,0.156,0.345,0.316,0.391  c0.008,0.117,0.018,0.236,0.025,0.37c-0.203,0.032-0.4,0.064-0.605,0.096C650.012,152.833,649.604,152.766,649.186,152.735" transform="translate(-0.5, 0)"/>
<path fill="#88BBDF" d="M852.002,250.5V127.043l-37,8.378l-38,15.639c0,0-51,9.496-62,14.992c-11,5.497-16,12.937-61,14.691  c-45,1.754-72,17.799-73,19.48c-1,1.684-16,12.85-33,13.715s-51.938,4.017-51.938,4.017l-10.701-3.309l-43.621,15.52L379,229.244  l-34,7.256h-66.035l-47.965,6h-34.516L1.342,250.409L852.002,250.5z" transform="translate(0.5, 0)"/>
<path fill="#003753" d="M852.002,250.5v-65.007l-37,4.412l-38,8.234c0,0-51,5-62,7.896c-11,2.894-16,6.811-61,7.734  c-45,0.923-72,9.372-73,10.258s-16,6.766-33,7.222s-56.924,8.083-56.924,8.083l-10.701-1.742l-37.799,4.749L379,239.493l-34,4.007  h-66.035l-47.965,3h-34.516L1.342,250.559L852.002,250.5z" transform="translate(1, 0)"/>
<path fill-rule="evenodd" clip-rule="evenodd" fill="#FFFFFF" d="M125.189,71.047c0,0-0.135,3.974-0.402,8.564  c-0.115,2.029-0.258,4.177-0.424,6.158l-0.248,1.414l-0.344,1.943c-0.537,3.061-1.982,7.563-5.812,11.648  c-0.643,0.686-1.371,1.414-2.248,2.251c-0.139,0.133-0.271,0.261-0.418,0.398l-0.684,0.639c-0.617,0.572-1.266,1.16-1.93,1.763  c-0.129,0.116-0.264,0.242-0.395,0.359c-1.635,0.02-3.525,0.152-5.453,0.344c-5.953,0.59-12.223,1.727-12.223,1.727l-3.121-11.118  c0,0,8.471,2.406,15.344,2.488c0.121,0.002,0.24,0.004,0.359,0.004c3.146,0,5.916-0.513,7.314-2.005  c2.533-2.696,0.932-12.192-0.357-18.013c-0.609-2.752-1.148-4.687-1.148-4.687L125.189,71.047z M121.883,139.948L121.883,139.948  c-4.545,0-8.248-2.895-9.457-6.597c-1.869-5.721,0.525-11.481,3.375-16.101c2.211-3.583,4.695-6.479,5.676-8.139  c0.396-0.671,0.785-1.355,1.156-2.055c0.076-0.141,0.152-0.281,0.227-0.423c0.07-0.134,0.131-0.264,0.197-0.396  c1.232-2.478,1.869-4.801,2.119-6.896c0.332-2.816-0.031-5.21-0.547-7.037c-0.896,2.953-2.537,6.365-5.521,9.548  c-0.725,0.773-1.488,1.522-2.264,2.264c-0.482,0.507-0.971,1.009-1.471,1.506c-0.223,0.221-0.447,0.443-0.67,0.663  c-2.453,2.403-5.332,5.023-7.871,7.9c-3.611,4.099-6.533,8.726-6.533,14.008c0,3.816,0.498,10.112,5.525,14.762  c4.277,3.959,13.107,6.627,13.859,6.627c0.479,0,3.5-3.348,5.398-5.99c1.918-2.672,4.762-6.35,4.824-6.659  C127.164,139.062,124.395,139.948,121.883,139.948 M113.598,105.163L113.598,105.163l0.664-0.657  c0.537-0.535,1.014-1.021,1.449-1.48c-0.139,0.133-0.271,0.261-0.418,0.398l-0.684,0.639c-0.617,0.572-1.266,1.16-1.93,1.763  c-0.129,0.116-0.264,0.242-0.395,0.359c0.088-0.001,0.176-0.003,0.264-0.003C112.904,105.837,113.256,105.497,113.598,105.163   M123.02,148.633c0.58-0.643,1.178-1.344,1.746-2.045l0.275,5.406l-11.477,4.762l0.717-7.225c2.143,0.833,4.605,1.626,5.402,1.626  C120.432,151.157,121.061,150.807,123.02,148.633 M152.822,101.787c0.006,0.629,0.006,1.258-0.018,1.888  c-0.021,0.628-0.027,1.258-0.059,1.888l-0.113,1.885c-0.074,1.257-0.223,2.508-0.344,3.761l-0.252,1.873  c-0.082,0.623-0.164,1.249-0.283,1.867c-0.225,1.239-0.406,2.488-0.705,3.713c-0.275,1.229-0.537,2.461-0.891,3.681l-0.496,1.836  c-0.164,0.614-0.373,1.193-0.557,1.791l-0.57,1.783c-0.191,0.634-0.434,1.197-0.646,1.8c-0.418,1.193-0.932,2.354-1.426,3.52  c-0.25,0.581-0.539,1.146-0.811,1.72l-0.414,0.858l-0.449,0.839c-0.584,1.127-1.24,2.219-1.918,3.295  c-0.691,1.069-1.424,2.116-2.209,3.124s-1.619,1.981-2.514,2.907c-0.453,0.457-0.912,0.911-1.4,1.341  c-0.494,0.439-0.959,0.839-1.568,1.256l-0.23,0.159l-0.291-0.006c-0.9-0.018-1.775-0.038-2.658-0.087  c-0.881-0.044-1.762-0.084-2.639-0.157c-0.879-0.07-1.762-0.113-2.637-0.211l-0.307-0.031l-0.08-1.571l-0.018-0.36l0.582,0.06  c0.861,0.099,1.727,0.143,2.592,0.216c0.863,0.073,1.73,0.116,2.596,0.161c0.762,0.045,1.531,0.068,2.285,0.087  c0.367-0.269,0.766-0.6,1.127-0.921c0.447-0.395,0.879-0.817,1.305-1.244c0.844-0.867,1.639-1.787,2.389-2.744  c0.75-0.959,1.453-1.957,2.121-2.981c0.652-1.033,1.295-2.074,1.869-3.157l0.441-0.806l0.408-0.824  c0.266-0.554,0.553-1.095,0.801-1.657c0.49-1.126,0.998-2.246,1.414-3.403c0.211-0.573,0.465-1.157,0.639-1.717l0.588-1.777  c0.188-0.592,0.408-1.187,0.57-1.776l0.496-1.773c0.354-1.175,0.621-2.382,0.902-3.586c0.303-1.198,0.506-2.416,0.75-3.628  c0.129-0.604,0.219-1.215,0.312-1.825l0.281-1.833c0.143-1.228,0.311-2.454,0.408-3.686l0.148-1.85  c0.039-0.616,0.059-1.233,0.092-1.852c0.035-0.618,0.045-1.235,0.051-1.854s0.025-1.237,0.008-1.854  c-0.014-1.235-0.055-2.472-0.141-3.705c-0.037-0.616-0.09-1.23-0.154-1.842c-0.025-0.308-0.068-0.611-0.104-0.917l-0.045-0.35  c-1.426,0.211-2.846,0.392-4.27,0.55c-1.619,0.176-3.24,0.324-4.867,0.436c-1.625,0.108-3.256,0.17-4.885,0.19  c-0.814,0.011-1.631,0.009-2.447-0.013c-0.814-0.017-1.631-0.049-2.445-0.104c-0.814-0.052-1.629-0.123-2.441-0.226  c-0.406-0.049-0.811-0.1-1.215-0.171c-0.404-0.06-0.809-0.134-1.209-0.221c-0.258-0.05-0.514-0.115-0.771-0.179  c-0.035-0.181-0.072-0.362-0.111-0.537c0.326,0.075,0.652,0.145,0.982,0.197c0.395,0.074,0.789,0.134,1.191,0.18  c0.396,0.058,0.797,0.096,1.199,0.131c0.799,0.076,1.604,0.122,2.408,0.148c0.805,0.029,1.611,0.038,2.418,0.028  c0.807-0.004,1.613-0.027,2.42-0.062c1.611-0.067,3.223-0.187,4.832-0.332c1.607-0.142,3.215-0.318,4.816-0.524  c1.6-0.208,3.205-0.44,4.783-0.716l0.57-0.099l0.104,0.608l0.074,0.435l0.074,0.472c0.041,0.313,0.09,0.627,0.125,0.941  c0.074,0.627,0.141,1.254,0.191,1.883c0.111,1.256,0.178,2.514,0.213,3.772C152.824,100.527,152.818,101.157,152.822,101.787   M99.639,138.78L99.639,138.78c-0.732-0.439-1.484-0.854-2.195-1.316l-1.057-0.704c-0.289-0.218-0.611-0.442-0.875-0.656  c-0.453-0.745-0.9-1.54-1.314-2.335c-0.461-0.829-0.859-1.694-1.277-2.546c-0.434-0.848-0.775-1.736-1.166-2.604  c-0.398-0.865-0.723-1.759-1.057-2.65c-0.33-0.89-0.693-1.775-0.949-2.681l-0.846-2.701c-0.242-0.925-0.453-1.871-0.686-2.803  l-0.344-1.403c-0.086-0.413-0.172-0.925-0.26-1.383l-0.521-2.824c-0.191-0.938-0.307-1.89-0.449-2.837l-0.41-2.844l-0.318-2.856  c-0.117-0.95-0.186-1.906-0.262-2.861c-0.074-0.954-0.158-1.909-0.193-2.866c-0.049-0.956-0.104-1.913-0.115-2.869  c-0.025-0.859-0.029-1.723-0.018-2.573c0.553-0.367,1.129-0.733,1.717-1.07c0.662-0.405,1.35-0.769,2.037-1.133  c0.68-0.38,1.385-0.71,2.09-1.044c0.701-0.336,1.402-0.677,2.127-0.966l2.158-0.909l2.195-0.783l1.1-0.391  c0.365-0.133,0.752-0.22,1.129-0.333l2.27-0.642l0.564-0.159c0.168-0.051,0.375-0.086,0.562-0.13l1.146-0.248  c0.766-0.159,1.527-0.344,2.297-0.485l2.318-0.376c0.771-0.141,1.551-0.215,2.328-0.308c0.643-0.07,1.283-0.147,1.926-0.2  c-0.018-0.102-0.037-0.202-0.057-0.303c-0.635,0.032-1.268,0.089-1.904,0.139c-0.783,0.069-1.57,0.119-2.352,0.237l-2.346,0.308  c-0.779,0.117-1.551,0.279-2.328,0.416l-1.164,0.215c-0.197,0.04-0.381,0.061-0.59,0.117l-0.572,0.144l-2.287,0.571  c-0.381,0.102-0.764,0.176-1.141,0.3l-1.135,0.363l-2.268,0.73l-2.217,0.854c-0.746,0.269-1.461,0.609-2.182,0.937  c-0.725,0.325-1.447,0.647-2.148,1.021c-0.707,0.359-1.414,0.716-2.102,1.119c-0.699,0.385-1.373,0.791-2.061,1.239l-0.23,0.151  l-0.01,0.288c-0.039,0.987-0.051,1.95-0.041,2.922c-0.006,0.97,0.033,1.938,0.062,2.906c0.02,0.97,0.086,1.936,0.143,2.901  c0.057,0.967,0.109,1.935,0.211,2.898l0.264,2.892l0.361,2.883c0.127,0.96,0.227,1.925,0.402,2.877l0.475,2.868  c0.084,0.488,0.146,0.929,0.248,1.46l0.318,1.409c0.215,0.94,0.42,1.878,0.652,2.817l0.852,2.823  c0.262,0.952,0.621,1.855,0.951,2.772c0.334,0.917,0.66,1.837,1.057,2.728c0.391,0.893,0.734,1.807,1.17,2.68  c0.422,0.88,0.822,1.769,1.287,2.63c0.447,0.874,0.91,1.719,1.43,2.59l0.066,0.11l0.107,0.092c0.387,0.332,0.736,0.568,1.105,0.854  l1.119,0.759c0.75,0.498,1.531,0.93,2.297,1.393l2.375,1.233c0.742,0.351,1.498,0.676,2.248,1.012  c-0.836-0.979-1.537-1.996-2.098-3.028L99.639,138.78z M137.201,108.142L137.201,108.142c4.201,0,6.848-0.352,6.848-0.352  l3.01-10.445c0,0-8.227,1.993-16.592,2.339c-1.145,0.048-2.156,0.064-3.051,0.064c-0.246,0-0.482-0.001-0.709-0.003  c-0.25,1.922-0.783,3.85-1.586,5.752l0.094,0.05c0.23,0.124,0.461,0.247,0.686,0.363l0.031,0.016l0.031,0.019  c0.949,0.542,1.824,1.122,2.646,1.741c1.068,0.102,2.178,0.195,3.355,0.275C133.887,108.093,135.648,108.142,137.201,108.142   M120.35,124.794c3.445,0,6.242,2.795,6.242,6.242c0,3.449-2.797,6.243-6.242,6.243c-3.447,0-6.242-2.794-6.242-6.243  C114.107,127.589,116.902,124.794,120.35,124.794 M134.262,116.973L134.262,116.973c-0.818-1.582-1.689-2.924-2.594-4.082  c-2.09-2.682-4.348-4.354-6.486-5.58c-0.234-0.12-0.475-0.248-0.713-0.377l-0.053,0.103c-0.051,0.104-0.1,0.209-0.154,0.312  c-0.055,0.101-0.107,0.202-0.16,0.302l-0.072,0.134c-0.162,0.3-0.328,0.605-0.5,0.909c-0.223,0.401-0.453,0.805-0.693,1.208  c-0.041,0.072-0.098,0.154-0.145,0.229c1.287,1.205,2.49,2.622,3.539,4.285c0.68,1.075,1.283,2.475,1.701,4.032  c0.789,2.952,0.895,6.46-0.469,9.365c0.447,0.983,0.703,2.073,0.703,3.222c0,2.944-1.637,5.512-4.047,6.845  c0.918-0.188,1.807-0.461,2.654-0.81c2.127-0.875,4.002-2.228,5.498-3.927c1.473-1.672,2.574-3.681,3.178-5.893  C136.238,123.848,135.971,120.276,134.262,116.973 M174.258,119.484v2.687h-1.801v-6.645h1.801v2.688l1.922-2.736l2.025,0.094  l-2.338,3.21l2.434,3.344l-2.121,0.094L174.258,119.484z M203.086,137.724c0.113,0.241,0.18,0.546,0.18,0.841  c0,0.732-0.393,1.461-1.508,1.461c-0.959,0-1.574-0.713-1.574-1.922c0-1.161,0.695-1.982,2.209-1.982  c1.939,0,2.609,0.942,2.609,2.25c0,0.415-0.055,0.952-0.146,1.392l-1.283-0.244c0.102-0.435,0.141-0.676,0.141-0.99  C203.713,138.024,203.541,137.752,203.086,137.724 M202.086,137.704L202.086,137.704c-0.521,0.02-0.68,0.168-0.68,0.407  c0,0.268,0.172,0.419,0.42,0.419c0.207,0,0.346-0.113,0.346-0.378C202.172,138.032,202.145,137.886,202.086,137.704   M200.252,134.202h3.154l-0.387-0.962h1.4l0.514,1.288v1.16h-4.682V134.202z M205.002,130.939c0,1.247-0.656,2.102-2.412,2.102  c-1.754,0-2.406-0.854-2.406-2.102c0-1.256,0.652-2.11,2.406-2.11C204.346,128.829,205.002,129.683,205.002,130.939   M201.473,130.939L201.473,130.939c0,0.273,0.213,0.532,1.117,0.532c0.91,0,1.123-0.265,1.123-0.532  c0-0.274-0.213-0.534-1.123-0.534C201.691,130.405,201.473,130.665,201.473,130.939 M201.539,127.024v1.506l-1.287-0.068v-3.395  l1.287-0.067c0.738,1.295,1.334,1.902,1.754,1.902c0.279,0,0.408-0.195,0.408-0.553c0-0.306-0.088-0.72-0.207-1.122l1.281-0.247  c0.131,0.5,0.227,1.062,0.227,1.575c0,1.001-0.369,1.834-1.576,1.834C202.645,128.389,201.979,127.844,201.539,127.024   M184.424,130.247l-0.521,9.46h-4.498l1.748-14.522l5.812-0.208l1.732,8.875l1.643-8.667l5.793-0.208l1.916,14.73h-4.564  l-0.539-9.46l-1.957,9.356l-4.543,0.208L184.424,130.247z M178.57,132.456c0,4.918-2.793,7.459-8.021,7.459  c-1.627,0-3.168-0.187-4.98-0.625v-14.21h5.959C175.9,125.08,178.57,127.393,178.57,132.456 M170.213,129.104L170.213,129.104v6.709  c0.293,0.062,0.605,0.083,0.877,0.083c1.791,0,2.582-1.211,2.582-3.355c0-2.416-0.812-3.437-2.166-3.437H170.213z M153.904,135.206  l-0.775,4.001c1.459,0.459,3.48,0.708,5.086,0.708c4.584,0,6.25-1.77,6.25-4.75c0-5.022-6.562-4.73-6.939-5.168  c-0.289-0.291-0.268-1.188,0.689-1.188c1.438,0,3.25,0.294,4.914,0.772l0.773-4c-1.457-0.479-3.438-0.71-5.045-0.71  c-4.604,0-6.289,1.772-6.289,4.789c0,4.482,5.5,4.713,6.936,5.13c0.291,0.29,0.291,1.166-0.686,1.166  C157.463,135.956,155.609,135.685,153.904,135.206 M162.922,120.913L162.922,120.913l-3.498,3.168h-4.273l2.375-3.168H162.922z   M199.32,117.466l0.623,3.172l0.514-3.076l1.723-0.097l0.531,3.172l0.625-3.172l1.666,0.097l-1.25,4.608h-1.848l-0.578-2.223  l-0.576,2.223h-1.846l-1.25-4.608L199.32,117.466z M194.955,117.418c1.504,0,2.412,0.814,2.412,2.424  c0,1.62-0.908,2.424-2.412,2.424c-1.508,0-2.418-0.804-2.418-2.424C192.537,118.232,193.447,117.418,194.955,117.418   M196.525,115.431L196.525,115.431l-1.25,1.59h-1.326l0.795-1.59H196.525z M194.955,120.846L194.955,120.846  c0.436,0,0.764-0.217,0.764-1.004c0-0.787-0.328-1.001-0.764-1.001c-0.445,0-0.77,0.214-0.77,1.001  C194.186,120.629,194.51,120.846,194.955,120.846 M189.014,120.365v1.806h-1.609v-7.08l1.609-0.095v4.137l1.186-1.667l1.816,0.097  l-1.6,2.11l1.838,2.453l-1.914,0.094L189.014,120.365z M184.836,119.18c0-0.237-0.123-0.339-0.428-0.339  c-0.291,0-0.783,0.074-1.568,0.292l-0.229-1.373c0.682-0.209,1.553-0.342,2.168-0.342c1.055,0,1.678,0.428,1.678,1.677v3.076h-1.213  l-0.172-0.329c-0.529,0.329-0.936,0.424-1.334,0.424c-0.729,0-1.363-0.463-1.363-1.372c0-0.985,0.635-1.362,2.461-1.555V119.18z   M184.836,120.951L184.836,120.951v-0.598c-0.711,0.097-0.928,0.144-0.928,0.426c0,0.2,0.135,0.285,0.332,0.285  C184.402,121.064,184.607,121.02,184.836,120.951 M181.91,119.237c-0.738-0.235-0.996-0.322-1.619,0.53v2.404h-1.609v-4.608  l1.609-0.097v0.73c0.672-0.786,1.086-0.9,1.801-0.673L181.91,119.237z M426.818,143.946h1.947v-0.003h0.051v-3.266h0.836  c1.139,0,2.018-0.262,2.633-0.785c0.617-0.522,0.928-1.279,0.928-2.267c0-0.95-0.291-1.665-0.869-2.146  c-0.58-0.479-1.428-0.717-2.541-0.717h-2.934v9.181h-0.051V143.946z M435.119,119.283h-2.174v-15.945  c5.428,0,7.973-0.515,7.973,9.061C440.918,116.271,438.969,119.283,435.119,119.283 M298.496,109.137v0.29  c0.004,6.084,0.152,11.014,4.791,15.575c5.568,5.473,15.08,5.005,22.467,3.057c1.281-0.339,1.916-0.698,3.184-0.803v-19.932h-14.133  l-0.363,9.422h3.625v2.537c-2.828,0-5.17,0.476-6.541-2.518c-1.559-3.397-2.844-13.789,6.178-13.789  c2.932,0,4.576,0.671,6.764,0.938c1.506,0.184,1.164,0.503,1.561-0.925c0.316-1.138,1.135-7.636,1.824-9.073  c-2.719-0.226-4.588-1.087-9.061-1.087c-7.633,0-15.232,0.477-18.857,9.409C299.238,103.953,298.496,106.708,298.496,109.137   M498.9,120.371c-3.635,0-2.898,0.957-2.898-7.248c2.727-0.061,1.475-0.838,5.072,0C501.389,114.469,503.156,120.371,498.9,120.371   M469.184,120.733c-3.674,0-3.26-2.995-3.26-5.798c0-3.809,6.16-4.466,6.16,0.724C472.084,117.734,471.951,120.733,469.184,120.733   M345.971,120.733c-3.676,0-3.262-2.995-3.262-5.798c0-3.809,6.162-4.466,6.162,0.724  C348.871,117.734,348.736,120.733,345.971,120.733 M548.549,118.921v2.9c-1.279,0.296-1.191,0.361-2.9,0.361  C544.969,119.265,545.846,119.55,548.549,118.921 M395.619,118.921v2.9c-1.279,0.296-1.191,0.361-2.9,0.361  C392.039,119.265,392.916,119.55,395.619,118.921 M525.719,106.599c0-4.606-0.25-3.251-4.004-2.919  c-1.088,0.097-2.516,0.019-3.629-0.001c-1.537-0.025-2.877-0.357-2.877,1.109v23.918h10.51v-11.96c0-0.508,1.545-4.198,6.477-2.811  l1.5,0.328c0.037,0.001,0.154-0.02,0.184-0.022c0.715-0.024,1.262-9.264,1.262-10.541c-2.43-0.566-3.162-0.97-5.439-0.007  C527.363,104.68,527.414,105.463,525.719,106.599 M372.787,106.599c0-4.606-0.248-3.251-4.004-2.919  c-3.449,0.306-6.506-0.867-6.506,1.108v23.918h10.51v-11.96c0-0.508,1.547-4.198,6.479-2.811l1.684,0.306  c0.715-0.024,1.26-9.264,1.26-10.541c-2.428-0.566-3.16-0.97-5.438-0.007C374.434,104.68,374.484,105.463,372.787,106.599   M339.811,101.526h8.334c1.531-2.285,6.398-6.965,6.887-9.059H344.16C343.191,93.91,339.963,99.688,339.811,101.526 M439.105,93.809  c-0.588-0.637,0.682-0.59-1.787-0.657l-15.969,0.04l-0.027,32.637c0.027,1.55,0.045,1.244,0.42,1.789  c1.518,1.119,6.531,1.384,8.455,1.661c3.262,0.472,7.137-0.009,9.68-0.529c13.621-2.782,15.615-17.235,11.664-26.611  C449.449,97.183,443.324,92.655,439.105,93.809 M384.021,104.788c0.043,1.936,1.014,6.46,1.449,8.335  c4.188-0.094,5.488-2.173,10.148-1.088v1.45c-4.158,0-11.229,1.45-12.527,5.595c-2.482,7.918,5.715,13.708,13.977,8.176  c2.326,1.704-1.908,1.45,9.059,1.45v-18.12c0-2.386-1.131-3.927-2.428-5.181C398.99,100.852,388.91,104.381,384.021,104.788   M536.951,104.788c0.043,1.936,1.014,6.46,1.449,8.335c4.188-0.094,5.488-2.173,10.148-1.088v1.45  c-4.158,0-11.229,1.45-12.527,5.595c-2.482,7.918,5.715,13.708,13.977,8.176c2.326,1.704-1.908,1.45,9.059,1.45v-18.12  c0-2.386-1.131-3.927-2.428-5.181c-1.822-1.761-2.721-1.785-5.807-2.192C546.281,102.614,540.309,104.509,536.951,104.788   M332.199,115.297v2.537c0,15.125,27.18,16.441,27.18-1.088c0-8.868-4.564-13.426-13.453-13.62  C338.031,102.955,332.199,107.263,332.199,115.297 M455.412,115.297v2.537c0,15.125,27.182,16.441,27.182-1.088  c0-8.868-4.566-13.426-13.455-13.62C461.244,102.955,455.412,107.263,455.412,115.297 M485.492,92.467v34.063  c0,1.435,3.621,1.751,5.846,2.13c11.26,1.918,20.971,0.706,20.971-13.363c0-4.67-1.879-8.966-4.762-10.82  c-4.119-2.65-7.994-0.844-11.545,1.036V92.104L485.492,92.467z M438.797,143.943h0.029h0.01h-0.01h0.01  c0.572-0.149,1.051-0.428,1.434-0.838c0.604-0.646,0.902-1.539,0.902-2.682c0-0.736-0.137-1.38-0.414-1.929  c-0.275-0.549-0.67-0.969-1.186-1.262c-0.516-0.294-1.109-0.44-1.781-0.44c-1.086,0-1.926,0.318-2.525,0.954  c-0.598,0.637-0.896,1.528-0.896,2.677c0,0.735,0.137,1.38,0.414,1.934c0.275,0.553,0.67,0.977,1.186,1.271  c0.238,0.136,0.494,0.241,0.764,0.315H438.797z M438.797,143.943h0.029H438.797z M444.627,143.943h0.045H444.627v0.003h-1.914h1.914  h-1.914v-0.003h0.045H444.627z M442.758,143.943h1.869h0.045v-3.57c0-0.566,0.172-1.005,0.512-1.319  c0.342-0.315,0.818-0.471,1.428-0.471c0.223,0,0.41,0.021,0.566,0.062l0.143-1.796c-0.172-0.037-0.387-0.056-0.646-0.056  c-0.436,0-0.838,0.121-1.207,0.36c-0.371,0.242-0.664,0.56-0.883,0.952h-0.096l-0.279-1.184h-1.451V143.943z M452.158,143.943h0.021  h0.01c0.205-0.05,0.396-0.114,0.572-0.193v-1.429c-0.471,0.147-0.871,0.22-1.209,0.22c-0.25,0-0.451-0.064-0.604-0.195  c-0.152-0.128-0.23-0.329-0.23-0.602v-3.382h1.967v-1.44h-1.967v-1.494h-1.223l-0.553,1.481l-1.055,0.641v0.812h0.916v3.387  c0,0.773,0.176,1.354,0.523,1.742c0.186,0.205,0.43,0.356,0.73,0.452h-0.051l0.008,0.003l0,0h2.121h0.01L452.158,143.943z   M456.9,143.943h0.021h0.01h-0.01h0.01c0.102-0.03,0.199-0.066,0.289-0.107c0.34-0.156,0.672-0.438,0.996-0.847h0.049l0.371,0.954  H456.9z M459.936,143.943h0.039v-4.677c0-0.837-0.25-1.461-0.754-1.871c-0.502-0.408-1.225-0.615-2.166-0.615  c-0.984,0-1.879,0.21-2.688,0.633l0.635,1.29c0.758-0.339,1.418-0.508,1.977-0.508c0.729,0,1.092,0.356,1.092,1.068v0.308  l-1.217,0.038c-1.051,0.037-1.836,0.234-2.357,0.588c-0.521,0.353-0.781,0.904-0.781,1.65c0,0.712,0.191,1.26,0.58,1.646  c0.205,0.203,0.449,0.354,0.734,0.45H459.936z M459.936,143.943h-1.299h-0.041l0.002,0.003h1.338h-1.338h1.338V143.943h0.039  H459.936z M456.922,143.943H456.9H456.922z M463.822,143.943h0.037H463.822v0.003h-1.914h1.914h-1.914v-0.003h0.037v-9.773h1.914  v9.773H463.822z M472.354,143.943h0.035l1.281-5.557h0.045l0.727,3.101l0.539,2.456H472.354z M474.947,143.943h-2.594v0.003h-2.061  h4.654h2.086h-2.086V143.943z M472.354,143.943h2.594H472.354z M477.035,143.943h0.031l2.021-7.021h-1.875l-0.844,3.107  c-0.043,0.185-0.109,0.541-0.207,1.065c-0.096,0.526-0.162,0.94-0.201,1.242h-0.037c-0.004-0.118-0.02-0.274-0.047-0.468  c-0.027-0.194-0.059-0.394-0.094-0.598c-0.031-0.203-0.064-0.395-0.102-0.574c-0.037-0.18-0.062-0.315-0.078-0.407l-0.822-3.367  h-2.109l-0.867,3.367l-0.102,0.534c-0.129,0.69-0.201,1.194-0.219,1.513h-0.037c-0.135-0.979-0.266-1.749-0.396-2.307l-0.811-3.107  h-1.906l1.994,7.021h-0.035v0.003h4.654h2.086L477.035,143.943h0.031H477.035z M484.238,143.943h0.004H484.238l-0.01,0.003h-0.016  h-2.088h2.088c-0.328,0.084-0.688,0.127-1.078,0.127c-0.361,0-0.697-0.043-1.012-0.127h0.002l-0.01-0.003h0.037h0.004H484.238z   M484.242,143.943h0.016H484.242h0.016c0.574-0.149,1.053-0.428,1.436-0.838c0.602-0.646,0.902-1.539,0.902-2.682  c0-0.736-0.137-1.38-0.414-1.929s-0.67-0.969-1.186-1.262c-0.516-0.294-1.109-0.44-1.783-0.44c-1.084,0-1.924,0.318-2.525,0.954  c-0.598,0.637-0.895,1.528-0.895,2.677c0,0.735,0.137,1.38,0.414,1.934c0.275,0.553,0.67,0.977,1.184,1.271  c0.24,0.136,0.494,0.241,0.766,0.315H484.242z M490.068,143.943h0.027H490.068v0.003h-1.916h1.916h-1.916v-0.003h0.029H490.068z   M488.182,143.943h1.887h0.027v-9.773h-1.914V143.943z M496.129,143.943h0.016c0.574-0.149,1.053-0.428,1.434-0.838  c0.604-0.646,0.904-1.539,0.904-2.682c0-0.736-0.137-1.38-0.414-1.929c-0.275-0.549-0.672-0.969-1.186-1.262  c-0.518-0.294-1.111-0.44-1.783-0.44c-1.084,0-1.924,0.318-2.525,0.954c-0.598,0.637-0.895,1.528-0.895,2.677  c0,0.735,0.137,1.38,0.412,1.934c0.277,0.553,0.672,0.977,1.186,1.271c0.238,0.136,0.494,0.241,0.766,0.315H496.129z   M496.129,143.943h0.016H496.129z M501.959,143.943h0.021v-3.303c0-0.829,0.121-1.423,0.359-1.781  c0.236-0.358,0.625-0.536,1.158-0.536c0.395,0,0.68,0.127,0.859,0.38s0.271,0.634,0.271,1.14v4.1H501.959z M504.605,143.943h-2.646  v0.003h-1.916h4.562h1.918h-1.918V143.943z M501.959,143.943h2.646H501.959z M506.523,143.943h0.021v-4.575  c0-0.835-0.213-1.471-0.635-1.912c-0.424-0.442-1.043-0.663-1.857-0.663c-0.477,0-0.904,0.086-1.277,0.26  c-0.375,0.173-0.668,0.431-0.881,0.769h-0.107l-0.258-0.9h-1.461v7.021h-0.025v0.003h4.562h1.918V143.943z M506.545,143.943h-0.021  H506.545z M512.102,143.943h0.008c0.205-0.05,0.396-0.114,0.572-0.193v-1.429c-0.471,0.147-0.871,0.22-1.209,0.22  c-0.25,0-0.451-0.064-0.604-0.195c-0.152-0.128-0.229-0.329-0.229-0.602v-3.382h1.965v-1.44h-1.965v-1.494h-1.225l-0.553,1.481  l-1.055,0.641v0.812h0.916v3.387c0,0.773,0.174,1.354,0.525,1.742c0.184,0.205,0.428,0.356,0.729,0.452H512.102z M512.102,143.943  h0.008H512.102z M516.842,143.943h0.008c0.105-0.03,0.201-0.066,0.291-0.107c0.34-0.156,0.674-0.438,0.996-0.847h0.049l0.371,0.954  h1.322v0.003h-1.338h-3.609h1.881c-0.289,0.084-0.635,0.127-1.039,0.127c-0.314,0-0.6-0.043-0.854-0.127h0.012l-0.008-0.003h0.016  h0.01h1.881H516.842z M518.539,143.943h-1.697l-0.008,0.003h-0.021h0.021h-0.021h-1.881h3.609h1.338h-1.338L518.539,143.943z   M516.842,143.943h0.008H516.842z M516.842,143.943h1.697H516.842z M519.879,143.943h0.016H519.879z M519.879,143.943h0.016v-4.677  c0-0.837-0.25-1.461-0.754-1.871c-0.502-0.408-1.225-0.615-2.166-0.615c-0.984,0-1.879,0.21-2.688,0.633l0.635,1.29  c0.758-0.339,1.418-0.508,1.977-0.508c0.729,0,1.094,0.356,1.094,1.068v0.308l-1.219,0.038c-1.049,0.037-1.836,0.234-2.357,0.588  c-0.521,0.353-0.781,0.904-0.781,1.65c0,0.712,0.191,1.26,0.58,1.646c0.205,0.203,0.449,0.354,0.734,0.45H519.879z M523.766,143.943  h0.014v-3.57c0-0.566,0.172-1.005,0.514-1.319c0.34-0.315,0.816-0.471,1.428-0.471c0.221,0,0.408,0.021,0.564,0.062l0.145-1.796  c-0.172-0.037-0.389-0.056-0.648-0.056c-0.434,0-0.838,0.121-1.207,0.36c-0.369,0.242-0.664,0.56-0.883,0.952h-0.094l-0.281-1.184  h-1.451v7.021h-0.016v0.003h1.916V143.943z M529.607,143.943h0.012v-7.021h-1.912v7.021H529.607z M529.607,143.943h0.012H529.607  v0.003h-1.914v-0.003h0.014H529.607z M535.006,143.943h0.002c0.125-0.038,0.246-0.084,0.361-0.139  c0.377-0.178,0.668-0.431,0.873-0.759h0.102l0.258,0.898h-0.012v0.003h1.471h-1.471h1.471v-0.003h0.008v-7.021h-1.914v3.302  c0,0.83-0.119,1.421-0.357,1.779c-0.238,0.358-0.625,0.538-1.16,0.538c-0.395,0-0.68-0.126-0.859-0.379s-0.27-0.634-0.27-1.141v-4.1  h-1.916v4.58c0,0.829,0.211,1.466,0.629,1.907c0.232,0.247,0.531,0.425,0.893,0.534h-0.02l0.008,0.003h1.873h0.023h-0.023h0.023  L535.006,143.943z M535.006,143.943h0.002H535.006z M538.061,143.943h0.008H538.061z M543.238,143.943  c0.396-0.094,0.727-0.24,0.988-0.438c0.502-0.377,0.75-0.926,0.75-1.646c0-0.347-0.061-0.647-0.18-0.9  c-0.123-0.251-0.311-0.472-0.566-0.665c-0.254-0.193-0.658-0.399-1.205-0.624c-0.615-0.246-1.014-0.432-1.195-0.559  c-0.182-0.124-0.273-0.274-0.273-0.446c0-0.306,0.283-0.458,0.848-0.458c0.316,0,0.631,0.047,0.936,0.143s0.633,0.221,0.984,0.371  l0.578-1.378c-0.801-0.367-1.621-0.551-2.467-0.551c-0.887,0-1.574,0.17-2.057,0.51c-0.484,0.341-0.725,0.823-0.725,1.445  c0,0.364,0.057,0.671,0.172,0.921c0.115,0.249,0.301,0.47,0.553,0.662c0.254,0.194,0.65,0.404,1.189,0.629  c0.377,0.16,0.678,0.299,0.904,0.417c0.225,0.121,0.385,0.229,0.477,0.322c0.094,0.094,0.141,0.216,0.141,0.367  c0,0.402-0.35,0.604-1.045,0.604c-0.34,0-0.73-0.056-1.178-0.17c-0.445-0.113-0.846-0.252-1.201-0.419v1.582  c0.277,0.118,0.574,0.212,0.887,0.28h-0.021l0.014,0.003h2.66h0.025h-0.025h0.025l0.012-0.003H543.238z M543.213,143.943h0.025  H543.213z M551.354,143.943h0.006H551.354v0.003h-5.549h5.549h-5.549v-0.003h0.008H551.354z M545.812,143.943h5.541h0.006v-1.466  h-3.279l3.168-4.31v-1.245h-5.24v1.466h3.061l-3.256,4.424V143.943z M554.51,143.943h-0.02H554.51z M556.422,143.943h0.002H556.422z   M556.422,143.943h0.002l2.633-7.021h-2.053l-1.301,3.95c-0.133,0.379-0.223,0.787-0.27,1.217h-0.037  c-0.043-0.469-0.121-0.874-0.234-1.217l-1.324-3.95h-2.098l2.789,6.97l-0.018,0.051H556.422z M428.816,139.082v-2.726h0.885  c0.533,0,0.924,0.108,1.174,0.326c0.248,0.219,0.373,0.555,0.373,1.012c0,0.451-0.148,0.797-0.447,1.033  c-0.295,0.237-0.744,0.355-1.344,0.355H428.816z M436.322,140.419c0-0.698,0.111-1.219,0.338-1.563  c0.225-0.345,0.594-0.519,1.104-0.519c0.516,0,0.885,0.173,1.111,0.521c0.227,0.348,0.338,0.868,0.338,1.562  c0,0.699-0.111,1.227-0.334,1.58c-0.225,0.354-0.592,0.53-1.102,0.53c-0.514,0-0.885-0.178-1.115-0.534  C436.436,141.639,436.322,141.114,436.322,140.419 M458.07,140.689v0.58c0,0.422-0.133,0.762-0.398,1.017s-0.619,0.384-1.062,0.384  c-0.619,0-0.93-0.27-0.93-0.81c0-0.378,0.135-0.658,0.406-0.842c0.273-0.187,0.689-0.285,1.246-0.302L458.07,140.689z   M481.744,140.419c0-0.698,0.113-1.219,0.34-1.563c0.225-0.345,0.594-0.519,1.104-0.519c0.514,0,0.885,0.173,1.109,0.521  c0.227,0.348,0.34,0.868,0.34,1.562c0,0.699-0.113,1.227-0.334,1.58c-0.227,0.354-0.592,0.53-1.104,0.53  c-0.514,0-0.885-0.178-1.113-0.534C481.859,141.639,481.744,141.114,481.744,140.419 M493.631,140.419  c0-0.698,0.111-1.219,0.34-1.563c0.225-0.345,0.594-0.519,1.104-0.519c0.514,0,0.885,0.173,1.109,0.521  c0.227,0.348,0.338,0.868,0.338,1.562c0,0.699-0.111,1.227-0.334,1.58c-0.225,0.354-0.59,0.53-1.1,0.53  c-0.516,0-0.887-0.178-1.115-0.534S493.631,141.114,493.631,140.419 M517.992,140.689v0.58c0,0.422-0.135,0.762-0.4,1.017  s-0.619,0.384-1.062,0.384c-0.619,0-0.93-0.27-0.93-0.81c0-0.378,0.135-0.658,0.406-0.842c0.273-0.187,0.688-0.285,1.246-0.302  L517.992,140.689z M527.625,135.105c0-0.624,0.348-0.936,1.043-0.936c0.693,0,1.041,0.312,1.041,0.936  c0,0.298-0.086,0.529-0.26,0.693c-0.174,0.165-0.436,0.248-0.781,0.248C527.973,136.047,527.625,135.732,527.625,135.105   M436.676,143.943l0.01,0.003h0.004h2.09h0.008h-0.008c-0.328,0.084-0.688,0.127-1.078,0.127c-0.359,0-0.697-0.043-1.012-0.127  h-0.004h0.004h2.09h0.008l0.01-0.003h-2.061h-0.004H436.676z M454.98,143.943l0.008,0.003c0.252,0.084,0.537,0.127,0.854,0.127  c0.402,0,0.748-0.043,1.039-0.127h0.01h-0.01h-1.893h1.893h0.01l0.01-0.003h-1.871H454.98z M494.008,143.943h0.029h0.006h2.084  h0.002l-0.01,0.003h-0.018h0.018h-0.018h-2.086h2.086c-0.328,0.084-0.688,0.127-1.078,0.127c-0.359,0-0.697-0.043-1.012-0.127h0.004  L494.008,143.943z M509.949,143.943h0.02h0.01h2.111h0.012l-0.012,0.003h-0.02h0.02h-0.02h-2.111h2.111  c-0.352,0.084-0.744,0.127-1.182,0.127c-0.359,0-0.672-0.042-0.939-0.127h0.01L509.949,143.943z M554.51,143.943h0.002h1.889h0.021  l-0.002,0.003h-0.021h-1.891h1.891l-0.336,0.894c-0.271,0.733-0.66,1.282-1.166,1.645c-0.504,0.365-1.094,0.547-1.768,0.547  c-0.33,0-0.654-0.036-0.975-0.107v-1.518c0.232,0.054,0.482,0.082,0.754,0.082c0.34,0,0.635-0.103,0.889-0.311  c0.256-0.209,0.453-0.521,0.594-0.939l0.096-0.292h0.021L554.51,143.943z M450.016,143.946L450.016,143.946h2.121h0.01h-0.01  c-0.352,0.084-0.744,0.127-1.18,0.127C450.598,144.073,450.283,144.031,450.016,143.946L450.016,143.946z M484.213,143.946h0.016  H484.213z M527.693,143.946h1.914H527.693z M533.102,143.946h1.873c-0.283,0.084-0.588,0.127-0.918,0.127  c-0.363,0-0.684-0.043-0.969-0.127H533.102z M540.545,143.946h2.66c-0.361,0.084-0.777,0.127-1.25,0.127  c-0.51,0-0.945-0.035-1.305-0.103c-0.039-0.008-0.08-0.016-0.119-0.024H540.545z M556.398,143.946h0.021H556.398z"/>
<g>
	<path fill="#FFFFFF" d="M289.404,11.115l-3.369,8.383h-1.26l-1.031-6.764l-2.662,6.764h-1.295l-1.332-8.383l1.068-0.072   l1.043,7.436l2.781-7.364l1.188-0.072l1.008,7.436l2.855-7.436L289.404,11.115z"/>
	<path fill="#FFFFFF" d="M288.463,21.561c0.648-0.624,1.236-1.308,1.764-2.063h-0.145l-1.439-5.709l1.043-0.06l1.129,4.881   c0.863-1.415,1.547-3.046,2.062-4.881l1.008,0.072c-0.947,3.466-2.592,6.225-4.689,8.275L288.463,21.561z"/>
	<path fill="#FFFFFF" d="M298.002,13.729l-0.672,5.445c-0.156,1.259-0.73,2.039-1.906,2.915l-0.648-0.576   c0.9-0.684,1.488-1.367,1.596-2.351l0.66-5.373L298.002,13.729z M298.338,12.122c0,0.408-0.324,0.72-0.707,0.72   c-0.336,0-0.553-0.216-0.553-0.528c0-0.408,0.324-0.72,0.695-0.72C298.109,11.594,298.338,11.81,298.338,12.122z"/>
	<path fill="#FFFFFF" d="M302.213,18.875c-0.924,0.503-1.547,0.744-2.184,0.744c-1.211,0-1.895-0.84-1.895-2.315   c0-2.411,1.283-3.67,2.914-3.67c0.984,0,1.596,0.624,1.596,1.355c0,0.972-0.672,1.931-3.525,2.411   c-0.012,0.695,0.203,1.379,0.971,1.379c0.443,0,1.057-0.24,1.906-0.708L302.213,18.875z M299.131,16.644   c2.074-0.384,2.566-1.02,2.566-1.583c0-0.3-0.264-0.588-0.719-0.588C300.018,14.473,299.275,15.276,299.131,16.644z"/>
	<path fill="#FFFFFF" d="M302.863,18.442c0.443,0.204,1.078,0.336,1.582,0.336c0.588,0,1.188-0.24,1.176-0.947   c-0.012-0.936-2.615-0.768-2.615-2.411c0-1.235,0.949-1.787,2.148-1.787c0.562,0,1.199,0.12,1.703,0.348l-0.229,0.828   c-0.42-0.192-1.055-0.336-1.559-0.336c-0.553,0-1.104,0.228-1.092,0.864c0.012,0.923,2.602,0.768,2.602,2.422   c0,1.26-0.959,1.859-2.207,1.859c-0.562,0-1.246-0.12-1.75-0.348L302.863,18.442z"/>
	<path fill="#FFFFFF" d="M307.949,14.617h-0.947l0.168-0.863h0.889l0.215-1.787l0.973-0.06l-0.229,1.847h1.764l-0.168,0.863h-1.703   l-0.42,3.466c-0.084,0.684,0.107,1.007,1.666-0.012l0.229,0.804c-0.779,0.492-1.367,0.744-1.787,0.744   c-0.637,0-1.199-0.324-1.08-1.463L307.949,14.617z"/>
	<path fill="#FFFFFF" d="M314.764,18.875c-0.924,0.503-1.547,0.744-2.182,0.744c-1.213,0-1.896-0.84-1.896-2.315   c0-2.411,1.285-3.67,2.916-3.67c0.982,0,1.594,0.624,1.594,1.355c0,0.972-0.672,1.931-3.525,2.411   c-0.012,0.695,0.203,1.379,0.971,1.379c0.445,0,1.057-0.24,1.908-0.708L314.764,18.875z M311.682,16.644   c2.074-0.384,2.566-1.02,2.566-1.583c0-0.3-0.264-0.588-0.719-0.588C312.57,14.473,311.826,15.276,311.682,16.644z"/>
	<path fill="#FFFFFF" d="M315.414,18.442c0.443,0.204,1.08,0.336,1.584,0.336c0.588,0,1.188-0.24,1.176-0.947   c-0.014-0.936-2.615-0.768-2.615-2.411c0-1.235,0.947-1.787,2.146-1.787c0.564,0,1.199,0.12,1.703,0.348l-0.229,0.828   c-0.42-0.192-1.055-0.336-1.559-0.336c-0.551,0-1.104,0.228-1.092,0.864c0.012,0.923,2.604,0.768,2.604,2.422   c0,1.26-0.959,1.859-2.207,1.859c-0.564,0-1.248-0.12-1.752-0.348L315.414,18.442z M319.168,11.042l-1.439,1.931h-0.898   l1.223-1.931H319.168z"/>
	<path fill="#FFFFFF" d="M322.541,13.633c0.492,0,1.068,0.072,1.668,0.192l-0.24,0.852c-0.541-0.12-1.092-0.18-1.439-0.18   c-1.199,0-2.004,0.875-2.004,2.663c0,0.936,0.264,1.583,1.02,1.583c0.469,0,1.031-0.228,1.871-0.684l0.217,0.816   c-0.912,0.503-1.561,0.744-2.172,0.744c-1.223,0-1.906-0.84-1.906-2.315C319.555,14.665,320.969,13.633,322.541,13.633z"/>
	<path fill="#FFFFFF" d="M325.637,13.729l-0.707,5.769h-0.959l0.684-5.709L325.637,13.729z M325.973,12.122   c0,0.408-0.336,0.72-0.719,0.72c-0.324,0-0.539-0.216-0.539-0.528c0-0.408,0.311-0.72,0.695-0.72   C325.734,11.594,325.973,11.81,325.973,12.122z"/>
	<path fill="#FFFFFF" d="M329.848,18.875c-0.924,0.503-1.547,0.744-2.182,0.744c-1.213,0-1.896-0.84-1.896-2.315   c0-2.411,1.283-3.67,2.916-3.67c0.982,0,1.594,0.624,1.594,1.355c0,0.972-0.672,1.931-3.525,2.411   c-0.012,0.695,0.203,1.379,0.971,1.379c0.445,0,1.057-0.24,1.908-0.708L329.848,18.875z M326.766,16.644   c2.074-0.384,2.566-1.02,2.566-1.583c0-0.3-0.264-0.588-0.719-0.588C327.654,14.473,326.91,15.276,326.766,16.644z"/>
	<path fill="#FFFFFF" d="M332.85,18.442c0.443,0.204,1.08,0.336,1.584,0.336c0.588,0,1.188-0.24,1.176-0.947   c-0.014-0.936-2.615-0.768-2.615-2.411c0-1.235,0.947-1.787,2.146-1.787c0.564,0,1.199,0.12,1.703,0.348l-0.229,0.828   c-0.42-0.192-1.055-0.336-1.559-0.336c-0.551,0-1.104,0.228-1.092,0.864c0.012,0.923,2.604,0.768,2.604,2.422   c0,1.26-0.959,1.859-2.207,1.859c-0.564,0-1.248-0.12-1.752-0.348L332.85,18.442z"/>
	<path fill="#FFFFFF" d="M336.967,17.255c0-2.099,1.283-3.622,2.998-3.622c1.367,0,2.23,0.804,2.23,2.363   c0,2.099-1.283,3.622-2.998,3.622C337.83,19.618,336.967,18.814,336.967,17.255z M341.225,16.032c0-1.031-0.529-1.535-1.32-1.535   c-1.104,0-1.967,1.164-1.967,2.723c0,1.032,0.527,1.535,1.32,1.535C340.359,18.754,341.225,17.603,341.225,16.032z"/>
	<path fill="#FFFFFF" d="M344.393,10.407l-0.947,7.651c-0.096,0.744,0.312,0.828,1.439,0.504l-0.012,0.828   c-0.469,0.132-0.863,0.228-1.309,0.228c-0.73,0-1.223-0.384-1.09-1.451l0.947-7.7L344.393,10.407z"/>
	<path fill="#FFFFFF" d="M349.504,21.969c-0.264,0.084-0.504,0.12-0.732,0.12c-0.852,0-1.223-0.48-1.223-1.068   c0-0.576,0.348-1.139,1.02-1.595l0.156-1.284c-0.793,0.912-1.596,1.476-2.291,1.476c-1.008,0-1.512-0.959-1.512-2.267   c0-2.482,1.223-3.718,2.842-3.718c0.684,0,1.416,0.204,2.398,0.636l-0.646,5.229c-0.721,0.36-1.127,0.899-1.127,1.355   c0,0.275,0.18,0.492,0.586,0.492c0.133,0,0.301-0.036,0.504-0.084L349.504,21.969z M347.717,14.497   c-0.912,0-1.824,0.78-1.824,2.783c0,0.888,0.252,1.439,0.768,1.439c0.6,0,1.512-0.755,2.207-1.835l0.252-2.015   C348.604,14.617,348.195,14.497,347.717,14.497z"/>
	<path fill="#FFFFFF" d="M356.895,18.635l-0.168,0.863h-4.377l0.035-0.804l3.719-4.078h-3.035l0.168-0.863h4.199l-0.025,0.803   l-3.742,4.078H356.895z"/>
	<path fill="#FFFFFF" d="M358.9,13.729l-0.707,5.769h-0.961l0.684-5.709L358.9,13.729z M359.236,12.122   c0,0.408-0.336,0.72-0.721,0.72c-0.322,0-0.539-0.216-0.539-0.528c0-0.408,0.312-0.72,0.695-0.72   C358.996,11.594,359.236,11.81,359.236,12.122z"/>
	<path fill="#FFFFFF" d="M363.111,18.875c-0.924,0.503-1.547,0.744-2.184,0.744c-1.211,0-1.895-0.84-1.895-2.315   c0-2.411,1.283-3.67,2.914-3.67c0.984,0,1.596,0.624,1.596,1.355c0,0.972-0.672,1.931-3.525,2.411   c-0.012,0.695,0.203,1.379,0.971,1.379c0.443,0,1.055-0.24,1.906-0.708L363.111,18.875z M360.029,16.644   c2.074-0.384,2.566-1.02,2.566-1.583c0-0.3-0.264-0.588-0.719-0.588C360.916,14.473,360.174,15.276,360.029,16.644z"/>
	<path fill="#FFFFFF" d="M368.078,19.498h-0.959l0.469-3.862c0.096-0.768-0.145-1.091-0.637-1.091c-0.527,0-1.344,0.684-2.074,1.823   l-0.373,3.13h-0.959l0.684-5.709l0.984-0.06l-0.168,1.332c0.73-0.84,1.523-1.427,2.195-1.427c0.91,0,1.342,0.563,1.342,1.451   c0.744-0.839,1.561-1.451,2.244-1.451c1.043,0,1.463,0.744,1.318,1.907l-0.492,3.958h-0.959l0.467-3.862   c0.098-0.768-0.143-1.091-0.623-1.091c-0.539,0-1.355,0.684-2.074,1.823L368.078,19.498z"/>
	<path fill="#FFFFFF" d="M374.164,13.729l-0.707,5.769h-0.961l0.684-5.709L374.164,13.729z M374.5,12.122   c0,0.408-0.336,0.72-0.721,0.72c-0.322,0-0.539-0.216-0.539-0.528c0-0.408,0.312-0.72,0.695-0.72   C374.26,11.594,374.5,11.81,374.5,12.122z"/>
	<path fill="#FFFFFF" d="M375.473,18.826c0,0.42-0.336,0.744-0.744,0.744c-0.348,0-0.576-0.24-0.576-0.563   c0-0.42,0.324-0.755,0.732-0.755C375.232,18.251,375.473,18.491,375.473,18.826z"/>
	<path fill="#FFFFFF" d="M378.027,18.826c0,0.42-0.334,0.744-0.742,0.744c-0.348,0-0.576-0.24-0.576-0.563   c0-0.42,0.324-0.755,0.732-0.755C377.789,18.251,378.027,18.491,378.027,18.826z"/>
	<path fill="#FFFFFF" d="M380.584,18.826c0,0.42-0.336,0.744-0.742,0.744c-0.35,0-0.576-0.24-0.576-0.563   c0-0.42,0.324-0.755,0.73-0.755C380.344,18.251,380.584,18.491,380.584,18.826z"/>
	<path fill="#FFFFFF" d="M392.688,11.115l-3.371,8.383h-1.26l-1.031-6.764l-2.662,6.764h-1.295l-1.332-8.383l1.068-0.072   l1.043,7.436l2.783-7.364l1.188-0.072l1.006,7.436l2.855-7.436L392.688,11.115z"/>
	<path fill="#FFFFFF" d="M391.744,21.561c0.648-0.624,1.236-1.308,1.764-2.063h-0.145l-1.439-5.709l1.045-0.06l1.127,4.881   c0.863-1.415,1.547-3.046,2.062-4.881l1.008,0.072c-0.947,3.466-2.59,6.225-4.689,8.275L391.744,21.561z"/>
	<path fill="#FFFFFF" d="M401.283,13.729l-0.672,5.445c-0.156,1.259-0.73,2.039-1.906,2.915l-0.648-0.576   c0.9-0.684,1.488-1.367,1.596-2.351l0.66-5.373L401.283,13.729z M401.619,12.122c0,0.408-0.324,0.72-0.707,0.72   c-0.336,0-0.553-0.216-0.553-0.528c0-0.408,0.324-0.72,0.695-0.72C401.391,11.594,401.619,11.81,401.619,12.122z"/>
	<path fill="#FFFFFF" d="M405.494,18.875c-0.924,0.503-1.547,0.744-2.184,0.744c-1.211,0-1.895-0.84-1.895-2.315   c0-2.411,1.283-3.67,2.914-3.67c0.984,0,1.596,0.624,1.596,1.355c0,0.972-0.672,1.931-3.525,2.411   c-0.012,0.695,0.203,1.379,0.971,1.379c0.443,0,1.055-0.24,1.908-0.708L405.494,18.875z M402.412,16.644   c2.074-0.384,2.566-1.02,2.566-1.583c0-0.3-0.264-0.588-0.719-0.588C403.299,14.473,402.557,15.276,402.412,16.644z"/>
	<path fill="#FFFFFF" d="M406.145,18.442c0.443,0.204,1.08,0.336,1.584,0.336c0.586,0,1.186-0.24,1.174-0.947   c-0.012-0.936-2.613-0.768-2.613-2.411c0-1.235,0.947-1.787,2.146-1.787c0.562,0,1.199,0.12,1.703,0.348l-0.229,0.828   c-0.42-0.192-1.055-0.336-1.559-0.336c-0.553,0-1.104,0.228-1.092,0.864c0.012,0.923,2.604,0.768,2.604,2.422   c0,1.26-0.961,1.859-2.207,1.859c-0.564,0-1.248-0.12-1.752-0.348L406.145,18.442z"/>
	<path fill="#FFFFFF" d="M411.232,14.617h-0.947l0.168-0.863h0.887l0.217-1.787l0.971-0.06l-0.229,1.847h1.764l-0.168,0.863h-1.703   l-0.42,3.466c-0.084,0.684,0.107,1.007,1.668-0.012l0.227,0.804c-0.779,0.492-1.367,0.744-1.787,0.744   c-0.635,0-1.199-0.324-1.078-1.463L411.232,14.617z"/>
	<path fill="#FFFFFF" d="M418.047,18.875c-0.924,0.503-1.547,0.744-2.184,0.744c-1.211,0-1.895-0.84-1.895-2.315   c0-2.411,1.283-3.67,2.914-3.67c0.984,0,1.596,0.624,1.596,1.355c0,0.972-0.672,1.931-3.527,2.411   c-0.012,0.695,0.205,1.379,0.973,1.379c0.443,0,1.055-0.24,1.906-0.708L418.047,18.875z M414.965,16.644   c2.074-0.384,2.566-1.02,2.566-1.583c0-0.3-0.264-0.588-0.721-0.588C415.852,14.473,415.107,15.276,414.965,16.644z"/>
	<path fill="#FFFFFF" d="M418.697,18.442c0.443,0.204,1.078,0.336,1.582,0.336c0.588,0,1.188-0.24,1.176-0.947   c-0.012-0.936-2.615-0.768-2.615-2.411c0-1.235,0.949-1.787,2.148-1.787c0.562,0,1.199,0.12,1.703,0.348l-0.229,0.828   c-0.42-0.192-1.055-0.336-1.559-0.336c-0.553,0-1.104,0.228-1.092,0.864c0.012,0.923,2.602,0.768,2.602,2.422   c0,1.26-0.959,1.859-2.207,1.859c-0.562,0-1.246-0.12-1.75-0.348L418.697,18.442z M422.451,11.042l-1.439,1.931h-0.9l1.225-1.931   H422.451z"/>
	<path fill="#FFFFFF" d="M425.822,13.633c0.492,0,1.068,0.072,1.668,0.192l-0.24,0.852c-0.539-0.12-1.092-0.18-1.439-0.18   c-1.199,0-2.002,0.875-2.002,2.663c0,0.936,0.264,1.583,1.02,1.583c0.467,0,1.031-0.228,1.871-0.684l0.215,0.816   c-0.91,0.503-1.559,0.744-2.17,0.744c-1.225,0-1.908-0.84-1.908-2.315C422.836,14.665,424.252,13.633,425.822,13.633z"/>
	<path fill="#FFFFFF" d="M428.92,13.729l-0.707,5.769h-0.961l0.684-5.709L428.92,13.729z M429.256,12.122   c0,0.408-0.336,0.72-0.721,0.72c-0.322,0-0.539-0.216-0.539-0.528c0-0.408,0.312-0.72,0.695-0.72   C429.016,11.594,429.256,11.81,429.256,12.122z"/>
	<path fill="#FFFFFF" d="M433.131,18.875c-0.924,0.503-1.547,0.744-2.184,0.744c-1.211,0-1.895-0.84-1.895-2.315   c0-2.411,1.283-3.67,2.914-3.67c0.984,0,1.596,0.624,1.596,1.355c0,0.972-0.672,1.931-3.527,2.411   c-0.012,0.695,0.205,1.379,0.973,1.379c0.443,0,1.055-0.24,1.906-0.708L433.131,18.875z M430.049,16.644   c2.074-0.384,2.566-1.02,2.566-1.583c0-0.3-0.264-0.588-0.721-0.588C430.936,14.473,430.191,15.276,430.049,16.644z"/>
	<path fill="#FFFFFF" d="M436.133,18.442c0.443,0.204,1.078,0.336,1.582,0.336c0.588,0,1.188-0.24,1.176-0.947   c-0.012-0.936-2.615-0.768-2.615-2.411c0-1.235,0.949-1.787,2.148-1.787c0.562,0,1.199,0.12,1.703,0.348l-0.229,0.828   c-0.42-0.192-1.055-0.336-1.559-0.336c-0.553,0-1.104,0.228-1.092,0.864c0.012,0.923,2.602,0.768,2.602,2.422   c0,1.26-0.959,1.859-2.207,1.859c-0.562,0-1.246-0.12-1.75-0.348L436.133,18.442z M439.887,11.042l-1.439,1.931h-0.9l1.225-1.931   H439.887z"/>
	<path fill="#FFFFFF" d="M444.457,14.94l-1.941,4.558h-1.164l-1.104-5.709l1.02-0.06l0.803,4.846l1.943-4.786l1.139-0.06   l0.781,4.846c0.791-1.392,1.426-3.059,1.846-4.846l0.961,0.072c-0.504,2.171-1.309,4.078-2.328,5.697h-1.115L444.457,14.94z"/>
	<path fill="#FFFFFF" d="M450.074,13.729l-0.707,5.769h-0.959l0.684-5.709L450.074,13.729z M450.41,12.122   c0,0.408-0.336,0.72-0.719,0.72c-0.324,0-0.541-0.216-0.541-0.528c0-0.408,0.312-0.72,0.697-0.72   C450.17,11.594,450.41,11.81,450.41,12.122z"/>
	<path fill="#FFFFFF" d="M454.801,19.498h-0.959l0.168-1.355c-0.791,0.912-1.596,1.476-2.291,1.476   c-1.008,0-1.512-0.959-1.512-2.267c0-2.482,1.225-3.718,2.844-3.718c0.684,0,1.414,0.204,2.398,0.636L454.801,19.498z    M453.002,14.497c-0.91,0-1.822,0.78-1.822,2.783c0,0.888,0.252,1.439,0.768,1.439c0.6,0,1.512-0.755,2.207-1.835l0.252-2.015   C453.891,14.617,453.482,14.497,453.002,14.497z"/>
	<path fill="#FFFFFF" d="M456.615,14.617h-0.947l0.168-0.863h0.887l0.217-1.787l0.971-0.06l-0.229,1.847h1.764l-0.168,0.863h-1.703   l-0.42,3.466c-0.084,0.684,0.107,1.007,1.668-0.012l0.227,0.804c-0.779,0.492-1.367,0.744-1.787,0.744   c-0.635,0-1.199-0.324-1.078-1.463L456.615,14.617z"/>
	<path fill="#FFFFFF" d="M461.666,10.407L461.09,15l1.236-0.647l-0.049,0.936l-1.307,0.684l-0.252,2.086   c-0.096,0.744,0.312,0.828,1.439,0.504l-0.012,0.828c-0.469,0.132-0.863,0.228-1.309,0.228c-0.73,0-1.223-0.384-1.09-1.451   l0.203-1.655l-1.02,0.528l0.049-0.936l1.09-0.564l0.625-5.073L461.666,10.407z"/>
	<path fill="#FFFFFF" d="M462.256,17.255c0-2.099,1.283-3.622,2.998-3.622c1.367,0,2.23,0.804,2.23,2.363   c0,2.099-1.283,3.622-2.998,3.622C463.119,19.618,462.256,18.814,462.256,17.255z M466.514,16.032c0-1.031-0.527-1.535-1.32-1.535   c-1.104,0-1.967,1.164-1.967,2.723c0,1.032,0.529,1.535,1.32,1.535C465.65,18.754,466.514,17.603,466.514,16.032z"/>
	<path fill="#FFFFFF" d="M467.822,18.442c0.445,0.204,1.08,0.336,1.584,0.336c0.588,0,1.188-0.24,1.176-0.947   c-0.012-0.936-2.615-0.768-2.615-2.411c0-1.235,0.947-1.787,2.146-1.787c0.564,0,1.199,0.12,1.703,0.348l-0.227,0.828   c-0.42-0.192-1.057-0.336-1.561-0.336c-0.551,0-1.104,0.228-1.09,0.864c0.012,0.923,2.602,0.768,2.602,2.422   c0,1.26-0.959,1.859-2.207,1.859c-0.562,0-1.246-0.12-1.75-0.348L467.822,18.442z M471.576,11.042l-1.438,1.931h-0.9l1.223-1.931   H471.576z"/>
	<path fill="#FFFFFF" d="M474.949,13.633c0.492,0,1.068,0.072,1.668,0.192l-0.24,0.852c-0.539-0.12-1.092-0.18-1.439-0.18   c-1.199,0-2.002,0.875-2.002,2.663c0,0.936,0.264,1.583,1.02,1.583c0.467,0,1.031-0.228,1.871-0.684l0.215,0.816   c-0.912,0.503-1.559,0.744-2.17,0.744c-1.225,0-1.908-0.84-1.908-2.315C471.963,14.665,473.379,13.633,474.949,13.633z"/>
	<path fill="#FFFFFF" d="M478.047,13.729l-0.709,5.769h-0.959l0.684-5.709L478.047,13.729z M478.383,12.122   c0,0.408-0.336,0.72-0.721,0.72c-0.324,0-0.539-0.216-0.539-0.528c0-0.408,0.312-0.72,0.695-0.72   C478.143,11.594,478.383,11.81,478.383,12.122z"/>
	<path fill="#FFFFFF" d="M482.76,21.969c-0.264,0.084-0.502,0.12-0.73,0.12c-0.852,0-1.225-0.48-1.225-1.068   c0-0.576,0.35-1.139,1.02-1.595l0.156-1.284c-0.791,0.912-1.594,1.476-2.291,1.476c-1.006,0-1.51-0.959-1.51-2.267   c0-2.482,1.223-3.718,2.842-3.718c0.684,0,1.416,0.204,2.398,0.636l-0.646,5.229c-0.721,0.36-1.129,0.899-1.129,1.355   c0,0.275,0.18,0.492,0.588,0.492c0.133,0,0.301-0.036,0.504-0.084L482.76,21.969z M480.973,14.497c-0.91,0-1.822,0.78-1.822,2.783   c0,0.888,0.252,1.439,0.768,1.439c0.6,0,1.512-0.755,2.207-1.835l0.252-2.015C481.861,14.617,481.453,14.497,480.973,14.497z"/>
	<path fill="#FFFFFF" d="M486.182,18.442c0.445,0.204,1.08,0.336,1.584,0.336c0.588,0,1.188-0.24,1.176-0.947   c-0.012-0.936-2.615-0.768-2.615-2.411c0-1.235,0.947-1.787,2.146-1.787c0.564,0,1.199,0.12,1.703,0.348l-0.227,0.828   c-0.42-0.192-1.057-0.336-1.561-0.336c-0.551,0-1.104,0.228-1.09,0.864c0.012,0.923,2.602,0.768,2.602,2.422   c0,1.26-0.959,1.859-2.207,1.859c-0.562,0-1.246-0.12-1.75-0.348L486.182,18.442z M489.936,11.042l-1.438,1.931h-0.9l1.223-1.931   H489.936z"/>
	<path fill="#FFFFFF" d="M494.508,14.94l-1.941,4.558h-1.164l-1.104-5.709l1.02-0.06l0.803,4.846l1.943-4.786l1.139-0.06   l0.781,4.846c0.791-1.392,1.426-3.059,1.846-4.846l0.961,0.072c-0.504,2.171-1.309,4.078-2.328,5.697h-1.115L494.508,14.94z"/>
	<path fill="#FFFFFF" d="M500.125,13.729l-0.707,5.769h-0.959l0.684-5.709L500.125,13.729z M500.461,12.122   c0,0.408-0.336,0.72-0.719,0.72c-0.324,0-0.541-0.216-0.541-0.528c0-0.408,0.312-0.72,0.697-0.72   C500.221,11.594,500.461,11.81,500.461,12.122z"/>
	<path fill="#FFFFFF" d="M504.852,19.498h-0.959l0.168-1.355c-0.793,0.912-1.596,1.476-2.291,1.476   c-1.008,0-1.512-0.959-1.512-2.267c0-2.482,1.225-3.718,2.844-3.718c0.684,0,1.414,0.204,2.398,0.636L504.852,19.498z    M503.053,14.497c-0.912,0-1.822,0.78-1.822,2.783c0,0.888,0.252,1.439,0.768,1.439c0.6,0,1.51-0.755,2.205-1.835l0.252-2.015   C503.939,14.617,503.533,14.497,503.053,14.497z"/>
	<path fill="#FFFFFF" d="M506.666,14.617h-0.947l0.168-0.863h0.887l0.217-1.787l0.971-0.06l-0.229,1.847h1.764l-0.168,0.863h-1.703   l-0.42,3.466c-0.084,0.684,0.107,1.007,1.668-0.012l0.227,0.804c-0.779,0.492-1.367,0.744-1.787,0.744   c-0.635,0-1.199-0.324-1.078-1.463L506.666,14.617z"/>
	<path fill="#FFFFFF" d="M513.996,19.498h-0.959l0.168-1.355c-0.793,0.912-1.596,1.476-2.291,1.476   c-1.008,0-1.512-0.959-1.512-2.267c0-2.482,1.223-3.718,2.842-3.718c0.684,0,1.416,0.204,2.398,0.636L513.996,19.498z    M512.197,14.497c-0.912,0-1.824,0.78-1.824,2.783c0,0.888,0.252,1.439,0.768,1.439c0.6,0,1.512-0.755,2.207-1.835l0.252-2.015   C513.084,14.617,512.676,14.497,512.197,14.497z"/>
	<path fill="#FFFFFF" d="M516.014,18.826c0,0.42-0.336,0.744-0.744,0.744c-0.348,0-0.574-0.24-0.574-0.563   c0-0.42,0.322-0.755,0.73-0.755C515.773,18.251,516.014,18.491,516.014,18.826z"/>
	<path fill="#FFFFFF" d="M523.117,12.446l-1.967,7.052h-1.045l2.412-8.383l1.307-0.072l1.535,7.244l3.273-7.172l1.32-0.072   l0.371,8.456h-1.02l-0.252-7.064l-3.238,7.028l-1.174,0.072L523.117,12.446z"/>
	<path fill="#FFFFFF" d="M532.514,14.617h-0.947l0.168-0.863h0.887l0.217-1.787l0.971-0.06l-0.229,1.847h1.764l-0.168,0.863h-1.703   l-0.42,3.466c-0.084,0.684,0.107,1.007,1.668-0.012l0.227,0.804c-0.779,0.492-1.367,0.744-1.787,0.744   c-0.635,0-1.199-0.324-1.078-1.463L532.514,14.617z"/>
	<path fill="#FFFFFF" d="M540.828,14.713c0.336-0.036,0.648-0.06,0.924-0.06c1.811,0,2.639,0.768,2.639,2.099   c0,1.943-1.344,2.867-3.178,2.867c-0.756,0-1.559-0.168-2.279-0.48l0.312-0.936c0.646,0.3,1.391,0.468,2.039,0.468   c1.104,0,2.074-0.54,2.074-1.859c0-0.804-0.539-1.271-1.883-1.271h-1.738l0.551-4.461h4.391l-0.182,0.936h-3.346L540.828,14.713z"/>
	<path fill="#FFFFFF" d="M546.457,18.826c0,0.42-0.336,0.744-0.742,0.744c-0.35,0-0.576-0.24-0.576-0.563   c0-0.42,0.324-0.755,0.73-0.755C546.217,18.251,546.457,18.491,546.457,18.826z M547.021,14.257c0,0.42-0.336,0.744-0.744,0.744   c-0.348,0-0.588-0.24-0.588-0.563c0-0.42,0.336-0.756,0.744-0.756C546.781,13.681,547.021,13.921,547.021,14.257z"/>
	<path fill="#FFFFFF" d="M549.35,19.498l0.898-7.352l-2.182,0.804l0.119-1.02l2.314-0.852h0.924l-1.031,8.419H549.35z"/>
	<path fill="#FFFFFF" d="M555.24,14.856c0.779-0.456,1.127-1.151,1.127-1.787c0-0.792-0.623-1.175-1.57-1.175   c-0.613,0-1.355,0.168-2.123,0.468l-0.072-0.936c0.791-0.288,1.654-0.467,2.41-0.467c1.367,0,2.424,0.54,2.424,1.859   c0,1.151-0.684,1.943-1.404,2.446c0.779,0.468,1.127,1.127,1.127,1.835c0,1.799-1.559,2.519-3.154,2.519   c-0.852,0-1.678-0.18-2.373-0.48l0.311-0.936c0.637,0.288,1.391,0.468,2.111,0.468c1.104,0,2.062-0.444,2.062-1.583   c0-0.528-0.312-1.007-0.84-1.283h-1.834l0.18-0.948H555.24z"/>
	<path fill="#FFFFFF" d="M559.285,18.023c0.264,1.139-0.096,2.075-0.756,3.226l-0.816-0.096c0.66-1.14,0.756-1.907,0.504-3.046   L559.285,18.023z"/>
	<path fill="#FFFFFF" d="M561.686,19.498l0.898-7.352l-2.182,0.804l0.119-1.02l2.314-0.852h0.924l-1.031,8.419H561.686z"/>
	<path fill="#FFFFFF" d="M567.721,11.079c-0.289,2.315-1.057,3.826-2.484,5.445h2.568l0.264-2.086l1.043-0.072l-0.264,2.159h1.607   l-0.182,0.948h-1.547l-0.238,2.027h-1.033l0.24-2.027h-3.574l0.049-0.948c1.498-1.619,2.242-3.286,2.506-5.445H567.721z"/>
</g>
</svg>
