<?xml version="1.0" encoding="utf-8"?>
<!-- Generator: Adobe Illustrator 16.0.0, SVG Export Plug-In . SVG Version: 6.00 Build 0)  -->
<!DOCTYPE svg PUBLIC "-//W3C//DTD SVG 1.1//EN" "http://www.w3.org/Graphics/SVG/1.1/DTD/svg11.dtd">
<svg version="1.1" id="Layer_1" xmlns="http://www.w3.org/2000/svg" xmlns:xlink="http://www.w3.org/1999/xlink" x="0px" y="0px"
	 width="850.39px" height="311.81px" viewBox="0 0 850.39 311.81" enable-background="new 0 0 850.39 311.81" xml:space="preserve">
<polyline fill="#CDD1D5" points="0,310.947 0,1.232 851,1.232 851,310.947 "/>
<polyline fill="none" points="851,310.949 851,1.231 0,1.231 0,310.949 "/>
<polyline fill="#FFFFFF" points="592.14,309.873 553.284,258.66 479.449,194.132 372.967,96.958 358.604,108.07 261.311,161.473
	220.909,215.636 185.727,247.878 147.414,309.873 "/>
<polyline fill="#D4E4F3" points="82.427,307.875 198.991,179.276 242.391,150.184 276.25,129.146 300.297,119.045 326.28,123.157
	367.881,129.091 410.643,159.724 456.464,228.618 505.905,268.785 535.393,279.208 557.845,289.508 570.829,299.979 
	576.448,307.875 82.903,307.875 "/>
<polygon fill="#BDD7EC" points="71.854,307.518 101.534,254.051 127.711,227.341 157.773,182.474 230.166,138.235 240.853,129.03
	320.082,209.528 375.02,262.982 405.666,307.951 "/>
<polyline fill="#BDD7EC" points="307.528,129.083 272.616,150.309 187.652,307.875 337.603,307.875 457.439,307.375
	398.032,160.424 346.593,129.083 307.638,129.083 "/>
<polyline fill="#D4E4F3" points="373.89,312.473 396.088,254.255 415.668,225.169 438.153,176.313 492.301,128.143 500.293,118.121
	559.555,205.772 600.646,263.979 623.566,312.946 "/>
<polyline fill="#A5C8E6" points="310.29,309.948 772.759,308.874 637.252,160.719 610.277,149.978 590.973,139.072 568.998,150.059
	529.378,144.565 496.367,163.308 380.552,178.945 340.39,278.448 310.29,309.948 "/>
<polygon fill="#89BBE0" points="402.814,150.059 362.575,160.719 298.609,182.237 200.961,213.557 65.825,308.95 523.092,309.374
	514.466,218.575 460.801,188.977 426.998,168.329 "/>
<polygon fill="#A5C8E6" points="32.9,308.54 58.985,258.074 81.992,232.863 108.412,190.514 172.037,148.759 181.429,140.07
	251.062,216.049 299.347,266.506 326.28,308.951 "/>
<polyline fill="#89BBE0" points="456.464,310.871 346.521,229.224 298.609,182.237 273.143,159.72 240.64,181.973 182.567,257.034
	148.763,302.374 121.894,310.871 "/>
<polyline fill="#44A1D1" points="237.571,310.603 255.065,268.128 270.496,246.909 288.215,211.266 330.888,176.123
	337.188,168.811 383.89,232.759 416.273,275.224 434.338,310.947 "/>
<polyline fill="#89BBE0" points="634.676,311.87 532.801,230.223 488.403,183.236 464.807,160.719 434.688,182.971 380.875,258.033
	349.553,303.372 324.655,311.87 "/>
<polygon fill="#44A1D1" points="430.402,198.494 506.253,170.1 536.369,180.884 556.585,198.494 684.196,307.951 349.181,309.374
	"/>
<polygon fill="#0495CB" points="367.881,178.37 333.941,198.494 258.363,207.992 174.129,208.991 138.077,218.979 89.396,308.95
	485.43,308.375 444.229,207.992 430.402,198.494 388.53,189.015 "/>
<polygon fill="#44A1D1" points="587.643,170.1 630.135,190.823 673.277,228.617 637.252,309.373 489.415,308.579 529.378,189.014
	550.625,179.026 "/>
<polyline fill="#A5C8E6" points="610.133,311.529 631.242,260.17 649.863,234.511 671.245,191.408 722.736,148.913 730.337,140.07
	786.692,217.397 825.766,268.749 847.563,311.946 "/>
<polygon fill="#0278AE" points="265.214,208.991 224.21,218.979 171.207,233.639 65.826,308.95 475.774,308.541 395.82,248.944
	352.046,228.968 "/>
<polyline fill="#44A1D1" points="793.229,310.871 710.149,234.83 673.941,191.071 654.698,170.1 630.135,190.823 586.252,260.731
	560.706,302.957 540.4,310.871 "/>
<polygon fill="#0495CB" points="573.493,219.146 610.195,189.099 625.475,180.884 678.943,228.638 748.11,250.639 772.759,308.874
	475.441,308.874 556.585,226.011 "/>
<polyline fill="#0495CB" points="760.106,311.87 639.405,241.092 586.802,200.363 558.845,180.843 523.16,200.132 459.403,265.2
	422.29,304.504 392.791,311.87 "/>
<polygon fill="#088BC3" points="498.662,188.976 470.393,208.972 444.212,228.919 384.213,307.875 580.318,307.875 545.859,228.617
	529.378,200.002 "/>
<polyline fill="#0A81BC" points="459.023,311.87 449.799,291.491 425.096,255.304 389.471,200.809 384.665,207.04 352.115,236.988
	338.597,267.363 326.827,285.445 317.084,311.87 "/>
<polyline fill="#0278AE" points="540.401,310.871 470.426,217.981 436.34,207.992 407.188,208.991 360.128,228.616 320.143,259.166
	298.561,307.875 540.401,310.871 "/>
<polyline fill="#056FA0" points="436.852,310.871 437.22,307.951 376.557,238.24 360.128,228.616 336.076,218.979 282.002,238.24
	216.246,278.448 151.095,307.812 273.466,310.871 "/>
<polygon fill="#056FA0" points="713.661,218.979 641.746,238.956 597.082,258.933 485.43,308.375 851,308.963 833.58,259.97
	803.032,238.875 "/>
<polyline fill="#056FA0" points="677.482,309.873 657.66,288.924 616.908,260.373 558.137,217.375 550.21,222.292 496.512,245.921
	474.213,269.888 454.794,284.155 434.969,309.873 "/>
<polygon fill="#045B84" points="443.479,238.24 410.019,248.863 380.876,258.033 359.078,268.921 330.611,308.874 557.845,308.963
	516.182,269.284 499.039,259.166 470.426,248.944 "/>
<polygon fill="#046593" points="515.667,308.755 529.681,284.75 542.039,272.758 556.233,252.611 590.414,232.75 595.459,228.617
	632.868,264.759 658.808,288.76 673.277,308.95 "/>
<polygon fill="#015075" points="470.676,308.874 516.182,269.284 525.882,258.852 540.401,248.944 573.29,269.284 630.738,278.448
	684.196,307.951 "/>
<polygon fill="#015075" points="601.565,308.802 615.579,290.573 627.938,281.465 642.133,266.166 676.312,251.084 681.358,247.946
	718.768,275.392 744.706,293.619 759.176,308.95 "/>
<polyline fill="#0278AE" points="14.271,310.699 36.286,280.233 55.705,265.012 78.003,239.443 131.702,214.237 139.629,208.991
	198.4,254.861 239.151,285.322 261.884,310.947 "/>
<polyline fill="#046593" points="310.289,309.949 97.158,309.751 116.108,285.447 132.822,273.306 152.015,252.91 198.237,232.802
	205.059,228.616 255.646,265.208 290.722,289.508 310.289,309.949 "/>
<polyline fill="none" stroke="#70CDDD" stroke-miterlimit="10" points="310.289,309.949 97.158,309.751 116.108,285.447
	132.822,273.306 152.015,252.91 198.237,232.802 205.059,228.616 255.646,265.208 290.722,289.508 310.289,309.949 "/>
<polyline fill="#014565" points="2.673,310.248 16.317,294.946 28.351,287.303 42.171,274.462 75.451,261.802 80.364,259.167
	116.786,282.204 142.042,297.502 156.13,310.372 "/>
<polygon fill="#015075" points="151.095,307.812 157.595,290.632 163.33,282.05 169.914,267.634 185.769,253.42 188.111,250.462
	205.464,276.326 217.497,293.503 224.209,307.951 "/>
<polyline fill="#014565" points="550.625,310.828 555.929,296.024 560.607,288.628 565.979,276.205 578.917,263.957
	580.826,261.408 594.984,283.696 604.802,298.497 610.277,310.947 "/>
<polygon fill="#014565" points="115.531,259.167 141.788,263.777 162.809,268.784 207.216,278.827 240.717,288.815 258.363,308.874
	34.293,308.964 61.927,278.909 101.88,268.921 "/>
<polygon fill="#015075" points="789.073,250.462 717.811,259.167 637.252,309.374 840.512,308.964 821.035,274.458 "/>
<polygon fill="#045B84" points="242.392,307.207 256.035,286.547 268.069,276.227 281.889,258.89 315.169,241.796 320.082,238.24
	356.504,269.345 381.761,289.999 395.848,307.375 "/>
<polygon fill="#014565" points="784.078,278.909 767.099,269.284 747.122,258.852 705.172,268.921 661.072,279.207 629.066,307.375
	806.552,308.874 "/>
<polyline fill="#045B84" points="192.45,310.256 224.73,258.742 259.195,238.657 278.057,247.946 290.645,258.742 297.146,268.921
	311.634,298.804 314.162,307.951 192.45,310.256 "/>
<polygon fill="#014565" points="214.424,307.259 228.068,292.852 240.103,285.655 253.922,273.566 287.202,261.648 292.115,259.167
	328.537,280.856 353.793,295.26 367.881,307.375 "/>
<polyline fill="#015075" points="551.843,310.871 541.66,300.112 516.5,282.484 480.215,255.937 475.319,258.972 442.163,273.562
	428.396,288.358 416.407,297.167 405.842,310.871 "/>
<polygon fill="#023753" points="344.595,308.54 365.57,288.815 378.888,278.449 415.512,269.283 450.138,278.909 467.783,288.815
	485.097,298.886 498.729,308.964 "/>
<polyline fill="#023753" points="267.958,310.847 282.401,298.396 295.14,292.177 309.769,281.729 344.998,271.426 350.198,269.283
	388.754,288.027 415.49,300.476 430.402,310.947 "/>
<polygon fill="#002A40" points="634.676,278.448 598.379,288.815 570.828,299.729 545.858,308.963 696.651,308.874 682.697,288.897
	"/>
<polygon fill="#023753" points="23.677,308.963 48.627,288.897 73.913,278.448 89.395,268.785 113.418,288.897 131.346,298.922
	148.326,308.95 "/>
<polyline fill="#023753" points="250.373,310.134 117.195,308.874 148.326,288.897 156.13,278.909 173.735,268.88 195.77,278.909
	219.076,288.897 244.046,298.805 250.373,310.134 "/>
<polygon fill="#002A40" points="89.395,308.95 134.342,278.449 150.792,288.897 166.305,298.923 183.271,308.964 "/>
<polygon fill="#002A40" points="347.477,305.831 365.57,288.815 383.549,279.208 406.522,289.123 419.507,298.886 430.402,308.964
	340.98,308.874 "/>
<polygon fill="#002A40" points="221.889,308.874 249.374,288.777 264.942,278.89 279.339,288.806 313.995,298.802 330.611,308.874
	"/>
<polyline fill="#091C2D" points="159.313,308.963 183.271,298.804 199.765,288.897 222.432,298.804 246.71,310.947 "/>
<polyline fill="#0C101A" points="375.233,310.78 221.889,309.725 284.959,300.051 375.233,310.78 "/>
<polygon fill="#014565" points="756.361,308.963 786.022,278.909 815.667,268.749 828.24,258.933 835.186,268.785 834.117,278.448
	838.992,288.815 837.333,308.874 "/>
<polygon fill="#023753" points="496.366,308.963 519.167,288.815 541.832,278.909 550.625,269.284 572.827,288.897 594.472,307.951
	"/>
<polygon fill="#002A40" points="404.483,308.95 425.51,288.897 453.467,278.909 482.933,288.897 525.882,298.886 536.369,308.375
	"/>
<polyline fill="#091C2D" points="529.877,308.874 552.484,298.76 582.311,288.875 609.783,298.874 625.516,308.874 529.378,308.874
	"/>
<polyline fill="#002A40" points="663.346,308.874 713.849,288.816 723.742,278.909 742.861,284.402 753.107,288.897 782.83,298.886
	821.035,298.886 846.014,308.874 663.221,308.874 "/>
<polyline fill="#091C2D" points="603.818,309.948 730.641,308.874 689.149,289.508 632.999,298.886 603.818,309.948 "/>
<polygon fill="#0C101A" points="613.279,308.874 649.736,298.796 675.677,308.874 "/>
<polyline fill="none" stroke="#70CDDD" stroke-miterlimit="10" points="98.657,309.752 97.158,309.751 98.079,308.57 "/>
<polyline fill="none" stroke="#70CDDD" stroke-miterlimit="10" stroke-dasharray="3.001,3.001" points="99.923,306.206
	116.108,285.447 132.821,273.307 152.015,252.91 198.236,232.802 202.504,230.185 "/>
<polyline fill="none" stroke="#70CDDD" stroke-miterlimit="10" points="203.782,229.4 205.059,228.617 206.273,229.496 "/>
<polyline fill="none" stroke="#70CDDD" stroke-miterlimit="10" stroke-dasharray="3.036,3.036" points="208.73,231.272
	255.646,265.208 290.722,289.507 308.205,307.771 "/>
<line fill="none" stroke="#70CDDD" stroke-miterlimit="10" x1="309.253" y1="308.867" x2="310.289" y2="309.949"/>
<line fill="none" stroke="#70CDDD" stroke-miterlimit="10" stroke-dasharray="2.963,2.963" x1="305.831" y1="309.944" x2="100.137" y2="309.753"/>
<line fill="none" stroke="#A5C8E6" stroke-miterlimit="10" x1="181.287" y1="139.072" x2="181.287" y2="63.161"/>
<line fill="none" stroke="#0278AE" stroke-miterlimit="10" x1="139.336" y1="207.992" x2="139.336" y2="63.161"/>
<line fill="none" stroke="#014565" stroke-miterlimit="10" x1="79.407" y1="258.933" x2="79.407" y2="62.162"/>
<line fill="none" stroke="#70CDDD" stroke-miterlimit="10" x1="204.26" y1="226.97" x2="204.26" y2="67.156"/>
<path fill="#70CDDD" d="M208.016,66.916c0-2.074-1.683-3.756-3.755-3.756c-2.074,0-3.756,1.682-3.756,3.756s1.683,3.755,3.756,3.755
	C206.333,70.671,208.016,68.99,208.016,66.916"/>
<g>
	<path fill="#70CDDD" d="M216.174,22.966v-0.913c0.539,0.226,0.948,0.339,1.229,0.339c0.406,0,0.675-0.105,0.808-0.316
		c0.133-0.211,0.199-0.634,0.199-1.27V14.45h1.159v6.356c0,1.635-0.69,2.452-2.072,2.452
		C217.087,23.258,216.646,23.161,216.174,22.966z M218.41,13.297v-1.153h1.159v1.153H218.41z"/>
	<path fill="#70CDDD" d="M224.362,20.953c-0.909,0-1.635-0.302-2.177-0.904c-0.542-0.603-0.813-1.41-0.813-2.42
		c0-1.022,0.272-1.831,0.816-2.426c0.544-0.595,1.283-0.892,2.215-0.892s1.671,0.297,2.215,0.892c0.544,0.595,0.816,1.4,0.816,2.415
		c0,1.038-0.273,1.853-0.819,2.446C226.069,20.656,225.318,20.953,224.362,20.953z M224.379,20.086c1.221,0,1.832-0.823,1.832-2.47
		c0-1.627-0.603-2.44-1.809-2.44c-1.202,0-1.803,0.817-1.803,2.452C222.6,19.267,223.193,20.086,224.379,20.086z"/>
	<path fill="#70CDDD" d="M229.237,20.876v-9.312h1.153v4.079c0.472-0.889,1.18-1.334,2.125-1.334c0.765,0,1.367,0.279,1.806,0.837
		c0.439,0.558,0.658,1.321,0.658,2.288c0,1.054-0.249,1.903-0.746,2.549c-0.498,0.646-1.152,0.969-1.963,0.969
		c-0.753,0-1.379-0.289-1.879-0.866l-0.14,0.79H229.237z M230.39,19.291c0.593,0.53,1.159,0.796,1.697,0.796
		c1.108,0,1.662-0.845,1.662-2.534c0-1.49-0.491-2.236-1.475-2.236c-0.644,0-1.272,0.349-1.885,1.048V19.291z"/>
	<path fill="#70CDDD" d="M240.287,17.774v-0.866h5.197v0.866H240.287z"/>
	<path fill="#70CDDD" d="M251.143,20.806v-1.013c0.335-0.784,1.014-1.639,2.037-2.563l0.661-0.591
		c0.851-0.769,1.276-1.531,1.276-2.288c0-0.484-0.146-0.864-0.436-1.142c-0.291-0.277-0.689-0.416-1.197-0.416
		c-0.601,0-1.309,0.232-2.125,0.697v-1.019c0.769-0.363,1.531-0.544,2.289-0.544c0.811,0,1.463,0.219,1.955,0.656
		s0.737,1.016,0.737,1.738c0,0.519-0.124,0.979-0.372,1.381c-0.248,0.402-0.709,0.89-1.384,1.463l-0.445,0.38
		c-0.924,0.784-1.459,1.533-1.604,2.247h3.763v1.013H251.143z"/>
	<path fill="#70CDDD" d="M258.944,20.742v-1.077c0.827,0.328,1.479,0.492,1.955,0.492c0.55,0,0.998-0.161,1.343-0.483
		s0.518-0.738,0.518-1.25c0-1.217-0.853-1.826-2.558-1.826h-0.457V15.82l0.404-0.006c1.6,0,2.399-0.564,2.399-1.691
		c0-0.886-0.526-1.329-1.58-1.329c-0.577,0-1.213,0.162-1.908,0.486v-1.006c0.683-0.23,1.346-0.346,1.99-0.346
		c1.771,0,2.657,0.669,2.657,2.008c0,1.018-0.603,1.744-1.809,2.177c1.396,0.324,2.095,1.089,2.095,2.294
		c0,0.815-0.269,1.455-0.808,1.919s-1.278,0.696-2.218,0.696C260.435,21.022,259.76,20.929,258.944,20.742z"/>
	<path fill="#70CDDD" d="M266.301,20.806v-1.013c0.335-0.784,1.014-1.639,2.037-2.563l0.661-0.591
		c0.851-0.769,1.276-1.531,1.276-2.288c0-0.484-0.146-0.864-0.436-1.142c-0.291-0.277-0.689-0.416-1.197-0.416
		c-0.601,0-1.309,0.232-2.125,0.697v-1.019c0.769-0.363,1.531-0.544,2.289-0.544c0.811,0,1.463,0.219,1.955,0.656
		s0.737,1.016,0.737,1.738c0,0.519-0.124,0.979-0.372,1.381c-0.248,0.402-0.709,0.89-1.384,1.463l-0.445,0.38
		c-0.924,0.784-1.459,1.533-1.604,2.247h3.763v1.013H266.301z"/>
</g>
<g>
	<path fill="#70CDDD" d="M218.875,53.971l-2.364-6.356h1.153l1.85,4.945l1.949-4.945h1.077l-2.511,6.356H218.875z"/>
	<path fill="#70CDDD" d="M226.249,54.118c-0.909,0-1.635-0.302-2.177-0.904c-0.542-0.603-0.813-1.41-0.813-2.42
		c0-1.022,0.272-1.831,0.816-2.426c0.544-0.595,1.283-0.892,2.215-0.892s1.671,0.297,2.215,0.892c0.544,0.595,0.816,1.4,0.816,2.415
		c0,1.038-0.273,1.853-0.819,2.446C227.956,53.821,227.205,54.118,226.249,54.118z M226.266,53.251c1.221,0,1.832-0.823,1.832-2.47
		c0-1.627-0.603-2.44-1.809-2.44c-1.202,0-1.803,0.817-1.803,2.452C224.487,52.432,225.08,53.251,226.266,53.251z"/>
	<path fill="#70CDDD" d="M231.124,53.971V44.73h1.153v9.241H231.124z"/>
	<path fill="#70CDDD" d="M238.416,53.971l0.65-2.599h-1.75l0.146-0.726h1.785l0.509-2.019h-1.896l0.146-0.72h1.925l0.656-2.599
		h0.743l-0.649,2.599h1.539l0.649-2.599h0.75l-0.65,2.599h1.75l-0.141,0.72h-1.791l-0.509,2.019h1.896l-0.146,0.726h-1.926
		l-0.649,2.599h-0.749l0.649-2.599h-1.539l-0.65,2.599H238.416z M239.996,50.647h1.54l0.509-2.019H240.5L239.996,50.647z"/>
	<path fill="#70CDDD" d="M245.995,53.971l0.65-2.599h-1.75l0.146-0.726h1.785l0.509-2.019h-1.896l0.146-0.72h1.925l0.656-2.599
		h0.743l-0.649,2.599h1.539l0.649-2.599h0.75l-0.65,2.599h1.75l-0.141,0.72h-1.791l-0.509,2.019h1.896l-0.146,0.726h-1.926
		l-0.649,2.599h-0.749l0.649-2.599h-1.539l-0.65,2.599H245.995z M247.575,50.647h1.54l0.509-2.019h-1.545L247.575,50.647z"/>
	<path fill="#70CDDD" d="M257.296,53.971V45.31h1.206l4.36,6.689V45.31h1.053v8.662h-1.2l-4.366-6.689v6.689H257.296z"/>
	<path fill="#70CDDD" d="M265.589,53.971v-0.983l4.652-6.759h-4.366V45.31h5.841v0.919l-4.653,6.759h4.653v0.983H265.589z"/>
	<path fill="#70CDDD" d="M273.396,53.971V45.31h1.229v7.743h3.898v0.919H273.396z"/>
</g>
<g>
	<path fill="#70CDDD" d="M217.4,38.486v-1.013c0.335-0.784,1.014-1.639,2.037-2.563l0.661-0.591
		c0.851-0.769,1.276-1.531,1.276-2.288c0-0.484-0.146-0.864-0.436-1.142c-0.291-0.277-0.689-0.416-1.197-0.416
		c-0.601,0-1.309,0.232-2.125,0.697v-1.019c0.769-0.363,1.531-0.544,2.289-0.544c0.811,0,1.463,0.219,1.955,0.656
		s0.737,1.016,0.737,1.738c0,0.519-0.124,0.979-0.372,1.381c-0.248,0.402-0.709,0.89-1.384,1.463l-0.445,0.38
		c-0.924,0.784-1.459,1.533-1.604,2.247h3.763v1.013H217.4z"/>
	<path fill="#70CDDD" d="M225.441,38.521v-1.03c0.574,0.23,1.12,0.346,1.639,0.346c0.569,0,1.017-0.168,1.343-0.503
		s0.489-0.798,0.489-1.387c0-1.299-0.896-1.949-2.686-1.949c-0.203,0-0.416,0.014-0.638,0.041v-4.214h4.384v1.006H226.6v2.283
		c1.112,0,1.98,0.255,2.604,0.767c0.625,0.511,0.937,1.219,0.937,2.125c0,0.843-0.284,1.503-0.852,1.981
		c-0.567,0.478-1.355,0.717-2.361,0.717C226.491,38.702,225.995,38.642,225.441,38.521z"/>
	<path fill="#70CDDD" d="M235.32,38.702c-0.894,0-1.616-0.42-2.168-1.261s-0.828-1.938-0.828-3.292c0-1.365,0.278-2.464,0.834-3.295
		s1.289-1.247,2.198-1.247s1.642,0.416,2.198,1.247c0.556,0.831,0.834,1.924,0.834,3.277c0,1.389-0.278,2.499-0.834,3.327
		C236.997,38.288,236.252,38.702,235.32,38.702z M235.332,37.836c1.221,0,1.832-1.241,1.832-3.722c0-2.427-0.603-3.641-1.809-3.641
		c-1.202,0-1.803,1.225-1.803,3.675C233.552,36.607,234.146,37.836,235.332,37.836z"/>
	<path fill="#70CDDD" d="M244.087,38.486v-9.241h1.153v4.079c0.609-0.889,1.354-1.334,2.236-1.334c0.55,0,0.989,0.174,1.317,0.523
		c0.328,0.35,0.492,0.819,0.492,1.408v4.565h-1.153v-4.19c0-0.472-0.069-0.809-0.208-1.009c-0.139-0.201-0.368-0.302-0.688-0.302
		c-0.707,0-1.372,0.462-1.996,1.387v4.114H244.087z"/>
	<path fill="#70CDDD" d="M254.013,38.632c-0.909,0-1.635-0.302-2.177-0.904c-0.542-0.603-0.813-1.41-0.813-2.42
		c0-1.022,0.272-1.831,0.816-2.426c0.544-0.595,1.283-0.892,2.215-0.892s1.671,0.297,2.215,0.892c0.544,0.595,0.816,1.4,0.816,2.415
		c0,1.038-0.273,1.853-0.819,2.446C255.72,38.335,254.969,38.632,254.013,38.632z M254.03,37.766c1.221,0,1.832-0.823,1.832-2.47
		c0-1.627-0.603-2.44-1.809-2.44c-1.202,0-1.803,0.817-1.803,2.452C252.251,36.947,252.844,37.766,254.03,37.766z"/>
	<path fill="#70CDDD" d="M262.862,38.486v-1.194c-0.613,0.894-1.356,1.34-2.23,1.34c-0.554,0-0.995-0.175-1.323-0.524
		s-0.492-0.82-0.492-1.414V32.13h1.153v4.19c0,0.476,0.069,0.814,0.208,1.016c0.139,0.201,0.37,0.301,0.693,0.301
		c0.703,0,1.366-0.462,1.99-1.387v-4.12h1.153v6.356H262.862z"/>
	<path fill="#70CDDD" d="M266.327,38.486V32.13h1.153v1.194c0.457-0.889,1.12-1.334,1.99-1.334c0.117,0,0.24,0.01,0.369,0.029v1.077
		c-0.199-0.066-0.375-0.1-0.527-0.1c-0.729,0-1.34,0.433-1.832,1.299v4.19H266.327z"/>
	<path fill="#70CDDD" d="M272.917,38.632c-0.527,0-1.167-0.123-1.919-0.369v-1.06c0.753,0.375,1.408,0.562,1.966,0.562
		c0.332,0,0.606-0.09,0.825-0.27c0.218-0.179,0.328-0.404,0.328-0.673c0-0.394-0.306-0.72-0.919-0.978l-0.673-0.287
		c-0.995-0.414-1.492-1.008-1.492-1.785c0-0.554,0.196-0.99,0.588-1.308c0.392-0.318,0.93-0.477,1.612-0.477
		c0.355,0,0.794,0.049,1.317,0.146l0.24,0.047v0.96c-0.644-0.191-1.155-0.287-1.534-0.287c-0.741,0-1.112,0.269-1.112,0.808
		c0,0.347,0.281,0.64,0.843,0.877l0.556,0.234c0.628,0.265,1.073,0.545,1.334,0.84c0.262,0.294,0.393,0.662,0.393,1.103
		c0,0.558-0.221,1.017-0.662,1.375S273.603,38.632,272.917,38.632z"/>
</g>
<path fill="#70CDDD" d="M207.542,53.205c0.159-0.25-0.011-0.588,0.083-0.884c0.046-0.143-0.012-0.337-0.081-0.486
	c-0.226-0.49-0.395-0.992-0.484-1.522c-0.06-0.353-0.14-0.702-0.21-1.053c-0.03-0.001-0.058-0.001-0.085-0.002
	c-0.076,0.387-0.179,0.771-0.223,1.162c-0.085,0.739,0.139,1.462,0.18,2.195c0.033,0.581,0.032,1.167,0.012,1.75
	c-0.024,0.701-0.093,1.398,0.044,2.099c0.077,0.389,0.001,0.776-0.11,1.16c-0.107,0.37-0.234,0.746-0.259,1.125
	c-0.02,0.308,0.067,0.736,0.16,1.039c0.08,0.258,0.046,0.38-0.239,0.433c-0.09,0.017-0.183,0.018-0.274,0.031
	c-0.22,0.031-0.29-0.001-0.286-0.207c0.007-0.388,0.033-0.883,0.078-1.271c0.042-0.358,0.12-0.712,0.022-1.076
	c-0.113-0.419-0.052-0.847-0.032-1.271c0.007-0.159-0.036-0.321-0.067-0.479c-0.077-0.395-0.176-0.788-0.237-1.186
	c-0.077-0.514-0.126-1.033-0.191-1.549c-0.011-0.093-0.036-0.185-0.054-0.276c-0.021,0-0.042,0-0.062,0
	c-0.012,0.051-0.028,0.102-0.034,0.153c-0.061,0.552-0.106,1.105-0.183,1.655c-0.059,0.416-0.159,0.827-0.237,1.241
	c-0.023,0.12-0.054,0.242-0.049,0.363c0.017,0.544-0.03,1.082-0.117,1.621c-0.041,0.256,0.043,0.53,0.063,0.795
	c0.029,0.396,0.065,0.895,0.073,1.29c0.005,0.196-0.072,0.234-0.279,0.196c-0.148-0.027-0.297-0.053-0.44-0.096
	c-0.138-0.041-0.17-0.145-0.115-0.267c0.31-0.69,0.218-1.478-0.025-2.162c-0.148-0.421-0.225-0.855-0.118-1.293
	c0.157-0.637,0.154-1.276,0.083-1.917c-0.128-1.162-0.006-2.313,0.142-3.461c0.061-0.473-0.044-0.918-0.148-1.368
	c-0.032-0.139-0.078-0.275-0.117-0.413c-0.022-0.001-0.043-0.001-0.065-0.002c-0.07,0.353-0.15,0.703-0.208,1.056
	c-0.08,0.489-0.222,0.959-0.444,1.405c-0.134,0.269-0.172,0.524-0.069,0.826c0.077,0.228,0.023,0.497,0.021,0.748l-0.042,0.151
	c-0.352,0.09-0.585-0.101-0.578-0.45c0.009-0.339,0.059-0.675,0.078-1.013c0.042-0.711,0.062-1.423,0.251-2.119
	c0.122-0.446,0.226-0.897,0.313-1.351c0.046-0.24,0.04-0.488,0.062-0.733c0.037-0.425,0.216-0.584,0.642-0.725
	c0.335-0.109,0.645-0.288,0.957-0.454c0.116-0.062,0.169-0.173,0.093-0.316c-0.052-0.096-0.064-0.211-0.098-0.316
	c-0.011-0.036-0.029-0.074-0.054-0.1c-0.108-0.109-0.161-0.222-0.1-0.379c0.03-0.076,0.006-0.172,0.003-0.259
	c-0.021-0.566,0.377-1.005,0.95-0.838c0.324-0.035,0.532,0.413,0.548,0.717c0.007,0.142,0.042,0.282,0.052,0.425
	c0.004,0.06-0.001,0.146-0.042,0.18c-0.205,0.17-0.113,0.435-0.236,0.629c-0.018,0.028,0.026,0.117,0.066,0.147
	c0.317,0.232,0.632,0.481,1.031,0.565c0.333,0.069,0.516,0.248,0.568,0.545c0.048,0.276,0.042,0.561,0.094,0.835
	c0.089,0.465,0.187,0.929,0.316,1.386c0.192,0.674,0.213,1.361,0.253,2.05c0.022,0.361,0.066,0.722,0.085,1.083
	c0.014,0.275-0.183,0.524-0.451,0.593C207.724,53.561,207.479,53.304,207.542,53.205"/>
<path fill="#70CDDD" d="M200.962,12.802c0.099-0.477,0.181-0.959,0.302-1.431c0.146-0.576,0.554-0.875,1.131-0.941
	c0.561-0.065,1.005,0.082,1.335,0.609c0.746,1.189,0.996,2.425,0.579,3.792c-0.163,0.532-0.213,1.098-0.329,1.645
	c-0.021,0.094-0.104,0.23-0.181,0.249c-0.51,0.122-1.025,0.227-1.543,0.311c-0.09,0.015-0.257-0.072-0.295-0.154
	C201.374,15.589,200.939,14.257,200.962,12.802"/>
<path fill="#70CDDD" d="M209.536,15.887c0.11,1.421-0.242,2.751-0.769,4.044c-0.041,0.101-0.229,0.215-0.337,0.203
	c-0.509-0.052-1.016-0.139-1.519-0.232c-0.075-0.014-0.169-0.119-0.19-0.199c-0.192-0.737-0.355-1.481-0.556-2.216
	c-0.357-1.317,0.024-2.487,0.746-3.56c0.476-0.705,1.859-0.455,2.226,0.369c0.083,0.185,0.146,0.38,0.193,0.577
	C209.409,15.208,209.468,15.547,209.536,15.887"/>
<path fill="#70CDDD" d="M206.155,22.208c0.136-0.5,0.264-1.002,0.415-1.498c0.02-0.067,0.16-0.15,0.233-0.142
	c0.52,0.064,1.039,0.141,1.552,0.24c0.084,0.017,0.212,0.185,0.198,0.263c-0.092,0.533-0.154,1.085-0.348,1.586
	c-0.215,0.56-0.708,0.805-1.148,0.711c-0.453-0.096-0.767-0.536-0.813-1.137C206.215,22.223,206.185,22.215,206.155,22.208"/>
<path fill="#70CDDD" d="M204.654,18.957c-0.117,0.337-0.168,0.602-0.294,0.823c-0.261,0.459-0.789,0.568-1.24,0.293
	c-0.529-0.323-1.073-1.64-0.909-2.233c0.018-0.064,0.125-0.132,0.202-0.149c0.489-0.109,0.98-0.214,1.474-0.295
	c0.095-0.016,0.275,0.057,0.301,0.129C204.365,18.013,204.513,18.51,204.654,18.957"/>
<path fill="#70CDDD" d="M210.847,33.591h-0.682c0,1.357-0.548,2.579-1.437,3.468c-0.89,0.889-2.112,1.438-3.469,1.438
	c-1.357,0-2.58-0.548-3.47-1.438c-0.889-0.889-1.436-2.111-1.436-3.468c0-1.358,0.547-2.58,1.436-3.469
	c0.89-0.889,2.112-1.437,3.47-1.437c1.357,0,2.579,0.548,3.469,1.437c0.889,0.89,1.437,2.111,1.437,3.469H210.847h0.682
	c0-3.463-2.807-6.269-6.27-6.269s-6.268,2.806-6.268,6.269c0,3.462,2.806,6.268,6.268,6.268s6.27-2.806,6.27-6.268H210.847z"/>
<path fill="#70CDDD" d="M205.259,29.547c0.098,0.341,0.155,0.682,0.212,1.022c0.05,0.34,0.097,0.681,0.124,1.021
	c0.06,0.681,0.078,1.362,0.07,2.043l-0.159-0.321c0.448,0.355,0.885,0.727,1.301,1.125c0.104,0.099,0.207,0.199,0.308,0.303
	c0.1,0.105,0.205,0.204,0.301,0.313c0.196,0.214,0.39,0.432,0.567,0.671c-0.276-0.11-0.536-0.241-0.793-0.375
	c-0.132-0.066-0.253-0.142-0.381-0.21c-0.125-0.07-0.25-0.144-0.374-0.219c-0.491-0.299-0.963-0.623-1.423-0.965l-0.155-0.116
	l-0.003-0.206c-0.008-0.681,0.01-1.362,0.07-2.043c0.027-0.34,0.074-0.681,0.124-1.021
	C205.104,30.229,205.161,29.888,205.259,29.547"/>
<line fill="none" stroke="#056FA0" stroke-miterlimit="10" x1="556.846" y1="217.981" x2="556.846" y2="63.161"/>
<line fill="none" stroke="#44A1D1" stroke-miterlimit="10" x1="653.731" y1="170.037" x2="653.731" y2="63.161"/>
<line fill="none" stroke="#A5C8E6" stroke-miterlimit="10" x1="729.643" y1="139.072" x2="729.643" y2="62.162"/>
<line fill="none" stroke="#015075" stroke-miterlimit="10" x1="478.938" y1="253.938" x2="478.938" y2="63.161"/>
<line fill="none" stroke="#023753" stroke-miterlimit="10" x1="352.086" y1="266.924" x2="352.086" y2="63.161"/>
<line fill="none" stroke="#FFFFFF" stroke-miterlimit="10" x1="372.063" y1="97.121" x2="372.063" y2="63.161"/>
<rect y="247.701" fill="#015075" width="23.677" height="10.041"/>
<rect y="237.66" fill="#045B84" width="23.677" height="10.041"/>
<rect y="227.618" fill="#046593" width="23.677" height="10.042"/>
<rect y="217.577" fill="#056FA0" width="23.677" height="10.041"/>
<rect y="207.536" fill="#0278AE" width="23.677" height="10.041"/>
<rect y="197.495" fill="#0A81BC" width="23.677" height="10.041"/>
<rect y="187.454" fill="#088BC3" width="23.677" height="10.041"/>
<rect y="177.413" fill="#0495CB" width="23.677" height="10.041"/>
<rect y="297.923" fill="#0C101A" width="23.677" height="10.041"/>
<rect y="287.881" fill="#091C2D" width="23.677" height="10.042"/>
<rect y="277.84" fill="#002A40" width="23.677" height="10.041"/>
<rect y="267.799" fill="#023753" width="23.677" height="10.041"/>
<rect y="257.758" fill="#014565" width="23.677" height="10.041"/>
<rect y="167.331" fill="#44A1D1" width="23.677" height="10.04"/>
<rect y="157.29" fill="#6AAED7" width="23.677" height="10.041"/>
<rect y="147.246" fill="#89BBE0" width="23.677" height="10.044"/>
<rect y="137.205" fill="#A5C8E6" width="23.677" height="10.042"/>
<rect y="127.163" fill="#BDD7EC" width="23.677" height="10.041"/>
<rect y="117.121" fill="#D4E4F3" width="23.677" height="10.042"/>
<rect y="107.081" fill="#EAF1FA" width="23.677" height="10.041"/>
<rect y="97.039" fill="#FFFFFF" width="23.677" height="10.042"/>
<path fill="#A5C8E6" d="M181.798,61.204h-0.415c-0.176,0-0.305-0.168-0.258-0.34l0.097-0.352c0,0,0.066-0.736-0.071-1.262
	c-0.149-0.57-0.301-1.868-0.3-1.853l-0.129-1.693c0,0-0.024-1.383,0.167-1.86c0,0,0.355-1.001-0.167-1.931
	c0,0-0.261,1.667-0.285,1.977c-0.024,0.31-0.167,0.881-0.19,1.549c-0.011,0.304-0.023,0.479-0.033,0.579
	c-0.005,0.045-0.066,0.053-0.082,0.011c-0.045-0.119-0.099-0.331-0.099-0.662v-1.453c0,0,0.238-2.692,0.38-2.907
	c0.143-0.214,0.322-0.191,0.322-0.191s0.554,0,0.625-0.143c0.072-0.143,0.054-0.333,0.054-0.333h-0.286c0,0,0.071-0.738,0.119-1.215
	c0.048-0.477,0.429-0.468,0.429-0.468s0.477-0.193,0.5,0.45s0.214,1.236,0.214,1.236l-0.452,0.022c0,0,0.023,0.26,0.143,0.284
	c0.119,0.024,0.595,0.024,0.69,0.095c0.096,0.072,0.167,0.262,0.191,0.643c0.024,0.382,0.215,1.858,0.215,1.858l0.095,1.429
	l-0.047,1.358c0,0-0.214,0.286-0.202-0.405c0.011-0.712-0.103-1.751-0.103-1.751l-0.092-0.604l-0.249-1.385
	c0,0-0.237,0.786-0.237,1.047s0.096,0.81,0.096,0.81s0.25,1.055,0.167,1.857l-0.19,1.62l-0.287,1.93l-0.143,1.167l0.072,0.523
	C182.115,61.022,181.984,61.204,181.798,61.204"/>
<path fill="#A5C8E6" d="M178.474,26.44c0.073-0.354,0.134-0.709,0.223-1.059c0.109-0.424,0.411-0.646,0.836-0.695
	c0.415-0.048,0.744,0.062,0.987,0.449c0.552,0.88,0.736,1.793,0.428,2.804c-0.121,0.394-0.157,0.812-0.244,1.217
	c-0.015,0.07-0.075,0.171-0.134,0.183c-0.376,0.09-0.757,0.168-1.139,0.23c-0.067,0.011-0.191-0.053-0.219-0.114
	C178.779,28.501,178.457,27.516,178.474,26.44"/>
<path fill="#A5C8E6" d="M184.813,28.721c0.081,1.051-0.179,2.033-0.568,2.989c-0.031,0.076-0.17,0.16-0.249,0.152
	c-0.377-0.04-0.752-0.103-1.124-0.172c-0.056-0.011-0.125-0.089-0.141-0.148c-0.142-0.544-0.263-1.094-0.411-1.638
	c-0.265-0.975,0.017-1.839,0.552-2.632c0.352-0.522,1.375-0.335,1.646,0.273c0.061,0.136,0.108,0.28,0.142,0.426
	C184.719,28.219,184.763,28.471,184.813,28.721"/>
<path fill="#A5C8E6" d="M182.313,33.395c0.1-0.369,0.195-0.741,0.307-1.108c0.015-0.049,0.118-0.111,0.173-0.104
	c0.384,0.048,0.768,0.103,1.147,0.177c0.062,0.012,0.156,0.137,0.146,0.194c-0.068,0.396-0.114,0.804-0.257,1.173
	c-0.159,0.415-0.524,0.595-0.849,0.525c-0.335-0.071-0.568-0.396-0.601-0.84C182.358,33.407,182.335,33.401,182.313,33.395"/>
<path fill="#A5C8E6" d="M181.204,30.991c-0.087,0.25-0.124,0.445-0.216,0.609c-0.194,0.339-0.584,0.42-0.918,0.216
	c-0.39-0.238-0.793-1.211-0.672-1.65c0.014-0.048,0.093-0.098,0.15-0.111c0.362-0.08,0.724-0.158,1.09-0.218
	c0.069-0.012,0.202,0.042,0.222,0.096C180.991,30.293,181.099,30.661,181.204,30.991"/>
<path fill="#A5C8E6" d="M185.782,41.811h-0.503c-0.001,1.003-0.406,1.906-1.063,2.565c-0.658,0.657-1.562,1.062-2.564,1.062
	c-1.004,0-1.908-0.406-2.565-1.062c-0.657-0.659-1.063-1.562-1.063-2.565c0-1.004,0.406-1.907,1.063-2.565
	c0.658-0.657,1.561-1.062,2.565-1.062c1.002,0,1.906,0.405,2.564,1.062c0.657,0.658,1.062,1.562,1.063,2.565H185.782h0.503
	c0-2.561-2.074-4.635-4.634-4.635c-2.56,0-4.635,2.074-4.635,4.635c0,2.56,2.075,4.634,4.635,4.634c2.56,0,4.634-2.074,4.634-4.634
	H185.782z"/>
<path fill="#A5C8E6" d="M181.651,38.821c0.071,0.251,0.114,0.503,0.156,0.755c0.036,0.252,0.072,0.504,0.091,0.756
	c0.044,0.504,0.057,1.007,0.051,1.512l-0.117-0.239c0.332,0.262,0.654,0.538,0.962,0.832c0.077,0.073,0.153,0.147,0.227,0.225
	c0.075,0.077,0.152,0.15,0.223,0.231c0.145,0.157,0.289,0.319,0.419,0.495c-0.204-0.081-0.396-0.177-0.587-0.276
	c-0.097-0.048-0.187-0.104-0.281-0.157c-0.094-0.05-0.186-0.104-0.277-0.16c-0.363-0.221-0.712-0.461-1.052-0.713l-0.115-0.086
	l-0.002-0.151c-0.006-0.504,0.007-1.008,0.052-1.512c0.02-0.251,0.055-0.504,0.091-0.756
	C181.536,39.324,181.579,39.073,181.651,38.821"/>
<path fill="#023753" d="M352.234,61.726h-0.415c-0.176,0-0.305-0.169-0.258-0.34l0.097-0.352c0,0,0.066-0.737-0.071-1.263
	c-0.148-0.569-0.301-1.868-0.299-1.853l-0.13-1.693c0,0-0.024-1.383,0.167-1.859c0,0,0.356-1.002-0.168-1.931
	c0,0-0.26,1.667-0.284,1.977c-0.024,0.31-0.167,0.882-0.191,1.548c-0.011,0.304-0.023,0.48-0.033,0.581
	c-0.005,0.045-0.065,0.053-0.082,0.011c-0.044-0.119-0.099-0.331-0.099-0.662v-1.454c0,0,0.238-2.692,0.381-2.906
	c0.143-0.215,0.322-0.191,0.322-0.191s0.554,0,0.625-0.143c0.072-0.143,0.054-0.333,0.054-0.333h-0.286c0,0,0.07-0.738,0.119-1.215
	c0.047-0.477,0.428-0.468,0.428-0.468s0.477-0.193,0.5,0.45c0.023,0.644,0.215,1.236,0.215,1.236l-0.453,0.023
	c0,0,0.023,0.26,0.143,0.285c0.118,0.024,0.595,0.023,0.69,0.094c0.096,0.072,0.167,0.263,0.191,0.644
	c0.024,0.38,0.214,1.858,0.214,1.858l0.095,1.429l-0.047,1.358c0,0-0.215,0.286-0.203-0.405c0.012-0.712-0.103-1.751-0.103-1.751
	l-0.092-0.604l-0.248-1.385c0,0-0.238,0.786-0.238,1.048s0.096,0.81,0.096,0.81s0.251,1.055,0.167,1.857l-0.19,1.621l-0.287,1.929
	l-0.143,1.167l0.072,0.524C352.55,61.544,352.419,61.726,352.234,61.726"/>
<path fill="#023753" d="M348.909,26.962c0.073-0.353,0.133-0.709,0.223-1.058c0.109-0.425,0.411-0.646,0.836-0.695
	c0.416-0.048,0.745,0.061,0.988,0.45c0.551,0.879,0.736,1.792,0.427,2.804c-0.121,0.394-0.156,0.812-0.243,1.216
	c-0.015,0.07-0.076,0.171-0.134,0.184c-0.376,0.089-0.756,0.167-1.14,0.229c-0.066,0.011-0.19-0.053-0.218-0.114
	C349.214,29.023,348.893,28.038,348.909,26.962"/>
<path fill="#023753" d="M355.249,29.242c0.081,1.051-0.178,2.034-0.568,2.99c-0.032,0.075-0.17,0.159-0.249,0.151
	c-0.376-0.039-0.751-0.104-1.124-0.172c-0.056-0.011-0.126-0.089-0.141-0.148c-0.143-0.544-0.263-1.094-0.411-1.638
	c-0.264-0.976,0.017-1.839,0.552-2.632c0.352-0.522,1.375-0.335,1.646,0.273c0.06,0.137,0.108,0.28,0.142,0.426
	C355.155,28.74,355.199,28.992,355.249,29.242"/>
<path fill="#023753" d="M352.749,33.916c0.1-0.37,0.195-0.741,0.307-1.107c0.015-0.05,0.118-0.111,0.172-0.104
	c0.383,0.046,0.769,0.103,1.147,0.177c0.062,0.012,0.156,0.137,0.146,0.194c-0.067,0.395-0.114,0.804-0.256,1.173
	c-0.159,0.415-0.525,0.594-0.849,0.525c-0.334-0.071-0.567-0.396-0.601-0.84C352.793,33.928,352.771,33.922,352.749,33.916"/>
<path fill="#023753" d="M351.639,31.513c-0.087,0.25-0.124,0.445-0.216,0.608c-0.194,0.339-0.583,0.42-0.918,0.217
	c-0.391-0.238-0.793-1.212-0.673-1.65c0.014-0.048,0.093-0.098,0.15-0.111c0.362-0.08,0.725-0.158,1.09-0.218
	c0.069-0.012,0.202,0.042,0.223,0.096C351.426,30.814,351.535,31.183,351.639,31.513"/>
<path fill="#023753" d="M356.217,42.332h-0.503c-0.001,1.004-0.405,1.907-1.063,2.565c-0.657,0.657-1.562,1.063-2.564,1.063
	c-1.004,0-1.907-0.406-2.565-1.063c-0.657-0.659-1.063-1.561-1.063-2.565c0-1.003,0.406-1.906,1.063-2.565
	c0.658-0.657,1.561-1.062,2.565-1.062c1.003,0,1.907,0.406,2.564,1.062c0.658,0.659,1.062,1.562,1.063,2.565H356.217h0.504
	c0-2.56-2.075-4.634-4.635-4.634c-2.56,0-4.635,2.074-4.635,4.634s2.075,4.635,4.635,4.635c2.56,0,4.635-2.075,4.635-4.635H356.217z
	"/>
<path fill="#023753" d="M352.086,39.343c0.072,0.251,0.115,0.503,0.157,0.755c0.035,0.251,0.071,0.504,0.09,0.755
	c0.045,0.504,0.058,1.007,0.052,1.512l-0.117-0.238c0.332,0.263,0.654,0.537,0.962,0.832c0.077,0.073,0.152,0.148,0.227,0.225
	c0.076,0.077,0.152,0.15,0.223,0.23c0.146,0.159,0.29,0.319,0.421,0.496c-0.205-0.081-0.396-0.178-0.587-0.277
	c-0.097-0.047-0.187-0.104-0.281-0.156c-0.094-0.051-0.186-0.106-0.276-0.161c-0.364-0.22-0.712-0.461-1.053-0.713l-0.114-0.085
	l-0.002-0.152c-0.006-0.504,0.007-1.008,0.051-1.512c0.019-0.251,0.056-0.504,0.091-0.755
	C351.971,39.846,352.014,39.595,352.086,39.343"/>
<path fill="#FFFFFF" d="M372.21,61.726h-0.414c-0.177,0-0.306-0.169-0.259-0.34l0.097-0.352c0,0,0.066-0.737-0.071-1.263
	c-0.149-0.569-0.301-1.868-0.299-1.853l-0.13-1.693c0,0-0.024-1.383,0.167-1.859c0,0,0.356-1.002-0.167-1.931
	c0,0-0.26,1.667-0.285,1.977c-0.024,0.31-0.167,0.882-0.19,1.548c-0.011,0.304-0.023,0.48-0.033,0.581
	c-0.005,0.045-0.066,0.053-0.082,0.011c-0.045-0.119-0.099-0.331-0.099-0.662v-1.454c0,0,0.238-2.692,0.38-2.906
	c0.143-0.215,0.322-0.191,0.322-0.191s0.555,0,0.625-0.143c0.072-0.143,0.055-0.333,0.055-0.333h-0.286c0,0,0.071-0.738,0.119-1.215
	c0.048-0.477,0.429-0.468,0.429-0.468s0.476-0.193,0.5,0.45c0.024,0.644,0.215,1.236,0.215,1.236l-0.453,0.023
	c0,0,0.023,0.26,0.143,0.285c0.119,0.024,0.595,0.023,0.69,0.094c0.096,0.072,0.167,0.263,0.191,0.644
	c0.023,0.38,0.214,1.858,0.214,1.858l0.095,1.429l-0.047,1.358c0,0-0.215,0.286-0.203-0.405c0.012-0.712-0.103-1.751-0.103-1.751
	l-0.092-0.604l-0.248-1.385c0,0-0.238,0.786-0.238,1.048s0.096,0.81,0.096,0.81s0.252,1.055,0.167,1.857l-0.19,1.621l-0.287,1.929
	l-0.143,1.167l0.072,0.524C372.527,61.544,372.396,61.726,372.21,61.726"/>
<path fill="#FFFFFF" d="M368.886,26.962c0.073-0.353,0.133-0.709,0.223-1.058c0.109-0.425,0.411-0.646,0.836-0.695
	c0.416-0.048,0.744,0.061,0.988,0.45c0.551,0.879,0.736,1.792,0.428,2.804c-0.121,0.394-0.157,0.812-0.244,1.216
	c-0.015,0.07-0.076,0.171-0.134,0.184c-0.377,0.089-0.757,0.167-1.14,0.229c-0.067,0.011-0.191-0.053-0.218-0.114
	C369.19,29.023,368.87,28.038,368.886,26.962"/>
<path fill="#FFFFFF" d="M375.225,29.242c0.081,1.051-0.179,2.034-0.568,2.99c-0.031,0.075-0.17,0.159-0.249,0.151
	c-0.376-0.039-0.751-0.104-1.124-0.172c-0.056-0.011-0.126-0.089-0.141-0.148c-0.142-0.544-0.263-1.094-0.41-1.638
	c-0.265-0.976,0.017-1.839,0.551-2.632c0.352-0.522,1.375-0.335,1.646,0.273c0.06,0.137,0.107,0.28,0.142,0.426
	C375.131,28.74,375.175,28.992,375.225,29.242"/>
<path fill="#FFFFFF" d="M372.726,33.916c0.1-0.37,0.194-0.741,0.306-1.107c0.015-0.05,0.118-0.111,0.173-0.104
	c0.383,0.046,0.768,0.103,1.147,0.177c0.062,0.012,0.156,0.137,0.146,0.194c-0.068,0.395-0.114,0.804-0.256,1.173
	c-0.159,0.415-0.525,0.594-0.85,0.525c-0.334-0.071-0.567-0.396-0.601-0.84C372.77,33.928,372.748,33.922,372.726,33.916"/>
<path fill="#FFFFFF" d="M371.616,31.513c-0.087,0.25-0.124,0.445-0.217,0.608c-0.193,0.339-0.583,0.42-0.918,0.217
	c-0.391-0.238-0.792-1.212-0.672-1.65c0.014-0.048,0.093-0.098,0.15-0.111c0.361-0.08,0.724-0.158,1.089-0.218
	c0.07-0.012,0.203,0.042,0.223,0.096C371.402,30.814,371.511,31.183,371.616,31.513"/>
<path fill="#FFFFFF" d="M376.194,42.332h-0.503c-0.001,1.004-0.405,1.907-1.062,2.565c-0.658,0.657-1.562,1.063-2.565,1.063
	c-1.004,0-1.907-0.406-2.565-1.063c-0.658-0.659-1.062-1.561-1.062-2.565c0-1.003,0.405-1.906,1.062-2.565
	c0.658-0.657,1.561-1.062,2.565-1.062c1.002,0,1.907,0.406,2.565,1.062c0.657,0.659,1.062,1.562,1.062,2.565H376.194h0.503
	c0-2.56-2.074-4.634-4.634-4.634s-4.635,2.074-4.635,4.634s2.075,4.635,4.635,4.635s4.634-2.075,4.634-4.635H376.194z"/>
<path fill="#FFFFFF" d="M372.063,39.343c0.072,0.251,0.115,0.503,0.157,0.755c0.036,0.251,0.072,0.504,0.091,0.755
	c0.045,0.504,0.059,1.007,0.052,1.512l-0.117-0.238c0.332,0.263,0.654,0.537,0.962,0.832c0.077,0.073,0.153,0.148,0.227,0.225
	c0.075,0.077,0.151,0.15,0.222,0.23c0.147,0.159,0.29,0.319,0.421,0.496c-0.205-0.081-0.396-0.178-0.588-0.277
	c-0.097-0.047-0.186-0.104-0.28-0.156c-0.094-0.051-0.186-0.106-0.277-0.161c-0.364-0.22-0.712-0.461-1.053-0.713l-0.115-0.085
	l-0.002-0.152c-0.006-0.504,0.007-1.008,0.052-1.512c0.019-0.251,0.055-0.504,0.091-0.755
	C371.948,39.846,371.991,39.595,372.063,39.343"/>
<path fill="#015075" d="M479.085,61.652h-0.415c-0.177,0-0.305-0.168-0.258-0.34l0.096-0.352c0,0,0.067-0.736-0.07-1.262
	c-0.149-0.57-0.302-1.868-0.3-1.852l-0.13-1.694c0,0-0.023-1.383,0.167-1.86c0,0,0.355-1.001-0.168-1.93
	c0,0-0.261,1.667-0.285,1.977c-0.023,0.309-0.167,0.881-0.19,1.549c-0.011,0.304-0.022,0.479-0.032,0.58
	c-0.005,0.044-0.066,0.053-0.082,0.011c-0.046-0.119-0.099-0.331-0.099-0.662v-1.453c0,0,0.236-2.692,0.38-2.907
	c0.143-0.214,0.322-0.191,0.322-0.191s0.555,0,0.625-0.143c0.071-0.143,0.054-0.333,0.054-0.333h-0.285c0,0,0.07-0.738,0.118-1.215
	c0.049-0.477,0.429-0.468,0.429-0.468s0.477-0.193,0.5,0.45c0.024,0.643,0.215,1.236,0.215,1.236l-0.453,0.023
	c0,0,0.023,0.261,0.144,0.284c0.119,0.024,0.595,0.024,0.69,0.095c0.096,0.072,0.167,0.262,0.191,0.643
	c0.023,0.382,0.214,1.858,0.214,1.858l0.095,1.429l-0.047,1.358c0,0-0.215,0.286-0.203-0.405c0.013-0.712-0.103-1.751-0.103-1.751
	l-0.092-0.604l-0.247-1.385c0,0-0.238,0.786-0.238,1.047c0,0.262,0.095,0.81,0.095,0.81s0.253,1.055,0.167,1.858l-0.188,1.62
	l-0.287,1.93l-0.142,1.167l0.07,0.523C479.401,61.47,479.271,61.652,479.085,61.652"/>
<path fill="#015075" d="M475.76,26.888c0.074-0.354,0.133-0.709,0.224-1.059c0.108-0.424,0.41-0.646,0.836-0.696
	c0.416-0.047,0.744,0.062,0.987,0.45c0.553,0.88,0.736,1.792,0.429,2.804c-0.121,0.394-0.158,0.812-0.244,1.217
	c-0.016,0.07-0.076,0.171-0.134,0.184c-0.376,0.09-0.758,0.167-1.14,0.229c-0.067,0.011-0.19-0.052-0.219-0.114
	C476.065,28.949,475.743,27.963,475.76,26.888"/>
<path fill="#015075" d="M482.1,29.169c0.081,1.051-0.179,2.033-0.569,2.989c-0.029,0.075-0.17,0.159-0.248,0.151
	c-0.377-0.04-0.751-0.103-1.124-0.172c-0.056-0.011-0.125-0.089-0.14-0.148c-0.142-0.544-0.263-1.096-0.411-1.639
	c-0.265-0.974,0.018-1.838,0.551-2.631c0.353-0.522,1.374-0.335,1.646,0.273c0.061,0.137,0.108,0.281,0.142,0.427
	C482.006,28.667,482.05,28.918,482.1,29.169"/>
<path fill="#015075" d="M479.6,33.842c0.101-0.37,0.195-0.741,0.307-1.108c0.015-0.049,0.119-0.111,0.173-0.104
	c0.384,0.048,0.768,0.103,1.148,0.177c0.062,0.012,0.155,0.137,0.145,0.193c-0.067,0.396-0.113,0.805-0.256,1.174
	c-0.158,0.415-0.524,0.595-0.85,0.525c-0.335-0.071-0.566-0.396-0.601-0.84C479.644,33.854,479.622,33.849,479.6,33.842"/>
<path fill="#015075" d="M478.49,31.438c-0.086,0.25-0.123,0.445-0.218,0.608c-0.193,0.34-0.582,0.42-0.918,0.217
	c-0.39-0.238-0.792-1.211-0.672-1.65c0.015-0.048,0.094-0.098,0.15-0.111c0.362-0.08,0.724-0.158,1.09-0.218
	c0.07-0.012,0.203,0.042,0.223,0.096C478.275,30.741,478.386,31.109,478.49,31.438"/>
<path fill="#015075" d="M483.068,42.258h-0.503c-0.001,1.004-0.406,1.907-1.062,2.565c-0.659,0.657-1.563,1.062-2.565,1.062
	c-1.004-0.001-1.907-0.405-2.565-1.062c-0.658-0.658-1.062-1.561-1.062-2.565c0-1.003,0.403-1.907,1.062-2.565
	c0.658-0.657,1.562-1.062,2.565-1.062c1.002,0,1.906,0.405,2.565,1.062c0.656,0.658,1.062,1.562,1.062,2.565H483.068h0.503
	c0-2.56-2.074-4.634-4.634-4.634c-2.561,0-4.635,2.074-4.635,4.634s2.074,4.634,4.635,4.634c2.56,0,4.634-2.074,4.634-4.634H483.068
	z"/>
<path fill="#015075" d="M478.938,39.269c0.071,0.251,0.115,0.503,0.157,0.755c0.036,0.252,0.07,0.503,0.09,0.756
	c0.045,0.504,0.058,1.007,0.052,1.511l-0.116-0.238c0.331,0.262,0.654,0.537,0.962,0.832c0.076,0.072,0.153,0.148,0.227,0.225
	c0.075,0.077,0.152,0.15,0.223,0.231c0.146,0.158,0.289,0.318,0.421,0.495c-0.205-0.081-0.396-0.178-0.588-0.277
	c-0.097-0.047-0.187-0.103-0.28-0.155c-0.094-0.052-0.187-0.105-0.276-0.161c-0.364-0.221-0.712-0.461-1.053-0.713l-0.115-0.086
	l-0.002-0.152c-0.006-0.504,0.007-1.007,0.052-1.511c0.02-0.252,0.055-0.504,0.091-0.756
	C478.822,39.772,478.865,39.521,478.938,39.269"/>
<path fill="#056FA0" d="M556.993,62.1h-0.415c-0.176,0-0.305-0.169-0.259-0.34l0.098-0.352c0,0,0.065-0.737-0.071-1.263
	c-0.148-0.569-0.302-1.868-0.3-1.853l-0.129-1.693c0,0-0.024-1.383,0.166-1.86c0,0,0.356-1.002-0.168-1.93
	c0,0-0.261,1.667-0.285,1.976c-0.023,0.31-0.166,0.882-0.189,1.548c-0.011,0.305-0.024,0.48-0.034,0.581
	c-0.005,0.044-0.065,0.053-0.081,0.011c-0.045-0.119-0.099-0.331-0.099-0.663V54.81c0,0,0.237-2.692,0.38-2.906
	s0.322-0.191,0.322-0.191s0.554,0,0.625-0.143c0.072-0.143,0.055-0.333,0.055-0.333h-0.287c0,0,0.072-0.738,0.12-1.215
	c0.047-0.477,0.428-0.468,0.428-0.468s0.478-0.193,0.501,0.45s0.214,1.236,0.214,1.236l-0.452,0.023c0,0,0.023,0.261,0.143,0.284
	c0.119,0.024,0.596,0.024,0.689,0.095c0.098,0.072,0.167,0.262,0.191,0.643c0.024,0.381,0.215,1.858,0.215,1.858l0.095,1.429
	l-0.047,1.358c0,0-0.215,0.286-0.203-0.405c0.014-0.712-0.102-1.751-0.102-1.751l-0.092-0.604l-0.248-1.385
	c0,0-0.238,0.786-0.238,1.047c0,0.263,0.096,0.811,0.096,0.811s0.253,1.055,0.167,1.857l-0.189,1.62l-0.286,1.93l-0.143,1.168
	l0.07,0.523C557.311,61.917,557.18,62.1,556.993,62.1"/>
<path fill="#056FA0" d="M553.669,27.336c0.072-0.354,0.133-0.709,0.224-1.059c0.107-0.424,0.409-0.646,0.836-0.695
	c0.415-0.048,0.744,0.062,0.987,0.45c0.552,0.879,0.736,1.792,0.428,2.804c-0.121,0.394-0.157,0.812-0.243,1.217
	c-0.016,0.07-0.077,0.17-0.135,0.184c-0.377,0.09-0.757,0.167-1.14,0.229c-0.066,0.011-0.19-0.053-0.219-0.114
	C553.974,29.397,553.652,28.412,553.669,27.336"/>
<path fill="#056FA0" d="M560.008,29.616c0.081,1.051-0.179,2.034-0.568,2.991c-0.031,0.074-0.17,0.158-0.248,0.15
	c-0.377-0.039-0.752-0.103-1.124-0.172c-0.056-0.011-0.127-0.088-0.141-0.147c-0.142-0.544-0.263-1.095-0.411-1.638
	c-0.265-0.976,0.018-1.839,0.552-2.632c0.352-0.522,1.374-0.335,1.646,0.274c0.059,0.136,0.107,0.28,0.141,0.425
	C559.915,29.114,559.958,29.365,560.008,29.616"/>
<path fill="#056FA0" d="M557.508,34.29c0.101-0.37,0.195-0.741,0.308-1.107c0.015-0.048,0.117-0.111,0.172-0.104
	c0.384,0.047,0.769,0.103,1.148,0.177c0.062,0.011,0.155,0.136,0.146,0.194c-0.067,0.395-0.113,0.803-0.256,1.173
	c-0.16,0.415-0.525,0.594-0.851,0.525c-0.334-0.071-0.566-0.396-0.601-0.84C557.553,34.302,557.531,34.296,557.508,34.29"/>
<path fill="#056FA0" d="M556.399,31.887c-0.088,0.25-0.124,0.445-0.218,0.608c-0.193,0.339-0.584,0.42-0.918,0.217
	c-0.391-0.238-0.794-1.211-0.672-1.65c0.015-0.048,0.092-0.098,0.15-0.111c0.361-0.08,0.724-0.158,1.089-0.218
	c0.071-0.012,0.203,0.042,0.223,0.096C556.185,31.188,556.293,31.557,556.399,31.887"/>
<path fill="#056FA0" d="M560.977,42.706h-0.503c-0.001,1.003-0.406,1.907-1.063,2.565c-0.657,0.657-1.562,1.062-2.564,1.062
	c-1.004-0.001-1.907-0.405-2.564-1.062c-0.658-0.658-1.063-1.562-1.063-2.565c0-1.003,0.405-1.907,1.063-2.565
	c0.657-0.657,1.561-1.062,2.564-1.062c1.003,0,1.907,0.406,2.564,1.062c0.657,0.659,1.062,1.562,1.063,2.565H560.977h0.503
	c0-2.561-2.075-4.634-4.634-4.634c-2.561,0-4.634,2.074-4.634,4.634c0,2.56,2.073,4.634,4.634,4.634
	c2.559,0,4.634-2.074,4.634-4.634H560.977z"/>
<path fill="#056FA0" d="M556.846,39.717c0.072,0.251,0.115,0.503,0.157,0.755c0.035,0.252,0.071,0.504,0.091,0.756
	c0.045,0.503,0.058,1.007,0.052,1.512l-0.118-0.239c0.333,0.263,0.655,0.537,0.963,0.832c0.077,0.073,0.152,0.147,0.227,0.225
	c0.075,0.077,0.152,0.15,0.223,0.23c0.146,0.158,0.29,0.318,0.42,0.496c-0.204-0.081-0.395-0.178-0.586-0.277
	c-0.098-0.048-0.187-0.104-0.281-0.156c-0.094-0.051-0.186-0.106-0.276-0.161c-0.363-0.22-0.712-0.461-1.053-0.713l-0.115-0.086
	l-0.002-0.151c-0.006-0.505,0.007-1.008,0.052-1.512c0.021-0.251,0.055-0.503,0.091-0.756
	C556.73,40.22,556.773,39.968,556.846,39.717"/>
<path fill="#44A1D1" d="M653.88,61.652h-0.415c-0.177,0-0.306-0.168-0.259-0.34l0.097-0.352c0,0,0.066-0.736-0.07-1.262
	c-0.149-0.57-0.302-1.868-0.3-1.852l-0.131-1.694c0,0-0.022-1.383,0.168-1.86c0,0,0.355-1.001-0.169-1.93
	c0,0-0.26,1.667-0.284,1.977c-0.023,0.309-0.167,0.881-0.19,1.549c-0.011,0.304-0.023,0.479-0.033,0.58
	c-0.005,0.044-0.065,0.053-0.081,0.011c-0.046-0.119-0.1-0.331-0.1-0.662v-1.453c0,0,0.237-2.692,0.381-2.907
	c0.142-0.214,0.321-0.191,0.321-0.191s0.555,0,0.626-0.143s0.054-0.333,0.054-0.333h-0.286c0,0,0.071-0.738,0.119-1.215
	s0.428-0.468,0.428-0.468s0.478-0.193,0.5,0.45c0.024,0.643,0.215,1.236,0.215,1.236l-0.452,0.023c0,0,0.023,0.261,0.144,0.284
	c0.118,0.024,0.595,0.024,0.689,0.095c0.097,0.072,0.167,0.262,0.191,0.643c0.024,0.382,0.215,1.858,0.215,1.858l0.094,1.429
	l-0.046,1.358c0,0-0.215,0.286-0.203-0.405c0.013-0.712-0.104-1.751-0.104-1.751l-0.091-0.604l-0.248-1.385
	c0,0-0.237,0.786-0.237,1.047c0,0.262,0.095,0.81,0.095,0.81s0.253,1.055,0.167,1.858l-0.189,1.62l-0.286,1.93l-0.142,1.167
	l0.07,0.523C654.196,61.47,654.066,61.652,653.88,61.652"/>
<path fill="#44A1D1" d="M650.555,26.888c0.073-0.354,0.133-0.709,0.225-1.059c0.107-0.424,0.408-0.646,0.835-0.696
	c0.416-0.047,0.744,0.062,0.986,0.45c0.554,0.88,0.737,1.792,0.429,2.804c-0.12,0.394-0.157,0.812-0.244,1.217
	c-0.015,0.07-0.075,0.171-0.133,0.184c-0.377,0.09-0.759,0.167-1.14,0.229c-0.067,0.011-0.19-0.052-0.219-0.114
	C650.86,28.949,650.538,27.963,650.555,26.888"/>
<path fill="#44A1D1" d="M656.895,29.169c0.081,1.051-0.179,2.033-0.569,2.989c-0.03,0.075-0.17,0.159-0.249,0.151
	c-0.375-0.04-0.75-0.103-1.123-0.172c-0.056-0.011-0.126-0.089-0.141-0.148c-0.142-0.544-0.262-1.096-0.41-1.639
	c-0.265-0.974,0.018-1.838,0.551-2.631c0.353-0.522,1.374-0.335,1.646,0.273c0.06,0.137,0.108,0.281,0.142,0.427
	C656.801,28.667,656.844,28.918,656.895,29.169"/>
<path fill="#44A1D1" d="M654.395,33.842c0.1-0.37,0.195-0.741,0.307-1.108c0.015-0.049,0.118-0.111,0.173-0.104
	c0.384,0.048,0.768,0.103,1.148,0.177c0.061,0.012,0.155,0.137,0.146,0.193c-0.069,0.396-0.114,0.805-0.258,1.174
	c-0.158,0.415-0.524,0.595-0.849,0.525c-0.335-0.071-0.567-0.396-0.602-0.84C654.438,33.854,654.417,33.849,654.395,33.842"/>
<path fill="#44A1D1" d="M653.285,31.438c-0.087,0.25-0.124,0.445-0.218,0.608c-0.193,0.34-0.583,0.42-0.918,0.217
	c-0.39-0.238-0.793-1.211-0.672-1.65c0.015-0.048,0.093-0.098,0.15-0.111c0.362-0.08,0.724-0.158,1.09-0.218
	c0.069-0.012,0.203,0.042,0.223,0.096C653.07,30.741,653.18,31.109,653.285,31.438"/>
<path fill="#44A1D1" d="M657.863,42.258h-0.504c0,1.004-0.405,1.907-1.062,2.565c-0.658,0.657-1.562,1.062-2.565,1.062
	c-1.003-0.001-1.906-0.405-2.565-1.062c-0.657-0.658-1.062-1.561-1.062-2.565c0-1.003,0.404-1.907,1.062-2.565
	c0.659-0.657,1.562-1.062,2.565-1.062s1.907,0.405,2.565,1.062c0.657,0.658,1.062,1.562,1.062,2.565H657.863h0.503
	c0-2.56-2.075-4.634-4.635-4.634c-2.561,0-4.634,2.074-4.634,4.634s2.073,4.634,4.634,4.634c2.56,0,4.635-2.074,4.635-4.634H657.863
	z"/>
<path fill="#44A1D1" d="M653.731,39.269c0.072,0.251,0.116,0.503,0.158,0.755c0.035,0.252,0.07,0.503,0.09,0.756
	c0.045,0.504,0.058,1.007,0.052,1.511l-0.117-0.238c0.332,0.262,0.655,0.537,0.963,0.832c0.076,0.072,0.152,0.148,0.227,0.225
	s0.152,0.15,0.223,0.231c0.146,0.158,0.289,0.318,0.42,0.495c-0.205-0.081-0.396-0.178-0.588-0.277
	c-0.096-0.047-0.186-0.103-0.279-0.155c-0.094-0.052-0.187-0.105-0.276-0.161c-0.364-0.221-0.713-0.461-1.054-0.713l-0.114-0.086
	l-0.002-0.152c-0.006-0.504,0.007-1.007,0.052-1.511c0.02-0.252,0.054-0.504,0.09-0.756
	C653.617,39.772,653.66,39.521,653.731,39.269"/>
<path fill="#A5C8E6" d="M729.79,60.97h-0.415c-0.177,0-0.305-0.168-0.258-0.339l0.096-0.352c0,0,0.066-0.737-0.069-1.262
	c-0.149-0.569-0.303-1.868-0.301-1.853l-0.13-1.693c0,0-0.023-1.383,0.167-1.86c0,0,0.355-1.001-0.168-1.93
	c0,0-0.26,1.667-0.284,1.977c-0.023,0.31-0.167,0.882-0.19,1.548c-0.011,0.305-0.023,0.479-0.033,0.581
	c-0.005,0.045-0.066,0.053-0.082,0.011c-0.045-0.119-0.099-0.331-0.099-0.663v-1.453c0,0,0.237-2.692,0.381-2.907
	c0.142-0.214,0.321-0.19,0.321-0.19s0.554,0,0.626-0.143c0.07-0.143,0.053-0.334,0.053-0.334h-0.285c0,0,0.07-0.738,0.118-1.214
	c0.049-0.476,0.429-0.468,0.429-0.468s0.477-0.193,0.5,0.451c0.024,0.643,0.215,1.235,0.215,1.235l-0.453,0.023
	c0,0,0.023,0.261,0.145,0.285c0.118,0.024,0.594,0.024,0.689,0.095c0.096,0.072,0.167,0.261,0.191,0.643
	c0.024,0.382,0.215,1.858,0.215,1.858l0.094,1.429l-0.047,1.358c0,0-0.214,0.287-0.203-0.405c0.013-0.712-0.103-1.751-0.103-1.751
	l-0.091-0.603l-0.248-1.386c0,0-0.238,0.786-0.238,1.048c0,0.262,0.096,0.81,0.096,0.81s0.252,1.054,0.167,1.857l-0.189,1.62
	l-0.287,1.93l-0.142,1.167l0.071,0.523C730.106,60.789,729.977,60.97,729.79,60.97"/>
<path fill="#A5C8E6" d="M726.465,26.207c0.074-0.354,0.134-0.709,0.224-1.059c0.109-0.424,0.41-0.646,0.837-0.694
	c0.415-0.048,0.744,0.061,0.986,0.449c0.553,0.88,0.736,1.793,0.429,2.804c-0.121,0.394-0.157,0.812-0.244,1.217
	c-0.016,0.069-0.075,0.17-0.134,0.184c-0.376,0.09-0.758,0.168-1.14,0.229c-0.067,0.011-0.19-0.053-0.219-0.114
	C726.771,28.267,726.448,27.283,726.465,26.207"/>
<path fill="#A5C8E6" d="M732.806,28.487c0.08,1.051-0.179,2.034-0.569,2.99c-0.03,0.074-0.17,0.158-0.249,0.15
	c-0.377-0.039-0.751-0.103-1.124-0.172c-0.055-0.011-0.125-0.087-0.14-0.147c-0.142-0.545-0.263-1.095-0.411-1.638
	c-0.264-0.975,0.018-1.839,0.551-2.631c0.353-0.523,1.375-0.336,1.646,0.273c0.061,0.135,0.109,0.279,0.142,0.425
	C732.711,27.985,732.755,28.237,732.806,28.487"/>
<path fill="#A5C8E6" d="M730.305,33.161c0.101-0.37,0.195-0.741,0.308-1.108c0.015-0.049,0.118-0.111,0.173-0.104
	c0.384,0.047,0.768,0.103,1.147,0.177c0.062,0.012,0.155,0.136,0.146,0.195c-0.068,0.394-0.114,0.803-0.257,1.173
	c-0.158,0.414-0.524,0.594-0.849,0.525c-0.335-0.07-0.567-0.395-0.602-0.84C730.349,33.172,730.327,33.167,730.305,33.161"/>
<path fill="#A5C8E6" d="M729.195,30.757c-0.086,0.25-0.123,0.444-0.217,0.608c-0.193,0.339-0.583,0.42-0.918,0.216
	c-0.39-0.237-0.793-1.211-0.673-1.65c0.015-0.048,0.094-0.098,0.15-0.111c0.363-0.08,0.725-0.158,1.091-0.218
	c0.069-0.012,0.202,0.042,0.222,0.096C728.981,30.059,729.091,30.428,729.195,30.757"/>
<path fill="#A5C8E6" d="M733.773,41.577h-0.503c-0.001,1.002-0.406,1.907-1.062,2.565c-0.658,0.657-1.563,1.062-2.565,1.062
	c-1.004-0.001-1.907-0.406-2.565-1.062c-0.657-0.658-1.062-1.562-1.062-2.565c0-1.004,0.404-1.908,1.062-2.565
	c0.658-0.658,1.562-1.063,2.565-1.063c1.002,0,1.907,0.405,2.565,1.063c0.656,0.657,1.062,1.561,1.062,2.565H733.773h0.504
	c0-2.56-2.075-4.635-4.635-4.635c-2.561,0-4.635,2.075-4.635,4.635s2.074,4.634,4.635,4.634c2.56,0,4.635-2.074,4.635-4.634H733.773
	z"/>
<path fill="#A5C8E6" d="M729.643,38.587c0.072,0.251,0.115,0.503,0.157,0.755c0.036,0.252,0.071,0.504,0.091,0.756
	c0.044,0.503,0.057,1.007,0.051,1.511l-0.116-0.238c0.331,0.262,0.654,0.538,0.963,0.832c0.075,0.073,0.152,0.147,0.226,0.225
	c0.075,0.077,0.153,0.15,0.223,0.231c0.146,0.157,0.29,0.318,0.421,0.495c-0.205-0.081-0.396-0.178-0.588-0.277
	c-0.096-0.048-0.187-0.104-0.279-0.156c-0.095-0.051-0.187-0.105-0.277-0.161c-0.364-0.221-0.712-0.461-1.053-0.713l-0.114-0.086
	l-0.002-0.152c-0.006-0.504,0.007-1.008,0.051-1.511c0.02-0.252,0.055-0.504,0.091-0.756
	C729.528,39.09,729.57,38.838,729.643,38.587"/>
<path fill="#0278AE" d="M139.248,61.278h-0.415c-0.176,0-0.306-0.169-0.258-0.34l0.097-0.352c0,0,0.065-0.737-0.071-1.263
	c-0.15-0.569-0.301-1.868-0.299-1.853l-0.13-1.693c0,0-0.024-1.383,0.167-1.86c0,0,0.356-1.002-0.168-1.93
	c0,0-0.261,1.667-0.285,1.976c-0.023,0.31-0.167,0.882-0.19,1.548c-0.011,0.305-0.023,0.48-0.033,0.581
	c-0.005,0.044-0.065,0.053-0.082,0.011c-0.045-0.119-0.099-0.331-0.099-0.663v-1.453c0,0,0.238-2.692,0.381-2.906
	c0.143-0.214,0.321-0.191,0.321-0.191s0.554,0,0.625-0.143c0.072-0.143,0.054-0.333,0.054-0.333h-0.286c0,0,0.07-0.738,0.119-1.215
	c0.047-0.477,0.428-0.468,0.428-0.468s0.477-0.193,0.5,0.45c0.024,0.643,0.215,1.236,0.215,1.236l-0.453,0.023
	c0,0,0.023,0.261,0.143,0.284c0.119,0.024,0.595,0.024,0.69,0.095c0.096,0.072,0.167,0.262,0.191,0.643
	c0.024,0.381,0.214,1.858,0.214,1.858l0.095,1.429l-0.046,1.358c0,0-0.215,0.286-0.203-0.405c0.012-0.712-0.103-1.751-0.103-1.751
	l-0.092-0.604l-0.248-1.385c0,0-0.238,0.786-0.238,1.047c0,0.263,0.096,0.811,0.096,0.811s0.25,1.055,0.167,1.857l-0.19,1.62
	l-0.287,1.93l-0.143,1.168l0.072,0.523C139.563,61.096,139.433,61.278,139.248,61.278"/>
<path fill="#0278AE" d="M135.923,26.515c0.073-0.354,0.132-0.709,0.222-1.059c0.109-0.424,0.411-0.646,0.836-0.695
	c0.416-0.048,0.744,0.062,0.988,0.45c0.551,0.879,0.735,1.792,0.427,2.804c-0.121,0.394-0.157,0.812-0.244,1.217
	c-0.015,0.07-0.076,0.17-0.134,0.184c-0.376,0.09-0.757,0.167-1.14,0.229c-0.067,0.011-0.19-0.053-0.218-0.114
	C136.228,28.576,135.906,27.59,135.923,26.515"/>
<path fill="#0278AE" d="M142.262,28.795c0.081,1.051-0.178,2.034-0.568,2.99c-0.032,0.075-0.17,0.159-0.25,0.151
	c-0.376-0.039-0.75-0.104-1.123-0.172c-0.057-0.011-0.126-0.088-0.141-0.147c-0.142-0.545-0.263-1.095-0.411-1.638
	c-0.264-0.976,0.017-1.839,0.552-2.632c0.352-0.522,1.375-0.335,1.646,0.274c0.06,0.136,0.108,0.28,0.142,0.425
	C142.169,28.292,142.212,28.544,142.262,28.795"/>
<path fill="#0278AE" d="M139.763,33.468c0.1-0.37,0.195-0.741,0.307-1.107c0.014-0.048,0.117-0.111,0.172-0.104
	c0.383,0.047,0.768,0.103,1.147,0.177c0.062,0.011,0.156,0.136,0.146,0.194c-0.067,0.395-0.113,0.803-0.256,1.173
	c-0.159,0.415-0.524,0.594-0.849,0.525c-0.335-0.071-0.567-0.396-0.602-0.84L139.763,33.468z"/>
<path fill="#0278AE" d="M138.653,31.065c-0.087,0.25-0.125,0.445-0.217,0.608c-0.193,0.339-0.583,0.42-0.918,0.217
	c-0.39-0.238-0.793-1.211-0.672-1.65c0.014-0.048,0.093-0.098,0.149-0.111c0.361-0.08,0.725-0.158,1.09-0.218
	c0.069-0.012,0.203,0.042,0.223,0.096C138.439,30.367,138.548,30.735,138.653,31.065"/>
<path fill="#0278AE" d="M143.231,41.884h-0.504c-0.001,1.004-0.405,1.907-1.063,2.565c-0.658,0.657-1.562,1.062-2.565,1.062
	c-1.003,0-1.906-0.405-2.565-1.062c-0.657-0.658-1.062-1.561-1.062-2.565c0-1.002,0.405-1.906,1.062-2.565
	c0.659-0.657,1.562-1.062,2.565-1.062c1.003,0.001,1.907,0.405,2.565,1.062c0.658,0.659,1.062,1.562,1.063,2.565H143.231h0.503
	c0-2.56-2.075-4.634-4.635-4.634c-2.56,0-4.634,2.074-4.634,4.634s2.075,4.635,4.634,4.635c2.56,0,4.635-2.075,4.635-4.635H143.231z
	"/>
<path fill="#0278AE" d="M139.1,38.896c0.072,0.251,0.115,0.503,0.157,0.755c0.036,0.252,0.072,0.504,0.09,0.756
	c0.045,0.503,0.059,1.007,0.052,1.512l-0.117-0.239c0.332,0.263,0.654,0.537,0.962,0.832c0.077,0.073,0.152,0.147,0.227,0.225
	c0.075,0.077,0.152,0.15,0.224,0.23c0.145,0.158,0.289,0.318,0.419,0.496c-0.205-0.081-0.397-0.178-0.587-0.277
	c-0.097-0.048-0.187-0.104-0.281-0.156c-0.094-0.051-0.186-0.106-0.276-0.161c-0.364-0.22-0.712-0.461-1.053-0.713l-0.115-0.086
	l-0.002-0.151c-0.006-0.505,0.007-1.008,0.052-1.512c0.019-0.251,0.055-0.503,0.091-0.756
	C138.985,39.398,139.028,39.147,139.1,38.896"/>
<path fill="#014565" d="M79.397,61.733h-0.415c-0.177,0-0.306-0.169-0.259-0.339l0.097-0.352c0,0,0.065-0.737-0.071-1.263
	c-0.15-0.569-0.302-1.867-0.3-1.852l-0.13-1.693c0,0-0.024-1.383,0.167-1.86c0,0,0.356-1.002-0.167-1.931
	c0,0-0.261,1.667-0.285,1.977c-0.023,0.31-0.167,0.882-0.191,1.548c-0.01,0.305-0.022,0.479-0.033,0.58
	c-0.005,0.045-0.065,0.053-0.081,0.012c-0.046-0.119-0.099-0.331-0.099-0.663v-1.454c0,0,0.237-2.691,0.38-2.906
	c0.143-0.215,0.322-0.191,0.322-0.191s0.554,0,0.625-0.143c0.072-0.142,0.054-0.333,0.054-0.333h-0.286c0,0,0.071-0.738,0.119-1.214
	c0.047-0.477,0.429-0.468,0.429-0.468s0.477-0.193,0.5,0.45c0.024,0.644,0.215,1.236,0.215,1.236l-0.453,0.023
	c0,0,0.023,0.26,0.143,0.284c0.119,0.024,0.596,0.024,0.69,0.095c0.096,0.072,0.167,0.262,0.191,0.644
	c0.023,0.381,0.214,1.858,0.214,1.858l0.095,1.429l-0.047,1.358c0,0-0.215,0.286-0.203-0.405c0.012-0.712-0.104-1.751-0.104-1.751
	l-0.091-0.603l-0.248-1.385c0,0-0.237,0.786-0.237,1.047c0,0.262,0.096,0.811,0.096,0.811s0.25,1.055,0.167,1.857l-0.19,1.621
	l-0.287,1.929l-0.143,1.168l0.072,0.523C79.713,61.551,79.583,61.733,79.397,61.733"/>
<path fill="#014565" d="M76.073,26.97c0.073-0.354,0.133-0.709,0.223-1.059c0.109-0.425,0.411-0.646,0.836-0.695
	c0.416-0.048,0.745,0.061,0.988,0.45c0.552,0.879,0.736,1.792,0.428,2.804c-0.122,0.393-0.158,0.812-0.245,1.216
	c-0.015,0.07-0.076,0.17-0.133,0.184c-0.376,0.09-0.757,0.167-1.14,0.229c-0.067,0.011-0.191-0.053-0.219-0.114
	C76.378,29.031,76.056,28.045,76.073,26.97"/>
<path fill="#014565" d="M82.412,29.25c0.081,1.051-0.179,2.034-0.568,2.99c-0.031,0.075-0.17,0.159-0.25,0.15
	c-0.375-0.039-0.75-0.103-1.122-0.171c-0.056-0.011-0.126-0.088-0.141-0.147c-0.142-0.544-0.263-1.095-0.411-1.639
	c-0.265-0.975,0.017-1.838,0.551-2.632c0.352-0.522,1.375-0.335,1.646,0.273c0.06,0.137,0.108,0.28,0.142,0.426
	C82.319,28.748,82.362,28.999,82.412,29.25"/>
<path fill="#014565" d="M79.913,33.923c0.1-0.37,0.195-0.741,0.307-1.107c0.015-0.049,0.118-0.111,0.173-0.104
	c0.384,0.046,0.768,0.102,1.148,0.177c0.062,0.012,0.155,0.137,0.145,0.193c-0.067,0.396-0.113,0.804-0.256,1.174
	c-0.159,0.415-0.524,0.594-0.849,0.525c-0.335-0.071-0.567-0.396-0.602-0.84C79.957,33.935,79.935,33.929,79.913,33.923"/>
<path fill="#014565" d="M78.803,31.521c-0.087,0.25-0.124,0.445-0.217,0.608c-0.194,0.339-0.583,0.42-0.918,0.217
	c-0.39-0.238-0.793-1.211-0.672-1.65c0.014-0.048,0.093-0.098,0.15-0.111c0.361-0.08,0.724-0.158,1.089-0.218
	c0.07-0.012,0.203,0.042,0.223,0.096C78.589,30.822,78.698,31.19,78.803,31.521"/>
<path fill="#014565" d="M83.381,42.339h-0.504c0,1.004-0.405,1.907-1.062,2.565c-0.658,0.657-1.562,1.062-2.565,1.062
	s-1.906-0.405-2.564-1.062c-0.657-0.659-1.062-1.562-1.062-2.565c0-1.002,0.405-1.907,1.062-2.565
	c0.658-0.657,1.561-1.062,2.564-1.062c1.003,0.001,1.907,0.405,2.565,1.062c0.657,0.658,1.062,1.562,1.062,2.565H83.381h0.503
	c0-2.56-2.075-4.634-4.635-4.634c-2.56,0-4.634,2.074-4.634,4.634s2.074,4.635,4.634,4.635c2.56,0,4.635-2.075,4.635-4.635H83.381z"
	/>
<path fill="#014565" d="M79.25,39.35c0.072,0.251,0.115,0.503,0.157,0.755c0.036,0.252,0.072,0.504,0.091,0.756
	c0.045,0.503,0.058,1.007,0.052,1.511l-0.117-0.239c0.332,0.264,0.655,0.538,0.962,0.833c0.077,0.073,0.153,0.148,0.228,0.225
	c0.074,0.077,0.151,0.15,0.223,0.23c0.145,0.159,0.289,0.319,0.419,0.496c-0.205-0.081-0.397-0.178-0.587-0.277
	c-0.097-0.048-0.187-0.104-0.28-0.155c-0.094-0.051-0.186-0.106-0.277-0.161c-0.363-0.22-0.712-0.461-1.053-0.713l-0.115-0.085
	l-0.002-0.152c-0.006-0.504,0.007-1.008,0.052-1.511c0.02-0.252,0.055-0.503,0.091-0.756C79.135,39.853,79.178,39.602,79.25,39.35"
	/>
<line fill="#70CDDD" x1="23.677" y1="98.039" x2="851" y2="98.119"/>
<line fill="#70CDDD" x1="23.677" y1="109.025" x2="851" y2="109.106"/>
<line fill="#70CDDD" x1="23.677" y1="119.014" x2="851" y2="119.094"/>
<line fill="#70CDDD" x1="23.677" y1="129.002" x2="851" y2="129.083"/>
<line fill="#70CDDD" x1="23.677" y1="139.989" x2="851" y2="140.07"/>
<line fill="#70CDDD" x1="23.677" y1="149.977" x2="851" y2="150.058"/>
<line fill="#70CDDD" x1="23.677" y1="160.966" x2="851" y2="161.048"/>
<line fill="#70CDDD" x1="23.677" y1="169.955" x2="851" y2="170.037"/>
<line fill="#70CDDD" x1="23.677" y1="178.944" x2="851" y2="179.026"/>
<line fill="#70CDDD" x1="23.677" y1="188.934" x2="851" y2="189.015"/>
<line fill="#70CDDD" x1="23.677" y1="199.92" x2="851" y2="200.002"/>
<line fill="#70CDDD" x1="23.677" y1="208.909" x2="851" y2="208.991"/>
<line fill="#70CDDD" x1="22.679" y1="218.898" x2="850.001" y2="218.979"/>
<line fill="#70CDDD" x1="23.677" y1="228.886" x2="851" y2="228.968"/>
<line fill="#70CDDD" x1="23.677" y1="238.874" x2="851" y2="238.956"/>
<line fill="#70CDDD" x1="23.677" y1="248.863" x2="851" y2="248.944"/>
<line fill="#70CDDD" x1="23.677" y1="258.851" x2="851" y2="258.933"/>
<line fill="#70CDDD" x1="23.677" y1="268.839" x2="851" y2="268.921"/>
<line fill="#70CDDD" x1="22.679" y1="278.827" x2="850.001" y2="278.909"/>
<line fill="#70CDDD" x1="22.679" y1="288.815" x2="850.001" y2="288.897"/>
<line fill="#70CDDD" x1="22.679" y1="298.804" x2="850.001" y2="298.886"/>

</svg>
