<?xml version="1.0" encoding="utf-8"?>
<!-- Generator: Adobe Illustrator 16.0.0, SVG Export Plug-In . SVG Version: 6.00 Build 0)  #015075 -->
<!DOCTYPE svg PUBLIC "-//W3C//DTD SVG 1.1//EN" "http://www.w3.org/Graphics/SVG/1.1/DTD/svg11.dtd">
<svg version="1.1" id="Layer_1" xmlns="http://www.w3.org/2000/svg" xmlns:xlink="http://www.w3.org/1999/xlink" x="0px" y="0px"
	 width="48.19px" height="48.19px" viewBox="0 0 48.19 48.19" enable-background="new 0 0 48.19 48.19" xml:space="preserve">
<path fill-rule="evenodd" clip-rule="evenodd" fill="#ffffff" d="M6.179,0h35.757c3.397,0,6.171,2.779,6.171,6.177v35.756
	c0,3.398-2.773,6.174-6.171,6.174H6.179C2.781,48.106,0,45.331,0,41.933V6.177C0,2.779,2.781,0,6.179,0 M35.046,5.345
	c-1.191,0-2.164,0.977-2.164,2.17v5.181c0,1.192,0.973,2.167,2.164,2.167h5.438c1.193,0,2.168-0.975,2.168-2.167V7.515
	c0-1.193-0.975-2.17-2.168-2.17H35.046z M42.671,20.346h-4.231c0.398,1.309,0.615,2.693,0.615,4.131
	c0,7.997-6.698,14.484-14.956,14.484c-8.256,0-14.953-6.487-14.953-14.484c0-1.438,0.218-2.822,0.618-4.131H5.348v20.322
	c0,1.053,0.86,1.91,1.91,1.91H40.76c1.056,0,1.911-0.857,1.911-1.91V20.346z M24.099,14.59c-5.333,0-9.661,4.19-9.661,9.363
	c0,5.167,4.328,9.361,9.661,9.361c5.336,0,9.663-4.194,9.663-9.361C33.762,18.781,29.436,14.59,24.099,14.59"/>

</svg>
