<?xml version="1.0" encoding="utf-8"?>
<!-- Generator: Adobe Illustrator 16.0.0, SVG Export Plug-In . SVG Version: 6.00 Build 0)  -->
<!DOCTYPE svg PUBLIC "-//W3C//DTD SVG 1.1//EN" "http://www.w3.org/Graphics/SVG/1.1/DTD/svg11.dtd">
<svg version="1.1" id="Layer_1" xmlns="http://www.w3.org/2000/svg" xmlns:xlink="http://www.w3.org/1999/xlink" x="0px" y="0px"
	 width="850.39px" viewBox="0 0 850.39 251" enable-background="new 0 0 850.39 251" xml:space="preserve">
	 <g xmlns="http://www.w3.org/2000/svg" transform="translate(-223, -51)">
	 		<rect fill="#008AC3" x="223" y="51.5" class="st11" width="851" height="249.5"/>
	 		<path fill="#FFFFFF" d="M1038.2,135.1l-38.1,22.5c0,0-41.5,13-53.3,21.3c-13.8,9.7-17.8,1.6-37.2,10.8c-6.8,3.2-5.8,7-19.3,10.9    c0,0,0,0,0,0c-0.1-0.1-0.1-0.2-0.2-0.3c0-0.1-0.1-0.1-0.1-0.2c0-0.3-0.1-0.7-0.1-1c0-0.2,0-0.3-0.1-0.5c-0.1-0.3-0.1-0.6-0.1-0.8    c0-0.1,0-0.2-0.1-0.2c0-0.2-0.1-0.3-0.1-0.5c0,0,0-0.1,0-0.1c-0.1-0.3-0.1-0.6,0.1-0.9c0.1-0.2,0.3-0.3,0.5-0.5c0,0,0.2,0,0.2,0    c0,0,0.1,0.1,0.1,0.1c0,0,0,0,0,0c-0.1-0.1-0.1-0.1-0.2-0.2c-0.1-0.1-0.2-0.3,0-0.5c0,0.1,0.1,0.1,0.1,0.2c0,0,0.1,0,0.1,0    c0-0.1,0.1-0.2,0.2-0.4c-0.1,0-0.2,0-0.3,0c0-0.1,0-0.2-0.1-0.2c0,0,0-0.1,0-0.1c-0.1-0.2-0.2-0.3-0.3-0.5    c-0.1-0.2-0.2-0.4-0.4-0.5c-0.1-0.1-0.1-0.1,0-0.2c0.1-0.1,0-0.2-0.1-0.3c-0.1-0.1-0.3-0.3-0.4-0.4c-0.1-0.1-0.1-0.2-0.2-0.3    c-0.2-0.4-0.6-0.5-1-0.6c-0.4-0.1-0.8,0-1.3,0.1c-0.2,0-0.3,0.1-0.5,0.1c-0.1,0-0.1,0-0.1-0.1c-0.2-0.5-0.4-1-0.5-1.5    c0,0,0-0.1,0.1-0.1c0.4-0.2,0.8-0.3,1.3-0.4c-0.1,0-0.1,0-0.2,0c-0.2,0-0.3,0-0.5,0c-0.1,0-0.2,0-0.3,0.1c-0.2,0.1-0.4,0-0.6,0.2    c-0.2,0.2-0.4,0.5-0.5,0.8c0,0.1-0.1,0.1-0.2,0.1c-0.1,0.1-0.1,0.1,0,0.2c0,0,0.1,0.1,0.1,0.1c0,0.2,0.1,0.4,0.2,0.5    c0,0,0,0.1,0,0.2c0,0.1-0.1,0.1,0,0.2c0.1,0.1,0,0.2-0.1,0.2c-0.1,0-0.1,0-0.2,0c-0.1,0-0.2,0-0.3,0.1c0.1,0,0.3,0,0.4,0.1    c0.1,0,0.2,0.1,0.2,0.2c0,0,0,0.1,0,0.1c0,0-0.1,0-0.1,0c-0.2-0.1-0.2-0.1-0.3,0.1c-0.1,0.1-0.1,0.3-0.2,0.4c-0.1,0.3,0,0.6,0,0.9    c0,0,0.1,0,0.1-0.1c0,0,0.1,0,0.1,0c0,0,0,0.1,0,0.1c0.1,0.2,0,0.4-0.1,0.6c0.1,0,0.1,0,0.2,0c-0.1,0.1-0.1,0.1,0,0.2    c0,0,0,0.1,0,0.1c0,0.1,0.1,0.1,0.1,0.2c0,0,0,0.1,0,0.1c0,0.1,0,0.2-0.1,0.3c0,0.1-0.1,0.1-0.2,0.2c-0.1,0.1-0.1,0.2-0.1,0.3    c0,0.2,0.2,0.4,0,0.6c-0.1,0.1-0.1,0.2-0.1,0.3c0,0,0,0,0.1,0c0,0,0,0,0,0c-0.1,0.1-0.1,0.2,0,0.2c0.1,0.1,0.1,0.2,0.1,0.3    c0,0.3,0.2,0.5,0.5,0.6c0,0,0-0.1-0.1-0.1c0.2-0.1,0.2-0.1,0.1-0.3c0-0.1-0.1-0.3-0.1-0.4c0.1-0.2,0.2-0.3,0.3-0.5    c0,0,0.1,0,0.2,0c0.1,0.1,0.2,0.1,0.3,0.2c0.1,0.1,0,0.2,0,0.3c-0.2,0.1-0.2,0.3-0.1,0.5c0.1,0.2,0.1,0.5,0.1,0.7    c0,0.4-0.1,0.9,0,1.3c0,0,0,0.1,0,0.1c-0.1,0.2,0,0.4,0,0.7c0.1,0.2,0.1,0.5,0.4,0.6c0,0,0,0.1,0.1,0.1c-1.4,0.3-3,0.7-4.8,1    c0-0.1-0.1-0.1-0.1-0.2c-0.1-0.1-0.1-0.2-0.2-0.3c-0.1-0.2-0.2-0.3-0.3-0.5c-0.1-0.3-0.2-0.5-0.4-0.8c-0.1-0.2-0.2-0.5-0.3-0.7    c0-0.1-0.1-0.2-0.1-0.3c-0.1-0.2-0.1-0.4-0.2-0.6c-0.1-0.2-0.1-0.4-0.2-0.6c-0.1-0.3-0.2-0.6-0.2-0.8c0-0.1,0-0.3,0-0.4    c0,0,0.1-0.1,0.1-0.1c0,0,0.1,0,0.1,0.1c0.1,0.1,0.3,0.1,0.4,0c0.2-0.2,0.5-0.4,0.7-0.6c0.1-0.1,0.1-0.1,0.2-0.2    c-0.1,0-0.1-0.1,0-0.2c0.1-0.1,0.1-0.3,0-0.4c-0.1-0.2-0.1-0.4-0.1-0.5c0-0.1,0-0.1,0.1-0.1c0-0.1-0.1-0.2-0.1-0.3    c0-0.1-0.1-0.1-0.1-0.1c0-0.1-0.1-0.1,0-0.2c0,0,0.1-0.1,0.2-0.1c0.1,0,0.2,0,0.3,0c0,0,0.1,0,0.1-0.1c0,0,0,0,0,0    c0,0-0.1,0-0.1,0c-0.2,0-0.3-0.1-0.4-0.1c0,0,0-0.1,0-0.1c0-0.2,0-0.3-0.1-0.5c-0.1-0.1-0.1-0.3-0.2-0.4c-0.1-0.2-0.3-0.4-0.5-0.5    c-0.1,0-0.1-0.1-0.2-0.1c0,0,0-0.1,0-0.2c-0.2-0.3-0.5-0.6-0.8-0.9c0,0,0-0.1,0-0.1c-0.1,0-0.1,0-0.2-0.1    c-0.2-0.1-0.3-0.2-0.4-0.3c0,0-0.1-0.1-0.1-0.1c0,0-0.1,0-0.1-0.1c-0.1,0-0.2,0-0.3-0.1c-0.2-0.1-0.4-0.2-0.6-0.1    c-0.1,0-0.2,0-0.3,0c-0.2,0.1-0.3,0.2-0.4,0.3c-0.1,0.1-0.2,0.2-0.4,0.3c-0.2,0.1-0.2,0.5-0.1,0.7c0.1,0.1,0.1,0.3,0.2,0.4    c0,0-0.1,0.1-0.1,0.1c-0.5-0.1-0.8,0.2-0.9,0.6c0,0.1,0,0.3,0,0.4c0,0.1,0,0.3,0,0.4c0.1,0.1,0.2,0.2,0.2,0.3    c0.1,0.1,0.2,0.1,0.2,0.2c0,0,0,0.1,0,0.2c0,0.2-0.1,0.5-0.1,0.7c0,0.2-0.1,0.4-0.2,0.6c0,0,0,0-0.1,0.1c0,0,0,0,0.1,0    c0,0,0.1-0.1,0.1-0.1c0.1,0.1,0.2,0.1,0.3,0.2c0,0,0,0.1-0.1,0.1c-0.1,0-0.1,0.1-0.2,0.2c0,0-0.1,0.1-0.1,0.1    c-0.1,0.1-0.2,0.2-0.2,0.2c-0.1,0.1-0.1,0.1-0.2,0.1c-0.1,0.1-0.2,0.1-0.3,0.2c-0.1,0-0.1,0-0.2,0c0,0,0-0.1-0.1-0.1    c0-0.2-0.1-0.2-0.3-0.1c0,0-0.1,0-0.2,0c0,0-0.1,0-0.1,0c0,0,0,0.1,0,0.1c0,0.1,0.1,0.2,0.2,0.2c0,0,0,0,0,0.1    c0,0.2,0.1,0.4,0.2,0.5c0.1,0.1,0.1,0.2,0.1,0.3c0,0.2,0.1,0.4,0.2,0.5c0.1,0.1,0.1,0.1,0,0.1c-0.1,0-0.2,0.1-0.3,0.1    c0.1,0,0.2,0,0.3,0c0.2,0,0.2,0.1,0.3,0.2c0.2,0.6,0.4,1.2,0.6,1.9c0.2,0.6,0.4,1.1,0.5,1.7c0.1,0.3,0.2,0.6,0.3,1    c-0.8,0.1-1.6,0.3-2.4,0.4c0,0,0,0,0,0c-0.1-0.1-0.2-0.2-0.3-0.3c0,0-0.1-0.1-0.1-0.1c0-0.1,0-0.3,0-0.4c0-0.1-0.1-0.1-0.1-0.2    c0-0.1-0.1-0.1-0.1-0.2c0-0.3-0.3-0.6-0.5-0.8c0-0.1-0.1-0.1-0.1-0.2c-0.1-0.2-0.1-0.3-0.2-0.5c0,0,0-0.2-0.1-0.3    c-0.1-0.1-0.1-0.2-0.1-0.3c0,0,0-0.1,0-0.1c0-0.1,0-0.1-0.1-0.1c0-0.1,0-0.2,0-0.2c0-0.1,0.1-0.3,0.1-0.4c0-0.2,0.1-0.3,0.1-0.5    c0-0.1,0.1-0.1,0.1-0.2c0.2-0.1,0.3-0.1,0.5-0.2c0,0,0.1,0,0.1,0.1c0.1,0.1,0.1,0.2,0.2,0.3c0,0,0,0,0,0c0-0.1,0-0.2,0-0.3    c0-0.1,0-0.1,0.1-0.2c0.1-0.2,0.4-0.3,0.4-0.5c0,0,0.1-0.1,0.1,0c0,0,0.1,0,0.1,0.1c0,0.1,0,0.1,0,0.2c0.2-0.2,0.2-0.3-0.1-0.4    c-0.1-0.1-0.1-0.1-0.1-0.2c0.1-0.4-0.1-0.6-0.4-0.8c-0.1-0.1-0.2-0.2-0.2-0.4c0.1-0.3-0.1-0.4-0.3-0.5c-0.1,0-0.1-0.1-0.1-0.2    c0,0,0-0.1,0-0.1c-0.3-0.2-0.6-0.6-0.8-0.9c-0.1-0.2-0.2-0.4-0.4-0.5c-0.2-0.1-0.4-0.1-0.6-0.2c-0.1,0-0.1,0-0.2-0.1    c-0.2-0.2-0.4-0.1-0.7-0.2c-0.1,0-0.2,0.1-0.2,0.2c-0.1,0.2-0.3,0.4-0.4,0.7c-0.1,0.2,0.1,0.5,0.2,0.5c0.1,0.1,0.2,0.2,0.3,0.3    c0,0,0,0,0,0.1c0,0-0.1,0-0.1,0c0,0-0.1-0.1-0.1-0.1c-0.2-0.1-0.3-0.2-0.5,0c-0.1,0.1-0.2,0-0.3,0c-0.2-0.2-0.4-0.3-0.7-0.2    c-0.1,0-0.2,0.1-0.3,0.1c-0.1,0.1-0.2,0.1-0.3,0c-0.2-0.2-0.2-0.4-0.3-0.6c0-0.1-0.2-0.2-0.2-0.3c-0.1-0.1-0.2-0.1-0.2-0.2    c-0.1-0.2-0.4-0.2-0.6-0.3c-0.2,0-0.4-0.1-0.6-0.1c-0.1,0-0.3,0-0.4,0.1c-0.2,0.2-0.3,0.4-0.5,0.6c0,0-0.1,0.1-0.1,0.1    c0,0,0,0-0.1,0c0,0,0,0.1,0,0.1c0.2,0,0.2,0.2,0.2,0.3c0,0.2,0.1,0.3,0,0.5c0,0,0,0.1,0,0.1c0.1,0.2,0.1,0.3,0,0.5    c0,0,0,0.1,0,0.2c0,0.1,0,0.2-0.1,0.2c-0.1,0-0.2,0-0.2,0c-0.2-0.2-0.6-0.3-0.9-0.2c-0.1,0-0.1,0.1-0.2,0.2    c-0.1,0.2-0.2,0.5-0.1,0.7c0,0.1,0.1,0.1,0.2,0.2c0.2,0.1,0.2,0.2,0.1,0.3c-0.1,0.2-0.1,0.4-0.2,0.6c0,0.1-0.1,0.3-0.2,0.4    c-0.1,0.1-0.2,0.3-0.3,0.4c-0.1,0.1-0.1,0.1-0.2,0.2c-0.2,0.1-0.3,0.1-0.5,0c-0.2,0.1-0.2,0.3-0.1,0.6c0.1,0.2,0.1,0.3,0.1,0.5    c0,0.4,0,0.8,0.1,1.2c0,0.4,0,0.8,0,1.2c0,0.4,0,0.7,0,1.1c0,0.5,0,0.9,0,1.4c0,0-0.1,0.1-0.1,0.1c-0.2,0-0.4,0.1-0.5,0.1    c-0.4,0-0.7,0.2-1,0.4c0,0,0,0-0.1,0c-10.9,1.4-24.8,2.7-42.6,4c-2.6,0.2-32.4,37.2-49.6,38.5s-50.4,1.1-50.4,1.1l-10.8-4.8    l-43.6,23.9l-65.8,1.9L564.3,281h-66.7l-48.4,10h-34.8l-197.5,10.6L1075,301V123L1038.2,135.1z M885.9,197c-0.1,0-0.1,0-0.1,0    c0-0.2,0-0.3,0-0.5c0,0,0-0.1,0-0.1c0,0,0.1,0.1,0.1,0.1c0,0.1,0,0.2,0.1,0.4C886,196.9,885.9,197,885.9,197z M887.4,200.7    c0-0.1,0-0.2,0-0.3c0-0.2,0.1-0.4,0.1-0.6c0.1-0.3,0.1-0.6,0.2-0.8c0-0.1,0.1-0.2,0.1-0.3c0.1,0.1,0.1,0.3,0.2,0.4    c0.1,0.2,0.1,0.4,0.2,0.7c0,0.2,0,0.5,0.1,0.7c0.1,0.2,0.4,0.3,0.6,0.5c0,0,0,0.1,0.1,0.1c-0.5,0.1-1,0.3-1.5,0.4    C887.5,201.2,887.4,200.9,887.4,200.7z M878,201.1c0-0.1,0.1-0.1,0.1-0.2c0.1-0.2,0.2-0.5,0.3-0.7c0.1,0.2,0.1,0.4,0.2,0.5    c0.1,0.3,0.3,0.5,0.4,0.8c0.2,0.3,0.3,0.6,0.6,0.8c0,0,0.1,0.1,0.1,0.1c0.1,0.3,0.3,0.5,0.5,0.7c-0.4,0.1-0.9,0.2-1.4,0.3    c-0.1-0.1-0.1-0.2-0.2-0.3c0-0.1-0.1-0.1-0.2-0.2c0,0-0.1-0.1-0.1-0.1c0-0.1,0-0.3-0.2-0.3c0,0-0.1-0.1-0.1-0.2    c0-0.2-0.1-0.5-0.2-0.7C877.9,201.3,877.9,201.2,878,201.1z M876.5,202.7c-0.1-0.3-0.2-0.5-0.3-0.8c-0.3-0.9-0.6-1.9-0.9-2.8    c0-0.1-0.1-0.2,0.1-0.3c-0.2,0-0.3-0.1-0.3-0.3c0-0.1,0-0.1,0-0.2c0,0,0-0.1,0-0.1c0,0,0.1,0,0.1,0c0.1,0,0.1,0.1,0.2,0.1    c0-0.2-0.3-0.2-0.3-0.4c0.3,0.1,0.5,0,0.7-0.1c0.1,0,0.1,0,0.2,0c0.2,0.2,0.5,0.3,0.8,0.3c0,0,0,0.1,0,0.1    c-0.1,0.3-0.1,0.5-0.2,0.8c0,0,0,0.1,0,0.2c0,0.1,0.1,0.1,0.1,0.2c0,0.2-0.1,0.3-0.1,0.5c0,0.4,0,0.7,0,1.1c0,0.4,0,0.8,0.1,1.2    c0,0,0,0.1,0,0.1c0,0.1,0,0.2,0,0.2c0.1,0.2,0.2,0.4,0.3,0.6c0.1,0.1,0.1,0.2,0.2,0.3c-0.2,0-0.3,0.1-0.5,0.1    C876.7,203.3,876.6,203,876.5,202.7z M872,195.6c0.1,0.2,0.2,0.4,0.3,0.7c-0.1,0-0.2,0-0.3,0c-0.2,0-0.2-0.2-0.3-0.3    c-0.1-0.1,0-0.4,0.1-0.4C871.9,195.6,872,195.6,872,195.6z M871.3,194.6c0,0,0.1,0,0.1,0c0.1,0.2,0.2,0.3,0.3,0.5    c0,0.1,0.1,0.1,0.1,0.2c0,0,0,0,0,0c-0.2-0.1-0.3-0.1-0.5-0.2c0,0.1,0,0.2,0,0.3c-0.1-0.2-0.2-0.5-0.4-0.7    C871.1,194.8,871.2,194.7,871.3,194.6z M868.8,196.8c0.2,0.1,0.4,0.2,0.4,0.5c0,0,0,0,0,0.1c0,0.1,0,0.1,0.1,0.1    c0.1,0,0.2,0.1,0.4,0.1c0.1,0,0.1,0.1,0.1,0.2c0,0.1,0,0.1,0,0.2c0,0.2,0.1,0.3,0.1,0.5c-0.1,0-0.1,0-0.1,0    c-0.1-0.1-0.3-0.2-0.4-0.3c-0.1,0-0.1-0.1-0.1-0.2c-0.1-0.2-0.1-0.4-0.3-0.5C868.7,197.3,868.7,197.1,868.8,196.8z M867.6,201.1    c0-0.1,0.1-0.1,0.1-0.2c0-0.1,0.1-0.2,0.1-0.2c0.1-0.2,0.3-0.4,0.3-0.7c0-0.1,0-0.3,0.2-0.3c0.1,0,0.1-0.1,0.1-0.1    c0.4-0.3,0.6-0.8,0.7-1.2c0,0,0.1,0,0.1,0c0.2,0.1,0.3,0.2,0.5,0.4c0.1,0.1,0.1,0.1,0.1,0.2c0,0.2,0,0.5,0.1,0.7    c0.1,0.2,0.1,0.3,0,0.5c0,0.1,0,0.2,0.1,0.2c0.1,0,0.1,0.1,0.1,0.2c0,0.1-0.1,0.3,0,0.4c0,0.1,0.1,0.1,0.2,0.2c0,0,0.1,0,0.2-0.1    c0-0.1,0-0.2,0-0.2c0-0.1-0.1-0.2,0-0.3c0.1-0.1,0.1-0.1,0.1-0.2c0-0.1,0-0.1,0.1-0.2c0.1,0.1,0.2,0.1,0.2,0.2    c0.1,0.2,0,0.4-0.1,0.6c-0.2,0.3-0.3,0.7-0.4,1c0,0.1,0,0.2,0,0.3c-0.1,0.2-0.1,0.4,0,0.5c0.1,0.2,0,0.3-0.1,0.5    c-0.1,0.1-0.2,0.2-0.1,0.4c0,0,0,0.1,0,0.1c-0.1,0.2-0.1,0.3,0,0.4c0,0.1,0,0.2-0.1,0.2c-0.4,0-0.7,0.1-1.1,0.1    c-0.2,0-0.3,0-0.5,0c0-0.1,0-0.2-0.1-0.2c-0.1-0.2-0.1-0.4-0.2-0.6c-0.1-0.3-0.3-0.7-0.4-1c0-0.1-0.1-0.2-0.1-0.3    c-0.1-0.4-0.2-0.8-0.3-1.1C867.5,201.2,867.5,201.1,867.6,201.1z M866.9,203c0.1,0.2,0.2,0.3,0.2,0.4c0.1,0.4,0.1,0.9,0.1,1.3    c-0.1,0-0.1,0-0.2,0C866.9,204.2,866.8,203.7,866.9,203z M865.9,196.3c0,0.1,0.1,0.1,0.1,0.2c0,0,0,0,0,0c0,0-0.1,0-0.1,0    C865.8,196.5,865.8,196.4,865.9,196.3C865.9,196.4,865.9,196.4,865.9,196.3z M865.9,196.8C865.9,196.8,865.9,196.9,865.9,196.8    c-0.1,0-0.2-0.1-0.2-0.1c-0.1,0-0.2,0-0.1-0.2c0-0.1,0.1-0.1,0.1-0.2C865.8,196.5,865.9,196.7,865.9,196.8z M865.8,196.2    c0-0.1-0.1-0.1-0.1-0.2c0-0.1,0-0.2-0.1-0.3C865.8,195.9,865.8,195.9,865.8,196.2z M865.6,196.2    C865.6,196.2,865.7,196.2,865.6,196.2c0.1,0.1,0.1,0.1,0,0.2c0,0-0.1,0-0.1,0c0,0,0,0,0-0.1C865.6,196.3,865.6,196.2,865.6,196.2z     M863.3,200c0.1,0.1,0.2,0.1,0.3,0c0.1-0.1,0.2-0.1,0.3-0.2c0.2-0.1,0.3-0.2,0.5-0.2c0.1,0,0.1-0.1,0.2,0c0,0,0,0.1,0.1,0.2    c0,0,0,0,0,0.1c0,0.2,0.1,0.3,0.2,0.4c0.3,0.1,0.5,0.2,0.7,0.3c0,0.1,0.1,0.1,0.1,0.2c0.1-0.1,0.1-0.2,0.1-0.2    c0-0.1,0.1-0.2,0.2-0.1c0.1,0,0.2,0.1,0.2,0.2c0.1,0.1,0.1,0.3,0.1,0.4c0,0.1,0,0.2-0.1,0.3c-0.2,0.2-0.3,0.4-0.3,0.7    c0,0.3-0.1,0.5,0,0.8c0,0,0,0.1,0,0.2c0,0.2-0.1,0.5-0.1,0.7c0,0.2,0,0.5-0.1,0.7c-0.1,0.2-0.1,0.4-0.1,0.6    c-0.7,0.1-1.4,0.2-2.2,0.3c-0.1-1.8-0.1-3.5-0.2-5.3C863.2,200,863.3,200,863.3,200z M871.2,204.2c0-0.2,0-0.3,0.1-0.4    c0.1-0.3,0.2-0.5,0.1-0.8c0-0.1,0-0.3,0.1-0.4c0.1-0.2,0.2-0.4,0.2-0.7c0,0,0,0,0-0.1c0.1,0.1,0.1,0.1,0.2,0.2    c0.1,0.1,0.2,0.2,0.3,0.3c0.3,0.2,0.4,0.4,0.5,0.7c0.1,0.1,0.1,0.3,0.1,0.4c0,0.2,0.2,0.3,0.3,0.4c0,0.1,0,0.2,0,0.4    c-0.2,0-0.4,0.1-0.6,0.1C872,204.3,871.6,204.3,871.2,204.2z"/>
	 		<path fill="#88BBDF" d="M1074,302V178.5l-37,8.4l-38,15.6c0,0-51,9.5-62,15s-16,12.9-61,14.7s-72,17.8-73,19.5    c-1,1.7-16,12.8-33,13.7c-17,0.9-51.9,4-51.9,4l-10.7-3.3l-43.6,15.5l-62.7-0.9l-34,7.3h-66l-48,6h-34.5l-195.1,7.9L1074,302z"/>
	 		<path fill="#003753" d="M1074,302v-65l-37,4.4l-38,8.2c0,0-51,5-62,7.9c-11,2.9-16,6.8-61,7.7c-45,0.9-72,9.4-73,10.3    s-16,6.8-33,7.2s-56.9,8.1-56.9,8.1l-10.7-1.7l-37.8,4.7L601,291l-34,4h-66l-48,3h-34.5l-195.1,4.1L1074,302z"/>
	 		<path style="    fill-rule: evenodd;
    clip-rule: evenodd;
    fill: #FFFFFF;" d="M347.2,122.5c0,0-0.1,4-0.4,8.6c-0.1,2-0.3,4.2-0.4,6.2l-0.2,1.4l-0.3,1.9c-0.5,3.1-2,7.6-5.8,11.6    c-0.6,0.7-1.4,1.4-2.2,2.3c-0.1,0.1-0.3,0.3-0.4,0.4l-0.7,0.6c-0.6,0.6-1.3,1.2-1.9,1.8c-0.1,0.1-0.3,0.2-0.4,0.4    c-1.6,0-3.5,0.2-5.5,0.3c-6,0.6-12.2,1.7-12.2,1.7l-3.1-11.1c0,0,8.5,2.4,15.3,2.5c0.1,0,0.2,0,0.4,0c3.1,0,5.9-0.5,7.3-2    c2.5-2.7,0.9-12.2-0.4-18c-0.6-2.8-1.1-4.7-1.1-4.7L347.2,122.5L347.2,122.5z M343.9,191.4L343.9,191.4c-4.5,0-8.2-2.9-9.5-6.6    c-1.9-5.7,0.5-11.5,3.4-16.1c2.2-3.6,4.7-6.5,5.7-8.1c0.4-0.7,0.8-1.4,1.2-2.1c0.1-0.1,0.2-0.3,0.2-0.4c0.1-0.1,0.1-0.3,0.2-0.4    c1.2-2.5,1.9-4.8,2.1-6.9c0.3-2.8,0-5.2-0.5-7c-0.9,3-2.5,6.4-5.5,9.5c-0.7,0.8-1.5,1.5-2.3,2.3c-0.5,0.5-1,1-1.5,1.5    c-0.2,0.2-0.4,0.4-0.7,0.7c-2.5,2.4-5.3,5-7.9,7.9c-3.6,4.1-6.5,8.7-6.5,14c0,3.8,0.5,10.1,5.5,14.8c4.3,4,13.1,6.6,13.9,6.6    c0.5,0,3.5-3.3,5.4-6c1.9-2.7,4.8-6.3,4.8-6.7C349.2,190.6,346.4,191.4,343.9,191.4L343.9,191.4z M335.6,156.7L335.6,156.7    l0.7-0.7c0.5-0.5,1-1,1.4-1.5c-0.1,0.1-0.3,0.3-0.4,0.4l-0.7,0.6c-0.6,0.6-1.3,1.2-1.9,1.8c-0.1,0.1-0.3,0.2-0.4,0.4    c0.1,0,0.2,0,0.3,0C334.9,157.3,335.3,157,335.6,156.7L335.6,156.7z M345,200.1c0.6-0.6,1.2-1.3,1.7-2l0.3,5.4l-11.5,4.8l0.7-7.2    c2.1,0.8,4.6,1.6,5.4,1.6C342.4,202.7,343.1,202.3,345,200.1L345,200.1L345,200.1z M374.8,153.3c0,0.6,0,1.3,0,1.9    c0,0.6,0,1.3-0.1,1.9l-0.1,1.9c-0.1,1.3-0.2,2.5-0.3,3.8l-0.3,1.9c-0.1,0.6-0.2,1.2-0.3,1.9c-0.2,1.2-0.4,2.5-0.7,3.7    c-0.3,1.2-0.5,2.5-0.9,3.7l-0.5,1.8c-0.2,0.6-0.4,1.2-0.6,1.8l-0.6,1.8c-0.2,0.6-0.4,1.2-0.6,1.8c-0.4,1.2-0.9,2.4-1.4,3.5    c-0.3,0.6-0.5,1.1-0.8,1.7l-0.4,0.9l-0.4,0.8c-0.6,1.1-1.2,2.2-1.9,3.3c-0.7,1.1-1.4,2.1-2.2,3.1c-0.8,1-1.6,2-2.5,2.9    c-0.5,0.5-0.9,0.9-1.4,1.3c-0.5,0.4-1,0.8-1.6,1.3l-0.2,0.2l-0.3,0c-0.9,0-1.8,0-2.7-0.1c-0.9,0-1.8-0.1-2.6-0.2    c-0.9-0.1-1.8-0.1-2.6-0.2l-0.3,0l-0.1-1.6l0-0.4l0.6,0.1c0.9,0.1,1.7,0.1,2.6,0.2c0.9,0.1,1.7,0.1,2.6,0.2c0.8,0,1.5,0.1,2.3,0.1    c0.4-0.3,0.8-0.6,1.1-0.9c0.4-0.4,0.9-0.8,1.3-1.2c0.8-0.9,1.6-1.8,2.4-2.7c0.8-1,1.5-2,2.1-3c0.7-1,1.3-2.1,1.9-3.2l0.4-0.8    l0.4-0.8c0.3-0.6,0.6-1.1,0.8-1.7c0.5-1.1,1-2.2,1.4-3.4c0.2-0.6,0.5-1.2,0.6-1.7l0.6-1.8c0.2-0.6,0.4-1.2,0.6-1.8l0.5-1.8    c0.4-1.2,0.6-2.4,0.9-3.6c0.3-1.2,0.5-2.4,0.8-3.6c0.1-0.6,0.2-1.2,0.3-1.8l0.3-1.8c0.1-1.2,0.3-2.5,0.4-3.7l0.1-1.8    c0-0.6,0.1-1.2,0.1-1.9c0-0.6,0-1.2,0.1-1.9c0-0.6,0-1.2,0-1.9c0-1.2-0.1-2.5-0.1-3.7c0-0.6-0.1-1.2-0.2-1.8    c0-0.3-0.1-0.6-0.1-0.9l0-0.4c-1.4,0.2-2.8,0.4-4.3,0.6c-1.6,0.2-3.2,0.3-4.9,0.4c-1.6,0.1-3.3,0.2-4.9,0.2c-0.8,0-1.6,0-2.4,0    c-0.8,0-1.6,0-2.4-0.1c-0.8-0.1-1.6-0.1-2.4-0.2c-0.4,0-0.8-0.1-1.2-0.2c-0.4-0.1-0.8-0.1-1.2-0.2c-0.3-0.1-0.5-0.1-0.8-0.2    c0-0.2-0.1-0.4-0.1-0.5c0.3,0.1,0.7,0.1,1,0.2c0.4,0.1,0.8,0.1,1.2,0.2c0.4,0.1,0.8,0.1,1.2,0.1c0.8,0.1,1.6,0.1,2.4,0.1    c0.8,0,1.6,0,2.4,0c0.8,0,1.6,0,2.4-0.1c1.6-0.1,3.2-0.2,4.8-0.3c1.6-0.1,3.2-0.3,4.8-0.5c1.6-0.2,3.2-0.4,4.8-0.7l0.6-0.1    l0.1,0.6l0.1,0.4l0.1,0.5c0,0.3,0.1,0.6,0.1,0.9c0.1,0.6,0.1,1.3,0.2,1.9c0.1,1.3,0.2,2.5,0.2,3.8    C374.8,152,374.8,152.7,374.8,153.3L374.8,153.3L374.8,153.3z M321.6,190.3L321.6,190.3c-0.7-0.4-1.5-0.9-2.2-1.3l-1.1-0.7    c-0.3-0.2-0.6-0.4-0.9-0.7c-0.5-0.7-0.9-1.5-1.3-2.3c-0.5-0.8-0.9-1.7-1.3-2.5c-0.4-0.8-0.8-1.7-1.2-2.6c-0.4-0.9-0.7-1.8-1.1-2.7    c-0.3-0.9-0.7-1.8-0.9-2.7l-0.8-2.7c-0.2-0.9-0.5-1.9-0.7-2.8l-0.3-1.4c-0.1-0.4-0.2-0.9-0.3-1.4l-0.5-2.8    c-0.2-0.9-0.3-1.9-0.4-2.8l-0.4-2.8l-0.3-2.9c-0.1-1-0.2-1.9-0.3-2.9c-0.1-1-0.2-1.9-0.2-2.9c0-1-0.1-1.9-0.1-2.9    c0-0.9,0-1.7,0-2.6c0.6-0.4,1.1-0.7,1.7-1.1c0.7-0.4,1.4-0.8,2-1.1c0.7-0.4,1.4-0.7,2.1-1c0.7-0.3,1.4-0.7,2.1-1l2.2-0.9l2.2-0.8    l1.1-0.4c0.4-0.1,0.8-0.2,1.1-0.3l2.3-0.6l0.6-0.2c0.2-0.1,0.4-0.1,0.6-0.1l1.1-0.2c0.8-0.2,1.5-0.3,2.3-0.5l2.3-0.4    c0.8-0.1,1.6-0.2,2.3-0.3c0.6-0.1,1.3-0.1,1.9-0.2c0-0.1,0-0.2-0.1-0.3c-0.6,0-1.3,0.1-1.9,0.1c-0.8,0.1-1.6,0.1-2.4,0.2l-2.3,0.3    c-0.8,0.1-1.6,0.3-2.3,0.4l-1.2,0.2c-0.2,0-0.4,0.1-0.6,0.1l-0.6,0.1l-2.3,0.6c-0.4,0.1-0.8,0.2-1.1,0.3l-1.1,0.4l-2.3,0.7    l-2.2,0.9c-0.7,0.3-1.5,0.6-2.2,0.9c-0.7,0.3-1.4,0.6-2.1,1c-0.7,0.4-1.4,0.7-2.1,1.1c-0.7,0.4-1.4,0.8-2.1,1.2l-0.2,0.2l0,0.3    c0,1,0,1.9,0,2.9c0,1,0,1.9,0.1,2.9c0,1,0.1,1.9,0.1,2.9c0.1,1,0.1,1.9,0.2,2.9l0.3,2.9l0.4,2.9c0.1,1,0.2,1.9,0.4,2.9l0.5,2.9    c0.1,0.5,0.1,0.9,0.2,1.5l0.3,1.4c0.2,0.9,0.4,1.9,0.7,2.8l0.9,2.8c0.3,1,0.6,1.9,1,2.8c0.3,0.9,0.7,1.8,1.1,2.7    c0.4,0.9,0.7,1.8,1.2,2.7c0.4,0.9,0.8,1.8,1.3,2.6c0.4,0.9,0.9,1.7,1.4,2.6l0.1,0.1l0.1,0.1c0.4,0.3,0.7,0.6,1.1,0.9l1.1,0.8    c0.7,0.5,1.5,0.9,2.3,1.4l2.4,1.2c0.7,0.4,1.5,0.7,2.2,1c-0.8-1-1.5-2-2.1-3L321.6,190.3L321.6,190.3z M359.2,159.6L359.2,159.6    c4.2,0,6.8-0.4,6.8-0.4l3-10.4c0,0-8.2,2-16.6,2.3c-1.1,0-2.2,0.1-3,0.1c-0.2,0-0.5,0-0.7,0c-0.2,1.9-0.8,3.9-1.6,5.8l0.1,0    c0.2,0.1,0.5,0.2,0.7,0.4l0,0l0,0c0.9,0.5,1.8,1.1,2.6,1.7c1.1,0.1,2.2,0.2,3.4,0.3C355.9,159.6,357.6,159.6,359.2,159.6    L359.2,159.6z M342.3,176.3c3.4,0,6.2,2.8,6.2,6.2c0,3.4-2.8,6.2-6.2,6.2c-3.4,0-6.2-2.8-6.2-6.2    C336.1,179.1,338.9,176.3,342.3,176.3L342.3,176.3L342.3,176.3z M356.3,168.5L356.3,168.5c-0.8-1.6-1.7-2.9-2.6-4.1    c-2.1-2.7-4.3-4.4-6.5-5.6c-0.2-0.1-0.5-0.2-0.7-0.4l-0.1,0.1c-0.1,0.1-0.1,0.2-0.2,0.3c-0.1,0.1-0.1,0.2-0.2,0.3l-0.1,0.1    c-0.2,0.3-0.3,0.6-0.5,0.9c-0.2,0.4-0.5,0.8-0.7,1.2c0,0.1-0.1,0.2-0.1,0.2c1.3,1.2,2.5,2.6,3.5,4.3c0.7,1.1,1.3,2.5,1.7,4    c0.8,3,0.9,6.5-0.5,9.4c0.4,1,0.7,2.1,0.7,3.2c0,2.9-1.6,5.5-4,6.8c0.9-0.2,1.8-0.5,2.7-0.8c2.1-0.9,4-2.2,5.5-3.9    c1.5-1.7,2.6-3.7,3.2-5.9C358.2,175.3,358,171.8,356.3,168.5L356.3,168.5z M396.3,171v2.7h-1.8V167h1.8v2.7l1.9-2.7l2,0.1    l-2.3,3.2l2.4,3.3l-2.1,0.1L396.3,171L396.3,171z M425.1,189.2c0.1,0.2,0.2,0.5,0.2,0.8c0,0.7-0.4,1.5-1.5,1.5    c-1,0-1.6-0.7-1.6-1.9c0-1.2,0.7-2,2.2-2c1.9,0,2.6,0.9,2.6,2.2c0,0.4-0.1,1-0.1,1.4l-1.3-0.2c0.1-0.4,0.1-0.7,0.1-1    C425.7,189.5,425.5,189.3,425.1,189.2L425.1,189.2z M424.1,189.2L424.1,189.2c-0.5,0-0.7,0.2-0.7,0.4c0,0.3,0.2,0.4,0.4,0.4    c0.2,0,0.3-0.1,0.3-0.4C424.2,189.5,424.1,189.4,424.1,189.2L424.1,189.2z M422.3,185.7h3.2l-0.4-1h1.4l0.5,1.3v1.2h-4.7V185.7    L422.3,185.7z M427,182.4c0,1.2-0.7,2.1-2.4,2.1c-1.8,0-2.4-0.9-2.4-2.1c0-1.3,0.7-2.1,2.4-2.1C426.3,180.3,427,181.2,427,182.4    L427,182.4z M423.5,182.4L423.5,182.4c0,0.3,0.2,0.5,1.1,0.5c0.9,0,1.1-0.3,1.1-0.5c0-0.3-0.2-0.5-1.1-0.5    C423.7,181.9,423.5,182.2,423.5,182.4L423.5,182.4z M423.5,178.5v1.5l-1.3-0.1v-3.4l1.3-0.1c0.7,1.3,1.3,1.9,1.8,1.9    c0.3,0,0.4-0.2,0.4-0.6c0-0.3-0.1-0.7-0.2-1.1l1.3-0.2c0.1,0.5,0.2,1.1,0.2,1.6c0,1-0.4,1.8-1.6,1.8    C424.6,179.9,424,179.3,423.5,178.5L423.5,178.5z M406.4,181.7l-0.5,9.5h-4.5l1.7-14.5l5.8-0.2l1.7,8.9l1.6-8.7l5.8-0.2l1.9,14.7    h-4.6l-0.5-9.5l-2,9.4l-4.5,0.2L406.4,181.7L406.4,181.7z M400.6,184c0,4.9-2.8,7.5-8,7.5c-1.6,0-3.2-0.2-5-0.6v-14.2h6    C397.9,176.6,400.6,178.9,400.6,184L400.6,184z M392.2,180.6L392.2,180.6v6.7c0.3,0.1,0.6,0.1,0.9,0.1c1.8,0,2.6-1.2,2.6-3.4    c0-2.4-0.8-3.4-2.2-3.4H392.2L392.2,180.6z M375.9,186.7l-0.8,4c1.5,0.5,3.5,0.7,5.1,0.7c4.6,0,6.2-1.8,6.2-4.7    c0-5-6.6-4.7-6.9-5.2c-0.3-0.3-0.3-1.2,0.7-1.2c1.4,0,3.2,0.3,4.9,0.8l0.8-4c-1.5-0.5-3.4-0.7-5-0.7c-4.6,0-6.3,1.8-6.3,4.8    c0,4.5,5.5,4.7,6.9,5.1c0.3,0.3,0.3,1.2-0.7,1.2C379.5,187.5,377.6,187.2,375.9,186.7L375.9,186.7z M384.9,172.4L384.9,172.4    l-3.5,3.2h-4.3l2.4-3.2H384.9L384.9,172.4z M421.3,169l0.6,3.2l0.5-3.1l1.7-0.1l0.5,3.2l0.6-3.2l1.7,0.1l-1.2,4.6h-1.8l-0.6-2.2    l-0.6,2.2h-1.8l-1.3-4.6L421.3,169L421.3,169z M417,168.9c1.5,0,2.4,0.8,2.4,2.4c0,1.6-0.9,2.4-2.4,2.4c-1.5,0-2.4-0.8-2.4-2.4    C414.5,169.7,415.4,168.9,417,168.9L417,168.9z M418.5,166.9L418.5,166.9l-1.2,1.6h-1.3l0.8-1.6H418.5L418.5,166.9z M417,172.3    L417,172.3c0.4,0,0.8-0.2,0.8-1s-0.3-1-0.8-1c-0.4,0-0.8,0.2-0.8,1S416.5,172.3,417,172.3L417,172.3z M411,171.9v1.8h-1.6v-7.1    l1.6-0.1v4.1l1.2-1.7l1.8,0.1l-1.6,2.1l1.8,2.5l-1.9,0.1L411,171.9L411,171.9z M406.8,170.7c0-0.2-0.1-0.3-0.4-0.3    c-0.3,0-0.8,0.1-1.6,0.3l-0.2-1.4c0.7-0.2,1.6-0.3,2.2-0.3c1.1,0,1.7,0.4,1.7,1.7v3.1h-1.2l-0.2-0.3c-0.5,0.3-0.9,0.4-1.3,0.4    c-0.7,0-1.4-0.5-1.4-1.4c0-1,0.6-1.4,2.5-1.6V170.7L406.8,170.7z M406.8,172.5L406.8,172.5v-0.6c-0.7,0.1-0.9,0.1-0.9,0.4    c0,0.2,0.1,0.3,0.3,0.3C406.4,172.6,406.6,172.5,406.8,172.5L406.8,172.5z M403.9,170.7c-0.7-0.2-1-0.3-1.6,0.5v2.4h-1.6v-4.6    l1.6-0.1v0.7c0.7-0.8,1.1-0.9,1.8-0.7L403.9,170.7L403.9,170.7z M648.8,195.4h1.9v0h0.1v-3.3h0.8c1.1,0,2-0.3,2.6-0.8    c0.6-0.5,0.9-1.3,0.9-2.3c0-0.9-0.3-1.7-0.9-2.1c-0.6-0.5-1.4-0.7-2.5-0.7h-2.9L648.8,195.4L648.8,195.4L648.8,195.4L648.8,195.4z     M657.1,170.8h-2.2v-15.9c5.4,0,8-0.5,8,9.1C662.9,167.8,661,170.8,657.1,170.8L657.1,170.8z M520.5,160.6v0.3    c0,6.1,0.2,11,4.8,15.6c5.6,5.5,15.1,5,22.5,3.1c1.3-0.3,1.9-0.7,3.2-0.8v-19.9h-14.1l-0.4,9.4h3.6v2.5c-2.8,0-5.2,0.5-6.5-2.5    c-1.6-3.4-2.8-13.8,6.2-13.8c2.9,0,4.6,0.7,6.8,0.9c1.5,0.2,1.2,0.5,1.6-0.9c0.3-1.1,1.1-7.6,1.8-9.1c-2.7-0.2-4.6-1.1-9.1-1.1    c-7.6,0-15.2,0.5-18.9,9.4C521.2,155.5,520.5,158.2,520.5,160.6L520.5,160.6z M720.9,171.9c-3.6,0-2.9,1-2.9-7.2    c2.7-0.1,1.5-0.8,5.1,0C723.4,166,725.2,171.9,720.9,171.9L720.9,171.9z M691.2,172.2c-3.7,0-3.3-3-3.3-5.8c0-3.8,6.2-4.5,6.2,0.7    C694.1,169.2,693.9,172.2,691.2,172.2L691.2,172.2z M568,172.2c-3.7,0-3.3-3-3.3-5.8c0-3.8,6.2-4.5,6.2,0.7    C570.9,169.2,570.7,172.2,568,172.2L568,172.2z M770.5,170.4v2.9c-1.3,0.3-1.2,0.4-2.9,0.4C767,170.8,767.8,171.1,770.5,170.4    L770.5,170.4z M617.6,170.4v2.9c-1.3,0.3-1.2,0.4-2.9,0.4C614,170.8,614.9,171.1,617.6,170.4L617.6,170.4z M747.7,158.1    c0-4.6-0.2-3.3-4-2.9c-1.1,0.1-2.5,0-3.6,0c-1.5,0-2.9-0.4-2.9,1.1v23.9h10.5v-12c0-0.5,1.5-4.2,6.5-2.8l1.5,0.3c0,0,0.2,0,0.2,0    c0.7,0,1.3-9.3,1.3-10.5c-2.4-0.6-3.2-1-5.4,0C749.4,156.2,749.4,157,747.7,158.1L747.7,158.1z M594.8,158.1c0-4.6-0.2-3.3-4-2.9    c-3.4,0.3-6.5-0.9-6.5,1.1v23.9h10.5v-12c0-0.5,1.5-4.2,6.5-2.8l1.7,0.3c0.7,0,1.3-9.3,1.3-10.5c-2.4-0.6-3.2-1-5.4,0    C596.4,156.2,596.5,157,594.8,158.1L594.8,158.1z M561.8,153h8.3c1.5-2.3,6.4-7,6.9-9.1h-10.9C565.2,145.4,562,151.2,561.8,153    L561.8,153z M661.1,145.3c-0.6-0.6,0.7-0.6-1.8-0.7l-16,0l0,32.6c0,1.5,0,1.2,0.4,1.8c1.5,1.1,6.5,1.4,8.5,1.7    c3.3,0.5,7.1,0,9.7-0.5c13.6-2.8,15.6-17.2,11.7-26.6C671.4,148.7,665.3,144.2,661.1,145.3L661.1,145.3z M606,156.3    c0,1.9,1,6.5,1.4,8.3c4.2-0.1,5.5-2.2,10.1-1.1v1.4c-4.2,0-11.2,1.4-12.5,5.6c-2.5,7.9,5.7,13.7,14,8.2c2.3,1.7-1.9,1.5,9.1,1.5    v-18.1c0-2.4-1.1-3.9-2.4-5.2C621,152.4,610.9,155.9,606,156.3L606,156.3z M759,156.3c0,1.9,1,6.5,1.4,8.3    c4.2-0.1,5.5-2.2,10.1-1.1v1.4c-4.2,0-11.2,1.4-12.5,5.6c-2.5,7.9,5.7,13.7,14,8.2c2.3,1.7-1.9,1.5,9.1,1.5v-18.1    c0-2.4-1.1-3.9-2.4-5.2c-1.8-1.8-2.7-1.8-5.8-2.2C768.3,154.1,762.3,156,759,156.3L759,156.3z M554.2,166.8v2.5    c0,15.1,27.2,16.4,27.2-1.1c0-8.9-4.6-13.4-13.5-13.6C560,154.5,554.2,158.8,554.2,166.8L554.2,166.8z M677.4,166.8v2.5    c0,15.1,27.2,16.4,27.2-1.1c0-8.9-4.6-13.4-13.5-13.6C683.2,154.5,677.4,158.8,677.4,166.8L677.4,166.8z M707.5,144V178    c0,1.4,3.6,1.8,5.8,2.1c11.3,1.9,21,0.7,21-13.4c0-4.7-1.9-9-4.8-10.8c-4.1-2.7-8-0.8-11.5,1v-13.4L707.5,144L707.5,144z     M660.8,195.4L660.8,195.4L660.8,195.4L660.8,195.4L660.8,195.4c0.6-0.1,1.1-0.4,1.5-0.8c0.6-0.6,0.9-1.5,0.9-2.7    c0-0.7-0.1-1.4-0.4-1.9c-0.3-0.5-0.7-1-1.2-1.3c-0.5-0.3-1.1-0.4-1.8-0.4c-1.1,0-1.9,0.3-2.5,1c-0.6,0.6-0.9,1.5-0.9,2.7    c0,0.7,0.1,1.4,0.4,1.9c0.3,0.6,0.7,1,1.2,1.3c0.2,0.1,0.5,0.2,0.8,0.3H660.8z M660.8,195.4L660.8,195.4L660.8,195.4L660.8,195.4z     M666.6,195.4L666.6,195.4L666.6,195.4L666.6,195.4l-1.9,0L666.6,195.4l-1.9,0v0h0H666.6L666.6,195.4z M664.8,195.4h1.9h0v-3.6    c0-0.6,0.2-1,0.5-1.3c0.3-0.3,0.8-0.5,1.4-0.5c0.2,0,0.4,0,0.6,0.1l0.1-1.8c-0.2,0-0.4-0.1-0.6-0.1c-0.4,0-0.8,0.1-1.2,0.4    c-0.4,0.2-0.7,0.6-0.9,1h-0.1l-0.3-1.2h-1.5V195.4L664.8,195.4z M674.2,195.4L674.2,195.4L674.2,195.4c0.2,0,0.4-0.1,0.6-0.2v-1.4    c-0.5,0.1-0.9,0.2-1.2,0.2c-0.2,0-0.5-0.1-0.6-0.2c-0.2-0.1-0.2-0.3-0.2-0.6v-3.4h2v-1.4h-2v-1.5h-1.2l-0.6,1.5l-1.1,0.6v0.8h0.9    v3.4c0,0.8,0.2,1.4,0.5,1.7c0.2,0.2,0.4,0.4,0.7,0.5H672l0,0h0L674.2,195.4L674.2,195.4L674.2,195.4L674.2,195.4z M678.9,195.4    L678.9,195.4L678.9,195.4L678.9,195.4L678.9,195.4c0.1,0,0.2-0.1,0.3-0.1c0.3-0.2,0.7-0.4,1-0.8h0l0.4,1H678.9L678.9,195.4z     M681.9,195.4L681.9,195.4l0-4.7c0-0.8-0.3-1.5-0.8-1.9c-0.5-0.4-1.2-0.6-2.2-0.6c-1,0-1.9,0.2-2.7,0.6l0.6,1.3    c0.8-0.3,1.4-0.5,2-0.5c0.7,0,1.1,0.4,1.1,1.1v0.3l-1.2,0c-1.1,0-1.8,0.2-2.4,0.6c-0.5,0.4-0.8,0.9-0.8,1.7c0,0.7,0.2,1.3,0.6,1.6    c0.2,0.2,0.4,0.4,0.7,0.4l0,0H681.9z M681.9,195.4h-1.3h0l0,0L681.9,195.4l-1.3,0L681.9,195.4L681.9,195.4L681.9,195.4    L681.9,195.4L681.9,195.4z M678.9,195.4L678.9,195.4L678.9,195.4L678.9,195.4z M685.8,195.4L685.8,195.4L685.8,195.4L685.8,195.4    l-1.9,0L685.8,195.4l-1.9,0v0h0v-9.8h1.9L685.8,195.4L685.8,195.4L685.8,195.4z M694.4,195.4L694.4,195.4l1.3-5.6h0l0.7,3.1    l0.5,2.5H694.4L694.4,195.4z M696.9,195.4h-2.6v0h-2.1L696.9,195.4l2.1,0L696.9,195.4L696.9,195.4L696.9,195.4z M694.4,195.4h2.6    H694.4L694.4,195.4z M699,195.4L699,195.4l2.1-7h-1.9l-0.8,3.1c0,0.2-0.1,0.5-0.2,1.1c-0.1,0.5-0.2,0.9-0.2,1.2h0    c0-0.1,0-0.3,0-0.5c0-0.2-0.1-0.4-0.1-0.6c0-0.2-0.1-0.4-0.1-0.6s-0.1-0.3-0.1-0.4l-0.8-3.4h-2.1l-0.9,3.4l-0.1,0.5    c-0.1,0.7-0.2,1.2-0.2,1.5h0c-0.1-1-0.3-1.7-0.4-2.3l-0.8-3.1h-1.9l2,7h0l0,0h4.7L699,195.4L699,195.4L699,195.4L699,195.4    L699,195.4z M706.2,195.4L706.2,195.4L706.2,195.4L706.2,195.4L706.2,195.4l-2.1,0L706.2,195.4c-0.4,0.1-0.7,0.1-1.1,0.1    c-0.4,0-0.7,0-1-0.1h0l0,0h0h0H706.2L706.2,195.4z M706.2,195.4L706.2,195.4L706.2,195.4L706.2,195.4c0.6-0.1,1.1-0.4,1.5-0.8    c0.6-0.6,0.9-1.5,0.9-2.7c0-0.7-0.1-1.4-0.4-1.9c-0.3-0.5-0.7-1-1.2-1.3c-0.5-0.3-1.1-0.4-1.8-0.4c-1.1,0-1.9,0.3-2.5,1    c-0.6,0.6-0.9,1.5-0.9,2.7c0,0.7,0.1,1.4,0.4,1.9c0.3,0.6,0.7,1,1.2,1.3c0.2,0.1,0.5,0.2,0.8,0.3H706.2L706.2,195.4z M712.1,195.4    L712.1,195.4L712.1,195.4L712.1,195.4l-1.9,0L712.1,195.4l-1.9,0v0h0H712.1L712.1,195.4z M710.2,195.4h1.9h0v-9.8h-1.9V195.4    L710.2,195.4z M718.1,195.4L718.1,195.4c0.6-0.1,1.1-0.4,1.5-0.8c0.6-0.6,0.9-1.5,0.9-2.7c0-0.7-0.1-1.4-0.4-1.9    c-0.3-0.5-0.7-1-1.2-1.3c-0.5-0.3-1.1-0.4-1.8-0.4c-1.1,0-1.9,0.3-2.5,1c-0.6,0.6-0.9,1.5-0.9,2.7c0,0.7,0.1,1.4,0.4,1.9    c0.3,0.6,0.7,1,1.2,1.3c0.2,0.1,0.5,0.2,0.8,0.3H718.1z M718.1,195.4L718.1,195.4L718.1,195.4L718.1,195.4L718.1,195.4z     M724,195.4L724,195.4l0-3.3c0-0.8,0.1-1.4,0.4-1.8c0.2-0.4,0.6-0.5,1.2-0.5c0.4,0,0.7,0.1,0.9,0.4c0.2,0.3,0.3,0.6,0.3,1.1v4.1    H724L724,195.4z M726.6,195.4H724v0H722L726.6,195.4l1.9,0L726.6,195.4L726.6,195.4L726.6,195.4z M724,195.4h2.6H724L724,195.4z     M728.5,195.4L728.5,195.4l0-4.6c0-0.8-0.2-1.5-0.6-1.9c-0.4-0.4-1-0.7-1.9-0.7c-0.5,0-0.9,0.1-1.3,0.3c-0.4,0.2-0.7,0.4-0.9,0.8    h-0.1l-0.3-0.9h-1.5v7h0v0h4.6L728.5,195.4L728.5,195.4L728.5,195.4z M728.5,195.4L728.5,195.4L728.5,195.4L728.5,195.4z     M734.1,195.4L734.1,195.4c0.2,0,0.4-0.1,0.6-0.2v-1.4c-0.5,0.1-0.9,0.2-1.2,0.2c-0.3,0-0.5-0.1-0.6-0.2c-0.2-0.1-0.2-0.3-0.2-0.6    v-3.4h2v-1.4h-2v-1.5h-1.2l-0.6,1.5l-1.1,0.6v0.8h0.9v3.4c0,0.8,0.2,1.4,0.5,1.7c0.2,0.2,0.4,0.4,0.7,0.5H734.1z M734.1,195.4    L734.1,195.4L734.1,195.4L734.1,195.4L734.1,195.4z M738.8,195.4L738.8,195.4c0.1,0,0.2-0.1,0.3-0.1c0.3-0.2,0.7-0.4,1-0.8h0    l0.4,1h1.3v0h-1.3h-3.6L738.8,195.4c-0.3,0.1-0.7,0.1-1.1,0.1c-0.3,0-0.6,0-0.9-0.1h0l0,0h0h0H738.8L738.8,195.4L738.8,195.4z     M740.5,195.4h-1.7l0,0h0h0h0h-1.9L740.5,195.4l1.3,0L740.5,195.4L740.5,195.4L740.5,195.4z M738.8,195.4L738.8,195.4L738.8,195.4    L738.8,195.4z M738.8,195.4h1.7H738.8L738.8,195.4z M741.9,195.4L741.9,195.4L741.9,195.4L741.9,195.4z M741.9,195.4L741.9,195.4    l0-4.7c0-0.8-0.2-1.5-0.8-1.9c-0.5-0.4-1.2-0.6-2.2-0.6c-1,0-1.9,0.2-2.7,0.6l0.6,1.3c0.8-0.3,1.4-0.5,2-0.5    c0.7,0,1.1,0.4,1.1,1.1v0.3l-1.2,0c-1.1,0-1.8,0.2-2.4,0.6c-0.5,0.4-0.8,0.9-0.8,1.7c0,0.7,0.2,1.3,0.6,1.6    c0.2,0.2,0.4,0.4,0.7,0.4H741.9L741.9,195.4z M745.8,195.4L745.8,195.4l0-3.6c0-0.6,0.2-1,0.5-1.3c0.3-0.3,0.8-0.5,1.4-0.5    c0.2,0,0.4,0,0.6,0.1l0.1-1.8c-0.2,0-0.4-0.1-0.6-0.1c-0.4,0-0.8,0.1-1.2,0.4c-0.4,0.2-0.7,0.6-0.9,1h-0.1l-0.3-1.2h-1.5v7h0v0    L745.8,195.4L745.8,195.4L745.8,195.4z M751.6,195.4L751.6,195.4l0-7h-1.9v7H751.6z M751.6,195.4L751.6,195.4L751.6,195.4    L751.6,195.4l-1.9,0v0h0H751.6L751.6,195.4z M757,195.4L757,195.4c0.1,0,0.2-0.1,0.4-0.1c0.4-0.2,0.7-0.4,0.9-0.8h0.1l0.3,0.9h0    l0,0h1.5h-1.5h1.5v0h0v-7h-1.9v3.3c0,0.8-0.1,1.4-0.4,1.8c-0.2,0.4-0.6,0.5-1.2,0.5c-0.4,0-0.7-0.1-0.9-0.4    c-0.2-0.3-0.3-0.6-0.3-1.1v-4.1h-1.9v4.6c0,0.8,0.2,1.5,0.6,1.9c0.2,0.2,0.5,0.4,0.9,0.5h0l0,0L757,195.4L757,195.4L757,195.4    L757,195.4L757,195.4z M757,195.4L757,195.4L757,195.4L757,195.4z M760.1,195.4L760.1,195.4L760.1,195.4L760.1,195.4z     M765.2,195.4c0.4-0.1,0.7-0.2,1-0.4c0.5-0.4,0.7-0.9,0.7-1.6c0-0.3-0.1-0.6-0.2-0.9c-0.1-0.3-0.3-0.5-0.6-0.7    c-0.3-0.2-0.7-0.4-1.2-0.6c-0.6-0.2-1-0.4-1.2-0.6c-0.2-0.1-0.3-0.3-0.3-0.4c0-0.3,0.3-0.5,0.8-0.5c0.3,0,0.6,0,0.9,0.1    c0.3,0.1,0.6,0.2,1,0.4l0.6-1.4c-0.8-0.4-1.6-0.6-2.5-0.6c-0.9,0-1.6,0.2-2.1,0.5c-0.5,0.3-0.7,0.8-0.7,1.4c0,0.4,0.1,0.7,0.2,0.9    c0.1,0.2,0.3,0.5,0.6,0.7c0.3,0.2,0.6,0.4,1.2,0.6c0.4,0.2,0.7,0.3,0.9,0.4c0.2,0.1,0.4,0.2,0.5,0.3c0.1,0.1,0.1,0.2,0.1,0.4    c0,0.4-0.3,0.6-1,0.6c-0.3,0-0.7-0.1-1.2-0.2c-0.4-0.1-0.8-0.3-1.2-0.4v1.6c0.3,0.1,0.6,0.2,0.9,0.3h0l0,0L765.2,195.4    L765.2,195.4L765.2,195.4L765.2,195.4L765.2,195.4L765.2,195.4L765.2,195.4z M765.2,195.4L765.2,195.4L765.2,195.4L765.2,195.4z     M773.4,195.4L773.4,195.4L773.4,195.4L773.4,195.4l-5.5,0L773.4,195.4l-5.5,0v0h0H773.4L773.4,195.4z M767.8,195.4h5.5h0V194    h-3.3l3.2-4.3v-1.2H768v1.5h3.1l-3.3,4.4V195.4L767.8,195.4z M776.5,195.4L776.5,195.4L776.5,195.4L776.5,195.4z M778.4,195.4    L778.4,195.4L778.4,195.4L778.4,195.4z M778.4,195.4L778.4,195.4l2.6-7H779l-1.3,4c-0.1,0.4-0.2,0.8-0.3,1.2h0    c0-0.5-0.1-0.9-0.2-1.2l-1.3-4h-2.1l2.8,7l0,0.1H778.4L778.4,195.4z M650.8,190.6v-2.7h0.9c0.5,0,0.9,0.1,1.2,0.3    c0.2,0.2,0.4,0.6,0.4,1c0,0.5-0.1,0.8-0.4,1c-0.3,0.2-0.7,0.4-1.3,0.4H650.8L650.8,190.6z M658.3,191.9c0-0.7,0.1-1.2,0.3-1.6    c0.2-0.3,0.6-0.5,1.1-0.5c0.5,0,0.9,0.2,1.1,0.5c0.2,0.3,0.3,0.9,0.3,1.6c0,0.7-0.1,1.2-0.3,1.6c-0.2,0.4-0.6,0.5-1.1,0.5    c-0.5,0-0.9-0.2-1.1-0.5C658.4,193.1,658.3,192.6,658.3,191.9L658.3,191.9z M680.1,192.2v0.6c0,0.4-0.1,0.8-0.4,1    c-0.3,0.3-0.6,0.4-1.1,0.4c-0.6,0-0.9-0.3-0.9-0.8c0-0.4,0.1-0.7,0.4-0.8c0.3-0.2,0.7-0.3,1.2-0.3L680.1,192.2L680.1,192.2z     M703.7,191.9c0-0.7,0.1-1.2,0.3-1.6c0.2-0.3,0.6-0.5,1.1-0.5c0.5,0,0.9,0.2,1.1,0.5c0.2,0.3,0.3,0.9,0.3,1.6    c0,0.7-0.1,1.2-0.3,1.6c-0.2,0.4-0.6,0.5-1.1,0.5c-0.5,0-0.9-0.2-1.1-0.5C703.9,193.1,703.7,192.6,703.7,191.9L703.7,191.9z     M715.6,191.9c0-0.7,0.1-1.2,0.3-1.6c0.2-0.3,0.6-0.5,1.1-0.5c0.5,0,0.9,0.2,1.1,0.5c0.2,0.3,0.3,0.9,0.3,1.6    c0,0.7-0.1,1.2-0.3,1.6c-0.2,0.4-0.6,0.5-1.1,0.5c-0.5,0-0.9-0.2-1.1-0.5C715.7,193.1,715.6,192.6,715.6,191.9L715.6,191.9z     M740,192.2v0.6c0,0.4-0.1,0.8-0.4,1c-0.3,0.3-0.6,0.4-1.1,0.4c-0.6,0-0.9-0.3-0.9-0.8c0-0.4,0.1-0.7,0.4-0.8    c0.3-0.2,0.7-0.3,1.2-0.3L740,192.2L740,192.2z M749.6,186.6c0-0.6,0.3-0.9,1-0.9c0.7,0,1,0.3,1,0.9c0,0.3-0.1,0.5-0.3,0.7    c-0.2,0.2-0.4,0.2-0.8,0.2C750,187.5,749.6,187.2,749.6,186.6L749.6,186.6z M658.7,195.4L658.7,195.4L658.7,195.4l2.1,0h0h0    c-0.3,0.1-0.7,0.1-1.1,0.1C659.3,195.6,659,195.5,658.7,195.4L658.7,195.4L658.7,195.4l2.1,0h0l0,0H658.7L658.7,195.4L658.7,195.4    L658.7,195.4z M677,195.4L677,195.4C677,195.4,677,195.4,677,195.4L677,195.4L677,195.4c0.3,0.1,0.5,0.1,0.9,0.1    c0.4,0,0.7,0,1-0.1h0h0L677,195.4l1.9,0h0l0,0H677L677,195.4L677,195.4L677,195.4z M716,195.4L716,195.4L716,195.4h2.1h0l0,0h0h0    h0L716,195.4l2.1,0c-0.3,0.1-0.7,0.1-1.1,0.1C716.7,195.6,716.3,195.5,716,195.4L716,195.4L716,195.4L716,195.4z M731.9,195.4    L731.9,195.4L731.9,195.4h2.1h0l0,0h0h0h0L731.9,195.4l2.1,0c-0.4,0.1-0.7,0.1-1.2,0.1C732.5,195.6,732.2,195.5,731.9,195.4    L731.9,195.4L731.9,195.4L731.9,195.4z M776.5,195.4L776.5,195.4h1.9h0l0,0h0L776.5,195.4l1.9,0l-0.3,0.9    c-0.3,0.7-0.7,1.3-1.2,1.6c-0.5,0.4-1.1,0.5-1.8,0.5c-0.3,0-0.7,0-1-0.1v-1.5c0.2,0.1,0.5,0.1,0.8,0.1c0.3,0,0.6-0.1,0.9-0.3    c0.3-0.2,0.5-0.5,0.6-0.9L776.5,195.4L776.5,195.4L776.5,195.4L776.5,195.4z M672,195.4L672,195.4h2.1h0h0    c-0.4,0.1-0.7,0.1-1.2,0.1C672.6,195.6,672.3,195.5,672,195.4L672,195.4L672,195.4z M706.2,195.4L706.2,195.4L706.2,195.4    L706.2,195.4z M749.7,195.4h1.9H749.7L749.7,195.4z M755.1,195.4h1.9c-0.3,0.1-0.6,0.1-0.9,0.1    C755.7,195.6,755.4,195.5,755.1,195.4L755.1,195.4L755.1,195.4z M762.5,195.4h2.7c-0.4,0.1-0.8,0.1-1.2,0.1c-0.5,0-0.9,0-1.3-0.1    C762.6,195.5,762.6,195.5,762.5,195.4L762.5,195.4L762.5,195.4z M778.4,195.4L778.4,195.4L778.4,195.4z"/>
	 	</g>
</svg>
