<?xml version="1.0" encoding="utf-8"?>
<!-- Generator: Adobe Illustrator 16.0.0, SVG Export Plug-In . SVG Version: 6.00 Build 0)  -->
<!DOCTYPE svg PUBLIC "-//W3C//DTD SVG 1.1//EN" "http://www.w3.org/Graphics/SVG/1.1/DTD/svg11.dtd">
<svg version="1.1" id="Layer_1" xmlns="http://www.w3.org/2000/svg" xmlns:xlink="http://www.w3.org/1999/xlink" x="0px" y="0px"
	 width="73.7px" height="73.7px" viewBox="0 0 73.7 73.7" enable-background="new 0 0 73.7 73.7" xml:space="preserve">
<path fill="#FFFFFF" d="M61.819,36.877h-3.055c-0.002,6.082-2.457,11.56-6.443,15.552c-3.99,3.986-9.471,6.441-15.554,6.443
	c-6.084-0.002-11.564-2.457-15.561-6.443c-3.993-3.992-6.449-9.471-6.451-15.552c0.002-6.085,2.458-11.566,6.451-15.557
	c3.997-3.986,9.477-6.442,15.561-6.444c6.083,0.002,11.564,2.458,15.554,6.444c3.986,3.991,6.441,9.471,6.443,15.557H61.819h3.055
	C64.872,21.352,52.29,8.77,36.767,8.768C21.236,8.77,8.647,21.352,8.646,36.877C8.647,52.398,21.236,64.98,36.767,64.982
	C52.29,64.98,64.872,52.398,64.874,36.877H61.819z"/>
<path fill="#FFFFFF" d="M36.767,18.746c0.439,1.527,0.697,3.054,0.952,4.582c0.222,1.527,0.435,3.054,0.552,4.581
	c0.271,3.055,0.352,6.11,0.313,9.165l-0.709-1.442c2.008,1.594,3.965,3.254,5.831,5.039c0.469,0.443,0.93,0.895,1.379,1.363
	c0.449,0.467,0.918,0.91,1.352,1.4c0.881,0.959,1.75,1.932,2.547,3.004c-1.24-0.49-2.406-1.08-3.562-1.682
	c-0.586-0.289-1.133-0.629-1.703-0.939c-0.568-0.314-1.125-0.643-1.674-0.979c-2.207-1.34-4.321-2.797-6.382-4.323l-0.7-0.518
	l-0.012-0.923c-0.038-3.055,0.043-6.109,0.315-9.165c0.117-1.527,0.331-3.054,0.552-4.581C36.072,21.8,36.33,20.273,36.767,18.746"
	/>
<path fill="none" stroke="#FFFFFF" stroke-width="2" stroke-miterlimit="10" d="M72.386,36.755
	c0,19.668-15.949,35.616-35.619,35.616c-19.684,0-35.632-15.947-35.632-35.616c0-19.672,15.948-35.621,35.632-35.621
	C56.437,1.135,72.386,17.083,72.386,36.755z"/>
<g>
</g>
<g>
</g>
<g>
</g>
<g>
</g>
<g>
</g>
<g>
</g>
</svg>
