<?xml version="1.0" encoding="utf-8"?>
<!-- Generator: Adobe Illustrator 16.0.0, SVG Export Plug-In . SVG Version: 6.00 Build 0)  -->
<!DOCTYPE svg PUBLIC "-//W3C//DTD SVG 1.1//EN" "http://www.w3.org/Graphics/SVG/1.1/DTD/svg11.dtd">
<svg version="1.1" id="Layer_1" xmlns="http://www.w3.org/2000/svg" xmlns:xlink="http://www.w3.org/1999/xlink" x="0px" y="0px"
	 width="73.7px" height="73.7px" viewBox="0 0 73.7 73.7" enable-background="new 0 0 73.7 73.7" xml:space="preserve">
<path fill="#FFFFFF" d="M19.8,23.062c0.388-1.874,0.707-3.765,1.182-5.616c0.578-2.255,2.176-3.432,4.438-3.692
	c2.203-0.253,3.946,0.324,5.239,2.387c2.93,4.668,3.912,9.513,2.269,14.879c-0.639,2.09-0.833,4.315-1.291,6.461
	c-0.08,0.372-0.407,0.906-0.711,0.978c-2,0.478-4.019,0.889-6.049,1.219c-0.357,0.057-1.013-0.281-1.16-0.604
	C21.415,33.999,19.711,28.77,19.8,23.062"/>
<path fill="#FFFFFF" d="M53.443,35.169c0.431,5.577-0.948,10.793-3.017,15.866c-0.162,0.396-0.899,0.842-1.321,0.799
	c-1.998-0.206-3.984-0.547-5.96-0.914c-0.295-0.055-0.667-0.468-0.748-0.781c-0.753-2.891-1.394-5.812-2.177-8.695
	c-1.403-5.168,0.092-9.763,2.926-13.971c1.866-2.77,7.292-1.783,8.731,1.449c0.321,0.722,0.571,1.488,0.754,2.26
	C52.944,32.502,53.177,33.84,53.443,35.169"/>
<path fill="#FFFFFF" d="M40.181,59.969c0.53-1.963,1.033-3.933,1.625-5.877c0.08-0.264,0.627-0.589,0.916-0.553
	c2.039,0.25,4.075,0.547,6.092,0.939c0.328,0.063,0.828,0.726,0.775,1.029c-0.362,2.096-0.608,4.262-1.362,6.225
	c-0.846,2.199-2.781,3.156-4.508,2.789c-1.775-0.377-3.01-2.103-3.188-4.459C40.413,60.031,40.297,59.999,40.181,59.969"/>
<path fill="#FFFFFF" d="M34.288,47.215c-0.461,1.326-0.66,2.361-1.154,3.229c-1.026,1.804-3.096,2.23-4.87,1.15
	c-2.071-1.262-4.208-6.431-3.566-8.754c0.071-0.256,0.493-0.521,0.795-0.589c1.919-0.427,3.843-0.84,5.781-1.157
	c0.371-0.062,1.077,0.221,1.182,0.508C33.155,43.512,33.731,45.465,34.288,47.215"/>
<path fill="none" stroke="#FFFFFF" stroke-width="2" stroke-miterlimit="10" d="M72.284,37.049
	c0,19.672-15.948,35.619-35.623,35.619c-19.679,0-35.626-15.947-35.626-35.619c0-19.682,15.948-35.63,35.626-35.63
	C56.336,1.418,72.284,17.367,72.284,37.049z"/>
</svg>
