<?xml version="1.0" encoding="utf-8"?>
<!-- Generator: Adobe Illustrator 16.0.0, SVG Export Plug-In . SVG Version: 6.00 Build 0)  -->
<!DOCTYPE svg PUBLIC "-//W3C//DTD SVG 1.1//EN" "http://www.w3.org/Graphics/SVG/1.1/DTD/svg11.dtd">
<svg version="1.1" id="Layer_1" xmlns="http://www.w3.org/2000/svg" xmlns:xlink="http://www.w3.org/1999/xlink" x="0px" y="0px"
	 width="73.7px" height="73.7px" viewBox="0 0 73.7 73.7" enable-background="new 0 0 73.7 73.7" xml:space="preserve">
<path fill="#FFFFFF" d="M37.42,73.134h-2.042c-0.873,0-1.507-0.831-1.275-1.674l0.477-1.729c0,0,0.325-3.631-0.352-6.22
	c-0.733-2.808-1.481-9.202-1.472-9.132l-0.64-8.34c0,0-0.117-6.813,0.821-9.16c0,0,1.751-4.933-0.826-9.509
	c0,0-1.286,8.212-1.403,9.738c-0.118,1.526-0.822,4.342-0.939,7.627c-0.054,1.497-0.114,2.36-0.164,2.857
	c-0.022,0.219-0.326,0.261-0.404,0.055c-0.223-0.587-0.488-1.629-0.488-3.266v-7.158c0,0,1.173-13.261,1.877-14.317
	c0.705-1.056,1.585-0.938,1.585-0.938s2.728,0,3.08-0.704s0.264-1.643,0.264-1.643h-1.408c0,0,0.352-3.638,0.587-5.985
	c0.234-2.347,2.112-2.308,2.112-2.308s2.347-0.949,2.465,2.22c0.117,3.169,1.056,6.088,1.056,6.088l-2.228,0.11
	c0,0,0.116,1.287,0.703,1.404c0.586,0.118,2.933,0.116,3.401,0.468c0.471,0.353,0.822,1.29,0.939,3.167
	c0.117,1.878,1.056,9.153,1.056,9.153l0.47,7.041l-0.234,6.689c0,0-1.055,1.41-0.997-1.996c0.058-3.508-0.505-8.627-0.505-8.627
	l-0.453-2.969l-1.221-6.828c0,0-1.17,3.873-1.17,5.164s0.472,3.989,0.472,3.989s1.235,5.199,0.821,9.154l-0.938,7.979l-1.408,9.506
	l-0.702,5.75l0.352,2.582C38.977,72.24,38.334,73.134,37.42,73.134"/>
<circle fill="none" stroke="#FFFFFF" stroke-width="2" stroke-miterlimit="10" cx="36.693" cy="36.813" r="35.591"/>
<g>
</g>
<g>
</g>
<g>
</g>
<g>
</g>
<g>
</g>
<g>
</g>
</svg>
