<?xml version="1.0" encoding="utf-8"?>
<!-- Generator: Adobe Illustrator 16.0.0, SVG Export Plug-In . SVG Version: 6.00 Build 0)  -->
<!DOCTYPE svg PUBLIC "-//W3C//DTD SVG 1.1//EN" "http://www.w3.org/Graphics/SVG/1.1/DTD/svg11.dtd">
<svg version="1.1" id="Layer_1" xmlns="http://www.w3.org/2000/svg" xmlns:xlink="http://www.w3.org/1999/xlink" x="0px" y="0px"
	 width="73.7px" height="73.7px" viewBox="0 0 73.7 73.7" enable-background="new 0 0 73.7 73.7" xml:space="preserve">
<path fill="#FFFFFF" d="M45.208,44.418c0.637-0.998-0.041-2.355,0.337-3.537c0.182-0.57-0.052-1.35-0.324-1.941
	c-0.903-1.965-1.58-3.979-1.937-6.095c-0.238-1.412-0.56-2.811-0.844-4.216c-0.113-0.002-0.225-0.004-0.338-0.005
	c-0.305,1.547-0.714,3.084-0.893,4.645c-0.34,2.962,0.556,5.855,0.722,8.786c0.132,2.328,0.127,4.67,0.048,7.002
	c-0.096,2.807-0.375,5.598,0.176,8.396c0.307,1.561,0.002,3.109-0.44,4.641c-0.429,1.484-0.933,2.986-1.034,4.502
	c-0.083,1.232,0.266,2.945,0.639,4.156c0.32,1.035,0.183,1.521-0.953,1.73c-0.361,0.066-0.735,0.07-1.101,0.121
	c-0.879,0.123-1.161-0.002-1.146-0.824c0.031-1.559,0.136-3.535,0.314-5.084c0.167-1.438,0.483-2.85,0.092-4.305
	c-0.451-1.68-0.207-3.387-0.129-5.09c0.029-0.635-0.144-1.283-0.267-1.918c-0.308-1.582-0.705-3.15-0.948-4.742
	c-0.315-2.059-0.511-4.133-0.768-6.197c-0.046-0.371-0.146-0.736-0.22-1.104c-0.084,0-0.168,0-0.252,0
	c-0.045,0.205-0.112,0.406-0.135,0.611c-0.242,2.209-0.422,4.426-0.733,6.625c-0.234,1.664-0.638,3.309-0.952,4.963
	c-0.093,0.482-0.212,0.973-0.196,1.457c0.07,2.178-0.116,4.328-0.466,6.486c-0.166,1.025,0.171,2.119,0.251,3.186
	c0.118,1.58,0.261,3.576,0.293,5.158c0.017,0.781-0.292,0.936-1.121,0.785c-0.591-0.107-1.187-0.213-1.759-0.385
	c-0.551-0.166-0.68-0.58-0.462-1.066c1.241-2.762,0.872-5.914-0.098-8.652c-0.597-1.686-0.901-3.424-0.472-5.174
	c0.626-2.547,0.614-5.107,0.331-7.674c-0.512-4.646-0.026-9.252,0.569-13.855c0.244-1.89-0.183-3.673-0.597-5.474
	c-0.127-0.556-0.311-1.101-0.468-1.651c-0.086-0.001-0.173-0.003-0.259-0.005c-0.28,1.408-0.6,2.81-0.831,4.225
	c-0.318,1.956-0.889,3.836-1.778,5.628c-0.535,1.073-0.69,2.093-0.278,3.304c0.31,0.912,0.099,1.986,0.091,2.99l-0.17,0.602
	c-1.406,0.361-2.342-0.404-2.308-1.797c0.033-1.354,0.233-2.703,0.311-4.055c0.165-2.849,0.245-5.699,1.004-8.485
	c0.485-1.784,0.9-3.589,1.252-5.401c0.186-0.96,0.162-1.956,0.248-2.935c0.148-1.699,0.865-2.337,2.567-2.896
	c1.338-0.44,2.583-1.154,3.828-1.817c0.465-0.247,0.684-0.691,0.374-1.263c-0.209-0.385-0.256-0.845-0.393-1.267
	c-0.046-0.141-0.114-0.292-0.217-0.398c-0.432-0.441-0.642-0.892-0.398-1.517c0.119-0.306,0.022-0.689,0.01-1.037
	C32.9,10.292,34.496,8.538,36.791,9.2c1.3-0.141,2.131,1.654,2.195,2.87c0.028,0.569,0.164,1.132,0.203,1.701
	c0.016,0.242-0.004,0.59-0.162,0.722c-0.82,0.679-0.451,1.736-0.944,2.515c-0.071,0.112,0.103,0.468,0.265,0.587
	c1.266,0.932,2.528,1.93,4.125,2.264c1.329,0.277,2.062,0.992,2.271,2.181c0.192,1.104,0.168,2.243,0.379,3.343
	c0.357,1.858,0.748,3.717,1.266,5.54c0.768,2.695,0.85,5.451,1.016,8.208c0.088,1.446,0.262,2.888,0.338,4.335
	c0.058,1.105-0.73,2.102-1.809,2.377C45.933,45.842,44.957,44.812,45.208,44.418"/>
<circle fill="none" stroke="#FFFFFF" stroke-width="2" stroke-miterlimit="10" cx="36.661" cy="36.758" r="35.624"/>
<g>
</g>
<g>
</g>
<g>
</g>
<g>
</g>
<g>
</g>
<g>
</g>
</svg>
