<?xml version="1.0" encoding="UTF-8"?>
<!DOCTYPE svg PUBLIC "-//W3C//DTD SVG 1.0//EN" "http://www.w3.org/TR/2001/REC-SVG-20010904/DTD/svg10.dtd">
<!-- Creator: CorelDRAW X7 -->
<svg xmlns="http://www.w3.org/2000/svg" xml:space="preserve" width="20mm" height="20mm" version="1.0" style="shape-rendering:geometricPrecision; text-rendering:geometricPrecision; image-rendering:optimizeQuality; fill-rule:evenodd; clip-rule:evenodd"
viewBox="0 0 2000 2000"
 xmlns:xlink="http://www.w3.org/1999/xlink"
 enable-background="new 0 0 73.7 73.7">
 <defs>
  <style type="text/css">
   <![CDATA[
    .fil0 {fill:#FEFEFE;fill-rule:nonzero}
   ]]>
  </style>
 </defs>
 <g id="Warstwa_x0020_1">
  <metadata id="CorelCorpID_0Corel-Layer"/>
  <path class="fil0" d="M1995 1005c0,276 -112,526 -293,707 -181,181 -431,293 -707,293 -276,0 -526,-112 -707,-293 -181,-181 -293,-431 -293,-707 0,-276 112,-526 293,-707 181,-181 431,-293 707,-293 276,0 526,112 707,293 181,181 293,431 293,707l0 0zm-332 669c172,-171 277,-408 277,-669l0 0c0,-261 -105,-497 -277,-668l0 0c-170,-171 -407,-277 -668,-277 -261,0 -497,106 -669,277 -171,171 -276,407 -276,668 0,261 105,498 276,669l0 0c172,171 408,277 669,277 261,0 497,-106 668,-277z"/>
  <path class="fil0" d="M1219 885l-45 233 194 0 0 88 -210 0 -58 294 -93 0 57 -294 -207 0 -56 294 -93 0 54 -294 -179 0 0 -88 196 0 47 -233 -189 0 0 -87 204 0 56 -298 95 0 -56 298 209 0 57 -298 92 0 -58 298 181 0 0 87 -198 0zm-346 233l207 0 46 -233 -208 0 -45 233z"/>
 </g>
</svg>
