<?xml version="1.0" encoding="utf-8"?>
<!-- Generator: Adobe Illustrator 16.0.0, SVG Export Plug-In . SVG Version: 6.00 Build 0)  -->
<!DOCTYPE svg PUBLIC "-//W3C//DTD SVG 1.1//EN" "http://www.w3.org/Graphics/SVG/1.1/DTD/svg11.dtd">
<svg version="1.1" id="Layer_1" xmlns="http://www.w3.org/2000/svg" xmlns:xlink="http://www.w3.org/1999/xlink" x="0px" y="0px"
	 width="34.02px" height="34.02px" viewBox="0 0 34.02 34.02" enable-background="new 0 0 34.02 34.02" xml:space="preserve">
<path fill="#FFFFFF" d="M32.832,16.873c0,8.754-7.093,15.849-15.85,15.849c-8.752,0-15.847-7.095-15.847-15.849
	c0-8.752,7.095-15.847,15.847-15.847C25.739,1.025,32.832,8.12,32.832,16.873"/>
<path fill="none" stroke="#023753" stroke-width="2" stroke-miterlimit="10" d="M32.832,16.873c0,8.754-7.093,15.849-15.85,15.849
	c-8.752,0-15.847-7.095-15.847-15.849c0-8.752,7.095-15.847,15.847-15.847C25.739,1.025,32.832,8.12,32.832,16.873z"/>
<path fill="#023753" d="M28.133,16.927h-1.36c0,2.708-1.093,5.146-2.865,6.924c-1.777,1.772-4.216,2.865-6.925,2.865
	c-2.707,0-5.145-1.093-6.921-2.865c-1.773-1.777-2.866-4.216-2.866-6.924c0-2.708,1.093-5.146,2.866-6.921
	c1.776-1.773,4.214-2.867,6.921-2.868c2.709,0.001,5.148,1.094,6.925,2.868c1.772,1.775,2.865,4.213,2.865,6.921H28.133h1.357
	c0-6.907-5.597-12.505-12.508-12.506C10.076,4.422,4.477,10.02,4.476,16.927c0.001,6.909,5.6,12.507,12.506,12.509
	c6.912-0.002,12.508-5.6,12.508-12.509H28.133z"/>
<path fill="#023753" d="M16.982,8.86c0.195,0.679,0.311,1.358,0.425,2.039c0.099,0.68,0.195,1.359,0.248,2.039
	c0.121,1.359,0.158,2.717,0.142,4.077l-0.319-0.643c0.896,0.709,1.765,1.452,2.596,2.247c0.209,0.196,0.415,0.399,0.614,0.604
	c0.199,0.209,0.408,0.405,0.602,0.624c0.391,0.428,0.78,0.858,1.133,1.338c-0.553-0.219-1.069-0.483-1.586-0.748
	c-0.259-0.13-0.503-0.281-0.758-0.419c-0.252-0.14-0.5-0.284-0.745-0.438c-0.979-0.593-1.924-1.242-2.843-1.924l-0.311-0.231
	l-0.006-0.411c-0.017-1.359,0.019-2.718,0.139-4.077c0.055-0.68,0.148-1.359,0.247-2.039C16.672,10.219,16.787,9.54,16.982,8.86"/>
<g>
</g>
<g>
</g>
<g>
</g>
<g>
</g>
<g>
</g>
<g>
</g>
</svg>
