<?xml version="1.0" encoding="utf-8"?>
<!-- Generator: Adobe Illustrator 16.0.0, SVG Export Plug-In . SVG Version: 6.00 Build 0)  -->
<!DOCTYPE svg PUBLIC "-//W3C//DTD SVG 1.1//EN" "http://www.w3.org/Graphics/SVG/1.1/DTD/svg11.dtd">
<svg version="1.1" id="Layer_1" xmlns="http://www.w3.org/2000/svg" xmlns:xlink="http://www.w3.org/1999/xlink" x="0px" y="0px"
	 width="853px" height="136px" viewBox="0 0 853 136" enable-background="new 0 0 853 136" xml:space="preserve">
<rect x="0.249" fill="#008AC3" width="852.502" height="136"/>
<g transform="translate(20, 0)">
	<path fill="#FFFFFF" d="M302.235,68.307h-6.659V43.218l6.299-0.36l7.92,13.678V43.038h6.658v25.089l-6.299,0.36l-7.919-13.679
		V68.307z"/>
	<path fill="#FFFFFF" d="M326.5,45.45c0,1.943-1.44,3.383-3.385,3.383c-1.943,0-3.383-1.44-3.383-3.383
		c0-1.944,1.439-3.384,3.383-3.384C325.06,42.066,326.5,43.506,326.5,45.45z M326.176,50.417v17.89h-6.119v-17.53L326.176,50.417z"
		/>
	<path fill="#FFFFFF" d="M335.139,61.467c0,1.476,1.044,2.16,3.096,2.16c1.691,0,3.312-0.504,5.184-0.828l0.791,4.715
		c-2.088,0.756-4.031,1.152-6.515,1.152c-5.544,0-8.639-2.664-8.639-9.179c0-6.551,3.815-9.251,8.675-9.251
		c5.147,0,8.423,3.312,7.379,11.23H335.139z M335.175,57.328h4.031c0.072-1.404-0.575-2.304-1.907-2.304
		C336.039,55.024,335.354,55.996,335.175,57.328z"/>
	<path fill="#FFFFFF" d="M362.785,41.022v21.166c0,1.224,1.045,1.116,2.952,0.684l0.468,5.112c-1.584,0.396-2.699,0.684-4.787,0.684
		c-2.447,0-4.752-1.512-4.752-5.075V41.382L362.785,41.022z"/>
	<path fill="#FFFFFF" d="M373.369,61.467c0,1.476,1.045,2.16,3.096,2.16c1.692,0,3.312-0.504,5.184-0.828l0.792,4.715
		c-1.764,0.828-2.663,2.124-2.663,3.167c0,0.828,0.539,1.44,1.619,1.44c0.359,0,0.756-0.072,1.225-0.216l0.575,3.563
		c-1.079,0.432-2.087,0.612-3.023,0.612c-2.771,0-4.68-1.728-4.68-4.139c0-1.008,0.288-2.124,1.009-3.276h-0.576
		c-5.544,0-8.639-2.664-8.639-9.179c0-6.551,3.814-9.251,8.674-9.251c5.148,0,8.424,3.312,7.379,11.23H373.369z M373.406,57.328
		h4.031c0.072-1.404-0.576-2.304-1.908-2.304C374.27,55.024,373.586,55.996,373.406,57.328z"/>
	<path fill="#FFFFFF" d="M392.557,61.432v6.875h-6.119V41.382l6.119-0.36v15.73l4.5-6.335l6.911,0.36l-6.083,8.027l6.982,9.323
		l-7.271,0.36L392.557,61.432z"/>
	<path fill="#FFFFFF" d="M414.949,56.932c0-0.9-0.469-1.296-1.62-1.296c-1.116,0-2.987,0.288-5.976,1.116l-0.863-5.219
		c2.592-0.792,5.902-1.296,8.242-1.296c3.996,0,6.371,1.62,6.371,6.371v11.699h-4.607l-0.647-1.26
		c-2.016,1.26-3.563,1.62-5.075,1.62c-2.771,0-5.184-1.764-5.184-5.219c0-3.744,2.412-5.184,9.359-5.903V56.932z M414.949,63.663
		v-2.268c-2.7,0.36-3.527,0.54-3.527,1.62c0,0.756,0.504,1.08,1.26,1.08C413.293,64.095,414.085,63.915,414.949,63.663z"/>
	<path fill="#FFFFFF" d="M431.725,50.417v16.378c0,4.319-1.439,6.659-4.68,9.287l-4.643-3.563c2.088-1.908,3.203-3.492,3.203-5.723
		V50.777L431.725,50.417z M432.049,45.45c0,1.943-1.439,3.383-3.383,3.383c-1.945,0-3.385-1.44-3.385-3.383
		c0-1.944,1.439-3.384,3.385-3.384C430.609,42.066,432.049,43.506,432.049,45.45z"/>
	<path fill="#FFFFFF" d="M434.605,59.452c0-6.515,3.672-9.215,8.891-9.215c1.691,0,3.564,0.216,5.543,0.612l-0.756,5.255
		c-1.691-0.324-3.059-0.468-4.066-0.468c-2.699,0-3.348,1.368-3.348,3.815s0.648,3.815,3.348,3.815c1.008,0,2.375-0.144,4.066-0.468
		l0.756,5.255c-1.979,0.396-3.852,0.612-5.543,0.612C438.277,68.667,434.605,66.003,434.605,59.452z"/>
	<path fill="#FFFFFF" d="M458.004,45.45c0,1.943-1.439,3.383-3.383,3.383s-3.385-1.44-3.385-3.383c0-1.944,1.441-3.384,3.385-3.384
		S458.004,43.506,458.004,45.45z M457.68,50.417v17.89h-6.119v-17.53L457.68,50.417z"/>
	<path fill="#FFFFFF" d="M466.645,61.467c0,1.476,1.043,2.16,3.096,2.16c1.691,0,3.311-0.504,5.184-0.828l0.791,4.715
		c-2.088,0.756-4.031,1.152-6.516,1.152c-5.543,0-8.639-2.664-8.639-9.179c0-6.551,3.816-9.251,8.676-9.251
		c5.146,0,8.422,3.312,7.379,11.23H466.645z M466.68,57.328h4.031c0.072-1.404-0.576-2.304-1.906-2.304
		C467.545,55.024,466.859,55.996,466.68,57.328z"/>
	<path fill="#FFFFFF" d="M489,62.799c1.729,0.54,4.141,0.828,5.508,0.828c0.791,0,1.439-0.324,1.188-1.188s-8.242-0.144-8.242-6.551
		c0-3.6,2.23-5.651,7.594-5.651c1.98,0,4.141,0.288,6.119,0.864l-0.863,5.003c-1.729-0.54-4.139-0.828-5.508-0.828
		c-0.791,0-1.439,0.324-1.188,1.188c0.252,0.864,8.244,0.144,8.244,6.551c0,3.6-2.232,5.651-7.596,5.651
		c-1.98,0-4.141-0.288-6.119-0.864L489,62.799z"/>
	<path fill="#FFFFFF" d="M511.176,45.45c0,1.943-1.441,3.383-3.385,3.383s-3.383-1.44-3.383-3.383c0-1.944,1.439-3.384,3.383-3.384
		S511.176,43.506,511.176,45.45z M510.852,50.417v17.89h-6.119v-17.53L510.852,50.417z"/>
	<path fill="#FFFFFF" d="M519.814,61.467c0,1.476,1.045,2.16,3.096,2.16c1.691,0,3.312-0.504,5.184-0.828l0.793,4.715
		c-1.766,0.828-2.664,2.124-2.664,3.167c0,0.828,0.539,1.44,1.619,1.44c0.359,0,0.756-0.072,1.225-0.216l0.576,3.563
		c-1.08,0.432-2.088,0.612-3.025,0.612c-2.771,0-4.678-1.728-4.678-4.139c0-1.008,0.287-2.124,1.008-3.276h-0.576
		c-5.543,0-8.639-2.664-8.639-9.179c0-6.551,3.814-9.251,8.674-9.251c5.148,0,8.424,3.312,7.379,11.23H519.814z M519.852,57.328
		h4.031c0.072-1.404-0.576-2.304-1.908-2.304C520.715,55.024,520.031,55.996,519.852,57.328z"/>
</g>
<g>
	<path fill="#FFFFFF" d="M386.027,83.562c0.707,0.264,1.667,0.443,2.41,0.443c0.876,0,1.428-0.479,1.38-1.259
		c-0.071-1.235-4.282-1.031-4.282-3.718c0-1.583,1.104-2.375,3.011-2.375c0.804,0,1.739,0.156,2.495,0.456l-0.252,1.295
		c-0.695-0.276-1.655-0.456-2.398-0.456c-0.852,0-1.38,0.468-1.332,1.211c0.072,1.235,4.281,1.02,4.281,3.706
		c0,1.631-1.139,2.447-3.07,2.447c-0.814,0-1.738-0.168-2.506-0.456L386.027,83.562z M390.285,74.458l-1.751,1.655h-1.415
		l1.367-1.655H390.285z"/>
	<path fill="#FFFFFF" d="M393.264,79.352l1.199,4.582l1.115-4.498l1.486-0.084l1.141,4.582l1.199-4.582l1.379,0.084l-1.727,5.757
		h-1.56l-1.163-3.982l-1.176,3.982h-1.547l-1.727-5.757L393.264,79.352z"/>
	<path fill="#FFFFFF" d="M403.078,84.461c0,0.468-0.348,0.827-0.815,0.827s-0.815-0.359-0.815-0.827s0.348-0.816,0.815-0.816
		S403.078,83.993,403.078,84.461z"/>
	<path fill="#FFFFFF" d="M409.199,76.773v7.076c0,1.439-0.517,2.267-1.68,3.214l-1.104-0.852c0.852-0.72,1.332-1.403,1.332-2.363
		v-7.076H409.199z"/>
	<path fill="#FFFFFF" d="M413.65,81.294c0-0.624-0.276-0.839-0.78-0.839c-0.479,0-1.175,0.156-2.087,0.444l-0.18-1.151
		c0.815-0.276,1.787-0.468,2.506-0.468c1.152,0,1.871,0.492,1.871,1.955v3.958h-0.994l-0.168-0.588
		c-0.648,0.492-1.296,0.708-1.884,0.708c-0.863,0-1.595-0.516-1.595-1.583c0-1.127,0.719-1.739,3.311-1.955V81.294z M413.65,83.693
		v-1.008c-1.656,0.156-2.039,0.468-2.039,0.948c0,0.492,0.323,0.636,0.647,0.636C412.75,84.269,413.266,84.029,413.65,83.693z"/>
	<path fill="#FFFFFF" d="M417.803,85.192h-1.32v-5.757l1.32-0.084v0.647c0.828-0.456,1.535-0.719,2.146-0.719
		c0.828,0,1.631,0.456,1.631,1.907v4.006h-1.318v-3.646c0-0.72-0.324-1.02-0.816-1.02s-1.08,0.276-1.643,0.54V85.192z"/>
	<path fill="#FFFFFF" d="M427.582,85.192h-1.451v-8.419h2.566c2.076,0,3.371,0.864,3.371,2.831c0,1.931-1.451,2.902-3.395,2.902
		c-0.385,0-0.756-0.036-1.092-0.072V85.192z M427.582,81.115c0.275,0.036,0.672,0.084,0.996,0.084c1.127,0,1.979-0.48,1.979-1.631
		c0-1.031-0.695-1.487-1.99-1.487h-0.984V81.115z"/>
	<path fill="#FFFFFF" d="M436.102,81.294c0-0.624-0.277-0.839-0.779-0.839c-0.48,0-1.176,0.156-2.088,0.444l-0.18-1.151
		c0.816-0.276,1.787-0.468,2.506-0.468c1.152,0,1.871,0.492,1.871,1.955v3.958h-0.994l-0.168-0.588
		c-0.648,0.492-1.297,0.708-1.883,0.708c-0.865,0-1.596-0.516-1.596-1.583c0-1.127,0.719-1.739,3.311-1.955V81.294z M436.102,83.693
		v-1.008c-1.656,0.156-2.039,0.468-2.039,0.948c0,0.492,0.324,0.636,0.646,0.636C435.201,84.269,435.717,84.029,436.102,83.693z"/>
	<path fill="#FFFFFF" d="M439.654,79.352l1.199,4.582l1.115-4.498l1.488-0.084l1.139,4.582l1.199-4.582l1.379,0.084l-1.727,5.757
		h-1.559l-1.164-3.982l-1.176,3.982h-1.547l-1.727-5.757L439.654,79.352z"/>
	<path fill="#FFFFFF" d="M449.086,82.746c0.037,1.067,0.648,1.439,1.512,1.439c0.539,0,1.104-0.144,1.691-0.3l0.168,1.055
		c-0.637,0.24-1.271,0.372-1.98,0.372c-1.605,0-2.697-0.828-2.697-3.011c0-2.159,1.139-3.022,2.674-3.022
		c1.559,0,2.578,1.103,2.256,3.466H449.086z M449.098,81.774h2.352c0.035-0.899-0.373-1.427-1.068-1.427
		C449.625,80.347,449.17,80.839,449.098,81.774z"/>
	<path fill="#FFFFFF" d="M455.602,76.102v4.306l1.055-0.564l0.084,1.199l-1.139,0.612v1.895c0,0.636,0.383,0.671,1.332,0.408
		l0.107,1.127c-0.48,0.132-0.863,0.228-1.379,0.228c-0.768,0-1.381-0.432-1.381-1.535V82.35l-0.91,0.479l-0.084-1.211l0.994-0.516
		v-4.917L455.602,76.102z"/>
	<path fill="#FFFFFF" d="M462.441,76.773v8.419h-1.451v-8.419H462.441z"/>
	<path fill="#FFFFFF" d="M465.395,76.773v8.419h-1.451v-8.419H465.395z"/>
</g>
<polygon fill="#FEFEFE" points="464.103,138.148 460.755,134.895 454.755,131.029 446.099,125.207 444.931,125.873 437.101,129.041 
	436.144,128.597 419.794,120.667 417.587,121.573 402.646,125.932 396.442,130.352 391.04,132.984 384.915,138.251 453.808,138.294 
	453.587,138.139 "/>
</svg>
