<?xml version="1.0" encoding="utf-8"?>
<!-- Generator: Adobe Illustrator 16.0.0, SVG Export Plug-In . SVG Version: 6.00 Build 0)  -->
<!DOCTYPE svg PUBLIC "-//W3C//DTD SVG 1.1//EN" "http://www.w3.org/Graphics/SVG/1.1/DTD/svg11.dtd">
<svg version="1.1" id="Layer_1" xmlns="http://www.w3.org/2000/svg" xmlns:xlink="http://www.w3.org/1999/xlink" x="0px" y="0px"
	 width="853px" height="136px" viewBox="0 0 853 136" enable-background="new 0 0 853 136" xml:space="preserve">
<rect x="0.249" fill="#008AC3" width="852.502" height="136"/>

	<g clip-path="url(#SVGID_4_)" transform="translate(-230,-375)">
		<path fill="#FFFFFF" d="M538.852,427.782c0,8.531-4.715,12.886-13.247,12.886c-2.664,0-5.291-0.324-8.279-1.044V415.04h9.791    C534.389,415.04,538.852,418.999,538.852,427.782z M524.166,421.159v13.21c0.756,0.144,1.476,0.18,2.124,0.18    c3.6,0,5.363-2.412,5.363-6.659c0-4.679-1.728-6.731-4.607-6.731H524.166z"/>
		<path fill="#FFFFFF" d="M550.553,422.239c5.723,0,9.179,3.096,9.179,9.215c0,6.155-3.456,9.215-9.179,9.215    s-9.179-3.06-9.179-9.215C541.375,425.334,544.83,422.239,550.553,422.239z M550.553,435.269c1.656,0,2.916-0.828,2.916-3.815    c0-2.987-1.26-3.815-2.916-3.815c-1.692,0-2.916,0.828-2.916,3.815C547.638,434.441,548.861,435.269,550.553,435.269z"/>
		<path fill="#FFFFFF" d="M577.192,440.309h-6.119v-17.53l6.119-0.36v1.728c2.556-1.332,4.536-1.908,6.263-1.908    c2.556,0,4.896,1.44,4.896,5.832v12.238h-6.119v-10.115c0-1.584-0.648-2.088-1.836-2.088c-0.828,0-1.908,0.288-3.204,0.648    V440.309z"/>
		<path fill="#FFFFFF" d="M600.412,422.239c5.723,0,9.179,3.096,9.179,9.215c0,6.155-3.456,9.215-9.179,9.215    s-9.179-3.06-9.179-9.215C591.233,425.334,594.689,422.239,600.412,422.239z M600.412,435.269c1.656,0,2.916-0.828,2.916-3.815    c0-2.987-1.26-3.815-2.916-3.815c-1.692,0-2.916,0.828-2.916,3.815C597.497,434.441,598.72,435.269,600.412,435.269z"/>
		<path fill="#FFFFFF" d="M613.732,427.998h-2.7l0.36-5.399h2.34v-5.255l6.119-0.36v5.615h4.32l-0.36,5.399h-3.959v4.859    c0,1.764,0.468,2.412,1.836,2.412c0.612,0,1.584-0.144,2.484-0.324l0.468,5.111c-1.872,0.432-3.096,0.612-4.428,0.612    c-5.111,0-6.479-3.275-6.479-7.199V427.998z"/>
		<path fill="#FFFFFF" d="M635.62,413.384l6.12-0.36v11.159c1.871-1.26,3.707-1.944,5.327-1.944c3.636,0,6.371,3.204,6.371,9.215    c0,6.839-3.96,9.215-9.323,9.215c-2.556,0-5.435-0.54-8.495-1.44V413.384z M644.187,435.269c1.656,0,2.987-0.972,2.987-3.923    c0-2.627-0.972-3.24-2.268-3.24c-0.828,0-1.836,0.288-3.167,0.648v6.155C642.566,435.089,643.431,435.269,644.187,435.269z"/>
		<path fill="#FFFFFF" d="M661.683,433.469c0,1.476,1.044,2.16,3.096,2.16c1.691,0,3.312-0.504,5.184-0.828l0.792,4.715    c-2.088,0.756-4.032,1.152-6.516,1.152c-5.543,0-8.639-2.664-8.639-9.179c0-6.551,3.815-9.251,8.675-9.251    c5.147,0,8.423,3.312,7.379,11.23H661.683z M661.719,429.33h4.031c0.072-1.404-0.576-2.304-1.907-2.304    C662.582,427.026,661.898,427.998,661.719,429.33z"/>
		<path fill="#FFFFFF" d="M691.49,428.934c0-0.9-0.469-1.296-1.62-1.296c-1.116,0-2.987,0.288-5.976,1.116l-0.863-5.219    c2.592-0.792,5.903-1.296,8.242-1.296c3.996,0,6.372,1.62,6.372,6.371v11.699h-4.607l-0.648-1.26    c-2.016,1.26-3.563,1.62-5.075,1.62c-2.771,0-5.184-1.764-5.184-5.219c0-3.744,2.412-5.184,9.359-5.903V428.934z M691.49,435.665    v-2.268c-2.7,0.36-3.528,0.54-3.528,1.62c0,0.756,0.504,1.08,1.26,1.08C689.834,436.097,690.626,435.917,691.49,435.665z"/>
		<path fill="#FFFFFF" d="M702.507,420.223c0-3.923,1.368-7.199,6.479-7.199c1.332,0,2.556,0.18,4.427,0.612l-0.468,5.111    c-0.899-0.18-1.871-0.324-2.483-0.324c-1.368,0-1.836,0.648-1.836,2.412v1.764h4.319l-0.359,5.399h-3.96v12.311h-6.119v-12.311    h-2.699l0.359-5.399h2.34V420.223z"/>
		<path fill="#FFFFFF" d="M727.488,429.15c-2.808-0.9-3.779-1.224-6.155,2.016v9.143h-6.119v-17.53l6.119-0.36v2.771    c2.556-2.988,4.14-3.419,6.839-2.556L727.488,429.15z"/>
		<path fill="#FFFFFF" d="M738.613,428.934c0-0.9-0.469-1.296-1.62-1.296c-1.116,0-2.987,0.288-5.976,1.116l-0.863-5.219    c2.592-0.792,5.903-1.296,8.242-1.296c3.996,0,6.372,1.62,6.372,6.371v11.699h-4.607l-0.648-1.26    c-2.016,1.26-3.563,1.62-5.075,1.62c-2.771,0-5.184-1.764-5.184-5.219c0-3.744,2.412-5.184,9.359-5.903V428.934z M738.613,435.665    v-2.268c-2.7,0.36-3.528,0.54-3.528,1.62c0,0.756,0.504,1.08,1.26,1.08C736.957,436.097,737.749,435.917,738.613,435.665z"/>
		<path fill="#FFFFFF" d="M754.813,417.452c0,1.943-1.44,3.383-3.384,3.383s-3.384-1.44-3.384-3.383c0-1.944,1.44-3.384,3.384-3.384    S754.813,415.508,754.813,417.452z M754.489,422.419v17.89h-6.119v-17.53L754.489,422.419z"/>
		<path fill="#FFFFFF" d="M769.067,413.384l6.119-0.36v27.285h-5.759l-0.36-1.584c-1.872,1.26-3.707,1.944-5.327,1.944    c-3.636,0-6.371-3.204-6.371-9.215c0-6.443,3.636-9.215,7.703-9.215c1.331,0,2.663,0.288,3.995,0.792V413.384z M766.62,427.638    c-1.656,0-2.988,0.972-2.988,3.923c0,2.628,0.973,3.24,2.268,3.24c0.828,0,1.836-0.288,3.168-0.648v-6.155    C768.239,427.818,767.376,427.638,766.62,427.638z"/>
	</g>
	<g clip-path="url(#SVGID_4_)" transform="translate(-230,-375)">
		<path fill="#FFFFFF" d="M607.778,455.563c0.708,0.264,1.667,0.443,2.411,0.443c0.875,0,1.427-0.479,1.379-1.259    c-0.072-1.235-4.282-1.031-4.282-3.718c0-1.583,1.104-2.375,3.01-2.375c0.804,0,1.739,0.156,2.495,0.456l-0.251,1.295    c-0.696-0.276-1.655-0.456-2.399-0.456c-0.852,0-1.379,0.468-1.331,1.211c0.072,1.235,4.281,1.02,4.281,3.706    c0,1.631-1.139,2.447-3.07,2.447c-0.815,0-1.739-0.168-2.506-0.456L607.778,455.563z"/>
		<path fill="#FFFFFF" d="M614.69,452.577h-0.936l0.084-1.175h0.852v-1.775l1.319-0.084v1.859h1.655l-0.083,1.175h-1.571V455    c0,0.684,0.18,1.139,0.839,1.139c0.228,0,0.576-0.048,0.899-0.132l0.108,1.116c-0.528,0.144-0.9,0.192-1.284,0.192    c-1.475,0-1.883-1.032-1.883-2.183V452.577z"/>
		<path fill="#FFFFFF" d="M623.737,448.775v7.076c0,1.439-0.516,2.267-1.679,3.214l-1.104-0.852c0.852-0.72,1.332-1.403,1.332-2.363    v-7.076H623.737z"/>
		<path fill="#FFFFFF" d="M627.816,451.282c1.715,0,2.807,0.971,2.807,3.01c0,2.063-1.091,3.022-2.807,3.022    c-1.727,0-2.818-0.959-2.818-3.022C624.998,452.253,626.089,451.282,627.816,451.282z M627.816,456.139    c0.864,0,1.463-0.503,1.463-1.847c0-1.332-0.6-1.835-1.463-1.835c-0.875,0-1.475,0.503-1.475,1.835    C626.341,455.635,626.941,456.139,627.816,456.139z"/>
		<path fill="#FFFFFF" d="M633.217,457.194h-1.319v-9.007l1.319-0.084v3.897c0.828-0.456,1.535-0.719,2.147-0.719    c0.828,0,1.631,0.456,1.631,1.907v4.006h-1.319v-3.646c0-0.72-0.336-1.02-0.816-1.02c-0.492,0-1.079,0.276-1.643,0.54V457.194z"/>
		<path fill="#FFFFFF" d="M639.817,457.194h-1.319v-5.757l1.319-0.084v0.647c0.828-0.456,1.536-0.719,2.147-0.719    c0.827,0,1.631,0.456,1.631,1.907v4.006h-1.319v-3.646c0-0.72-0.323-1.02-0.815-1.02c-0.491,0-1.079,0.276-1.643,0.54V457.194z"/>
		<path fill="#FFFFFF" d="M649.597,457.194h-1.451v-8.419h2.566c2.075,0,3.37,0.864,3.37,2.831c0,1.931-1.451,2.902-3.395,2.902    c-0.384,0-0.755-0.036-1.091-0.072V457.194z M649.597,453.117c0.275,0.036,0.671,0.084,0.995,0.084    c1.128,0,1.979-0.48,1.979-1.631c0-1.031-0.695-1.487-1.99-1.487h-0.983V453.117z"/>
		<path fill="#FFFFFF" d="M657.888,453.296c0-0.624-0.276-0.839-0.779-0.839c-0.48,0-1.176,0.156-2.087,0.444l-0.181-1.151    c0.816-0.276,1.787-0.468,2.507-0.468c1.151,0,1.871,0.492,1.871,1.955v3.958h-0.995l-0.168-0.588    c-0.647,0.492-1.296,0.708-1.883,0.708c-0.864,0-1.596-0.516-1.596-1.583c0-1.127,0.72-1.739,3.311-1.955V453.296z     M657.888,455.695v-1.008c-1.655,0.156-2.039,0.468-2.039,0.948c0,0.492,0.324,0.636,0.647,0.636    C656.988,456.271,657.504,456.031,657.888,455.695z"/>
		<path fill="#FFFFFF" d="M664.499,451.438l1.319-0.084v5.841h-1.199l-0.12-0.612c-0.839,0.468-1.535,0.732-2.158,0.732    c-0.828,0-1.619-0.456-1.619-1.919v-3.958l1.319-0.084v3.694c0,0.708,0.323,1.008,0.815,1.008c0.491,0,1.079-0.276,1.643-0.54    V451.438z"/>
		<path fill="#FFFFFF" d="M668.641,448.104v7.448c0,0.636,0.384,0.671,1.331,0.408l0.107,1.127    c-0.479,0.132-0.863,0.228-1.379,0.228c-0.768,0-1.379-0.432-1.379-1.535v-7.592L668.641,448.104z"/>
		<path fill="#FFFFFF" d="M675.36,448.775v8.419h-1.451v-8.419H675.36z"/>
		<path fill="#FFFFFF" d="M678.312,448.775v8.419h-1.451v-8.419H678.312z"/>
	</g>
<polygon fill="#FEFEFE" points="464.103,138.148 460.755,134.895 454.755,131.029 446.099,125.207 444.931,125.873 437.101,129.041 
	436.144,128.597 419.794,120.667 417.587,121.573 402.646,125.932 396.442,130.352 391.04,132.984 384.915,138.251 453.808,138.294 
	453.587,138.139 "/>
</svg>
