<?xml version="1.0" encoding="utf-8"?>
<!-- Generator: Adobe Illustrator 16.0.0, SVG Export Plug-In . SVG Version: 6.00 Build 0)  -->
<!DOCTYPE svg PUBLIC "-//W3C//DTD SVG 1.1//EN" "http://www.w3.org/Graphics/SVG/1.1/DTD/svg11.dtd">
<svg version="1.1" id="Layer_1" xmlns="http://www.w3.org/2000/svg" xmlns:xlink="http://www.w3.org/1999/xlink" x="0px" y="0px"
	 width="34.02px" height="34.02px" viewBox="0 0 34.02 34.02" enable-background="new 0 0 34.02 34.02" xml:space="preserve">
<path fill="#FFFFFF" d="M32.826,16.981c0,8.745-7.094,15.843-15.845,15.843S1.135,25.727,1.135,16.981
	c0-8.752,7.095-15.847,15.846-15.847S32.826,8.229,32.826,16.981"/>
<path fill="none" stroke="#023753" stroke-width="2" stroke-miterlimit="10" d="M32.826,16.981c0,8.745-7.094,15.843-15.845,15.843
	S1.135,25.727,1.135,16.981c0-8.752,7.095-15.847,15.846-15.847S32.826,8.229,32.826,16.981z"/>
<path fill="#023753" d="M28.125,17.035h-1.357c0,2.705-1.093,5.14-2.867,6.917c-1.776,1.771-4.213,2.865-6.919,2.867
	c-2.707-0.002-5.145-1.096-6.92-2.867c-1.774-1.776-2.865-4.212-2.866-6.917c0.001-2.707,1.092-5.145,2.866-6.921
	c1.776-1.772,4.214-2.865,6.92-2.866c2.707,0.001,5.143,1.094,6.919,2.866c1.774,1.776,2.867,4.214,2.867,6.921H28.125h1.359
	c0-6.907-5.597-12.505-12.503-12.506C10.076,4.53,4.478,10.127,4.477,17.035c0.001,6.903,5.599,12.5,12.504,12.5
	c6.907,0,12.503-5.597,12.503-12.5H28.125z"/>
<g>
</g>
<g>
</g>
<g>
</g>
<g>
</g>
<g>
</g>
<g>
</g>
</svg>
