<?xml version="1.0" encoding="utf-8"?>
<!-- Generator: Adobe Illustrator 16.0.0, SVG Export Plug-In . SVG Version: 6.00 Build 0)  -->
<!DOCTYPE svg PUBLIC "-//W3C//DTD SVG 1.1//EN" "http://www.w3.org/Graphics/SVG/1.1/DTD/svg11.dtd">
<svg version="1.1" id="Layer_1" xmlns="http://www.w3.org/2000/svg" xmlns:xlink="http://www.w3.org/1999/xlink" x="0px" y="0px"
	 width="34.02px" height="34.02px" viewBox="0 0 34.02 34.02" enable-background="new 0 0 34.02 34.02" xml:space="preserve">
<path fill="#FFFFFF" d="M32.819,16.977c0,8.747-7.093,15.84-15.843,15.84c-8.749,0-15.842-7.093-15.842-15.84
	c0-8.749,7.093-15.842,15.842-15.842C25.727,1.135,32.819,8.228,32.819,16.977"/>
<circle fill="none" stroke="#023753" stroke-width="2" stroke-miterlimit="10" cx="16.977" cy="16.977" r="15.842"/>
<path fill="#023753" d="M20.777,20.38c0.284-0.445-0.019-1.048,0.149-1.572c0.08-0.251-0.023-0.599-0.143-0.862
	c-0.402-0.872-0.704-1.767-0.863-2.708c-0.104-0.627-0.249-1.249-0.375-1.874c-0.049-0.002-0.099-0.002-0.149-0.004
	c-0.137,0.689-0.317,1.373-0.397,2.067c-0.151,1.316,0.246,2.602,0.32,3.903c0.06,1.034,0.058,2.075,0.021,3.114
	c-0.042,1.246-0.165,2.488,0.079,3.732c0.135,0.696,0,1.385-0.198,2.064c-0.188,0.659-0.413,1.327-0.458,2.003
	c-0.036,0.547,0.116,1.31,0.284,1.848c0.144,0.462,0.081,0.678-0.423,0.77c-0.161,0.03-0.326,0.031-0.49,0.054
	c-0.39,0.057-0.515,0-0.51-0.366c0.014-0.692,0.061-1.571,0.14-2.261c0.075-0.639,0.216-1.267,0.042-1.915
	c-0.202-0.747-0.092-1.506-0.057-2.263c0.011-0.283-0.066-0.57-0.122-0.853c-0.135-0.703-0.313-1.402-0.419-2.109
	c-0.141-0.917-0.228-1.838-0.341-2.758c-0.021-0.164-0.064-0.325-0.098-0.49h-0.113c-0.019,0.091-0.048,0.182-0.059,0.271
	c-0.108,0.982-0.189,1.968-0.326,2.947c-0.103,0.739-0.283,1.472-0.422,2.207c-0.042,0.216-0.095,0.434-0.088,0.648
	c0.032,0.97-0.051,1.926-0.206,2.885c-0.074,0.455,0.076,0.942,0.112,1.416c0.051,0.704,0.114,1.591,0.129,2.294
	c0.007,0.348-0.128,0.418-0.497,0.35c-0.264-0.048-0.528-0.094-0.782-0.171c-0.246-0.075-0.304-0.257-0.207-0.475
	c0.552-1.229,0.387-2.629-0.043-3.848c-0.265-0.75-0.401-1.522-0.21-2.3c0.277-1.135,0.274-2.272,0.148-3.415
	c-0.229-2.065-0.013-4.111,0.251-6.156c0.109-0.84-0.081-1.632-0.265-2.434c-0.057-0.248-0.139-0.49-0.208-0.734l-0.116-0.002
	c-0.124,0.625-0.266,1.249-0.37,1.879c-0.141,0.868-0.395,1.704-0.791,2.5c-0.237,0.477-0.307,0.929-0.123,1.464
	c0.137,0.407,0.044,0.886,0.04,1.331l-0.076,0.269c-0.625,0.159-1.041-0.181-1.025-0.8c0.014-0.602,0.103-1.199,0.138-1.8
	c0.073-1.266,0.109-2.532,0.446-3.771c0.216-0.794,0.4-1.596,0.557-2.403c0.083-0.426,0.072-0.869,0.11-1.305
	c0.066-0.757,0.384-1.04,1.141-1.287c0.596-0.197,1.149-0.514,1.703-0.809c0.206-0.109,0.303-0.306,0.166-0.562
	c-0.093-0.171-0.114-0.376-0.174-0.563c-0.02-0.063-0.051-0.13-0.097-0.177c-0.191-0.196-0.285-0.397-0.178-0.674
	c0.054-0.136,0.012-0.307,0.006-0.462c-0.037-1.006,0.672-1.786,1.691-1.492c0.579-0.063,0.949,0.735,0.976,1.276
	c0.015,0.252,0.075,0.504,0.092,0.757c0.007,0.108-0.002,0.262-0.073,0.321c-0.365,0.302-0.2,0.772-0.419,1.118
	c-0.033,0.05,0.045,0.208,0.117,0.261c0.563,0.415,1.123,0.859,1.835,1.008c0.589,0.123,0.916,0.441,1.008,0.969
	c0.086,0.492,0.075,0.999,0.168,1.487c0.161,0.826,0.333,1.653,0.565,2.464c0.341,1.197,0.377,2.423,0.451,3.647
	c0.038,0.643,0.115,1.282,0.15,1.925c0.025,0.493-0.324,0.936-0.804,1.058C21.101,21.013,20.665,20.555,20.777,20.38"/>
<g>
</g>
<g>
</g>
<g>
</g>
<g>
</g>
<g>
</g>
<g>
</g>
</svg>
