<?xml version="1.0" encoding="UTF-8"?>
<!DOCTYPE svg PUBLIC "-//W3C//DTD SVG 1.0//EN" "http://www.w3.org/TR/2001/REC-SVG-20010904/DTD/svg10.dtd">
<!-- Creator: CorelDRAW X7 -->
<svg xmlns="http://www.w3.org/2000/svg" xml:space="preserve" width="2.8786mm" height="2.8786mm" version="1.0" style="shape-rendering:geometricPrecision; text-rendering:geometricPrecision; image-rendering:optimizeQuality; fill-rule:evenodd; clip-rule:evenodd"
viewBox="0 0 288 288"
 xmlns:xlink="http://www.w3.org/1999/xlink">
 <defs>
  <style type="text/css">
   <![CDATA[
    .fil0 {fill:#0083BB}
   ]]>
  </style>
 </defs>
 <g id="Warstwa_x0020_1">
  <metadata id="CorelCorpID_0Corel-Layer"/>
  <path class="fil0" d="M37 0l214 0c20,0 37,17 37,37l0 214c0,20 -17,37 -37,37l-214 0c-20,0 -37,-17 -37,-37l0 -214c0,-20 17,-37 37,-37zm173 32c-7,0 -13,6 -13,13l0 31c0,7 6,13 13,13l32 0c7,0 13,-6 13,-13l0 -31c0,-7 -6,-13 -13,-13l-32 0zm45 90l-25 0c2,8 4,16 4,24 0,48 -40,87 -90,87 -49,0 -89,-39 -89,-87 0,-8 1,-16 3,-24l-26 0 0 121c0,7 5,12 11,12l201 0c6,0 11,-5 11,-12l0 -121zm-111 -35c-32,0 -58,25 -58,56 0,31 26,56 58,56 32,0 58,-25 58,-56 0,-31 -26,-56 -58,-56z"/>
 </g>
</svg>
