<?xml version="1.0" encoding="UTF-8"?>
<!DOCTYPE svg PUBLIC "-//W3C//DTD SVG 1.0//EN" "http://www.w3.org/TR/2001/REC-SVG-20010904/DTD/svg10.dtd">
<!-- Creator: CorelDRAW X7 -->
<svg xmlns="http://www.w3.org/2000/svg" xml:space="preserve" width="4.3178mm" height="4.3178mm" version="1.0" style="shape-rendering:geometricPrecision; text-rendering:geometricPrecision; image-rendering:optimizeQuality; fill-rule:evenodd; clip-rule:evenodd"
viewBox="0 0 432 432"
 xmlns:xlink="http://www.w3.org/1999/xlink">
 <defs>
  <style type="text/css">
   <![CDATA[
    .fil0 {fill:#0083BB}
   ]]>
  </style>
 </defs>
 <g id="Warstwa_x0020_1">
  <metadata id="CorelCorpID_0Corel-Layer"/>
  <path class="fil0" d="M216 0c119,0 216,97 216,216 0,119 -97,216 -216,216 -119,0 -216,-97 -216,-216 0,-119 97,-216 216,-216zm-61 277c-64,-63 -83,-101 -83,-147l0 0c0,-17 7,-26 17,-37l65 65c-18,19 -22,18 -11,42l0 0c6,15 18,30 38,51 20,20 36,32 50,38l0 0c26,11 23,8 43,-13l66 65c-11,11 -20,19 -38,19l0 0c-46,0 -84,-19 -147,-83zm124 -5l10 -10 0 0c7,-8 19,-8 26,0 46,45 57,47 31,73l-65 -65 -2 2zm-189 -180l15 -15 0 0c7,-7 19,-7 26,0 48,48 57,48 30,75l-65 -65 -6 5z"/>
 </g>
</svg>
