<?xml version="1.0" encoding="UTF-8"?>
<!DOCTYPE svg PUBLIC "-//W3C//DTD SVG 1.0//EN" "http://www.w3.org/TR/2001/REC-SVG-20010904/DTD/svg10.dtd">
<!-- Creator: CorelDRAW X7 -->
<svg xmlns="http://www.w3.org/2000/svg" xml:space="preserve" width="13.4618mm" height="13.4618mm" version="1.0" style="shape-rendering:geometricPrecision; text-rendering:geometricPrecision; image-rendering:optimizeQuality; fill-rule:evenodd; clip-rule:evenodd"
viewBox="0 0 1346 1346"
 xmlns:xlink="http://www.w3.org/1999/xlink">
 <defs>
  <style type="text/css">
   <![CDATA[
    .fil0 {fill:#5AB4D8}
    .fil1 {fill:#49AED5}
    .fil3 {fill:#2FA6D0}
    .fil2 {fill:#059CCB}
    .fil4 {fill:#0083BB}
   ]]>
  </style>
 </defs>
 <g id="Warstwa_x0020_1">
  <metadata id="CorelCorpID_0Corel-Layer"/>
  <g id="_1021452832">
   <path class="fil0" d="M107 1059l346 -227 361 515c-107,0 -214,0 -320,0 -100,0 -100,0 -170,-71 -73,-72 -145,-144 -217,-217z"/>
   <path class="fil1" d="M107 1059l346 -227 -367 -524c-6,5 -11,10 -16,16 -71,70 -71,70 -71,170 0,119 0,239 0,359 0,99 0,99 71,170 12,12 24,24 37,36z"/>
   <path class="fil2" d="M965 1329l381 -889c1,14 1,31 1,54 0,119 0,239 0,359 0,99 0,99 -71,169 -84,85 -169,170 -253,254 -27,26 -43,43 -58,53z"/>
   <path class="fil3" d="M965 1329l381 -889c-1,-11 -2,-20 -4,-29l-175 -50 -714 471 361 515c13,0 26,0 39,0 62,0 86,0 112,-18z"/>
   <path class="fil3" d="M453 832l714 -471 -883 -251c-66,66 -132,132 -198,198l367 524z"/>
   <path class="fil0" d="M1167 361l89 -58c7,7 14,14 20,21 43,42 60,59 66,87l-175 -50z"/>
   <path class="fil2" d="M1167 361l89 -58c-78,-78 -156,-155 -234,-233 -70,-71 -70,-71 -169,-71 -120,0 -240,0 -359,0 -100,0 -100,0 -170,71 -14,13 -27,26 -40,40l883 251z"/>
   <path class="fil4" d="M748 194c0,0 -1,44 -4,96 -2,22 -3,46 -5,68l-3 16 -4 22c-6,34 -22,84 -65,130 -7,7 -15,16 -25,25 -1,1 -3,3 -4,4l-8 8c-7,6 -14,12 -22,19 -1,2 -2,3 -4,4 -18,0 -39,2 -61,4 -66,7 -136,19 -136,19l-35 -124c0,0 94,27 171,28 2,0 3,0 4,0 35,0 66,-6 82,-22 28,-30 10,-136 -4,-201 -7,-31 -13,-53 -13,-53l136 -43zm-37 769l0 0c-51,0 -92,-32 -105,-74 -21,-63 5,-128 37,-179 25,-40 53,-73 64,-91 4,-8 8,-15 13,-23 0,-2 1,-3 2,-5 1,-1 2,-3 2,-4 14,-28 21,-54 24,-77 4,-32 0,-58 -6,-79 -10,33 -28,71 -62,107 -8,8 -16,17 -25,25 -5,6 -11,11 -16,17 -3,2 -5,5 -8,7 -27,27 -59,56 -88,89 -40,45 -73,97 -73,156 0,42 6,113 62,165 48,44 146,74 155,74 5,0 39,-38 60,-67 21,-30 53,-71 54,-75 -31,24 -62,34 -90,34zm-92 -388l0 0 7 -8c6,-5 11,-11 16,-16 -1,1 -3,3 -4,4l-8 8c-7,6 -14,12 -22,19 -1,2 -2,3 -4,4 1,0 2,0 3,0 4,-4 8,-7 12,-11zm105 485l0 0c-22,24 -29,28 -37,28 -9,0 -37,-9 -61,-18l-8 81 128 -53 -3 -61c-6,8 -13,16 -19,23zm333 -523l0 0c0,-7 0,-14 -1,-21 0,-14 -1,-28 -2,-42 -1,-7 -1,-14 -2,-21 -1,-4 -1,-7 -2,-11l-1 -5 0 -5 -2 -6 -6 1c-17,3 -35,5 -53,8 -18,2 -36,4 -54,5 -18,2 -36,3 -54,4 -9,1 -18,1 -27,1 -9,0 -18,0 -27,0 -9,-1 -18,-1 -27,-2 -4,0 -9,-1 -13,-2 -5,0 -9,-1 -14,-2 -3,0 -7,-1 -10,-2 0,2 0,4 1,6 3,1 5,2 8,2 5,1 9,2 14,3 4,0 9,1 13,2 9,1 19,2 28,2 9,1 18,1 27,1 9,1 18,1 27,0 18,0 37,0 55,-2 18,-1 36,-3 54,-5 16,-1 32,-3 48,-6l0 4c1,4 1,7 1,10 1,7 2,14 2,21 1,14 2,28 2,41 0,7 0,14 0,21 0,7 -1,14 -1,21 0,7 0,14 -1,20l-2 21c-1,14 -3,27 -4,41l-3 21c-1,6 -2,13 -4,20 -2,14 -5,27 -8,41 -3,13 -6,26 -10,40l-6 19c-2,7 -4,14 -6,20l-7 20c-2,6 -4,13 -7,19 -4,13 -10,26 -16,38 -2,6 -6,12 -9,19l-4 9 -5 9c-6,12 -14,24 -21,35 -7,12 -15,23 -24,33 -8,11 -17,21 -26,31 -5,5 -10,9 -15,14 -4,3 -8,7 -12,10 -9,0 -17,0 -26,-1 -10,0 -19,-1 -29,-2 -9,0 -19,-1 -29,-2l-6 -1 0 4 1 18 3 0c10,1 20,2 30,3 9,0 19,1 29,1 10,1 20,1 30,1l3 0 3 -1c6,-5 12,-10 17,-14 6,-5 11,-10 16,-15 10,-11 19,-22 28,-33 9,-11 17,-23 24,-35 8,-12 15,-24 22,-36l5 -10 5 -9c3,-7 6,-13 9,-20 5,-13 11,-26 15,-39 3,-7 6,-13 8,-20l6 -20c2,-7 4,-13 6,-20l6 -20c4,-14 7,-28 10,-42 3,-13 5,-27 8,-41 1,-7 2,-14 3,-21l3 -21c1,-14 3,-28 3,-42l2 -21c0,-7 0,-14 0,-21 1,-7 1,-14 1,-21zm-594 413l0 0c-8,-5 -17,-9 -25,-15l-11 -7c-4,-3 -7,-5 -10,-8 -5,-8 -10,-17 -15,-26 -5,-9 -9,-19 -14,-28 -5,-10 -9,-20 -13,-29 -5,-10 -8,-20 -12,-30 -4,-10 -8,-20 -11,-30l-9 -30c-3,-10 -5,-21 -8,-31l-3 -16c-1,-5 -2,-10 -3,-15l-6 -32c-2,-10 -4,-21 -5,-32l-5 -31 -3 -32c-2,-11 -2,-21 -3,-32 -1,-11 -2,-21 -2,-32 -1,-11 -2,-21 -2,-32 0,-10 0,-19 0,-29 6,-4 13,-8 19,-12 8,-4 15,-8 23,-12 8,-5 15,-8 23,-12 8,-4 16,-8 24,-11l24 -10 25 -9 12 -4c4,-2 8,-3 13,-4l25 -7 6 -2c2,0 4,-1 6,-1l13 -3c9,-2 17,-4 26,-5l26 -5c8,-1 17,-2 26,-3 7,-1 14,-2 21,-2 0,-1 0,-3 0,-4 -7,1 -15,1 -22,2 -8,1 -17,1 -26,3l-26 3c-9,1 -17,3 -26,5l-13 2c-2,0 -4,1 -7,1l-6 2 -26 6c-4,1 -8,2 -12,4l-13 4 -25 8 -25 9c-8,3 -16,7 -24,11 -8,3 -16,7 -24,11 -8,4 -16,8 -24,13 -8,4 -15,9 -23,14l-2 1 0 3c-1,11 -1,22 -1,33 0,11 0,22 1,32 0,11 1,22 1,33 1,11 2,21 3,32l3 32 4 33c1,10 2,21 4,32l5 32c1,5 2,10 3,16l4 16c2,10 5,21 7,31l10 32c3,10 7,20 10,31 4,10 8,20 12,30 4,10 8,20 13,30 5,10 9,20 14,29 5,10 11,20 16,29l1 2 1 1c5,3 9,6 13,9l12 9c9,5 17,10 26,15l26 14c9,4 17,7 25,11 -9,-11 -17,-22 -23,-34l-18 -9zm419 -342l0 0c47,0 77,-4 77,-4l33 -116c0,0 -92,22 -185,26 -13,0 -24,0 -34,0 -3,0 -5,0 -8,0 -3,22 -9,43 -18,65l1 0c3,2 6,3 8,4l0 0 1 1c10,6 20,12 29,19 12,1 25,2 38,3 21,2 41,2 58,2zm-188 186l0 0c-38,0 -70,31 -70,70 0,38 32,69 70,69 39,0 70,-31 70,-69 0,-39 -31,-70 -70,-70zm155 -87l0 0c-9,-18 -18,-33 -29,-46 -23,-30 -48,-49 -72,-62 -3,-2 -5,-3 -8,-4l-1 1c0,1 -1,2 -1,3 -1,1 -1,2 -2,4l-1 1c-2,3 -4,7 -5,10 -3,5 -5,9 -8,14 -1,1 -1,1 -2,2 15,14 28,30 40,48 7,12 14,28 19,45 9,33 10,72 -6,105 5,11 8,23 8,36 0,32 -18,61 -45,76 10,-2 20,-5 30,-9 24,-10 44,-25 61,-44 17,-19 29,-41 36,-66 8,-38 5,-77 -14,-114z"/>
  </g>
 </g>
</svg>
