<?xml version="1.0" encoding="UTF-8"?>
<!DOCTYPE svg PUBLIC "-//W3C//DTD SVG 1.0//EN" "http://www.w3.org/TR/2001/REC-SVG-20010904/DTD/svg10.dtd">
<!-- Creator: CorelDRAW X7 -->
<svg xmlns="http://www.w3.org/2000/svg" xml:space="preserve" width="13.4618mm" height="13.4618mm" version="1.0" style="shape-rendering:geometricPrecision; text-rendering:geometricPrecision; image-rendering:optimizeQuality; fill-rule:evenodd; clip-rule:evenodd"
viewBox="0 0 1346 1346"
 xmlns:xlink="http://www.w3.org/1999/xlink">
 <defs>
  <style type="text/css">
   <![CDATA[
    .fil2 {fill:#059CCB}
    .fil3 {fill:#2FA6D0}
    .fil1 {fill:#49AED5}
    .fil0 {fill:#5AB4D8}
   ]]>
  </style>
 </defs>
 <g id="Warstwa_x0020_1">
  <metadata id="CorelCorpID_0Corel-Layer"/>
  <path class="fil0" d="M107 1059l346 -227 361 515c-107,0 -214,0 -320,0 -100,0 -100,0 -170,-71 -73,-72 -145,-144 -217,-217l0 0z"/>
  <path class="fil1" d="M107 1059l346 -227 -367 -524c-6,5 -11,10 -16,16 -71,70 -71,70 -71,170 0,119 0,239 0,359 0,99 0,99 71,170 12,12 24,24 37,36l0 0z"/>
  <path class="fil2" d="M965 1329l381 -889c1,14 1,31 1,54 0,119 0,239 0,359 0,99 0,99 -71,169 -84,85 -169,170 -253,254 -27,26 -43,43 -58,53z"/>
  <path class="fil3" d="M965 1329l381 -889c-1,-11 -2,-20 -4,-29l-175 -50 -714 471 361 515c13,0 26,0 39,0 62,0 86,0 112,-18z"/>
  <path class="fil3" d="M453 832l714 -471 -883 -251c-66,66 -132,132 -198,198l367 524 0 0z"/>
  <path class="fil0" d="M1167 361l89 -58c7,7 14,14 20,21 43,42 60,59 66,87l-175 -50 0 0z"/>
  <path class="fil2" d="M1167 361l89 -58c-78,-78 -156,-155 -234,-233 -70,-71 -70,-71 -169,-71 -120,0 -240,0 -359,0 -100,0 -100,0 -170,71 -14,13 -27,26 -40,40l883 251z"/>
 </g>
</svg>
