<?xml version="1.0" encoding="UTF-8"?>
<!DOCTYPE svg PUBLIC "-//W3C//DTD SVG 1.1//EN" "http://www.w3.org/Graphics/SVG/1.1/DTD/svg11.dtd">
<!-- Creator: CorelDRAW X7 -->
<svg xmlns="http://www.w3.org/2000/svg" xml:space="preserve" width="113.961mm" height="52.8318mm" version="1.1" style="shape-rendering:geometricPrecision; text-rendering:geometricPrecision; image-rendering:optimizeQuality; fill-rule:evenodd; clip-rule:evenodd"
viewBox="0 0 11396 5283"
 xmlns:xlink="http://www.w3.org/1999/xlink">
 <defs>
  <style type="text/css">
   <![CDATA[
    .fil1 {fill:#0083BB;fill-rule:nonzero}
    .fil0 {fill:#00A7D5;fill-rule:nonzero}
   ]]>
  </style>
 </defs>
 <g id="Warstwa_x0020_1">
  <metadata id="CorelCorpID_0Corel-Layer"/>
  <polygon class="fil0" points="-9,5284 -9,0 11405,0 11405,5284 "/>
  <path class="fil1" d="M10431 5284c-238,-120 -433,-308 -553,-534 -378,-715 -193,-1532 78,-2208 211,-525 474,-965 566,-1207 37,-98 72,-198 106,-299 7,-20 13,-40 20,-61 6,-19 11,-38 17,-57 101,-338 134,-646 125,-918l-509 0c-66,141 -144,285 -239,428 -78,119 -162,236 -248,352 -52,78 -105,155 -160,232 -24,35 -49,69 -73,103 -270,375 -591,787 -861,1226 -385,625 -666,1304 -545,2003 45,259 121,600 289,940l1987 0z"/>
  <path class="fil1" d="M9691 5284c-17,-6 -35,-13 -52,-19l-155 -60c-44,-20 -91,-39 -131,-59 -80,-83 -160,-172 -236,-263 -82,-93 -158,-193 -236,-290 -80,-97 -149,-201 -224,-301 -76,-100 -143,-205 -211,-310 -68,-105 -140,-208 -198,-317l-186 -323c-58,-112 -111,-227 -168,-340l-84 -171c-23,-50 -48,-113 -73,-170l-147 -347c-51,-115 -93,-234 -139,-352l-134 -353 -122 -358c-42,-118 -78,-239 -115,-359 -37,-121 -74,-241 -106,-363 -34,-121 -68,-243 -97,-365 -14,-55 -27,-109 -40,-164l-156 0c14,67 29,133 44,200 27,125 60,248 91,371 30,124 66,246 101,369 35,122 69,245 110,366l116 363 129 360c43,120 84,241 133,358l143 355c25,60 45,115 74,180l80 172c55,114 108,229 165,343l189 338c61,115 133,220 202,329 68,108 137,217 213,320 75,103 146,211 226,311 80,100 156,203 241,300 70,85 140,167 216,249l537 0z"/>
  <path class="fil1" d="M4701 5284c26,-50 50,-100 72,-152 421,-1020 64,-2107 -392,-2991 -354,-686 -768,-1251 -924,-1568 -63,-128 -124,-258 -183,-392 -11,-26 -23,-53 -35,-80 -11,-25 -20,-50 -30,-75 -4,-9 -7,-18 -11,-26l1405 0 18 21c38,43 76,87 114,130 414,474 904,993 1328,1555 603,800 1072,1686 998,2652 -20,261 -57,583 -147,926l-2213 0z"/>
  <path class="fil1" d="M2783 0c691,933 1347,2020 1179,2600 -124,432 -613,809 -1228,1124 -23,12 -47,23 -70,35 -887,441 -2007,755 -2673,918l0 607 5187 0c59,-551 113,-1055 131,-1115 87,-251 -414,-1101 -357,-1299 340,-1181 -359,-1730 -561,-2381l-655 -274 -366 -215 -587 0z"/>
 </g>
</svg>
