<?xml version="1.0" encoding="UTF-8"?>
<!DOCTYPE svg PUBLIC "-//W3C//DTD SVG 1.0//EN" "http://www.w3.org/TR/2001/REC-SVG-20010904/DTD/svg10.dtd">
<!-- Creator: CorelDRAW X7 -->
<svg xmlns="http://www.w3.org/2000/svg" xml:space="preserve" width="114.215mm" height="77.7238mm" version="1.0" style="shape-rendering:geometricPrecision; text-rendering:geometricPrecision; image-rendering:optimizeQuality; fill-rule:evenodd; clip-rule:evenodd"
viewBox="0 0 11422 7772"
 xmlns:xlink="http://www.w3.org/1999/xlink">
 <defs>
  <style type="text/css">
   <![CDATA[
    .fil1 {fill:#0082BD;fill-rule:nonzero}
    .fil0 {fill:#00A8D8;fill-rule:nonzero}
   ]]>
  </style>
 </defs>
 <g id="Warstwa_x0020_1">
  <metadata id="CorelCorpID_0Corel-Layer"/>
  <g id="_998263488">
   <polygon class="fil0" points="3,7774 3,-1 11418,-1 11418,7774 "/>
   <path class="fil1" d="M11293 5406c-601,104 -1158,-195 -1403,-657 -378,-715 -192,-1532 79,-2208 211,-525 473,-965 565,-1207 38,-98 73,-198 106,-299 7,-20 14,-40 21,-61 6,-19 11,-38 17,-57 101,-338 134,-646 124,-918l-508 0c-66,141 -145,285 -239,428 -78,119 -162,236 -248,352 -52,78 -106,155 -160,233 -25,34 -49,68 -74,103 -269,374 -591,786 -861,1225 -384,625 -665,1304 -544,2003 87,505 297,1327 1068,1828 657,426 1886,577 1986,560 27,-5 103,-103 196,-245l0 -1108c-42,12 -84,21 -125,28z"/>
   <path class="fil1" d="M9971 5371c-106,-36 -214,-68 -319,-107l-156 -60c-43,-20 -91,-39 -131,-59 -79,-83 -159,-172 -235,-262 -83,-94 -158,-194 -236,-291 -80,-96 -150,-201 -224,-301 -76,-100 -143,-205 -211,-310 -68,-105 -140,-208 -199,-317l-185 -323c-58,-112 -112,-227 -168,-340l-84 -170c-23,-51 -49,-114 -73,-171l-148 -347c-51,-115 -93,-234 -138,-352l-134 -353 -122 -358c-42,-118 -78,-239 -115,-359 -37,-121 -75,-241 -107,-363 -33,-121 -67,-242 -96,-365 -14,-54 -27,-109 -40,-164l-156 0c14,67 29,133 44,200 27,125 60,248 91,371 30,124 66,246 101,369 35,122 69,245 110,366l116 364 128 359c44,120 84,241 134,358l143 355c24,60 45,115 73,180l81 172c55,115 108,229 164,343l190 338c61,115 133,221 201,329 69,108 137,217 214,320 75,103 145,211 226,311 79,101 156,203 240,300 83,100 166,195 258,292l11 13 17 8c59,32 110,52 166,78l165 66c111,42 223,76 335,113l340 91c105,24 211,44 317,65 -135,-101 -254,-212 -355,-328l-233 -61z"/>
   <path class="fil1" d="M2965 6206c830,63 1548,-415 1820,-1075 422,-1020 65,-2106 -392,-2991 -354,-686 -767,-1250 -923,-1567 -63,-129 -124,-259 -183,-392 -12,-27 -24,-54 -35,-81 -11,-25 -21,-50 -31,-75 -3,-9 -7,-18 -10,-26l1405 0 18 21c38,43 76,87 113,130 415,474 905,993 1328,1555 604,800 1073,1687 999,2652 -53,698 -232,1842 -1216,2623 -445,353 -1121,621 -1676,794l-1180 0c-198,-238 -475,-622 -673,-947 -313,-515 -781,-1228 -789,-1285 472,428 966,629 1425,664z"/>
   <path class="fil1" d="M2796 -1c690,933 1347,2020 1179,2601 -124,431 -614,808 -1228,1123 -23,12 -47,23 -71,35 -886,441 -2006,755 -2673,919l0 750 1149 1240c0,0 592,728 1305,1107l1395 0c177,-258 -538,-697 -234,-855 0,0 441,-35 441,-35 35,-103 229,170 262,71l691 -167c51,-158 270,-2487 309,-2620 88,-251 -413,-1101 -356,-1299 340,-1181 -360,-1730 -561,-2381l-655 -274 -366 -215 -587 0z"/>
  </g>
 </g>
</svg>
