<?xml version="1.0" encoding="UTF-8"?>
<!DOCTYPE svg PUBLIC "-//W3C//DTD SVG 1.1//EN" "http://www.w3.org/Graphics/SVG/1.1/DTD/svg11.dtd">
<!-- Creator: CorelDRAW X7 -->
<svg xmlns="http://www.w3.org/2000/svg" xml:space="preserve" width="53.0858mm" height="11.5146mm" version="1.1" style="shape-rendering:geometricPrecision; text-rendering:geometricPrecision; image-rendering:optimizeQuality; fill-rule:evenodd; clip-rule:evenodd"
viewBox="0 0 5309 1151"
 xmlns:xlink="http://www.w3.org/1999/xlink">
 <defs>
  <style type="text/css">
   <![CDATA[
    .fil0 {fill:white}
   ]]>
  </style>
 </defs>
 <g id="Warstwa_x0020_1">
  <metadata id="CorelCorpID_0Corel-Layer"/>
  <g>
   <path class="fil0" d="M1473 924l26 0 0 0 1 0 0 -44 11 0c15,0 27,-4 36,-11 8,-7 12,-17 12,-30 0,-13 -4,-23 -12,-29 -8,-6 -19,-10 -34,-10l-39 0 0 124 -1 0 0 0zm361 -332l-29 0 0 -214c73,0 107,-7 107,122 0,52 -26,92 -78,92zm-1835 -136l0 4c0,82 2,148 64,209 75,74 203,68 302,41 17,-4 26,-9 43,-10l0 -268 -190 0 -5 126 49 0 0 34c-38,0 -70,7 -88,-33 -21,-46 -38,-186 83,-186 39,0 61,9 91,13 20,2 15,7 21,-12 4,-16 15,-103 24,-122 -36,-3 -61,-15 -121,-15 -103,0 -205,6 -254,126 -9,23 -19,61 -19,93zm2692 151c-49,0 -39,13 -39,-97 37,-1 20,-12 68,0 5,18 28,97 -29,97zm-399 5c-49,0 -44,-40 -44,-78 0,-51 83,-60 83,10 0,28 -2,68 -39,68zm-1655 0c-50,0 -44,-40 -44,-78 0,-51 83,-60 83,10 0,28 -2,68 -39,68zm2721 -24l0 39c-17,4 -16,4 -39,4 -9,-39 3,-35 39,-43zm-2054 0l0 39c-18,4 -16,4 -39,4 -9,-39 2,-35 39,-43zm1747 -166c0,-62 -3,-44 -53,-39 -15,1 -34,0 -49,0 -21,-1 -39,-5 -39,15l0 321 141 0 0 -161c0,-6 21,-56 88,-37l20 4c0,0 2,0 2,0 10,-1 17,-125 17,-142 -33,-8 -42,-13 -73,0 -31,13 -31,24 -54,39zm-2054 0c0,-62 -3,-44 -54,-39 -46,4 -87,-12 -87,15l0 321 141 0 0 -161c0,-6 21,-56 87,-37l23 4c9,-1 17,-125 17,-142 -33,-8 -43,-13 -74,0 -31,13 -30,24 -53,39zm-443 -68l112 0c20,-31 86,-94 92,-122l-146 0c-13,20 -56,97 -58,122zm1334 -104c-8,-8 9,-8 -24,-9l-215 1 0 438c0,21 1,17 6,24 20,15 87,19 113,23 44,6 96,0 130,-7 183,-38 210,-232 157,-358 -28,-66 -110,-127 -167,-112zm-740 148c0,26 13,86 19,112 57,-2 74,-30 137,-15l0 20c-56,0 -151,19 -169,75 -33,106 77,184 188,110 31,22 -26,19 122,19l0 -243c0,-32 -15,-53 -33,-70 -63,-61 -198,-14 -264,-8zm2054 0c1,26 14,86 20,112 56,-2 74,-30 136,-15l0 20c-56,0 -151,19 -168,75 -33,106 77,184 188,110 31,22 -26,19 121,19l0 -243c0,-32 -15,-53 -32,-70 -25,-24 -37,-24 -78,-29 -61,-8 -141,17 -187,21zm-2750 141l0 34c0,203 365,221 365,-15 0,-119 -62,-180 -181,-183 -106,-2 -184,56 -184,164zm1655 0l0 34c0,203 365,221 365,-15 0,-119 -61,-180 -181,-183 -106,-2 -184,56 -184,164zm404 -307l0 458c0,19 49,23 79,28 151,26 281,10 281,-179 0,-63 -25,-121 -64,-145 -55,-36 -107,-12 -155,13l0 -180 -141 5zm1727 -232c0,0 -2,53 -6,115 -1,27 -3,56 -6,83l-3 19 -5 26c-7,41 -26,102 -78,156 -8,10 -18,19 -30,31 -2,1 -3,3 -5,5l-10 9c-8,7 -17,15 -26,23 -1,2 -3,3 -5,5 -22,0 -47,2 -73,5 -80,8 -164,23 -164,23l-42 -149c0,0 114,32 206,33 1,0 3,0 5,0 42,0 79,-7 98,-27 34,-36 12,-164 -5,-242 -8,-37 -15,-63 -15,-63l164 -52zm-45 926l0 0c-61,0 -111,-39 -127,-89 -25,-77 7,-154 45,-216 30,-48 63,-87 77,-110 5,-9 10,-18 15,-27 1,-2 2,-4 3,-6 1,-2 2,-3 3,-5 16,-34 25,-65 28,-93 5,-38 0,-70 -7,-94 -12,39 -34,85 -74,128 -10,10 -20,20 -31,30 -6,7 -13,14 -19,21 -3,2 -6,5 -9,8 -33,33 -72,68 -106,107 -49,55 -88,117 -88,188 0,51 7,136 74,198 58,53 176,89 187,89 6,0 47,-45 72,-80 26,-36 64,-86 65,-90 -37,29 -74,41 -108,41zm-111 -468l0 0 9 -8c7,-8 13,-14 19,-20 -2,1 -3,3 -5,5l-10 9c-8,7 -17,15 -26,23 -1,2 -3,3 -5,5 1,0 3,0 4,0 4,-5 9,-9 14,-14zm126 584l0 0c-26,30 -34,34 -44,34 -11,0 -44,-10 -73,-22l-10 97 154 -64 -3 -72c-8,9 -16,19 -24,27zm401 -629l0 0c0,-8 0,-17 -1,-25 0,-17 -1,-34 -3,-51 0,-9 -1,-17 -2,-25 -1,-5 -1,-9 -2,-13l-1 -6 -1 -6 -1 -8 -8 1c-21,4 -43,7 -64,10 -22,2 -43,5 -65,7 -21,2 -43,3 -65,4 -11,1 -21,1 -32,1 -11,0 -22,0 -33,0 -11,-1 -21,-1 -32,-2 -5,-1 -11,-1 -16,-2 -6,-1 -11,-2 -16,-3 -5,0 -9,-1 -13,-2 0,2 1,5 1,7 4,1 7,2 10,2 6,2 11,3 17,3 5,1 11,2 16,3 11,1 22,2 33,3 11,0 22,1 33,1 11,0 22,0 33,0 21,0 43,-1 65,-2 22,-2 44,-4 66,-6 19,-2 38,-5 57,-8l1 5c0,4 1,8 1,12 1,9 2,17 2,25 1,17 2,33 2,50 0,8 0,17 0,25 0,8 0,16 -1,25 0,8 -1,16 -1,25l-2 25c-1,16 -4,33 -6,49l-3 25c-2,8 -3,16 -5,24 -3,16 -6,33 -10,49 -3,16 -7,32 -12,48l-6 24c-3,8 -6,16 -8,24l-8 24c-2,7 -6,15 -9,23 -5,15 -12,30 -19,45 -3,8 -7,15 -10,23l-6 11 -6 11c-7,14 -16,28 -25,42 -9,14 -18,27 -28,40 -10,13 -21,25 -32,37 -6,6 -12,11 -18,17 -5,4 -10,8 -15,12 -10,0 -21,-1 -31,-1 -11,-1 -23,-1 -35,-2 -11,-1 -23,-2 -34,-3l-8 -1 0 5 1 21 4 0c12,2 24,2 36,3 11,1 23,2 35,2 12,1 24,1 36,1l4 1 3 -3c8,-5 14,-11 21,-16 6,-6 12,-12 19,-19 12,-12 23,-25 33,-39 11,-13 21,-27 30,-42 9,-14 18,-29 26,-44l6 -11 5 -12c4,-7 8,-15 11,-23 7,-15 14,-31 19,-47 3,-8 7,-16 9,-24l8 -24c2,-8 5,-16 7,-24l7 -25c5,-16 8,-33 12,-49 4,-17 6,-34 9,-50 2,-9 3,-17 4,-25l4 -25c1,-17 3,-34 4,-51l2 -25c0,-9 0,-17 0,-26 1,-8 1,-17 1,-25zm-715 497l0 0c-10,-6 -20,-12 -29,-18l-14 -9c-4,-3 -9,-6 -12,-9 -6,-10 -12,-21 -18,-31 -6,-11 -11,-23 -17,-35 -6,-11 -10,-23 -16,-35 -5,-11 -9,-23 -14,-35 -4,-12 -9,-24 -13,-36l-11 -36c-3,-13 -6,-26 -9,-38l-5 -19c-1,-6 -2,-12 -3,-19l-7 -37c-3,-13 -4,-26 -6,-39l-6 -38 -4 -38c-2,-13 -3,-26 -4,-39 -1,-12 -2,-25 -2,-38 -1,-13 -2,-26 -2,-39 0,-11 0,-23 0,-34 7,-5 15,-10 23,-15 9,-5 18,-10 27,-15 10,-5 19,-9 28,-14 10,-4 19,-9 29,-13l29 -12 30 -11 14 -5c5,-2 10,-3 15,-4l31 -9 8 -2c2,-1 5,-1 7,-2l15 -3c11,-2 21,-5 31,-7l31 -5c11,-2 21,-3 32,-4 8,-1 17,-2 26,-2 -1,-2 -1,-3 -1,-5 -9,1 -17,2 -26,2 -10,1 -21,2 -31,3l-32 5c-10,1 -21,3 -31,5l-16 3c-2,1 -5,1 -8,2l-7 2 -31 7c-5,2 -10,3 -15,4l-16 5 -30 10 -30 11c-10,4 -20,9 -29,13 -10,4 -20,9 -29,14 -10,5 -19,9 -28,15 -10,5 -19,10 -28,16l-3 2 0 4c-1,14 -1,27 -1,40 0,13 1,26 1,39 0,13 1,26 2,39 1,13 1,26 3,39l3 38 5 39c2,13 3,26 6,39l6 38c1,7 2,13 3,20l5 19c3,12 5,25 8,38l12 38c3,12 8,25 13,37 4,12 8,25 14,36 5,12 10,25 16,37 5,11 11,23 17,35 6,12 12,23 19,35l1 1 1 1c6,5 10,8 15,12l15 10c10,7 21,13 31,19l32 16c10,5 20,9 30,14 -11,-13 -20,-27 -28,-41l-22 -11zm505 -412l0 0c56,0 92,-4 92,-4l40 -141c0,0 -110,27 -223,32 -15,0 -29,1 -41,1 -3,0 -6,0 -9,0 -3,25 -11,51 -21,77l1 0c3,2 6,4 9,5l0 1 1 0c13,7 24,15 35,23 15,2 30,3 46,4 25,2 49,2 70,2zm-227 224l0 0c-46,0 -83,38 -83,84 0,46 37,84 83,84 47,0 84,-38 84,-84 0,-46 -37,-84 -84,-84zm187 -105l0 0c-11,-21 -22,-39 -34,-55 -29,-36 -59,-58 -88,-75 -3,-1 -6,-3 -9,-5l-1 2c-1,1 -1,2 -2,4 -1,1 -1,2 -2,4l-1 2c-2,4 -5,8 -7,12 -3,5 -6,11 -9,16 -1,1 -1,2 -2,3 17,16 33,35 47,58 10,14 18,33 23,54 11,39 12,87 -6,126 6,13 9,27 9,43 0,39 -22,74 -54,92 12,-3 24,-6 36,-11 28,-12 54,-30 74,-53 19,-22 34,-49 42,-79 11,-46 7,-94 -16,-138zm538 34l0 36 -24 0 0 -89 24 0 0 36 26 -37 27 1 -32 43 33 45 -28 2 -26 -37zm387 245c2,3 2,7 2,11 0,10 -5,20 -20,20 -13,0 -21,-10 -21,-26 0,-16 9,-27 30,-27 26,0 35,13 35,30 0,6 -1,13 -2,19l-17 -3c1,-6 1,-9 1,-13 0,-7 -2,-11 -8,-11zm-13 0l0 0c-7,0 -10,2 -10,5 0,4 3,6 6,6 3,0 5,-2 5,-5 0,-2 -1,-4 -1,-6zm-25 -48l42 0 -5 -12 19 0 7 17 0 15 -63 0 0 -20zm64 -43c0,16 -9,28 -33,28 -23,0 -32,-12 -32,-28 0,-17 9,-29 32,-29 24,0 33,12 33,29zm-48 0l0 0c0,3 3,7 15,7 13,0 15,-4 15,-7 0,-4 -2,-8 -15,-8 -12,0 -15,4 -15,8zm1 -53l0 20 -17 -1 0 -45 17 -1c10,17 18,25 24,25 4,0 5,-2 5,-7 0,-4 -1,-10 -3,-15l18 -3c1,6 3,14 3,21 0,13 -5,24 -21,24 -11,0 -20,-7 -26,-18zm-230 43l-7 127 -60 0 23 -195 78 -2 24 119 22 -117 78 -2 25 197 -61 0 -7 -127 -27 126 -61 3 -27 -129zm-78 30c0,66 -38,100 -108,100 -22,0 -43,-2 -67,-8l0 -191 80 0c59,0 95,31 95,99zm-113 -45l0 0 0 90c4,1 9,1 12,1 24,0 35,-16 35,-45 0,-32 -11,-46 -29,-46l-18 0zm-219 82c23,6 48,10 66,10 13,0 13,-12 10,-16 -20,-5 -94,-8 -94,-69 0,-40 23,-64 85,-64 21,0 48,3 68,10l-11 53c-22,-6 -47,-10 -66,-10 -13,0 -13,12 -9,16 5,6 93,2 93,69 0,40 -22,64 -84,64 -21,0 -49,-3 -68,-9l10 -54zm121 -192l0 0 -47 42 -57 0 32 -42 72 0zm489 -46l9 42 7 -41 23 -1 7 42 8 -42 23 1 -17 62 -25 0 -8 -30 -7 30 -25 0 -17 -62 22 -1zm-58 -1c20,0 32,11 32,33 0,21 -12,32 -32,32 -20,0 -33,-11 -33,-32 0,-22 13,-33 33,-33zm21 -27l0 0 -17 22 -18 0 11 -22 24 0zm-21 73l0 0c6,0 10,-3 10,-13 0,-11 -4,-14 -10,-14 -6,0 -11,3 -11,14 0,10 5,13 11,13zm-80 -6l0 24 -22 0 0 -95 22 -2 0 56 16 -22 24 1 -21 28 24 33 -25 2 -18 -25zm-56 -16c0,-4 -2,-5 -6,-5 -4,0 -10,1 -21,4l-3 -18c9,-3 21,-5 29,-5 14,0 23,6 23,23l0 41 -17 0 -2 -5c-7,5 -13,6 -18,6 -10,0 -18,-6 -18,-18 0,-14 8,-19 33,-21l0 -2zm0 23l0 0 0 -8c-10,2 -13,2 -13,6 0,3 2,4 5,4 2,0 5,-1 8,-2zm-39 -23c-10,-3 -14,-4 -22,8l0 32 -22 0 0 -62 22 -1 0 9c9,-10 14,-12 24,-9l-2 23zm-3366 277l0 0 0 0 0 0 0 0c8,-2 15,-6 20,-12 8,-8 12,-20 12,-36 0,-9 -2,-18 -6,-25 -3,-8 -9,-13 -16,-17 -7,-4 -15,-6 -24,-6 -14,0 -25,4 -33,12 -9,9 -13,21 -13,36 0,10 2,19 6,26 4,8 9,14 16,18 3,1 7,3 10,4l28 0zm0 0l0 0 0 0zm78 0l1 0 -1 0 0 0 -25 0 25 0 -25 0 0 0 0 0 25 0zm-25 0l0 -95 20 0 3 16 2 0c3,-5 7,-9 12,-12 5,-4 10,-5 16,-5 3,0 6,0 8,0l-1 25c-3,-1 -5,-1 -8,-1 -8,0 -15,2 -19,6 -5,4 -7,10 -7,18l0 48 -1 0 -25 0zm126 0l1 0 0 0c3,-1 5,-2 8,-3l0 -19c-7,2 -12,3 -17,3 -3,0 -6,-1 -8,-3 -2,-1 -3,-4 -3,-8l0 -45 27 0 0 -20 -27 0 0 -20 -16 0 -8 20 -14 9 0 11 12 0 0 45c0,11 3,18 7,24 3,2 6,4 10,6l0 0 0 0 0 0 28 0 0 0 0 0zm64 0l0 0 1 0 -1 0 1 0c1,-1 2,-1 3,-2 5,-2 10,-6 14,-11l1 0 5 13 -24 0zm41 0l0 0 0 -63c0,-11 -3,-20 -10,-25 -6,-6 -16,-8 -29,-8 -13,0 -25,2 -36,8l9 17c10,-4 19,-6 26,-6 10,0 15,4 15,14l0 4 -16 1c-15,0 -25,3 -32,7 -7,5 -11,13 -11,23 0,9 3,17 8,22 3,2 6,4 10,6 0,0 0,0 0,0l66 0zm0 0l0 0 0 0 0 0 -18 0 18 0 -18 0 0 0 1 0 17 0zm-41 0l0 0 0 0zm93 0l1 0 -1 0 0 0 -26 0 26 0 -26 0 0 0 1 0 0 -132 26 0 0 132 -1 0zm115 0l0 0 17 -75 1 0 10 42 7 33 -35 0zm35 0l-35 0 0 0 -28 0 63 0 28 0 -28 0 0 0zm-35 0l35 0 -35 0zm63 0l0 0 0 0 0 0 -28 0 -63 0 0 0 1 0 -27 -95 25 0 11 42c2,8 4,18 6,31l0 0c0,-4 1,-11 3,-20l1 -7 12 -46 28 0 11 46c1,1 1,3 2,5 0,3 0,5 1,8 0,3 1,5 1,8 1,2 1,5 1,6l0 0c1,-4 2,-9 3,-17 1,-7 2,-11 3,-14l11 -42 25 0 -27 95 0 0zm96 0l1 0 -1 0 0 0 0 0 -28 0 28 0c-4,1 -9,1 -14,1 -5,0 -10,0 -14,-1l0 0 0 0 0 0 1 0 27 0zm1 0l0 0 0 0 0 0c7,-2 14,-6 19,-12 8,-8 12,-20 12,-36 0,-9 -2,-18 -5,-25 -4,-8 -9,-13 -16,-17 -7,-4 -15,-6 -24,-6 -15,0 -26,4 -34,12 -8,9 -12,21 -12,36 0,10 2,19 5,26 4,8 9,14 16,18 3,1 7,3 11,4l28 0zm78 0l0 0 0 0 0 0 -26 0 26 0 -26 0 0 0 0 0 26 0zm-26 0l0 -132 26 0 0 132 0 0 -26 0zm107 0l0 0c8,-2 15,-6 20,-12 8,-8 12,-20 12,-36 0,-9 -2,-18 -6,-25 -3,-8 -9,-13 -16,-17 -7,-4 -15,-6 -24,-6 -14,0 -25,4 -34,12 -8,9 -12,21 -12,36 0,10 2,19 6,26 4,8 9,14 16,18 3,1 7,3 10,4l28 0zm0 0l0 0 0 0 0 0zm79 0l0 0 0 -45c0,-11 1,-19 5,-24 3,-4 8,-7 15,-7 6,0 9,2 12,5 2,4 3,9 3,16l0 55 -35 0zm35 0l-35 0 0 0 -26 0 61 0 26 0 -26 0 0 0zm-35 0l35 0 -35 0zm61 0l0 0 0 -62c0,-11 -3,-19 -8,-25 -6,-6 -14,-9 -25,-9 -7,0 -12,1 -17,3 -6,3 -9,6 -12,11l-2 0 -3 -13 -20 0 0 95 0 0 0 0 61 0 26 0 0 0zm0 0l0 0 0 0zm75 0l0 0c3,-1 5,-2 8,-3l0 -19c-7,2 -12,3 -17,3 -3,0 -6,-1 -8,-3 -2,-1 -3,-4 -3,-8l0 -45 27 0 0 -20 -27 0 0 -20 -16 0 -8 20 -14 9 0 11 12 0 0 45c0,11 3,18 7,24 3,2 6,4 10,6l29 0zm0 0l0 0 0 0 0 0zm63 0l1 0c1,-1 2,-1 3,-2 5,-2 10,-6 14,-11l1 0 5 13 17 0 0 0 -18 0 -48 0 25 0c-4,1 -8,1 -14,1 -4,0 -8,0 -11,-1l0 0 0 0 0 0 0 0 25 0 0 0zm23 0l-23 0 0 0 0 0 0 0 0 0 -25 0 48 0 18 0 -18 0 0 0zm-23 0l1 0 -1 0 0 0zm0 0l23 0 -23 0zm41 0l0 0 0 0 0 0zm0 0l0 0 0 -63c0,-11 -3,-20 -10,-25 -6,-6 -16,-8 -29,-8 -13,0 -25,2 -36,8l9 17c10,-4 19,-6 26,-6 10,0 15,4 15,14l0 4 -16 1c-15,0 -25,3 -32,7 -7,5 -11,13 -11,23 0,9 3,17 8,22 3,2 6,4 10,6l66 0zm52 0l1 0 0 -48c0,-8 2,-14 7,-18 4,-4 11,-6 19,-6 3,0 5,0 7,1l2 -25c-2,0 -5,0 -8,0 -6,0 -12,1 -17,5 -5,3 -9,7 -11,12l-2 0 -4 -16 -19 0 0 95 0 0 0 0 25 0 0 0zm79 0l0 0 0 -95 -26 0 0 95 26 0zm0 0l0 0 0 0 0 0 -26 0 0 0 0 0 26 0zm73 0l0 0c1,-1 3,-1 4,-2 5,-3 9,-6 12,-10l1 0 4 12 0 0 0 0 20 0 -20 0 20 0 0 0 0 0 0 -95 -26 0 0 45c0,11 -2,19 -5,24 -3,4 -8,7 -15,7 -6,0 -10,-2 -12,-5 -2,-4 -4,-9 -4,-16l0 -55 -25 0 0 62c0,11 2,20 8,26 3,3 7,5 12,7l0 0 0 0 25 0 0 0 0 0 0 0 1 0zm0 0l0 0 0 0zm41 0l0 0 0 0zm69 0c5,-2 10,-3 13,-6 7,-5 10,-13 10,-22 0,-5 0,-9 -2,-12 -2,-4 -4,-7 -8,-9 -3,-3 -8,-6 -16,-9 -8,-3 -13,-5 -16,-7 -2,-2 -3,-4 -3,-6 0,-4 3,-6 11,-6 4,0 8,0 12,2 5,1 9,3 14,5l7 -19c-10,-5 -21,-7 -33,-7 -12,0 -21,2 -27,7 -7,4 -10,11 -10,19 0,5 1,9 2,12 2,4 4,7 8,9 3,3 8,6 16,9 5,2 9,4 12,5 3,2 5,3 6,5 1,1 2,2 2,5 0,5 -5,8 -14,8 -4,0 -10,-1 -16,-3 -6,-1 -11,-3 -16,-5l0 21c4,2 8,3 12,4l0 0 0 0 36 0 0 0 0 0 0 0 0 0 0 0zm0 0l0 0 0 0zm109 0l0 0 0 0 0 0 -74 0 74 0 -74 0 0 0 0 0 74 0zm-74 0l0 -15 43 -60 -41 0 0 -20 71 0 0 17 -43 58 44 0 0 20 0 0 -74 0zm117 0l-1 0 1 0zm25 0l0 0 0 0 0 0zm0 0l0 0 36 -95 -28 0 -17 53c-2,6 -3,11 -4,17l-1 0c0,-6 -1,-12 -3,-17l-17 -53 -29 0 38 94 0 1 25 0zm120 0l0 -45c0,-11 1,-19 5,-24 3,-4 8,-7 15,-7 5,0 9,2 12,5 2,4 3,9 3,16l0 55 -35 0 0 0 -26 0 61 0 26 0 -26 0 0 0 0 0 -35 0 0 0zm35 0l0 0 0 0 26 0 0 0 0 0 -26 0 -61 0 26 0 -26 0 0 0 0 -95 20 0 3 13 2 0c2,-5 6,-8 11,-11 5,-2 11,-3 18,-3 10,0 19,3 24,9 6,6 9,14 9,25l0 62 -26 0zm90 0c1,-1 2,-1 3,-2 5,-2 9,-6 14,-11l0 0 5 13 0 0 -22 0zm40 0l0 -63c0,-11 -3,-20 -10,-25 -6,-6 -16,-8 -29,-8 -13,0 -25,2 -36,8l9 17c10,-4 19,-6 26,-6 10,0 15,4 15,14l0 4 -17 1c-14,0 -24,3 -31,7 -7,5 -11,13 -11,23 0,9 3,17 8,22 3,2 6,4 10,6l66 0zm-66 0l0 0 0 0zm-1933 -66l9 0c8,0 14,-1 18,-4 4,-4 6,-8 6,-14 0,-6 -2,-11 -5,-14 -4,-3 -9,-4 -16,-4l-12 0 0 36zm101 18c0,10 1,17 4,22 3,4 8,7 15,7 7,0 12,-3 15,-7 3,-5 5,-12 5,-22 0,-9 -2,-16 -5,-21 -3,-4 -8,-7 -15,-7 -7,0 -12,3 -15,7 -3,5 -4,12 -4,21zm292 4l-10 0c-7,1 -13,2 -17,4 -3,3 -5,7 -5,12 0,7 4,11 12,11 6,0 11,-2 15,-6 3,-3 5,-8 5,-13l0 -8zm318 -4c0,10 2,17 5,22 3,4 8,7 15,7 6,0 11,-3 14,-7 3,-5 5,-12 5,-22 0,-9 -2,-16 -5,-21 -3,-4 -8,-7 -15,-7 -6,0 -11,3 -14,7 -4,5 -5,12 -5,21zm160 0c0,10 1,17 4,22 3,4 8,7 15,7 7,0 12,-3 15,-7 3,-5 5,-12 5,-22 0,-9 -2,-16 -5,-21 -3,-4 -8,-7 -15,-7 -7,0 -12,3 -15,7 -3,5 -4,12 -4,21zm327 4l-10 0c-7,1 -13,2 -17,4 -3,3 -5,7 -5,12 0,7 4,11 12,11 6,0 11,-2 15,-6 3,-3 5,-8 5,-13l0 -8zm129 -75c0,-8 5,-13 14,-13 10,0 14,5 14,13 0,4 -1,7 -3,9 -2,3 -6,4 -11,4 -9,0 -14,-5 -14,-13zm647 75l-10 0c-8,1 -13,2 -17,4 -3,3 -5,7 -5,12 0,7 4,11 12,11 6,0 11,-2 14,-6 4,-3 6,-8 6,-13l0 -8zm-1869 44l1 0 0 0 28 0 0 0 0 0 -28 0 0 0 0 0c4,1 8,1 13,1 6,0 10,0 15,-1l0 0 0 0 -28 0 0 0 -1 0zm246 0l1 0 0 0 25 0 0 0 0 0 -25 0 25 0 0 0 0 0c-4,1 -9,1 -14,1 -4,0 -8,0 -11,-1 0,0 0,0 0,0l0 0c0,0 0,0 0,0l-1 0zm525 0l0 0 0 0 28 0 0 0 0 0 0 0 0 0 0 0 -28 0 28 0c-5,1 -9,1 -15,1 -4,0 -9,0 -13,-1l0 0 0 0zm214 0l0 0 0 0 29 0 0 0 0 0 -1 0 1 0 -1 0 -28 0 28 0c-4,1 -10,1 -15,1 -5,0 -10,0 -13,-1l0 0 0 0zm599 0l0 0 25 0 0 0 0 0 0 0 -25 0 25 0 -5 12c-3,10 -8,17 -15,22 -7,5 -15,7 -24,7 -4,0 -9,0 -13,-1l0 -21c3,1 6,1 10,1 5,0 9,-1 12,-4 3,-2 6,-7 8,-12l1 -4 1 0 0 0zm244 0l0 0 25 0 1 0 0 0 0 0 -1 0 -25 0 25 0c-4,1 -8,1 -14,1 -4,0 -8,0 -11,-1l0 0 0 0zm48 0l18 0 0 0 0 0 -18 0 0 0zm-1696 0l0 0 28 0 0 0 0 0c-5,1 -10,1 -16,1 -4,0 -9,0 -12,-1l0 0zm459 0l0 0 0 0zm584 0l26 0 -26 0zm73 0l25 0c-4,1 -8,1 -12,1 -5,0 -9,0 -13,-1l0 0zm100 0l36 0c-5,1 -11,1 -17,1 -7,0 -13,0 -18,-1 0,0 -1,0 -1,0l0 0zm213 0l0 0 0 0zm244 0l1 0 -1 0z"/>
  </g>
 </g>
</svg>
