<?xml version="1.0" encoding="UTF-8"?>
<!DOCTYPE svg PUBLIC "-//W3C//DTD SVG 1.0//EN" "http://www.w3.org/TR/2001/REC-SVG-20010904/DTD/svg10.dtd">
<!-- Creator: CorelDRAW X7 -->
<svg xmlns="http://www.w3.org/2000/svg" xml:space="preserve" width="54.9486mm" height="11.5146mm" version="1.0" style="shape-rendering:geometricPrecision; text-rendering:geometricPrecision; image-rendering:optimizeQuality; fill-rule:evenodd; clip-rule:evenodd"
viewBox="0 0 5495 1151"
 xmlns:xlink="http://www.w3.org/1999/xlink">
 <defs>
  <style type="text/css">
   <![CDATA[
    .fil0 {fill:#FEFEFE}
   ]]>
  </style>
 </defs>
 <g id="Warstwa_x0020_1">
  <metadata id="CorelCorpID_0Corel-Layer"/>
  <g>
   <path class="fil0" d="M1722 924l27 0 0 0 0 0 0 -44 12 0c15,0 27,-4 35,-11 8,-7 12,-17 12,-30 0,-13 -4,-23 -11,-29 -8,-6 -19,-10 -34,-10l-40 0 0 124 -1 0 0 0zm112 -332l-29 0 0 -214c73,0 107,-7 107,122 0,52 -26,92 -78,92zm-1835 -136l0 4c0,82 2,148 64,209 75,74 202,67 302,41 17,-4 25,-9 42,-10l0 -268 -189 0 -5 126 48 0 0 34c-38,0 -69,7 -87,-33 -21,-46 -39,-186 83,-186 39,0 61,9 90,13 21,2 16,7 21,-12 5,-16 16,-103 25,-122 -37,-3 -62,-15 -122,-15 -102,0 -204,6 -253,126 -9,23 -19,60 -19,93zm2692 151c-49,0 -39,13 -39,-97 37,-1 20,-12 68,0 4,18 28,97 -29,97zm-399 5c-50,0 -44,-40 -44,-78 0,-51 83,-60 83,10 0,28 -2,68 -39,68zm-1656 0c-49,0 -44,-40 -44,-78 0,-51 83,-60 83,10 0,28 -2,68 -39,68zm2722 -24l0 39c-17,4 -16,4 -39,4 -9,-39 3,-35 39,-43zm-2055 0l0 39c-17,4 -16,4 -39,4 -9,-39 3,-35 39,-43zm1748 -166c0,-62 -3,-44 -54,-39 -14,1 -33,0 -48,0 -21,-1 -39,-5 -39,15l0 321 141 0 0 -161c0,-6 21,-56 87,-37l20 4c1,0 2,0 3,0 9,-1 17,-125 17,-142 -33,-8 -43,-13 -73,0 -32,13 -31,24 -54,39zm-2054 0c0,-62 -4,-44 -54,-39 -47,4 -88,-12 -88,15l0 321 142 0 0 -161c0,-6 20,-56 87,-37l22 4c10,-1 17,-125 17,-142 -32,-8 -42,-13 -73,0 -31,13 -31,24 -53,39zm-443 -68l112 0c20,-31 85,-94 92,-122l-146 0c-13,20 -56,97 -58,122zm1334 -104c-8,-8 9,-8 -24,-9l-215 1 0 438c0,21 0,17 5,24 21,15 88,19 114,23 44,6 96,0 130,-7 183,-38 210,-232 157,-358 -28,-66 -111,-127 -167,-112zm-740 148c0,26 13,86 19,112 56,-2 74,-30 136,-15l0 20c-56,0 -151,19 -168,75 -33,106 77,184 188,110 31,22 -26,19 122,19l0 -243c0,-32 -16,-53 -33,-70 -63,-61 -199,-14 -264,-8zm2054 0c1,26 14,86 20,112 56,-2 73,-30 136,-15l0 20c-56,0 -151,19 -168,75 -34,106 76,184 187,110 32,22 -25,19 122,19l0 -243c0,-32 -15,-53 -33,-70 -24,-24 -36,-24 -78,-29 -61,-9 -141,17 -186,21zm-2751 141l0 34c0,203 365,221 365,-15 0,-119 -61,-180 -180,-183 -106,-2 -185,56 -185,164zm1656 0l0 34c0,203 365,221 365,-15 0,-119 -62,-180 -181,-183 -106,-2 -184,56 -184,164zm404 -307l0 458c0,19 48,23 78,28 152,26 282,10 282,-179 0,-63 -25,-121 -64,-145 -55,-36 -107,-12 -155,13l0 -180 -141 5zm1913 -232c0,0 -2,53 -5,115 -2,27 -4,56 -6,83l-3 19 -5 26c-7,41 -27,101 -78,156 -9,10 -18,19 -30,31 -2,1 -4,3 -6,5l-9 9c-8,7 -17,15 -26,23 -2,2 -4,3 -5,5 -22,0 -48,2 -74,5 -80,8 -164,23 -164,23l-42 -150c0,0 114,33 206,34 2,0 4,0 5,0 43,0 80,-7 99,-27 34,-36 12,-164 -5,-242 -8,-37 -16,-63 -16,-63l164 -52zm-44 926l0 0c-61,0 -111,-39 -127,-89 -26,-77 7,-154 45,-216 30,-48 63,-87 76,-110 6,-9 11,-18 16,-27 1,-2 2,-4 3,-6 1,-2 2,-3 2,-5 17,-34 26,-65 29,-93 4,-38 -1,-70 -7,-94 -13,39 -35,85 -75,128 -9,10 -20,20 -30,30 -7,7 -13,14 -20,20 -3,3 -6,6 -9,9 -33,33 -71,68 -106,107 -48,55 -87,117 -87,188 0,51 6,136 74,198 57,53 176,89 186,89 7,0 47,-45 73,-80 25,-36 64,-86 64,-90 -36,29 -74,41 -107,41zm-112 -468l0 0 9 -9c7,-7 14,-13 20,-19 -2,1 -4,3 -6,5l-9 9c-8,7 -17,15 -26,23 -2,2 -4,3 -5,5 1,0 2,0 3,0 5,-5 10,-9 14,-14zm127 584l0 0c-26,30 -35,34 -45,34 -11,0 -44,-10 -72,-22l-10 97 154 -64 -4 -72c-7,9 -15,19 -23,27zm400 -629l0 0c0,-8 0,-17 0,-25 -1,-17 -1,-34 -3,-51 -1,-9 -1,-17 -3,-25 0,-5 -1,-9 -1,-13l-1 -6 -1 -6 -2 -8 -7 1c-21,4 -43,7 -65,10 -21,2 -43,5 -64,7 -22,2 -43,3 -65,4 -11,1 -22,1 -33,1 -10,0 -21,0 -32,0 -11,-1 -22,-1 -32,-2 -6,-1 -11,-1 -17,-2 -5,-1 -10,-2 -16,-3 -4,0 -8,-1 -13,-2 1,2 1,4 2,7 3,1 7,2 10,2 5,2 11,3 16,3 6,1 11,2 17,3 11,1 21,2 32,3 11,0 22,1 33,1 11,0 22,0 33,0 22,0 44,-1 66,-2 22,-2 43,-4 65,-6 19,-2 38,-5 58,-8l0 5c1,4 1,8 2,12 0,9 1,17 2,25 1,17 1,33 1,50 1,8 0,17 0,25 0,8 0,16 0,25 -1,8 -1,16 -2,25l-2 24c-1,17 -3,34 -5,50l-4 25c-1,8 -2,16 -4,24 -3,16 -6,33 -10,49 -4,16 -7,32 -12,48l-7 24c-2,8 -5,16 -8,24l-7 24c-3,7 -6,15 -9,23 -6,15 -12,30 -19,45 -3,8 -7,15 -11,23l-5 11 -6 11c-8,14 -17,28 -25,42 -9,14 -19,27 -29,40 -10,13 -21,25 -32,37 -6,6 -11,11 -17,17 -5,4 -11,8 -16,12 -10,0 -20,-1 -30,-1 -12,-1 -23,-1 -35,-2 -12,-1 -23,-2 -35,-3l-8 -1 1 5 1 21 4 0c11,2 23,2 35,3 12,1 24,2 36,2 11,1 23,1 35,1l4 0 3 -2c8,-5 15,-11 21,-17 7,-5 13,-11 19,-18 12,-12 23,-25 34,-39 11,-13 20,-27 30,-42 9,-14 18,-29 25,-44l6 -11 6 -12c4,-7 8,-15 11,-23 7,-15 13,-31 19,-47 3,-8 6,-16 9,-24l7 -24c3,-8 6,-16 8,-24l7 -25c4,-16 8,-33 11,-49 5,-17 7,-34 10,-50 2,-9 3,-17 4,-25l3 -25c2,-17 4,-34 5,-51l1 -25c1,-9 1,-17 1,-26 0,-8 0,-17 0,-25zm-714 497l0 0c-10,-6 -20,-12 -30,-18l-14 -9c-4,-3 -8,-6 -12,-9 -6,-10 -12,-21 -17,-31 -6,-11 -12,-23 -17,-35 -6,-11 -11,-23 -16,-35 -5,-11 -10,-23 -14,-35 -5,-12 -10,-24 -13,-36l-11 -36c-4,-13 -7,-26 -10,-38l-4 -19c-1,-6 -3,-12 -4,-19l-7 -37c-2,-13 -4,-26 -6,-39l-5 -38 -5 -38c-1,-13 -2,-26 -3,-39 -1,-12 -2,-25 -3,-38 0,-13 -1,-26 -1,-39 -1,-11 -1,-23 0,-34 7,-5 15,-10 23,-15 8,-5 18,-10 27,-15 9,-5 19,-9 28,-14 9,-4 19,-9 29,-13l29 -12 29 -11 15 -5c5,-2 10,-3 15,-4l31 -9 7 -2c2,-1 5,-1 8,-2l15 -3c10,-2 21,-5 31,-7l31 -5c10,-2 21,-3 31,-4 9,-1 18,-2 26,-3 0,-1 0,-2 -1,-4 -8,1 -17,2 -25,2 -11,1 -21,2 -32,3l-31 5c-11,1 -21,3 -32,5l-15 3c-3,1 -5,1 -8,2l-8 2 -30 7c-6,2 -11,3 -16,4l-15 5 -31 10 -29 11c-10,4 -20,9 -30,13 -9,4 -19,9 -28,14 -10,5 -19,9 -29,15 -9,5 -18,10 -27,16l-3 2 -1 4c0,14 0,27 0,40 0,13 0,26 1,39 0,13 1,26 2,39 0,13 1,26 2,39l4 38 5 39c2,13 3,26 5,39l7 38c1,7 2,13 3,20l4 19c3,12 6,25 9,38l11 38c4,12 9,25 13,37 5,12 9,25 14,36 6,12 10,25 16,36 6,12 11,24 17,36 6,12 13,23 20,35l0 1 2 1c5,5 10,8 15,12l15 10c10,7 20,12 31,19l32 16c10,5 20,9 30,14 -11,-13 -21,-27 -28,-41l-22 -11zm504 -412l0 0c57,0 92,-4 92,-4l41 -141c0,0 -111,27 -223,32 -15,0 -29,1 -41,1 -3,0 -6,0 -10,0 -3,25 -10,51 -21,77l1 0c4,2 7,4 10,5l0 1 0 0c13,7 25,15 36,23 14,2 29,3 45,4 26,2 50,2 70,2zm-226 224l0 0c-46,0 -84,38 -84,84 0,46 38,84 84,84 46,0 84,-38 84,-84 0,-46 -38,-84 -84,-84zm187 -105l0 0c-11,-21 -23,-39 -35,-55 -28,-36 -58,-58 -87,-75 -3,-1 -6,-3 -10,-5l0 1c-1,2 -2,3 -2,5 -1,1 -2,2 -3,4l-1 2c-2,4 -4,8 -6,12 -3,5 -6,11 -10,16 0,1 -1,2 -1,3 17,16 33,35 47,58 9,14 17,33 23,54 11,39 12,87 -6,126 6,13 9,27 9,43 0,39 -22,74 -54,92 12,-3 24,-6 35,-11 29,-12 54,-30 74,-53 20,-22 35,-49 43,-79 11,-46 7,-94 -16,-138zm537 34l0 36 -24 0 0 -89 24 0 0 36 26 -37 27 1 -31 43 33 45 -29 1 -26 -36zm388 245c1,3 2,7 2,11 0,10 -5,20 -20,20 -13,0 -21,-10 -21,-26 0,-16 9,-27 29,-27 26,0 35,13 35,30 0,6 0,13 -2,19l-17 -3c1,-6 2,-9 2,-13 0,-7 -2,-11 -8,-11zm-14 0l0 0c-7,0 -9,2 -9,5 0,4 2,6 6,6 2,0 4,-2 4,-5 0,-2 0,-4 -1,-6zm-24 -48l42 0 -5 -12 19 0 6 17 0 15 -62 0 0 -20zm63 -43c0,16 -8,28 -32,28 -24,0 -32,-12 -32,-28 0,-17 8,-29 32,-29 24,0 32,12 32,29zm-47 0l0 0c0,3 3,7 15,7 12,0 15,-4 15,-7 0,-4 -3,-8 -15,-8 -12,0 -15,4 -15,8zm1 -53l0 20 -17 -1 0 -45 17 -1c10,17 18,25 23,25 4,0 6,-2 6,-7 0,-4 -1,-10 -3,-15l17 -3c2,6 3,14 3,21 0,13 -5,24 -21,24 -10,0 -19,-7 -25,-18zm-230 43l-7 127 -61 0 24 -195 78 -2 23 119 22 -117 78 -2 26 197 -61 0 -8 -127 -26 126 -61 3 -27 -129zm-79 30c0,66 -37,100 -108,100 -21,0 -42,-2 -66,-8l0 -191 80 0c58,0 94,31 94,99zm-112 -45l0 0 0 90c4,1 8,1 12,1 24,0 34,-16 34,-45 0,-32 -10,-46 -29,-46l-17 0zm-219 82c23,6 48,10 66,10 13,0 13,-12 9,-16 -19,-5 -93,-8 -93,-69 0,-40 23,-64 84,-64 22,0 49,3 68,10l-10 53c-23,-6 -47,-10 -66,-10 -13,0 -13,12 -9,16 5,6 93,2 93,69 0,40 -23,64 -84,64 -22,0 -49,-3 -69,-9l11 -54zm121 -192l0 0 -47 42 -57 0 32 -42 72 0zm489 -46l8 42 7 -41 23 -1 8 42 8 -42 22 1 -16 62 -25 0 -8 -30 -8 30 -25 0 -16 -62 22 -1zm-59 -1c21,0 33,11 33,33 0,21 -12,32 -33,32 -20,0 -32,-11 -32,-32 0,-22 12,-33 32,-33zm21 -27l0 0 -16 22 -18 0 11 -22 23 0zm-21 73l0 0c6,0 11,-3 11,-13 0,-11 -5,-14 -11,-14 -6,0 -10,3 -10,14 0,10 4,13 10,13zm-79 -6l0 24 -22 0 0 -95 22 -2 0 56 15 -22 25 1 -22 28 25 33 -26 1 -17 -24zm-57 -16c0,-4 -1,-5 -5,-5 -4,0 -11,1 -21,4l-3 -18c9,-3 20,-5 29,-5 14,0 22,6 22,22l0 42 -16 0 -2 -5c-8,5 -13,6 -18,6 -10,0 -19,-6 -19,-18 0,-14 9,-19 33,-21l0 -2zm0 23l0 0 0 -8c-9,2 -12,2 -12,6 0,3 2,4 4,4 3,0 5,-1 8,-2zm-39 -23c-10,-3 -13,-4 -22,8l0 32 -21 0 0 -62 21 -1 0 9c9,-10 15,-12 25,-9l-3 23zm-3303 277l1 0 0 0 0 0 0 0c8,-2 14,-6 19,-12 8,-8 12,-20 12,-36 0,-9 -2,-18 -5,-25 -4,-8 -9,-13 -16,-17 -7,-4 -15,-6 -24,-6 -15,0 -26,4 -34,12 -8,9 -12,21 -12,36 0,10 2,19 5,26 4,8 9,14 16,17 4,2 7,4 11,5l27 0zm0 0l1 0 -1 0zm79 0l0 0 0 0 0 0 -26 0 26 0 -26 0 0 0 1 0 25 0zm-25 0l0 -95 19 0 4 16 1 0c3,-5 7,-9 12,-12 5,-4 10,-5 16,-5 4,0 7,0 9,0l-2 25c-2,-1 -5,-1 -8,-1 -8,0 -14,2 -19,6 -4,4 -7,10 -7,18l0 48 0 0 -25 0zm126 0l0 0 0 0c3,-1 6,-2 8,-3l0 -19c-6,2 -12,3 -16,3 -4,0 -6,-1 -8,-3 -2,-1 -3,-4 -3,-8l0 -45 26 0 0 -20 -26 0 0 -20 -17 0 -7 20 -14 9 0 11 12 0 0 45c0,11 2,18 7,24 2,2 6,4 10,6l-1 0 0 0 0 0 29 0 0 0 0 0zm64 0l0 0 0 0 0 0 0 0c1,-1 3,-1 4,-2 4,-2 9,-6 13,-11l1 0 5 13 -23 0zm40 0l1 0 0 -63c0,-11 -3,-20 -10,-25 -7,-6 -17,-9 -29,-9 -14,0 -26,3 -36,9l8 17c10,-4 19,-6 27,-6 9,0 14,4 14,14l0 4 -16 1c-14,0 -25,3 -32,7 -7,5 -10,13 -10,23 0,9 2,16 8,22 2,2 6,4 9,6 0,0 0,0 0,0l66 0zm0 0l1 0 -1 0 0 0 -18 0 18 0 -18 0 0 0 1 0 17 0zm-40 0l0 0 0 0zm93 0l0 0 0 0 0 0 -26 0 26 0 -26 0 0 0 0 0 0 -132 26 0 0 132 0 0zm114 0l1 0 17 -75 1 0 9 42 8 33 -36 0zm35 0l-35 0 0 0 -27 0 62 0 28 0 -28 0 0 0zm-35 0l35 0 -35 0zm63 0l1 0 -1 0 0 0 -28 0 -62 0 0 0 0 0 -27 -95 26 0 11 42c1,8 3,18 5,31l1 0c0,-4 1,-11 2,-20l2 -7 11 -46 29 0 11 46c0,1 0,3 1,5 0,3 1,5 1,8 1,3 1,5 2,8 0,2 0,5 0,6l1 0c0,-4 1,-9 2,-17 2,-7 3,-11 3,-14l11 -42 26 0 -27 95 -1 0zm97 0l0 0 0 0 0 0 0 0 -28 0 28 0c-5,1 -10,1 -15,1 -5,0 -9,0 -14,-1l1 0 -1 0 1 0 0 0 28 0zm0 0l0 0 0 0 0 0c8,-2 14,-6 19,-12 9,-8 13,-20 13,-36 0,-9 -2,-18 -6,-25 -4,-8 -9,-13 -16,-17 -7,-4 -15,-6 -24,-6 -14,0 -26,4 -34,12 -8,9 -12,21 -12,36 0,10 2,19 6,26 3,8 9,14 16,17 3,2 6,4 10,5l28 0zm78 0l1 0 -1 0 0 0 -26 0 26 0 -26 0 0 0 1 0 25 0zm-25 0l0 -132 26 0 0 132 -1 0 -25 0zm107 0l0 0c8,-2 14,-6 19,-12 8,-8 12,-20 12,-36 0,-9 -2,-18 -5,-25 -4,-8 -9,-13 -16,-17 -7,-4 -15,-6 -24,-6 -15,0 -26,4 -34,12 -8,9 -12,21 -12,36 0,10 2,19 5,26 4,8 9,14 16,17 4,2 7,4 11,5l28 0zm0 0l0 0 0 0 0 0zm78 0l0 0 0 -45c0,-11 2,-19 5,-24 3,-4 8,-7 16,-7 5,0 9,2 11,5 3,4 4,9 4,16l0 55 -36 0zm36 0l-36 0 0 0 -26 0 62 0 25 0 -25 0 0 0zm-36 0l36 0 -36 0zm61 0l1 0 0 -62c0,-11 -3,-20 -9,-25 -6,-6 -14,-9 -25,-9 -6,0 -12,1 -17,3 -5,2 -9,6 -12,10l-1 0 -4 -12 -19 0 0 95 -1 0 0 0 62 0 25 0 0 0zm1 0l-1 0 1 0zm74 0l0 0c3,-1 6,-2 8,-3l0 -19c-6,2 -12,3 -16,3 -4,0 -6,-1 -8,-3 -2,-1 -3,-4 -3,-8l0 -45 26 0 0 -20 -26 0 0 -20 -17 0 -7 20 -14 9 0 11 12 0 0 45c0,11 2,18 7,24 2,2 6,4 10,6l28 0zm0 0l0 0 0 0 0 0zm64 0l0 0c1,-1 3,-1 4,-2 4,-2 9,-6 13,-11l1 0 5 13 18 0 0 0 -18 0 -49 0 26 0c-4,1 -9,1 -14,1 -5,0 -9,0 -12,-1l0 0 0 0 0 0 0 0 26 0 0 0zm23 0l-23 0 0 0 0 0 0 0 0 0 -26 0 49 0 18 0 -18 0 0 0zm-23 0l0 0 0 0 0 0zm0 0l23 0 -23 0zm41 0l0 0 0 0 0 0zm0 0l0 0 0 -63c0,-11 -3,-20 -10,-25 -7,-6 -17,-9 -29,-9 -14,0 -26,3 -36,9l8 17c10,-4 19,-6 27,-6 9,0 14,4 14,14l0 4 -16 1c-14,0 -25,3 -32,7 -7,5 -10,13 -10,23 0,9 2,16 8,22 2,2 6,4 9,6l67 0zm52 0l0 0 0 -48c0,-8 2,-14 7,-18 5,-4 11,-6 19,-6 3,0 6,0 8,1l2 -25c-3,0 -6,0 -9,0 -6,0 -11,1 -16,5 -5,3 -9,7 -12,12l-1 0 -4 -16 -20 0 0 95 0 0 0 0 26 0 0 0zm78 0l1 0 0 -95 -26 0 0 95 25 0zm0 0l1 0 -1 0 0 0 -25 0 0 0 0 0 25 0zm73 0l0 0c2,-1 3,-1 5,-2 5,-3 9,-6 12,-10l1 0 3 12 0 0 0 0 20 0 -20 0 20 0 0 0 0 0 0 -95 -26 0 0 45c0,11 -1,19 -4,24 -4,4 -9,7 -16,7 -5,0 -9,-2 -12,-5 -2,-4 -3,-9 -3,-16l0 -55 -26 0 0 62c0,11 3,20 9,26 3,3 7,5 12,7l-1 0 0 0 26 0 0 0 0 0 0 0 0 0zm0 0l0 0 0 0zm41 0l0 0 0 0zm70 0c5,-2 9,-3 13,-6 7,-5 10,-13 10,-22 0,-5 -1,-9 -3,-12 -1,-4 -4,-7 -7,-9 -4,-3 -9,-6 -16,-9 -9,-3 -14,-5 -16,-7 -3,-2 -4,-4 -4,-6 0,-4 4,-6 11,-6 5,0 9,0 13,2 4,1 8,3 13,5l8 -19c-11,-5 -22,-7 -33,-7 -12,0 -21,2 -28,7 -6,4 -10,11 -10,19 0,5 1,9 3,12 1,4 4,7 7,9 4,3 9,6 16,9 5,2 9,4 12,5 3,2 5,3 7,5 1,1 2,2 2,5 0,5 -5,8 -14,8 -5,0 -10,-1 -16,-3 -6,-1 -12,-3 -16,-5l0 21c3,2 7,3 11,4l0 0 0 0 36 0 0 0 0 0 0 0 1 0 0 0zm-1 0l1 0 -1 0zm110 0l0 0 0 0 0 0 -75 0 75 0 -75 0 0 0 0 0 75 0zm-75 0l0 -15 44 -60 -41 0 0 -20 70 0 0 17 -42 58 44 0 0 20 0 0 -75 0zm117 0l0 0 0 0zm26 0l0 0 0 0 0 0zm0 0l0 0 35 -95 -28 0 -17 53c-2,6 -3,11 -4,17l0 0c-1,-6 -2,-12 -3,-17l-18 -53 -28 0 37 94 0 1 26 0zm-1715 -66l9 0c8,0 14,-1 18,-4 4,-4 6,-8 6,-14 0,-6 -2,-11 -5,-14 -3,-3 -9,-4 -16,-4l-12 0 0 36zm101 18c0,10 2,17 5,22 3,4 8,7 15,7 7,0 11,-3 14,-7 3,-5 5,-12 5,-22 0,-9 -2,-16 -5,-21 -3,-4 -8,-7 -14,-7 -7,0 -12,3 -15,7 -3,5 -5,12 -5,21zm292 4l-10 0c-7,1 -13,2 -16,4 -4,3 -6,7 -6,12 0,7 4,11 13,11 6,0 10,-2 14,-6 4,-3 5,-8 5,-13l0 -8zm318 -4c0,10 2,17 5,22 3,4 8,7 15,7 7,0 12,-3 15,-7 3,-5 4,-12 4,-22 0,-9 -1,-16 -4,-21 -3,-4 -8,-7 -15,-7 -7,0 -12,3 -15,7 -3,5 -5,12 -5,21zm160 0c0,10 2,17 5,22 3,4 8,7 15,7 6,0 11,-3 14,-7 3,-5 5,-12 5,-22 0,-9 -2,-16 -5,-21 -3,-4 -8,-7 -15,-7 -6,0 -11,3 -14,7 -3,5 -5,12 -5,21zm327 4l-10 0c-7,1 -13,2 -16,4 -4,3 -6,7 -6,12 0,7 4,11 13,11 6,0 10,-2 14,-6 4,-3 5,-8 5,-13l0 -8zm130 -75c0,-8 4,-13 14,-13 9,0 14,5 14,13 0,4 -1,7 -4,9 -2,3 -6,4 -10,4 -10,0 -14,-5 -14,-13zm-1222 119l1 0 0 0 27 0 0 0 0 0 -28 0 0 0 0 0c4,1 9,1 14,1 5,0 10,0 14,-1l0 0 0 0 -28 0 0 0 0 0zm246 0l0 0 0 0 26 0 -1 0 0 0 -25 0 25 0 0 0 0 0c-4,1 -8,1 -14,1 -4,0 -8,0 -11,-1 0,0 0,0 0,0l0 0c0,0 0,0 0,0l0 0zm524 0l1 0 0 0 28 0 0 0 0 0 -1 0 1 0 -1 0 -28 0 28 0c-4,1 -9,1 -14,1 -5,0 -10,0 -14,-1l0 0 0 0zm214 0l1 0 0 0 28 0 0 0 0 0 0 0 0 0 0 0 -29 0 29 0c-5,1 -10,1 -16,1 -5,0 -9,0 -13,-1l0 0 0 0zm599 0l0 0 25 0 1 0 0 0 -1 0 -25 0 25 0 -4 12c-4,10 -9,17 -16,22 -7,5 -15,7 -24,7 -4,0 -8,0 -13,-1l0 -21c3,1 7,1 10,1 5,0 9,-1 12,-4 4,-2 6,-7 8,-12l2 -4 0 0 0 0zm-1404 0l0 0 29 0 0 0 0 0c-5,1 -10,1 -16,1 -5,0 -9,0 -13,-1l0 0zm460 0l0 0 0 0zm584 0l25 0 -25 0zm72 0l26 0c-4,1 -8,1 -13,1 -5,0 -9,0 -13,-1l0 0zm100 0l36 0c-5,1 -10,1 -17,1 -7,0 -12,0 -17,-1 -1,0 -1,0 -2,0l0 0zm213 0l1 0 -1 0z"/>
  </g>
 </g>
</svg>
