<?xml version="1.0" encoding="UTF-8"?>
<!DOCTYPE svg PUBLIC "-//W3C//DTD SVG 1.0//EN" "http://www.w3.org/TR/2001/REC-SVG-20010904/DTD/svg10.dtd">
<!-- Creator: CorelDRAW X7 -->
<svg xmlns="http://www.w3.org/2000/svg" xml:space="preserve" width="1.4392mm" height="1.4392mm" version="1.0" style="shape-rendering:geometricPrecision; text-rendering:geometricPrecision; image-rendering:optimizeQuality; fill-rule:evenodd; clip-rule:evenodd"
viewBox="0 0 144 144"
 xmlns:xlink="http://www.w3.org/1999/xlink">
 <defs>
  <style type="text/css">
   <![CDATA[
    .fil0 {fill:#0082BD;fill-rule:nonzero}
   ]]>
  </style>
 </defs>
 <g id="Warstwa_x0020_1">
  <metadata id="CorelCorpID_0Corel-Layer"/>
  <path class="fil0" d="M61 3c16,0 30,6 41,16 10,11 16,25 16,41 0,13 -4,25 -11,35l33 33 -14 13 -33 -34c-9,6 -20,10 -32,10 -15,0 -30,-6 -40,-17 -10,-10 -17,-24 -17,-40 0,-16 7,-30 17,-41 10,-10 25,-16 40,-16zm27 30c-6,-7 -16,-11 -27,-11 -10,0 -20,4 -27,11 -7,7 -11,16 -11,27 0,10 4,20 11,27 7,7 17,11 27,11 11,0 20,-4 27,-11 7,-7 12,-17 12,-27 0,-11 -5,-20 -12,-27z"/>
 </g>
</svg>
