<?xml version="1.0" standalone="no"?>
<!DOCTYPE svg PUBLIC "-//W3C//DTD SVG 20010904//EN"
 "http://www.w3.org/TR/2001/REC-SVG-20010904/DTD/svg10.dtd">
<svg version="1.0" xmlns="http://www.w3.org/2000/svg"
 width="16.000000pt" height="16.000000pt" viewBox="0 0 16.000000 16.000000"
 preserveAspectRatio="xMidYMid meet">
<metadata>
Created by potrace 1.11, written by Peter Selinger 2001-2013
</metadata>
<g transform="translate(0.000000,16.000000) scale(0.000833,-0.000833)"
fill="#000000" stroke="none">
<path d="M9885 18265 c-331 -53 -673 -244 -989 -553 -128 -125 -183 -192 -341
-416 -169 -240 -268 -379 -330 -466 -26 -36 -85 -119 -132 -185 -99 -141 -327
-463 -430 -608 -40 -56 -78 -110 -85 -121 -7 -10 -20 -28 -29 -40 -9 -11 -33
-45 -53 -75 -21 -29 -124 -175 -230 -325 -175 -247 -217 -305 -295 -418 -14
-20 -58 -80 -96 -135 -39 -54 -78 -109 -88 -123 -9 -14 -31 -46 -49 -71 -18
-25 -159 -223 -312 -440 -154 -217 -291 -410 -305 -429 -25 -34 -346 -486
-440 -620 -25 -36 -95 -135 -156 -220 -60 -85 -118 -166 -127 -180 -9 -14 -93
-133 -187 -265 -94 -132 -176 -248 -183 -259 -7 -10 -20 -28 -29 -40 -9 -11
-81 -113 -161 -226 -258 -365 -647 -914 -665 -940 -32 -43 -1166 -1554 -1190
-1585 -13 -16 -27 -34 -31 -40 -10 -13 -443 -589 -548 -730 -46 -60 -87 -114
-91 -120 -5 -5 -33 -44 -63 -85 -30 -41 -59 -80 -65 -86 -5 -6 -19 -23 -30
-38 -80 -109 -98 -133 -108 -146 -7 -8 -93 -123 -192 -255 -99 -132 -183 -244
-188 -250 -15 -19 -132 -175 -152 -202 -39 -53 -494 -658 -503 -669 -5 -6 -48
-62 -94 -125 -364 -489 -667 -1106 -809 -1646 -16 -62 -28 -113 -54 -234 -4
-20 -14 -81 -21 -129 -3 -19 -7 -46 -9 -60 -29 -192 -27 -577 5 -750 5 -30 12
-71 15 -90 13 -79 97 -361 114 -385 4 -5 18 -37 31 -70 48 -121 165 -316 274
-455 61 -79 88 -110 192 -220 44 -47 100 -107 124 -133 135 -149 441 -378 727
-545 118 -69 382 -203 493 -251 30 -13 78 -34 105 -47 165 -74 568 -219 790
-284 195 -57 599 -159 695 -176 14 -2 39 -7 55 -11 17 -4 35 -8 40 -9 6 -1 60
-11 120 -23 61 -11 124 -23 140 -26 17 -3 46 -8 65 -10 19 -3 44 -7 56 -10 12
-2 39 -7 60 -10 21 -4 77 -12 124 -20 47 -7 107 -16 133 -20 27 -4 56 -8 66
-10 9 -2 47 -6 83 -9 37 -4 75 -8 85 -10 16 -3 94 -12 193 -22 19 -2 59 -6 88
-9 94 -9 156 -15 227 -20 39 -3 93 -7 120 -10 28 -2 93 -7 145 -10 52 -3 136
-7 185 -10 50 -3 144 -7 210 -10 158 -5 382 -14 525 -20 153 -6 472 -19 760
-30 85 -3 209 -8 275 -10 66 -3 188 -7 270 -10 83 -3 206 -8 275 -11 69 -2
181 -7 250 -9 69 -2 206 -7 305 -10 676 -24 988 -29 1730 -29 651 -1 923 4
1205 19 297 16 540 32 590 40 14 2 59 6 100 10 41 3 87 8 103 9 15 2 55 7 90
10 55 6 104 12 243 31 23 3 59 8 80 10 22 3 50 7 64 10 14 2 41 7 60 10 19 3
46 7 60 10 14 3 39 7 55 9 133 21 238 43 396 82 101 25 191 47 199 49 152 33
762 224 1140 359 198 70 593 222 710 273 62 27 73 31 225 97 83 35 190 83 238
105 49 23 90 41 93 41 8 0 520 255 609 303 44 24 109 60 145 79 114 62 332
189 430 251 52 33 118 73 145 90 128 79 587 404 615 436 3 3 41 35 85 71 291
236 586 536 782 795 29 39 57 75 61 80 25 32 146 223 187 295 145 257 258 572
290 815 4 28 11 77 15 110 7 57 4 397 -4 460 -9 62 -17 111 -22 135 -3 14 -8
36 -10 50 -22 119 -97 348 -161 490 -95 211 -155 310 -379 625 -55 77 -120
169 -145 205 -25 36 -155 220 -289 410 -396 561 -481 681 -528 750 -278 398
-540 763 -569 795 -7 8 -13 17 -13 22 0 4 -9 19 -20 33 -11 14 -80 111 -153
215 -73 105 -229 325 -347 490 -117 165 -234 329 -259 365 -25 36 -49 70 -54
75 -7 9 -271 380 -307 432 -8 12 -60 84 -115 160 -55 76 -119 165 -142 198
-84 119 -114 161 -166 235 -30 41 -195 275 -368 520 -174 245 -346 489 -385
543 -38 54 -99 139 -135 190 -173 242 -695 981 -704 995 -5 10 -22 33 -36 52
-15 19 -44 60 -65 91 -22 31 -113 160 -204 288 -91 128 -183 259 -205 291 -22
31 -48 68 -57 81 -10 13 -41 58 -70 99 -231 326 -847 1197 -1223 1726 -77 109
-161 227 -186 263 -25 36 -135 192 -244 346 -109 154 -223 316 -253 360 -170
249 -353 454 -512 575 -18 14 -38 30 -44 35 -18 16 -75 55 -80 55 -3 0 -25 13
-49 30 -92 62 -252 126 -390 156 -95 21 -310 26 -412 9z"/>
</g>
</svg>
